<svg width="17" height="17" viewBox="0 0 17 17" fill="none" xmlns="http://www.w3.org/2000/svg">
<g clip-path="url(#clip0_1534_4761)">
<path fill-rule="evenodd" clip-rule="evenodd" d="M15.5744 2.86104C15.7489 3.60064 15.6363 4.3789 15.2592 5.03864C14.091 3.32915 12.3062 2.13954 10.2792 1.71764C10.7433 1.11594 11.4185 0.712788 12.1683 0.589611C12.9182 0.466434 13.6868 0.63241 14.3191 1.05402C14.9513 1.47562 15.3999 2.12144 15.5744 2.86104ZM7.02651 1.71678C7.02673 1.71706 7.02695 1.71735 7.02717 1.71764V1.71664C7.02695 1.71669 7.02673 1.71673 7.02651 1.71678ZM5.13803 0.589611C5.88752 0.712729 6.56241 1.11555 7.02651 1.71678C4.99967 2.13861 3.21502 3.32919 2.04717 5.03864C1.67008 4.3789 1.55741 3.60064 1.73191 2.86104C1.90641 2.12144 2.35507 1.47562 2.98729 1.05402C3.61951 0.63241 4.38817 0.466434 5.13803 0.589611ZM3.1532 9.54364C3.1532 6.50607 5.61563 4.04364 8.6532 4.04364C11.6908 4.04364 14.1532 6.50607 14.1532 9.54364C14.1532 12.5812 11.6908 15.0436 8.6532 15.0436C5.61563 15.0436 3.1532 12.5812 3.1532 9.54364ZM8.6532 2.54364C4.7872 2.54364 1.6532 5.67765 1.6532 9.54364C1.6532 13.4096 4.7872 16.5436 8.6532 16.5436C12.5192 16.5436 15.6532 13.4096 15.6532 9.54364C15.6532 5.67765 12.5192 2.54364 8.6532 2.54364ZM9.4032 7.46031C9.4032 7.04609 9.06741 6.71031 8.6532 6.71031C8.23898 6.71031 7.9032 7.04609 7.9032 7.46031V8.79364H6.56986C6.15565 8.79364 5.81986 9.12943 5.81986 9.54364C5.81986 9.95785 6.15565 10.2936 6.56986 10.2936H7.9032V11.627C7.9032 12.0412 8.23898 12.377 8.6532 12.377C9.06741 12.377 9.4032 12.0412 9.4032 11.627V10.2936H10.7365C11.1507 10.2936 11.4865 9.95785 11.4865 9.54364C11.4865 9.12943 11.1507 8.79364 10.7365 8.79364H9.4032V7.46031Z" fill="black"/>
</g>
<defs>
<clipPath id="clip0_1534_4761">
<rect width="16" height="16" fill="white" transform="translate(0.653198 0.549927)"/>
</clipPath>
</defs>
</svg>
