<svg width="17" height="17" viewBox="0 0 17 17" fill="none" xmlns="http://www.w3.org/2000/svg">
<g clip-path="url(#clip0_1534_4784)">
<path fill-rule="evenodd" clip-rule="evenodd" d="M15.5744 2.86104C15.7489 3.60064 15.6363 4.3789 15.2592 5.03864C14.091 3.32915 12.3062 2.13954 10.2792 1.71764C10.7433 1.11594 11.4185 0.712788 12.1683 0.589611C12.9182 0.466434 13.6868 0.63241 14.3191 1.05402C14.9513 1.47562 15.3999 2.12144 15.5744 2.86104ZM7.02651 1.71678C7.02673 1.71706 7.02695 1.71735 7.02717 1.71764V1.71664C7.02695 1.71669 7.02673 1.71673 7.02651 1.71678ZM5.13803 0.589611C5.88752 0.712729 6.56241 1.11555 7.02651 1.71678C4.99967 2.13861 3.21502 3.32919 2.04717 5.03864C1.67008 4.3789 1.55741 3.60064 1.73191 2.86104C1.90641 2.12144 2.35507 1.47562 2.98729 1.05402C3.61951 0.63241 4.38817 0.466434 5.13803 0.589611ZM3.1532 9.54364C3.1532 6.50607 5.61563 4.04364 8.6532 4.04364C11.6908 4.04364 14.1532 6.50607 14.1532 9.54364C14.1532 12.5812 11.6908 15.0436 8.6532 15.0436C5.61563 15.0436 3.1532 12.5812 3.1532 9.54364ZM8.6532 2.54364C4.7872 2.54364 1.6532 5.67765 1.6532 9.54364C1.6532 13.4096 4.7872 16.5436 8.6532 16.5436C12.5192 16.5436 15.6532 13.4096 15.6532 9.54364C15.6532 5.67765 12.5192 2.54364 8.6532 2.54364ZM11.3468 8.41707C11.5876 8.08001 11.5095 7.6116 11.1725 7.37084C10.8354 7.13008 10.367 7.20815 10.1262 7.54521L8.03666 10.4706L7.10019 9.53414C6.8073 9.24125 6.33243 9.24125 6.03953 9.53414C5.74664 9.82704 5.74664 10.3019 6.03953 10.5948L7.60203 12.1573C7.75793 12.3132 7.97451 12.3926 8.19423 12.3744C8.41394 12.3562 8.61452 12.2423 8.74266 12.0629L11.3468 8.41707Z" fill="black"/>
</g>
<defs>
<clipPath id="clip0_1534_4784">
<rect width="16" height="16" fill="white" transform="translate(0.653198 0.549927)"/>
</clipPath>
</defs>
</svg>
