<svg width="17" height="17" viewBox="0 0 17 17" fill="none" xmlns="http://www.w3.org/2000/svg">
<g clip-path="url(#clip0_1534_4789)">
<path clip-rule="evenodd" d="M2.54488 5.31046C3.57763 4.38158 4.91754 3.86766 6.30657 3.86768L8.44908 3.86771C9.68882 3.86772 10.8766 4.36545 11.7461 5.24923L12.9555 6.47864C12.9947 6.51846 13.0423 6.54903 13.0948 6.56811L15.5693 7.46713C16.2117 7.70052 16.6394 8.31096 16.6394 8.99445V10.1547C16.6394 10.8481 16.1994 11.4652 15.5437 11.6911L15.1995 11.8096C14.9152 12.575 14.1783 13.1204 13.3139 13.1204C12.4708 13.1204 11.7489 12.6015 11.4501 11.8657H5.98275C5.68396 12.6015 4.96206 13.1204 4.11897 13.1204C3.24338 13.1204 2.49851 12.5608 2.22254 11.7797C2.17797 11.7537 2.13591 11.7218 2.09752 11.6838L1.12875 10.7264C0.819846 10.4211 0.645996 10.0049 0.645996 9.57061V8.18794C0.645996 7.4435 0.962084 6.73407 1.51558 6.23624L2.54488 5.31046ZM11.3643 10.6157C11.5844 9.74399 12.3738 9.09885 13.3139 9.09885C14.2001 9.09885 14.9525 9.67219 15.2202 10.4682C15.3241 10.4 15.3894 10.283 15.3894 10.1547V8.99445C15.3894 8.83672 15.2907 8.69585 15.1425 8.64199L13.2593 7.95784C13.2146 7.968 13.1681 7.97336 13.1203 7.97336L5.46226 7.97336C5.09706 7.97336 4.76253 7.79912 4.56398 7.50864C4.35992 7.2101 4.32019 6.81504 4.50131 6.45897C4.67044 6.12646 4.92428 5.70239 5.29447 5.23633C4.58788 5.40435 3.92874 5.747 3.38079 6.23984L2.35149 7.16562C2.06157 7.42639 1.896 7.798 1.896 8.18794V9.57061C1.896 9.67083 1.93612 9.76689 2.0074 9.83734L2.3419 10.1679C2.67961 9.53195 3.34871 9.09885 4.11897 9.09885C5.05906 9.09885 5.84847 9.74399 6.06863 10.6157H11.3643ZM7.11666 5.11769C6.46134 5.71165 6.04183 6.28551 5.78211 6.72336H11.4428L10.855 6.12584C10.2205 5.48093 9.35374 5.11772 8.44906 5.11771L7.11666 5.11769ZM4.11897 11.8704C4.53913 11.8704 4.87974 11.5298 4.87974 11.1096C4.87974 10.6895 4.53913 10.3489 4.11897 10.3489C3.6988 10.3489 3.35819 10.6895 3.35819 11.1096C3.35819 11.5298 3.6988 11.8704 4.11897 11.8704ZM14.0747 11.1096C14.0747 11.5298 13.7341 11.8704 13.3139 11.8704C12.8937 11.8704 12.5531 11.5298 12.5531 11.1096C12.5531 10.6895 12.8937 10.3489 13.3139 10.3489C13.7341 10.3489 14.0747 10.6895 14.0747 11.1096Z" fill="black"/>
</g>
<defs>
<clipPath id="clip0_1534_4789">
<rect width="16" height="16" fill="white" transform="translate(0.653198 0.549927)"/>
</clipPath>
</defs>
</svg>
