<svg width="17" height="17" viewBox="0 0 17 17" fill="none" xmlns="http://www.w3.org/2000/svg">
<g clip-path="url(#clip0_1534_4780)">
<path fill-rule="evenodd" clip-rule="evenodd" d="M14.2932 4.56659L13.5262 3.19852C13.0396 2.33077 12.1223 1.79346 11.1275 1.79346H6.24429C5.25548 1.79346 4.34279 2.32433 3.85391 3.18383L3.02356 4.64369L2.88024 4.41345L1.40769 4.41349C0.99348 4.41351 0.657703 4.7493 0.657715 5.16352C0.657727 5.57773 0.993523 5.91351 1.40774 5.91349L2.04712 5.91348L2.16496 6.10278C1.32373 6.33394 0.69519 7.10431 0.69519 8.03199V14.1237C0.69519 14.676 1.14291 15.1237 1.69519 15.1237H3.19519C3.74748 15.1237 4.19519 14.676 4.19519 14.1237L4.19519 13.3117H13.1146V14.1237C13.1146 14.676 13.5623 15.1237 14.1146 15.1237H15.6146C16.1669 15.1237 16.6146 14.676 16.6146 14.1237V10.8205L16.6146 10.8117V8.05123C16.6146 7.13183 15.9976 6.36794 15.1692 6.12884L15.1305 6.0599L15.2217 5.91348L15.8611 5.91349C16.2753 5.91351 16.6111 5.57773 16.6111 5.16352C16.6111 4.7493 16.2753 4.41351 15.8611 4.41349L14.3886 4.41345L14.2932 4.56659ZM6.24429 3.29346C5.79483 3.29346 5.37998 3.53476 5.15776 3.92545L3.90504 6.12787L6.36693 6.33773C8.15002 6.48972 9.94314 6.48187 11.7248 6.31426L13.3916 6.15745C13.3951 6.12376 13.4009 6.09014 13.4091 6.05683L12.2178 3.93212C11.9966 3.53769 11.5797 3.29346 11.1275 3.29346H6.24429ZM15.104 7.94809L12.9319 8.61479C12.3036 8.80764 11.8249 9.31968 11.6749 9.95957C11.601 10.2747 11.8656 10.5661 12.1863 10.523L15.1146 10.1287V10.8117C15.1146 11.364 14.6669 11.8117 14.1146 11.8117H3.19519C2.64291 11.8117 2.19519 11.364 2.19519 10.8117V10.1287L5.1235 10.523C5.44426 10.5661 5.70887 10.2747 5.63497 9.95957C5.48491 9.31968 5.00629 8.80764 4.37797 8.61479L2.20236 7.94702C2.24522 7.69601 2.47471 7.51138 2.73766 7.53379L6.23953 7.83231C8.11178 7.9919 9.99455 7.98366 11.8653 7.80766L14.5678 7.55343C14.8259 7.52915 15.0531 7.70484 15.104 7.94809Z" fill="black"/>
</g>
<defs>
<clipPath id="clip0_1534_4780">
<rect width="16" height="16" fill="white" transform="translate(0.653198 0.549927)"/>
</clipPath>
</defs>
</svg>
