<svg width="17" height="17" viewBox="0 0 17 17" fill="none" xmlns="http://www.w3.org/2000/svg">
<path fill-rule="evenodd" clip-rule="evenodd" d="M16.2703 3.12837C16.4848 3.34288 16.6052 3.63378 16.6052 3.93709C16.6052 4.24041 16.4848 4.5313 16.2703 4.74581L7.11928 13.8968C6.90477 14.1113 6.61388 14.2318 6.31056 14.2318C6.00725 14.2318 5.71635 14.1113 5.50184 13.8968L0.926325 9.32133C0.717958 9.10559 0.602662 8.81664 0.605268 8.51672C0.607874 8.2168 0.728175 7.9299 0.940259 7.71782C1.15234 7.50573 1.43924 7.38543 1.73916 7.38283C2.03908 7.38022 2.32803 7.49552 2.54377 7.70388L6.31056 11.4707L14.6529 3.12837C14.8674 2.91393 15.1583 2.79346 15.4616 2.79346C15.7649 2.79346 16.0558 2.91393 16.2703 3.12837Z" fill="black"/>
</svg>
