<svg width="17" height="17" viewBox="0 0 17 17" fill="none" xmlns="http://www.w3.org/2000/svg">
<g clip-path="url(#clip0_1534_4786)">
<path d="M11.306 2.81673C11.1096 2.12036 10.4696 1.60999 9.71038 1.60999H7.50007C6.74086 1.60999 6.10086 2.12036 5.90443 2.81673M11.306 2.81673C11.3465 2.96011 11.3681 3.11139 11.3681 3.26771C11.3681 3.57289 11.1207 3.82029 10.8155 3.82029H6.39492C6.08974 3.82029 5.84235 3.57289 5.84235 3.26771C5.84235 3.11139 5.86398 2.96011 5.90443 2.81673M11.306 2.81673C11.7821 2.85268 12.2556 2.89806 12.7262 2.95268C13.5371 3.04678 14.131 3.74588 14.131 4.5622V14.3192C14.131 15.2348 13.3888 15.977 12.4733 15.977H4.73719C3.82166 15.977 3.07947 15.2348 3.07947 14.3192V4.5622C3.07947 3.74588 3.67336 3.04678 4.48425 2.95268C4.95489 2.89806 5.42834 2.85268 5.90443 2.81673M5.79272 10.0747L8.04272 12.3247L11.4177 7.26222" stroke="black" stroke-width="1.5" stroke-linecap="round" stroke-linejoin="round"/>
</g>
<defs>
<clipPath id="clip0_1534_4786">
<rect width="16" height="16" fill="white" transform="translate(0.605225 0.793457)"/>
</clipPath>
</defs>
</svg>
