<svg width="17" height="17" viewBox="0 0 17 17" fill="none" xmlns="http://www.w3.org/2000/svg">
<g clip-path="url(#clip0_1534_4763)">
<path fill-rule="evenodd" clip-rule="evenodd" d="M10.8303 1.79341L8.79274 3.15376C8.72753 3.19729 8.66651 3.24397 8.60964 3.29341H6.24425C5.79478 3.29341 5.37993 3.53471 5.15771 3.9254L3.90499 6.12782L6.36688 6.33768C7.42919 6.42823 8.49506 6.46205 9.55995 6.43915L10.3495 6.81167L9.82002 7.93308C8.62611 7.9674 7.43067 7.9338 6.23948 7.83226L2.73761 7.53375C2.47466 7.51133 2.24517 7.69597 2.20231 7.94698L4.37792 8.61474C5.00624 8.80759 5.48486 9.31964 5.63492 9.95952C5.70882 10.2746 5.44421 10.5661 5.12345 10.5229L2.19514 10.1286V10.8116C2.19514 11.3639 2.64286 11.8116 3.19514 11.8116H8.89372C9.38431 12.5564 10.427 12.9231 11.3333 12.318L12.0918 11.8116H14.1146C14.6669 11.8116 15.1146 11.3639 15.1146 10.8116V10.1287L14.4858 10.2133L16.6146 8.7921V10.8116L16.6146 10.8205V14.1237C16.6146 14.676 16.1669 15.1237 15.6146 15.1237H14.1146C13.5623 15.1237 13.1146 14.676 13.1146 14.1237V13.3116H4.19514L4.19514 14.1237C4.19514 14.676 3.74743 15.1237 3.19514 15.1237H1.69514C1.14286 15.1237 0.695141 14.676 0.695141 14.1237V8.03194C0.695141 7.10426 1.32368 6.33389 2.16491 6.10273L2.04707 5.91343L1.40769 5.91345C0.993473 5.91346 0.657677 5.57768 0.657665 5.16347C0.657653 4.74926 0.99343 4.41346 1.40764 4.41345L2.88019 4.41341L3.02351 4.64364L3.85386 3.18379C4.34274 2.32428 5.25543 1.79341 6.24425 1.79341H10.8303Z" fill="black"/>
<mask id="path-2-inside-1_1534_4763" fill="white">
<path fill-rule="evenodd" clip-rule="evenodd" d="M10.1737 4.67973C10.0474 4.62014 10.0345 4.44551 10.1507 4.36797L15.7872 0.604874C15.9387 0.503775 16.1271 0.66625 16.0493 0.8309L14.2072 4.73266C14.1649 4.82236 14.2033 4.92942 14.293 4.97174L16.4967 6.01151C16.623 6.0711 16.6359 6.24573 16.5198 6.32327L10.8832 10.0864C10.7317 10.1875 10.5433 10.025 10.6211 9.86034L12.4632 5.95858C12.5056 5.86888 12.4672 5.76182 12.3775 5.7195L10.1737 4.67973Z"/>
</mask>
<path fill-rule="evenodd" clip-rule="evenodd" d="M10.1737 4.67973C10.0474 4.62014 10.0345 4.44551 10.1507 4.36797L15.7872 0.604874C15.9387 0.503775 16.1271 0.66625 16.0493 0.8309L14.2072 4.73266C14.1649 4.82236 14.2033 4.92942 14.293 4.97174L16.4967 6.01151C16.623 6.0711 16.6359 6.24573 16.5198 6.32327L10.8832 10.0864C10.7317 10.1875 10.5433 10.025 10.6211 9.86034L12.4632 5.95858C12.5056 5.86888 12.4672 5.76182 12.3775 5.7195L10.1737 4.67973Z" fill="black"/>
<path d="M10.8832 10.0864L11.3618 10.8033L10.8832 10.0864ZM16.4967 6.01151L16.8645 5.23193L16.4967 6.01151ZM16.5198 6.32327L16.9984 7.04018L16.5198 6.32327ZM14.2072 4.73266L14.9867 5.10068L14.2072 4.73266ZM14.293 4.97174L14.6608 4.19216L14.293 4.97174ZM10.1507 4.36797L10.6293 5.08487L10.1507 4.36797ZM15.7872 0.604874L16.2659 1.32178L15.7872 0.604874ZM16.0493 0.8309L16.8288 1.19892L16.0493 0.8309ZM16.2659 1.32178L10.6293 5.08487L9.67203 3.65106L15.3086 -0.112035L16.2659 1.32178ZM13.4277 4.36464L15.2699 0.46288L16.8288 1.19892L14.9867 5.10068L13.4277 4.36464ZM16.1289 6.79108L13.9251 5.75132L14.6608 4.19216L16.8645 5.23193L16.1289 6.79108ZM10.4046 9.36946L16.0411 5.60637L16.9984 7.04018L11.3618 10.8033L10.4046 9.36946ZM13.2427 6.3266L11.4006 10.2284L9.84159 9.49232L11.6837 5.59056L13.2427 6.3266ZM10.5416 3.90015L12.7453 4.93992L12.0096 6.49907L9.80591 5.45931L10.5416 3.90015ZM11.6837 5.59056C11.5228 5.93143 11.6687 6.33822 12.0096 6.49907L12.7453 4.93992C13.2656 5.18542 13.4883 5.80632 13.2427 6.3266L11.6837 5.59056ZM11.3618 10.8033C10.4835 11.3896 9.39071 10.4473 9.84159 9.49232L11.4006 10.2284C11.696 9.60268 10.98 8.98528 10.4046 9.36946L11.3618 10.8033ZM16.8645 5.23193C17.5971 5.57757 17.6721 6.59042 16.9984 7.04018L16.0411 5.60637C15.5998 5.90103 15.6489 6.56463 16.1289 6.79108L16.8645 5.23193ZM14.9867 5.10068C15.1476 4.75981 15.0017 4.35301 14.6608 4.19216L13.9251 5.75132C13.4048 5.50581 13.1821 4.88492 13.4277 4.36464L14.9867 5.10068ZM10.6293 5.08487C11.0706 4.79021 11.0215 4.12661 10.5416 3.90015L9.80591 5.45931C9.07334 5.11367 8.99836 4.10081 9.67203 3.65106L10.6293 5.08487ZM15.3086 -0.112035C16.1869 -0.698402 17.2797 0.243932 16.8288 1.19892L15.2699 0.46288C14.9745 1.08857 15.6904 1.70595 16.2659 1.32178L15.3086 -0.112035Z" fill="black" mask="url(#path-2-inside-1_1534_4763)"/>
</g>
<defs>
<clipPath id="clip0_1534_4763">
<rect width="16" height="16" fill="white" transform="translate(0.653198 0.549927)"/>
</clipPath>
</defs>
</svg>
