<svg width="17" height="17" viewBox="0 0 17 17" fill="none" xmlns="http://www.w3.org/2000/svg">
<g clip-path="url(#clip0_724_4714)">
<path d="M0.670616 10.4582C0.628456 10.5617 0.605225 10.6748 0.605225 10.7935C0.605225 10.9169 0.63037 11.0344 0.675817 11.1412C0.713679 11.2304 0.766771 11.3146 0.835094 11.39C0.846108 11.4021 0.857453 11.414 0.869117 11.4255L4.42113 14.9775C4.76826 15.3246 5.33107 15.3246 5.67821 14.9775C6.02534 14.6304 6.02534 14.0676 5.67821 13.7205L3.64009 11.6823H12.1608C14.6154 11.6823 16.6052 9.69248 16.6052 7.2379V3.68235C16.6052 3.19142 16.2073 2.79346 15.7163 2.79346C15.2254 2.79346 14.8274 3.19142 14.8274 3.68235V7.2379C14.8274 8.7107 13.6336 9.90457 12.1608 9.90457H3.64006L5.67821 7.86642C6.02534 7.51931 6.02534 6.95648 5.67821 6.60935C5.33107 6.26222 4.76826 6.26222 4.42113 6.60935L0.865571 10.1649C0.778991 10.2515 0.714006 10.3515 0.670616 10.4582Z" fill="black"/>
</g>
<defs>
<clipPath id="clip0_724_4714">
<rect width="16" height="16" fill="white" transform="translate(0.605225 0.793457)"/>
</clipPath>
</defs>
</svg>
