<svg width="17" height="17" viewBox="0 0 17 17" fill="none" xmlns="http://www.w3.org/2000/svg">
<g clip-path="url(#clip0_1534_4773)">
<path d="M9.67416 7.71069H11.1846L9.37407 10.4173L11.4169 13.4268H9.84922L8.60525 11.5669L8.04507 12.4043H8.60525V13.4268H5.79364L7.83643 10.4173L6.02586 7.71069H7.53634L8.60525 9.28548L9.67416 7.71069Z" fill="black"/>
<path fill-rule="evenodd" clip-rule="evenodd" d="M3.9211 0.879395H7.5031C11.5695 0.879395 14.866 4.17589 14.866 8.24232V15.1308C14.866 16.0015 14.1602 16.7074 13.2894 16.7074H3.9211C3.05036 16.7074 2.34448 16.0015 2.34448 15.1308V2.45601C2.34448 1.58527 3.05036 0.879395 3.9211 0.879395ZM3.84448 2.45601C3.84448 2.4137 3.87878 2.37939 3.9211 2.37939H7.22756C8.18293 2.37939 8.95741 3.15387 8.95741 4.10924V5.2114C8.95741 6.08214 9.66328 6.78801 10.534 6.78801H11.6362C12.5915 6.78801 13.366 7.56249 13.366 8.51786V15.1308C13.366 15.1731 13.3317 15.2074 13.2894 15.2074H3.9211C3.87878 15.2074 3.84448 15.1731 3.84448 15.1308V2.45601ZM10.4574 4.10924C10.4574 3.75066 10.399 3.40572 10.2911 3.08343C11.2932 3.62612 12.1193 4.45225 12.662 5.45432C12.3397 5.34645 11.9948 5.28801 11.6362 5.28801H10.534C10.4917 5.28801 10.4574 5.25371 10.4574 5.2114V4.10924Z" fill="black"/>
</g>
<defs>
<clipPath id="clip0_1534_4773">
<rect width="16" height="16" fill="white" transform="translate(0.605225 0.793457)"/>
</clipPath>
</defs>
</svg>
