<svg width="17" height="17" viewBox="0 0 17 17" fill="none" xmlns="http://www.w3.org/2000/svg">
<path d="M3.57739 2.22418H4.99301L4.99297 4.71061C4.99296 5.40097 5.55261 5.96063 6.24297 5.96063H10.992C11.6824 5.96063 12.242 5.40098 12.242 4.71062L12.242 2.22418H12.2467C12.5792 2.22418 12.8979 2.35661 13.1325 2.59217L14.6146 4.08061C14.8479 4.31487 14.9789 4.63201 14.9789 4.96262V13.6257C14.9789 14.316 14.4192 14.8757 13.7289 14.8757H3.57739C2.88704 14.8757 2.32739 14.316 2.32739 13.6257V3.47418C2.32739 2.78383 2.88704 2.22418 3.57739 2.22418ZM6.49301 2.22418H10.742L10.742 4.46063H6.49297L6.49301 2.22418ZM13.1316 14.4665L13.1317 9.33178C13.1317 8.64142 12.572 8.08177 11.8817 8.08177H5.42151C4.73116 8.08177 4.17151 8.64141 4.17151 9.33177L4.17154 14.4665L5.67154 14.4665L5.67151 9.58177H11.6317L11.6316 14.4665L13.1316 14.4665Z" stroke="black" stroke-width="1.5"/>
</svg>
