<svg width="17" height="17" viewBox="0 0 17 17" fill="none" xmlns="http://www.w3.org/2000/svg">
<g clip-path="url(#clip0_1534_4755)">
<path fill-rule="evenodd" clip-rule="evenodd" d="M3.6969 0.584961C2.7304 0.584961 1.9469 1.36846 1.9469 2.33496V15.0499H1.4032C0.988985 15.0499 0.653198 15.3857 0.653198 15.7999C0.653198 16.2141 0.988985 16.5499 1.4032 16.5499H2.53281C2.58562 16.5617 2.64053 16.5679 2.6969 16.5679H11.4077C11.4641 16.5679 11.519 16.5617 11.5718 16.5499H12.7014C13.1156 16.5499 13.4514 16.2141 13.4514 15.7999C13.4514 15.3857 13.1156 15.0499 12.7014 15.0499H12.1577V9.52408H12.5981C12.7362 9.52408 12.8481 9.63601 12.8481 9.77408V12.7538C12.8481 13.7203 13.6316 14.5038 14.5981 14.5038H14.9023C15.8688 14.5038 16.6523 13.7203 16.6523 12.7538V7.79791C16.6523 6.84539 16.4157 5.9078 15.9637 5.06936L14.4923 2.3399C14.2957 1.9753 13.8408 1.83906 13.4762 2.03562C13.1116 2.23218 12.9753 2.68709 13.1719 3.0517L14.6433 5.78115C14.9774 6.40087 15.1523 7.09387 15.1523 7.79791V12.7538C15.1523 12.8919 15.0404 13.0038 14.9023 13.0038H14.5981C14.46 13.0038 14.3481 12.8919 14.3481 12.7538V9.77408C14.3481 8.80758 13.5646 8.02408 12.5981 8.02408H12.1577V2.33496C12.1577 1.36846 11.3742 0.584961 10.4077 0.584961H3.6969ZM10.6577 15.0499V6.66449H10.3374L3.76721 6.66449H3.4469V15.0499H10.6577ZM3.4469 5.16449H3.76721L10.3374 5.16449H10.6577V2.33496C10.6577 2.19689 10.5458 2.08496 10.4077 2.08496H3.6969C3.55883 2.08496 3.4469 2.19689 3.4469 2.33496V5.16449Z" fill="black"/>
</g>
<defs>
<clipPath id="clip0_1534_4755">
<rect width="16" height="16" fill="white" transform="translate(0.653198 0.549927)"/>
</clipPath>
</defs>
</svg>
