<svg width="17" height="17" viewBox="0 0 17 17" fill="none" xmlns="http://www.w3.org/2000/svg">
<g clip-path="url(#clip0_1534_4778)">
<path d="M4.00746 12.5777C2.77247 12.9442 2.00513 13.457 2.00513 14.0245C2.00513 15.1384 4.96012 16.0413 8.60529 16.0413C12.2505 16.0413 15.2054 15.1384 15.2054 14.0245C15.2054 13.4569 14.438 12.9441 13.2028 12.5776M10.4328 6.17713C10.4328 7.18643 9.61459 8.00462 8.60529 8.00462C7.596 8.00462 6.7778 7.18643 6.7778 6.17713C6.7778 5.16783 7.596 4.34964 8.60529 4.34964C9.61459 4.34964 10.4328 5.16783 10.4328 6.17713ZM13.174 6.17713C13.174 10.5279 8.60529 13.0302 8.60529 13.0302C8.60529 13.0302 4.03656 10.5279 4.03656 6.17713C4.03656 3.65389 6.08205 1.6084 8.60529 1.6084C11.1285 1.6084 13.174 3.65389 13.174 6.17713Z" stroke="black" stroke-width="1.5" stroke-linecap="round" stroke-linejoin="round"/>
</g>
<defs>
<clipPath id="clip0_1534_4778">
<rect width="16" height="16" fill="white" transform="translate(0.605225 0.793457)"/>
</clipPath>
</defs>
</svg>
