<svg width="17" height="17" viewBox="0 0 17 17" fill="none" xmlns="http://www.w3.org/2000/svg">
<g clip-path="url(#clip0_1534_4758)">
<path fill-rule="evenodd" clip-rule="evenodd" d="M9.29078 0.906728C9.15407 0.685858 8.91281 0.551453 8.65305 0.551453C8.3933 0.551453 8.15204 0.685861 8.01533 0.906732L3.76684 7.77077C1.66898 11.1602 3.57497 15.6038 7.47666 16.4198C8.25253 16.5821 9.05358 16.5821 9.82946 16.4198C13.7312 15.6038 15.6372 11.1601 13.5393 7.77069L9.29078 0.906728ZM8.08327 3.64708L8.65306 2.7265L12.2638 8.56014C13.8141 11.0648 12.4056 14.3486 9.52238 14.9516C8.94903 15.0715 8.35708 15.0715 7.78373 14.9516C5.4204 14.4573 4.04792 12.1619 4.48359 9.97079C4.42906 11.6043 5.53024 13.1783 7.29626 13.5396C7.76136 13.6348 8.24091 13.6348 8.70601 13.5396C11.1168 13.0464 12.2887 10.2933 10.9729 8.21383L8.08327 3.64708Z" fill="black"/>
</g>
<defs>
<clipPath id="clip0_1534_4758">
<rect width="16" height="16" fill="white" transform="translate(0.653198 0.549927)"/>
</clipPath>
</defs>
</svg>
