<svg width="17" height="17" viewBox="0 0 17 17" fill="none" xmlns="http://www.w3.org/2000/svg">
<g clip-path="url(#clip0_1534_4787)">
<path fill-rule="evenodd" clip-rule="evenodd" d="M0.667847 3.50936C0.667847 1.86797 1.99846 0.537354 3.63985 0.537354H6.05C6.24925 0.537354 6.43034 0.615045 6.56465 0.741785L14.4729 5.30761C14.6992 5.43828 14.8412 5.67732 14.8477 5.93857C14.8541 6.19982 14.7241 6.4456 14.5046 6.5873L12.9393 7.59741L9.50267 13.5499C8.74328 14.8652 7.0614 15.3159 5.7461 14.5565L2.10763 12.4558C0.792329 11.6964 0.341673 10.0145 1.10106 8.69922L2.50991 6.25903C1.42892 5.81433 0.667847 4.75073 0.667847 3.50936ZM3.63985 2.03735H4.9473L3.27402 4.93555C2.63803 4.7729 2.16785 4.19604 2.16785 3.50936C2.16785 2.69639 2.82689 2.03735 3.63985 2.03735ZM8.16918 6.48137H4.11359L2.4001 9.44922C2.05492 10.0471 2.25977 10.8116 2.85763 11.1568L6.4961 13.2574C7.09397 13.6026 7.85845 13.3978 8.20363 12.7999L11.7309 6.69049C11.7904 6.58736 11.8737 6.4999 11.9737 6.43532L12.6596 5.99273L6.46167 2.41438L4.97962 4.98137H8.16918C8.58339 4.98137 8.91918 5.31715 8.91918 5.73137C8.91918 6.14558 8.58339 6.48137 8.16918 6.48137ZM14.9443 9.61356C14.8288 9.33209 14.5547 9.14828 14.2504 9.14828C13.9462 9.14829 13.6721 9.33209 13.5566 9.61356L12.068 13.2412C11.6072 14.3642 12.0738 15.6537 13.1466 16.2217C13.8371 16.5872 14.6638 16.5872 15.3543 16.2217C16.4271 15.6537 16.8938 14.3642 16.4329 13.2412L14.9443 9.61356ZM13.4557 13.8107L14.2505 11.8739L15.0452 13.8106C15.213 14.2196 15.0431 14.6892 14.6524 14.896C14.401 15.0291 14.0999 15.0291 13.8485 14.896C13.4578 14.6892 13.2879 14.2196 13.4557 13.8107Z" fill="black"/>
</g>
<defs>
<clipPath id="clip0_1534_4787">
<rect width="16" height="16" fill="white" transform="translate(0.653198 0.549927)"/>
</clipPath>
</defs>
</svg>
