<svg width="17" height="17" viewBox="0 0 17 17" fill="none" xmlns="http://www.w3.org/2000/svg">
<g clip-path="url(#clip0_1534_4767)">
<path d="M11.8162 2.49588C12.3535 2.49588 12.7891 2.06026 12.7891 1.5229C12.7891 0.985543 12.3535 0.549927 11.8162 0.549927H5.49024C4.95288 0.549927 4.51727 0.985543 4.51727 1.5229C4.51727 2.06026 4.95288 2.49588 5.49024 2.49588H5.53465L5.88116 6.32855L4.03821 8.7976C3.79207 9.12736 4.0274 9.59668 4.43889 9.59668H7.26718L8.2374 15.9758L8.65321 16.3753L9.06902 15.9758L10.0392 9.59668H12.8675C13.279 9.59668 13.5143 9.12736 13.2682 8.7976L11.4253 6.32855L11.7718 2.49588H11.8162Z" fill="black"/>
</g>
<defs>
<clipPath id="clip0_1534_4767">
<rect width="16" height="16" fill="white" transform="translate(0.653198 0.549927)"/>
</clipPath>
</defs>
</svg>
