<svg width="17" height="17" viewBox="0 0 17 17" fill="none" xmlns="http://www.w3.org/2000/svg">
<g clip-path="url(#clip0_1534_4764)">
<path d="M8.60522 1.58905C6.94446 3.16188 4.70188 4.12654 2.23399 4.12654C2.19478 4.12654 2.15562 4.1263 2.11652 4.12581C1.81688 5.03717 1.65479 6.01095 1.65479 7.02259C1.65479 11.3408 4.6082 14.9691 8.60523 15.9979L8.60522 1.58905Z" fill="black"/>
<path d="M2.23399 4.12654C4.70188 4.12654 6.94446 3.16188 8.60522 1.58905C10.266 3.16188 12.5086 4.12654 14.9765 4.12654C15.0157 4.12654 15.0548 4.1263 15.0939 4.12581C15.3936 5.03717 15.5557 6.01095 15.5557 7.02259C15.5557 11.3408 12.6023 14.9691 8.60523 15.9979C4.6082 14.9691 1.65479 11.3408 1.65479 7.02259C1.65479 6.01095 1.81688 5.03717 2.11652 4.12581C2.15562 4.1263 2.19478 4.12654 2.23399 4.12654Z" stroke="black" stroke-width="1.5" stroke-linecap="round" stroke-linejoin="round"/>
</g>
<defs>
<clipPath id="clip0_1534_4764">
<rect width="16" height="16" fill="white" transform="translate(0.605225 0.793457)"/>
</clipPath>
</defs>
</svg>
