<svg width="17" height="17" viewBox="0 0 17 17" fill="none" xmlns="http://www.w3.org/2000/svg">
<g clip-path="url(#clip0_1534_4749)">
<path d="M12.0833 15.4083C14.5344 14.1219 16.1522 11.4989 16.0151 8.55127C15.8264 4.49426 12.3845 1.35839 8.32753 1.54712C4.27051 1.73585 1.13465 5.17771 1.32338 9.23472C1.45013 11.9595 3.04434 14.2688 5.30678 15.4345" stroke="black" stroke-width="1.25" stroke-linecap="round" stroke-linejoin="round"/>
<path d="M5.52521 15.6768L5.34656 13.1832M2.48725 15.8944L5.52413 15.6769" stroke="black" stroke-width="1.25" stroke-linecap="round" stroke-linejoin="round"/>
<path fill-rule="evenodd" clip-rule="evenodd" d="M4.98011 8.27243C4.98011 8.18312 4.98333 8.09457 4.98965 8.00687L6.68933 9.16566C7.20753 9.51895 7.54819 10.0312 7.64048 10.5959L7.84218 11.83C6.20559 11.4733 4.98011 10.016 4.98011 8.27243ZM8.61982 10.9919L8.70242 10.4865C8.74625 10.2183 8.8315 9.95883 8.95402 9.71435C8.84795 9.74309 8.73637 9.75843 8.6212 9.75843C8.50488 9.75843 8.39222 9.74278 8.2852 9.71348C8.40795 9.95822 8.49334 10.218 8.53723 10.4865L8.61982 10.9919ZM12.2623 8.27243C12.2623 10.017 11.0354 11.4749 9.39737 11.8306L9.59917 10.5959C9.69146 10.0312 10.0321 9.51895 10.5503 9.16566L12.2526 8.0051C12.259 8.09338 12.2623 8.18252 12.2623 8.27243ZM11.372 7.60879L10.1322 7.82C9.99999 7.84254 9.86735 7.86205 9.73442 7.87855C9.83397 8.05969 9.89059 8.26775 9.89059 8.48904C9.89059 8.53559 9.88809 8.58155 9.8832 8.6268C9.91792 8.60114 9.95328 8.57603 9.98928 8.55149L11.372 7.60879ZM7.35181 8.48904C7.35181 8.53635 7.3544 8.58305 7.35944 8.62901C7.32377 8.60259 7.2874 8.57674 7.25037 8.55149L5.86228 7.60513L7.17446 7.82454C7.2862 7.84323 7.39821 7.85976 7.51042 7.87414C7.40936 8.05631 7.35181 8.26595 7.35181 8.48904ZM5.35459 6.66224L7.31402 6.98987C8.20002 7.13802 9.10458 7.13663 9.99012 6.98576L11.8879 6.66245C11.2937 5.45907 10.0541 4.63135 8.62119 4.63135C7.18837 4.63135 5.94885 5.45897 5.35459 6.66224ZM4.13385 8.27243C4.13385 5.79414 6.1429 3.7851 8.62119 3.7851C11.0995 3.7851 13.1085 5.79414 13.1085 8.27243C13.1085 10.7507 11.0995 12.7598 8.62119 12.7598C6.1429 12.7598 4.13385 10.7507 4.13385 8.27243ZM8.6212 8.06591C8.38751 8.06591 8.19807 8.25535 8.19807 8.48904C8.19807 8.72273 8.38751 8.91217 8.6212 8.91217C8.85489 8.91217 9.04433 8.72273 9.04433 8.48904C9.04433 8.25535 8.85489 8.06591 8.6212 8.06591Z" fill="black"/>
</g>
<defs>
<clipPath id="clip0_1534_4749">
<rect width="16" height="16" fill="white" transform="translate(0.653198 0.549927)"/>
</clipPath>
</defs>
</svg>
