<svg width="17" height="17" viewBox="0 0 17 17" fill="none" xmlns="http://www.w3.org/2000/svg">
<g clip-path="url(#clip0_1534_4750)">
<path d="M12.0833 15.4083C14.5344 14.1219 16.1522 11.4989 16.0151 8.55127C15.8264 4.49426 12.3845 1.35839 8.32753 1.54712C4.27051 1.73585 1.13465 5.17771 1.32338 9.23472C1.45013 11.9595 3.04434 14.2688 5.30678 15.4345" stroke="black" stroke-width="1.25" stroke-linecap="round" stroke-linejoin="round"/>
<path d="M5.52521 15.6768L5.34656 13.1832M2.48725 15.8944L5.52413 15.6769" stroke="black" stroke-width="1.25" stroke-linecap="round" stroke-linejoin="round"/>
<path fill-rule="evenodd" clip-rule="evenodd" d="M7.23442 4.79711C6.97101 4.79711 6.72788 4.93853 6.59765 5.16749L5.8635 6.45821L7.30629 6.5812C8.35127 6.67028 9.40212 6.66568 10.4463 6.56745L11.4231 6.47555C11.4251 6.45581 11.4286 6.4361 11.4334 6.41658L10.7352 5.1714C10.6056 4.94024 10.3612 4.79711 10.0962 4.79711H7.23442ZM11.9515 5.54323L11.5019 4.74147C11.2168 4.23293 10.6792 3.91804 10.0962 3.91804H7.23442C6.65492 3.91804 6.12004 4.22915 5.83354 4.73286L5.34691 5.58841L5.26292 5.45348L5.01878 5.45349L4.39993 5.45351C4.15718 5.45351 3.9604 5.65031 3.96041 5.89306C3.96042 6.13581 4.15721 6.33259 4.39996 6.33258L4.77467 6.33257L4.84373 6.44351C4.35073 6.57898 3.98237 7.03046 3.98237 7.57412V9.18189V9.20315L3.98237 11.1442C3.98237 11.4678 4.24475 11.7302 4.56842 11.7302H5.44749C5.77116 11.7302 6.03354 11.4678 6.03354 11.1442V10.6683H11.2608V11.1442C11.2608 11.4678 11.5231 11.7302 11.8468 11.7302H12.7259C13.0496 11.7302 13.3119 11.4678 13.3119 11.1442V9.20849L13.3119 9.20315V7.5854C13.3119 7.04659 12.9503 6.59891 12.4648 6.45879L12.4422 6.41838L12.4956 6.33257L12.8703 6.33258C13.1131 6.33259 13.3099 6.13581 13.3099 5.89306C13.3099 5.65031 13.1131 5.45351 12.8703 5.45351L12.2515 5.45349L12.0074 5.45348L11.9515 5.54323ZM12.4267 7.52495L11.1536 7.91568C10.7854 8.0287 10.5049 8.32879 10.417 8.70379C10.3737 8.88846 10.5287 9.05927 10.7167 9.03396L12.4329 8.8029V9.20315C12.4329 9.52681 12.1705 9.7892 11.8468 9.7892H5.4475C5.12383 9.7892 4.86144 9.52681 4.86144 9.20315V8.80288L6.57756 9.03393C6.76554 9.05924 6.92061 8.88843 6.87731 8.70376C6.78936 8.32876 6.50887 8.02868 6.14064 7.91566L4.86565 7.52432C4.89077 7.37722 5.02526 7.26902 5.17936 7.28216L7.23162 7.4571C8.32885 7.55063 9.43225 7.5458 10.5286 7.44265L12.1124 7.29366C12.2637 7.27943 12.3968 7.3824 12.4267 7.52495Z" fill="black"/>
</g>
<defs>
<clipPath id="clip0_1534_4750">
<rect width="16" height="16" fill="white" transform="translate(0.653198 0.549927)"/>
</clipPath>
</defs>
</svg>
