<svg width="17" height="17" viewBox="0 0 17 17" fill="none" xmlns="http://www.w3.org/2000/svg">
<g clip-path="url(#clip0_1534_4748)">
<path d="M12.0833 15.4083C14.5344 14.1219 16.1522 11.4989 16.0151 8.55127C15.8264 4.49426 12.3845 1.35839 8.32753 1.54712C4.27051 1.73585 1.13465 5.17771 1.32338 9.23472C1.45013 11.9595 3.04434 14.2688 5.30678 15.4345" stroke="black" stroke-width="1.25" stroke-linecap="round" stroke-linejoin="round"/>
<path d="M5.52521 15.6768L5.34656 13.1832M2.48725 15.8944L5.52413 15.6769" stroke="black" stroke-width="1.25" stroke-linecap="round" stroke-linejoin="round"/>
<path fill-rule="evenodd" clip-rule="evenodd" d="M7.81651 3.37413C7.28626 3.37413 6.8564 3.80398 6.8564 4.33424V4.76551C6.8564 4.82255 6.86138 4.87843 6.87092 4.93274C6.25965 5.01953 5.77721 5.52232 5.7314 6.15477L5.49453 9.42468C5.49196 9.46006 5.4908 9.49519 5.491 9.53004C5.06072 9.54888 4.65411 9.88478 4.65412 10.3982L4.65412 10.7184C4.65412 11.5563 5.33338 12.2356 6.1713 12.2356H11.1353C11.9732 12.2356 12.6525 11.5563 12.6525 10.7184L12.6525 10.413C12.6525 9.89908 12.2456 9.56364 11.8154 9.54485C11.8161 9.50516 11.815 9.46508 11.812 9.42468L11.5752 6.15476C11.5293 5.5223 11.0469 5.01951 10.4356 4.93274C10.4451 4.87843 10.4501 4.82255 10.4501 4.76551V4.33424C10.4501 3.80398 10.0203 3.37413 9.49 3.37413H7.81651ZM7.80557 5.72555C7.80921 5.7256 7.81286 5.72562 7.81651 5.72562H9.49C9.49365 5.72562 9.4973 5.7256 9.50094 5.72555H10.2471C10.5226 5.72555 10.7513 5.93828 10.7712 6.213L11.0081 9.48292C11.0301 9.78725 10.7891 10.0463 10.484 10.0463H10.4505C10.4615 9.97804 10.4652 9.90747 10.461 9.83543L10.338 7.76279C10.3079 7.25552 9.88773 6.85955 9.37956 6.85955H7.92699C7.41883 6.85955 6.99867 7.25552 6.96857 7.76279L6.84558 9.83543C6.84131 9.90747 6.84507 9.97804 6.85608 10.0463H6.82254C6.51741 10.0463 6.27646 9.78725 6.2985 9.48292L6.53537 6.213C6.55527 5.93828 6.78396 5.72555 7.05941 5.72555H7.80557ZM9.49438 4.91947C9.57742 4.91716 9.64403 4.84911 9.64403 4.76551V4.33424C9.64403 4.24917 9.57507 4.18021 9.49 4.18021H7.81651C7.73144 4.18021 7.66248 4.24917 7.66248 4.33424V4.76551C7.66248 4.84911 7.72909 4.91716 7.81213 4.91947H9.49438ZM9.5062 10.0463H7.80035C7.71343 10.0443 7.64507 9.97046 7.65025 9.88318L7.77323 7.81054C7.77806 7.72916 7.84547 7.66564 7.92699 7.66564H9.37956C9.46109 7.66564 9.52849 7.72916 9.53332 7.81054L9.65631 9.88318C9.66148 9.97046 9.59313 10.0443 9.5062 10.0463ZM5.46971 10.3623C5.46574 10.3676 5.4602 10.3771 5.4602 10.3982L5.4602 10.7184C5.4602 11.1111 5.77857 11.4295 6.1713 11.4295H11.1353C11.528 11.4295 11.8464 11.1111 11.8464 10.7184L11.8464 10.413C11.8464 10.3918 11.8408 10.3823 11.8368 10.377C11.8313 10.3695 11.821 10.3609 11.8059 10.3554C11.7909 10.35 11.7775 10.3501 11.7684 10.3523C11.762 10.3539 11.7516 10.3576 11.7381 10.374L11.6286 10.5062C11.4462 10.7266 11.1751 10.8541 10.889 10.8541H6.4317C6.14813 10.8541 5.87907 10.7288 5.69665 10.5117L5.56822 10.3588C5.55466 10.3427 5.5443 10.339 5.53782 10.3374C5.52873 10.3353 5.51537 10.3353 5.50043 10.3407C5.4855 10.3461 5.47528 10.3548 5.46971 10.3623Z" fill="black"/>
</g>
<defs>
<clipPath id="clip0_1534_4748">
<rect width="16" height="16" fill="white" transform="translate(0.653198 0.549927)"/>
</clipPath>
</defs>
</svg>
