<svg xmlns="http://www.w3.org/2000/svg" aria-hidden="true" viewBox="0 0 16 16" fill="currentColor">
  <path d="M13.953 6.512H.496A.496.496 0 000 7.008c0 1.513.309 2.996.892 4.29.574 1.272 1.396 2.328 2.379 3.055a.497.497 0 00.295.097H1.488a.496.496 0 100 .992h9.922a.496.496 0 100-.992H9.332c.106 0 .21-.034.295-.097.904-.669 1.673-1.617 2.237-2.755h.104c1.572 0 2.52-.549 3.037-1.009.622-.553.994-1.312.994-2.03a2.05 2.05 0 00-2.047-2.047zm.312 3.241c-.334.297-.932.645-1.93.715.307-.895.492-1.856.547-2.84h1.072a.93.93 0 01.93.93c0 .312-.163.79-.619 1.195zm-9.8-4.234a.496.496 0 01-.496-.496V3.039a.496.496 0 11.992 0v1.984a.496.496 0 01-.496.496zm1.985 0a.496.496 0 01-.496-.496V1.054a.496.496 0 11.992 0v3.969a.496.496 0 01-.496.496zm1.984 0a.496.496 0 01-.496-.496V3.039a.496.496 0 11.992 0v1.984a.496.496 0 01-.496.496z"/>
</svg>
