<svg xmlns="http://www.w3.org/2000/svg" viewBox="0 0 15 16" fill="currentColor" aria-hidden="true">
  <path d="M10.495 0l4.328 4.328-4.328 4.328V5.793q-1.895-.047-2.858.524a2.806 2.806 0 00-1.273 1.414l-.007.019c-.12.334-.189.72-.189 1.121 0 .274.032.54.093.795l-.005-.023c.15.714.393 1.347.722 1.926l-.017-.033a7.028 7.028 0 01-1.617-2.785l-.013-.05a4.947 4.947 0 01-.234-1.523c0-.483.068-.95.194-1.392l-.009.036a4.077 4.077 0 011.657-2.2l.015-.01q1.278-.878 3.546-.822zM14.894 11.773V16H0v-4.227h1.862v2.114h11.172v-2.114h1.86z"/>
</svg>
