<svg xmlns="http://www.w3.org/2000/svg" viewBox="0 0 16 16" fill="currentColor" aria-hidden="true">
  <path d="M14.5 9l-5 5c-.25.25-.5.479-.75.688s-.5.313-.75.313-.5-.104-.75-.313-.5-.438-.75-.688l-5-5A4.662 4.662 0 01.406 7.5 4.536 4.536 0 010 5.594c0-.635.12-1.229.359-1.781.24-.563.568-1.052.984-1.469s.901-.745 1.453-.984a4.53 4.53 0 011.797-.359c.677 0 1.307.135 1.891.406.323.147.619.322.89.525.227.17.436.36.626.569a4.49 4.49 0 01.642-.583 4.536 4.536 0 012.764-.916c.636 0 1.229.12 1.781.359.563.24 1.052.568 1.469.984s.745.906.984 1.469c.24.552.359 1.146.359 1.781 0 .677-.135 1.313-.406 1.906a4.662 4.662 0 01-1.094 1.5zM1.587 6.957c.201.431.463.787.787 1.082l.023.021 5.022 5.022c.196.196.39.376.581.539.191-.163.384-.342.581-.539l5.045-5.043c.324-.295.587-.651.787-1.081.19-.417.287-.866.287-1.363 0-.467-.087-.884-.252-1.264l-.004-.008c-.177-.415-.413-.764-.708-1.059s-.644-.531-1.059-.708l-.008-.003a3.124 3.124 0 00-1.264-.252 3.25 3.25 0 00-2.444 1.074l-.962 1.058-.962-1.058a3.295 3.295 0 00-1.093-.785l-.008-.004a3.136 3.136 0 00-1.343-.285 3.239 3.239 0 00-2.33.963 3.312 3.312 0 00-.708 1.059l-.003.008c-.165.38-.252.796-.252 1.264 0 .497.098.946.287 1.363z"/>
</svg>
