<svg xmlns="http://www.w3.org/2000/svg" viewBox="0 0 16 16" fill="currentColor" aria-hidden="true">
  <path d="M9.648 14.786V9.8c0-.768-.742-.749-1.651-.749s-1.651 0-1.651.749v4.986H2.916a.307.307 0 01-.307-.307V8.373l-1.005.794a.34.34 0 01-.202.065l-.03-.001h.001a.314.314 0 01-.211-.121l-.001-.001L.067 7.72a.324.324 0 01-.064-.231v.001a.314.314 0 01.121-.211l.001-.001 7.686-6.016c.052-.042.119-.067.192-.067s.14.025.193.068h-.001l7.68 6.035a.314.314 0 01.057.442l.001-.001-1.094 1.389a.31.31 0 01-.21.121h-.002a.326.326 0 01-.231-.064l.001.001-1.005-.794v6.105c0 .17-.138.307-.307.307h-.007z"/>
</svg>
