<svg xmlns="http://www.w3.org/2000/svg" viewBox="0 0 16 16" fill="currentColor" aria-hidden="true">
  <path d="M15.111 2.667h-.889v-.889c0-.489-.4-.889-.889-.889H.889C.4.889 0 1.289 0 1.778v10.667c0 .489.4.889.889.889h.889v.889c0 .489.4.889.889.889h12.444c.489 0 .889-.4.889-.889V3.556c0-.489-.4-.889-.889-.889zm-13.333.889v8.889H.891l-.002-.002V1.78l.002-.002h12.441l.002.002v.887H2.667c-.489 0-.889.4-.889.889zm13.333 10.665l-.002.002H2.668l-.002-.002V3.558l.002-.002h12.441l.002.002v10.663zm-1.778-8.443a1.333 1.333 0 11-2.667 0 1.333 1.333 0 012.667 0zm.889 7.555H3.555v-1.778l3.111-5.333 3.556 4.444h.889l3.111-2.667z"/>
</svg>
