<svg xmlns="http://www.w3.org/2000/svg" aria-hidden="true" viewBox="-2 -2 20 20" fill="currentColor">
  <path d="M10.573 11.466v-.707c.945-.532 1.715-1.86 1.715-3.187 0-2.131 0-3.859-2.573-3.859S7.142 5.441 7.142 7.572c0 1.327.771 2.655 1.715 3.187v.707c-2.909.238-5.146 1.667-5.146 3.396h12.007c0-1.728-2.237-3.158-5.146-3.396z"/>
  <path d="M4.666 11.797c.741-.484 1.663-.853 2.677-1.078a4.805 4.805 0 01-.543-.791 4.905 4.905 0 01-.623-2.357c0-1.153 0-2.242.41-3.133.398-.864 1.114-1.4 2.134-1.601-.227-1.025-.83-1.699-2.437-1.699-2.573 0-2.573 1.728-2.573 3.859 0 1.327.771 2.655 1.715 3.187v.707C2.517 9.129.28 10.558.28 12.287h3.739a5.5 5.5 0 01.646-.491z"/>
</svg>
