<svg xmlns="http://www.w3.org/2000/svg" viewBox="0 0 20 20" fill="currentColor" aria-hidden="true">
  <path d="M3.108 12.768l.159 1.365.243-1.206L5.46 4.42h1.281l1.893 8.507.242 1.24.176-1.408 1.49-8.339h1.533L9.647 16.611H8.265L6.231 7.727l-.126-.72-.125.72-2.11 8.884H2.48L.06 4.421h1.532l1.516 8.347zM19.99 11.587c0 1.664-.354 2.945-1.063 3.843-.709.9-1.716 1.348-3.022 1.348-1.256 0-2.25-.435-2.981-1.306-.726-.876-1.102-2.112-1.13-3.709V9.47c0-1.63.36-2.905 1.08-3.826.72-.927 1.724-1.39 3.014-1.39 1.284 0 2.283.443 2.997 1.331.72.882 1.089 2.143 1.105 3.784v2.22zm-1.532-2.135c0-1.29-.212-2.247-.636-2.872-.419-.63-1.063-.946-1.934-.946-.843 0-1.482.318-1.918.955-.43.636-.647 1.574-.653 2.813v2.185c0 1.245.215 2.194.645 2.847.436.653 1.083.98 1.943.98.86 0 1.496-.302 1.909-.905.413-.603.628-1.526.644-2.771V9.452z"/>
</svg>
