<svg width="40" height="40" viewBox="0 0 40 40" fill="none" xmlns="http://www.w3.org/2000/svg">
<path d="M20 0C17.2396 0 14.6354 0.520833 12.1875 1.5625C9.76562 2.60417 7.64323 4.03646 5.82031 5.85938C4.02344 7.65625 2.60417 9.77865 1.5625 12.2266C0.520833 14.6484 0 17.2396 0 20C0 22.7604 0.520833 25.3646 1.5625 27.8125C2.60417 30.2344 4.02344 32.3568 5.82031 34.1797C7.64323 35.9766 9.76562 37.3958 12.1875 38.4375C14.6354 39.4792 17.2396 40 20 40C22.7604 40 25.3516 39.4792 27.7734 38.4375C30.2214 37.3958 32.3438 35.9766 34.1406 34.1797C35.9635 32.3568 37.3958 30.2344 38.4375 27.8125C39.4792 25.3646 40 22.7604 40 20C40 17.2396 39.4792 14.6484 38.4375 12.2266C37.3958 9.77865 35.9635 7.65625 34.1406 5.85938C32.3438 4.03646 30.2214 2.60417 27.7734 1.5625C25.3516 0.520833 22.7604 0 20 0ZM16.25 30.0781L9.21875 21.7188L11.7969 19.1406L16.25 23.5156L29.1406 12.2656L30.9375 14.0625L16.25 30.0781Z" fill="#82C250"/>
</svg>
