<svg xmlns="http://www.w3.org/2000/svg" viewBox="0 0 16 16" fill="currentColor" aria-hidden="true">
  <path d="M6.667.889c3.682 0 6.667 2.415 6.667 5.395s-2.985 5.395-6.667 5.395c-.354 0-.701-.023-1.039-.065-1.432 1.426-3.086 1.682-4.738 1.72v-.349c.892-.435 1.611-1.229 1.611-2.135 0-.126-.01-.251-.028-.372C.965 9.489.001 7.978.001 6.285.001 3.305 2.986.89 6.668.89zm7.166 12.093c0 .777.504 1.457 1.278 1.83v.299c-1.432-.032-2.747-.251-3.988-1.474a7.205 7.205 0 01-.901.056c-1.326 0-2.547-.358-3.522-.959 2.009-.007 3.906-.651 5.345-1.815a6.524 6.524 0 001.7-2.046 5.546 5.546 0 00.627-3.022c1.008.832 1.629 1.967 1.629 3.218 0 1.451-.836 2.746-2.142 3.594a2.102 2.102 0 00-.024.319z"/>
</svg>
