<svg xmlns="http://www.w3.org/2000/svg" viewBox="0 0 16 16" fill="currentColor" aria-hidden="true">
  <path d="M6.915 9.872a.785.785 0 01-.556-.23 3.694 3.694 0 010-5.219l2.904-2.904C9.96.822 10.887.438 11.873.438s1.913.384 2.61 1.081a3.694 3.694 0 010 5.219l-1.327 1.327a.786.786 0 01-1.112-1.112l1.327-1.327a2.12 2.12 0 00-1.497-3.615c-.565 0-1.097.22-1.497.62L7.473 5.535a2.12 2.12 0 000 2.995.786.786 0 01-.556 1.342z"/>
  <path d="M4.128 15.563a3.667 3.667 0 01-2.61-1.081 3.694 3.694 0 010-5.219l1.327-1.327a.786.786 0 011.112 1.112L2.63 10.375a2.12 2.12 0 001.497 3.615c.565 0 1.097-.22 1.497-.62l2.904-2.904a2.12 2.12 0 000-2.995.786.786 0 011.112-1.112 3.694 3.694 0 010 5.219l-2.904 2.904a3.667 3.667 0 01-2.61 1.081zM14.292 12.84a.48.48 0 01-.342-.142l-1.936-1.936a.483.483 0 11.684-.684l1.936 1.936a.483.483 0 01-.342.826zM15.26 9.936h-1.936a.484.484 0 010-.968h1.936a.484.484 0 010 .968zM11.388 13.808a.484.484 0 01-.484-.484v-1.936a.484.484 0 01.968 0v1.936a.484.484 0 01-.484.484zM2.676 7.032H.74a.484.484 0 010-.968h1.936a.484.484 0 010 .968zM3.644 6.064a.48.48 0 01-.342-.142L1.366 3.986a.483.483 0 11.684-.684l1.936 1.936a.483.483 0 01-.342.826zM4.612 5.096a.484.484 0 01-.484-.484V2.676a.484.484 0 01.968 0v1.936a.484.484 0 01-.484.484z"/>
</svg>
