<svg xmlns="http://www.w3.org/2000/svg" viewBox="0 0 16 16" stroke-width="1.5" stroke="currentColor" aria-hidden="true" fill="none">
  <defs>
    <clipPath id="a">
      <path d="M0 0h16v16H0z"/>
    </clipPath>
  </defs>
  <g clip-path="url(#a)">
    <path stroke-linecap="round" stroke-linejoin="round" d="M.873 8.555c0 1.17.821 2.189 1.98 2.36.793.116 1.596.206 2.406.269v3.395l2.864-2.864a1.535 1.535 0 011.037-.445c1.35-.043 2.68-.163 3.988-.356 1.158-.17 1.979-1.189 1.979-2.359v-4.4c0-1.17-.822-2.188-1.98-2.359A35.373 35.373 0 008 1.422c-1.749 0-3.468.127-5.148.375C1.694 1.966.873 2.984.873 4.155v4.399z"/>
  </g>
</svg>
