<svg xmlns="http://www.w3.org/2000/svg" viewBox="0 0 16 16" stroke-width="1.5" stroke="currentColor" aria-hidden="true" fill="none">
  <path stroke-linecap="round" stroke-linejoin="round" d="M10.7 2.023A1.658 1.658 0 009.106.817h-2.21c-.76 0-1.4.51-1.596 1.206m5.402 0c.04.144.062.295.062.451v0a.553.553 0 01-.553.553H5.79a.553.553 0 01-.553-.553v0c0-.156.022-.307.062-.45m5.402 0c.476.035.95.08 1.42.135.81.094 1.405.793 1.405 1.61v9.757c0 .915-.742 1.658-1.658 1.658H4.132a1.658 1.658 0 01-1.658-1.658V3.769c0-.817.594-1.516 1.405-1.61.47-.054.944-.1 1.42-.136"/>
</svg>
