<svg xmlns="http://www.w3.org/2000/svg" viewBox="0 0 16 16" stroke-width="1.5" stroke="currentColor" aria-hidden="true" fill="none">
  <defs>
    <clipPath id="a">
      <path d="M0 0h16v16H0z"/>
    </clipPath>
  </defs>
  <g clip-path="url(#a)">
    <path stroke-linecap="round" stroke-linejoin="round" d="M8 3.21v9.58m-2.395-2.25l.702.526c.935.702 2.451.702 3.386 0 .936-.701.936-1.838 0-2.54C9.226 8.176 8.613 8 8 8c-.58 0-1.157-.175-1.6-.526-.883-.701-.883-1.839 0-2.54.883-.702 2.315-.702 3.198 0l.33.263M15.186 8A7.185 7.185 0 11.815 8a7.185 7.185 0 0114.37 0z"/>
  </g>
</svg>
