<svg xmlns="http://www.w3.org/2000/svg" viewBox="0 0 16 16" stroke-width="1.5" stroke="currentColor" aria-hidden="true" fill="none">
  <defs>
    <clipPath id="a">
      <path d="M0 0h16v16H0z"/>
    </clipPath>
  </defs>
  <g clip-path="url(#a)">
    <path stroke-linecap="round" stroke-linejoin="round" d="M8 .866c2.184 0 4.324.184 6.407.537.423.072.727.44.727.87V3.1c0 .473-.188.926-.522 1.26l-4.306 4.307a1.784 1.784 0 00-.522 1.26v2.321c0 .676-.382 1.293-.986 1.596l-2.582 1.29V9.928a1.78 1.78 0 00-.522-1.261L1.388 4.36A1.784 1.784 0 01.866 3.1v-.828c0-.428.304-.797.727-.869A38.301 38.301 0 018 .866z"/>
  </g>
</svg>
