<svg xmlns="http://www.w3.org/2000/svg" viewBox="0 0 16 16" stroke-width="1.5" stroke="currentColor" aria-hidden="true" fill="none">
  <defs>
    <clipPath id="a">
      <path d="M0 0h16v16H0z"/>
    </clipPath>
  </defs>
  <g clip-path="url(#a)">
    <path stroke-linecap="round" stroke-linejoin="round" d="M8 15.175a7.178 7.178 0 006.948-5.38M8 15.176a7.178 7.178 0 01-6.948-5.38M8 15.176c1.981 0 3.587-3.213 3.587-7.175C11.587 4.038 9.981.825 8 .825m0 14.35c-1.981 0-3.587-3.213-3.587-7.175C4.413 4.038 6.019.825 8 .825m0 0a7.172 7.172 0 016.252 3.653M8 .825a7.172 7.172 0 00-6.252 3.653m12.504 0A9.529 9.529 0 018 6.804a9.529 9.529 0 01-6.252-2.326m12.504 0A7.142 7.142 0 0115.174 8a7.19 7.19 0 01-.226 1.796m0 0A14.285 14.285 0 018 11.587c-2.52 0-4.89-.65-6.948-1.791m0 0A7.187 7.187 0 01.825 8c0-1.28.336-2.481.923-3.522"/>
  </g>
</svg>
