<svg xmlns="http://www.w3.org/2000/svg" viewBox="0 0 16 16" stroke-width="1.5" stroke="currentColor" aria-hidden="true" fill="none">
  <defs>
    <clipPath id="a">
      <path d="M0 0h16v16H0z"/>
    </clipPath>
  </defs>
  <g clip-path="url(#a)">
    <path stroke-linecap="round" stroke-linejoin="round" d="M4.025 7.294c.593 0 1.129-.328 1.495-.794a6.651 6.651 0 012.105-1.766c.531-.282.992-.703 1.216-1.262a3.31 3.31 0 00.236-1.23v-.465c0-.305.247-.552.552-.552.914 0 1.655.741 1.655 1.655 0 .848-.19 1.65-.532 2.368-.195.41.079.943.534.943m0 0h2.3c.755 0 1.43.51 1.51 1.262a8.791 8.791 0 01-1.899 6.479c-.284.353-.725.535-1.18.535H9.063c-.356 0-.71-.057-1.047-.17l-2.291-.763a3.308 3.308 0 00-1.047-.17H3.489m7.797-7.173H9.629m-6.14 7.173c.061.15.127.298.199.443.145.294-.058.66-.385.66h-.668c-.654 0-1.26-.38-1.451-1.006a8.828 8.828 0 01-.383-2.58c0-1.142.217-2.234.612-3.236.224-.569.798-.902 1.41-.902h.775c.347 0 .548.409.368.705a6.59 6.59 0 00-.958 3.433c0 .878.17 1.716.481 2.483z"/>
  </g>
</svg>
