<svg xmlns="http://www.w3.org/2000/svg" viewBox="0 0 16 16" stroke-width="1.5" stroke="currentColor" aria-hidden="true" fill="none">
  <path stroke-linecap="round" stroke-linejoin="round" d="M.859 10.747l3.778-3.779a1.648 1.648 0 012.331 0l3.779 3.779M9.648 9.648l1.032-1.032a1.648 1.648 0 012.33 0l2.131 2.13M1.957 13.494h12.086c.606 0 1.098-.492 1.098-1.098v-8.79c0-.606-.492-1.098-1.098-1.098H1.957C1.351 2.508.859 3 .859 3.606v8.79c0 .606.492 1.098 1.098 1.098zm7.691-8.24h.005v.006h-.005v-.006zm.275 0a.275.275 0 11-.55 0 .275.275 0 01.55 0z"/>
</svg>
