<svg xmlns="http://www.w3.org/2000/svg" viewBox="0 0 16 16" stroke-width="1.5" stroke="currentColor" aria-hidden="true" fill="none">
  <defs>
    <clipPath id="a">
      <path d="M0 0h16v16H0z"/>
    </clipPath>
  </defs>
  <g clip-path="url(#a)">
    <path stroke-linecap="round" stroke-linejoin="round" d="M4.103 9.35a31.02 31.02 0 00-.531.07m.531-.07a31.299 31.299 0 017.793 0m-7.793 0l-.28 3.078m8.073-3.078c.178.022.355.046.532.07m-.532-.07l.28 3.078m0 0l.17 1.862a.83.83 0 01-.827.905H4.48a.83.83 0 01-.827-.905l.17-1.862m8.352 0h.806a1.66 1.66 0 001.66-1.66V6.122c0-.797-.567-1.487-1.356-1.605-.467-.07-.938-.13-1.412-.182m-8.05 8.093h-.805a1.66 1.66 0 01-1.661-1.66V6.122c0-.797.567-1.487 1.356-1.605.467-.07.938-.13 1.412-.182m7.748 0a35.82 35.82 0 00-7.748 0m7.748 0v-2.7a.83.83 0 00-.83-.83H4.956a.83.83 0 00-.83.83v2.7m8.302 2.558h.005v.006h-.005v-.006zm-2.214 0h.005v.006h-.005v-.006z"/>
  </g>
</svg>
