<svg xmlns="http://www.w3.org/2000/svg" viewBox="0 0 16 16" stroke-width="1.5" stroke="currentColor" aria-hidden="true" fill="none">
  <defs>
    <clipPath id="a">
      <path d="M0 0h16v16H0z"/>
    </clipPath>
  </defs>
  <g stroke-linecap="round" stroke-linejoin="round" stroke-width="1.5" clip-path="url(#a)">
    <path d="M3.453 5.08a1.675 1.675 0 011.671-1.553h5.752c.878 0 1.607.678 1.67 1.554l.428 5.9c.07.97-.698 1.796-1.67 1.796H4.696a1.675 1.675 0 01-1.671-1.796l.427-5.9z"/>
    <path d="M5.686 7.973a1.005 1.005 0 011.004-.946h2.62c.532 0 .972.415 1.004.946l.222 3.74a1.005 1.005 0 01-1.004 1.064H6.468a1.005 1.005 0 01-1.004-1.065l.222-3.74z"/>
    <path d="M1.511 12.685c0-.782.976-1.138 1.48-.54l.231.277c.191.227.473.358.77.358h8.042c.3 0 .583-.133.774-.364l.198-.239c.5-.604 1.483-.25 1.483.534v.551c0 1.11-.9 2.01-2.01 2.01H3.521c-1.11 0-2.01-.9-2.01-2.01v-.577zM5.485 1.743c0-.555.45-1.005 1.005-1.005h3.02c.555 0 1.005.45 1.005 1.005v.778c0 .556-.45 1.006-1.005 1.006H6.49c-.555 0-1.005-.45-1.005-1.006v-.778z"/>
  </g>
</svg>
