<svg xmlns="http://www.w3.org/2000/svg" viewBox="0 0 16 16" stroke-width="1.5" stroke="currentColor" aria-hidden="true" fill="none">
  <defs>
    <clipPath id="a">
      <path d="M0 0h16v16H0z"/>
    </clipPath>
  </defs>
  <g clip-path="url(#a)">
    <path stroke-linecap="round" stroke-linejoin="round" d="M7.59 1.314a.443.443 0 01.82 0l1.675 4.028a.443.443 0 00.373.272l4.35.348a.443.443 0 01.252.779l-3.313 2.838a.444.444 0 00-.143.44l1.012 4.243a.443.443 0 01-.662.481L8.231 12.47a.443.443 0 00-.462 0l-3.723 2.274a.443.443 0 01-.662-.48l1.012-4.244a.443.443 0 00-.143-.44L.94 6.741a.443.443 0 01.253-.779l4.348-.348a.443.443 0 00.374-.272l1.676-4.028z"/>
  </g>
</svg>
