<svg xmlns="http://www.w3.org/2000/svg" viewBox="0 0 16 16" fill="currentColor" aria-hidden="true">
  <g clip-path="url(#a)">
    <path d="M14.742 8.06a6.729 6.729 0 10-10.58 5.827l-.081-1.179a.625.625 0 111.247-.086l.172 2.49a.625.625 0 01-.578.667H4.92v.002l-3.036.217a.625.625 0 01-.09-1.246l1.31-.094a7.979 7.979 0 118.62.784.625.625 0 11-.58-1.107 6.73 6.73 0 003.598-6.274z"/>
    <path fill-rule="evenodd" d="M7.163 2.824a.96.96 0 00-.96.96v.432c0 .057.005.112.015.167a1.332 1.332 0 00-1.14 1.222l-.237 3.27-.003.105A.864.864 0 004 9.848v.32c0 .838.68 1.518 1.517 1.518h4.964c.838 0 1.517-.68 1.517-1.518v-.305a.864.864 0 00-.837-.868c0-.04 0-.08-.003-.12l-.237-3.27a1.332 1.332 0 00-1.14-1.222.966.966 0 00.015-.167v-.432a.96.96 0 00-.96-.96H7.163zm-.01 2.352h2.441c.275 0 .504.212.524.487l.237 3.27a.525.525 0 01-.524.563h-.034a.964.964 0 00.01-.21l-.122-2.073a.96.96 0 00-.959-.903H7.274a.96.96 0 00-.959.903l-.123 2.072a.964.964 0 00.01.211H6.17a.525.525 0 01-.524-.563l.237-3.27a.525.525 0 01.524-.487h.746zM8.84 4.37a.154.154 0 00.15-.154v-.432a.154.154 0 00-.154-.154H7.163a.154.154 0 00-.154.154v.432c0 .083.067.151.15.154H8.84zm.012 5.126H7.147a.154.154 0 01-.15-.163l.123-2.072a.154.154 0 01.154-.145h1.452c.082 0 .15.063.154.145l.123 2.072a.154.154 0 01-.15.163zm-4.037.316a.057.057 0 00-.01.036v.32c0 .393.32.712.712.712h4.964a.711.711 0 00.711-.712v-.305c0-.021-.005-.03-.01-.036a.067.067 0 00-.03-.022.067.067 0 00-.038-.003.061.061 0 00-.03.022l-.11.132a.96.96 0 01-.74.348H5.779a.96.96 0 01-.735-.342l-.128-.153a.066.066 0 00-.03-.022.067.067 0 00-.038.004.067.067 0 00-.03.021z" clip-rule="evenodd"/>
  </g>
  <defs>
    <clipPath id="a">
      <path d="M0 0h16v16H0z"/>
    </clipPath>
  </defs>
</svg>
