<svg xmlns="http://www.w3.org/2000/svg" viewBox="0 0 16 16" stroke-width="1.5" stroke="currentColor" aria-hidden="true" fill="none">
  <path stroke-linecap="round" stroke-linejoin="round" d="M5.236 12.924a1.106 1.106 0 11-2.212 0m2.212 0a1.106 1.106 0 10-2.212 0m2.212 0H9.66m-6.636 0H1.642a.83.83 0 01-.83-.83V9.606m12.719 3.318a1.106 1.106 0 01-2.212 0m2.212 0a1.106 1.106 0 00-2.212 0m2.212 0h.83a.792.792 0 00.803-.83 13.2 13.2 0 00-2.37-6.777 1.516 1.516 0 00-1.164-.634H9.66m1.659 8.24H9.66m0-8.24v-.706a.816.816 0 00-.728-.816 35.798 35.798 0 00-7.392 0 .816.816 0 00-.727.816v5.63M9.66 4.682v4.923m0 3.318V9.606m0 0H.813"/>
</svg>
