<svg xmlns="http://www.w3.org/2000/svg" fill="currentColor" aria-hidden="true" viewBox="-2 -2 20 20">
  <g clip-path="url(#clip0_1534_4754)">
    <path d="M.653 3.55a1 1 0 011-1h1v12h-1a1 1 0 01-1-1v-10zM3.653 2.55h1v12h-1v-12zM11.653 2.55h1v12h-1v-12zM13.653 2.55h2a1 1 0 011 1v10a1 1 0 01-1 1h-2v-12zM5.653 2.55h2.5v12h-2.5v-12zM9.153 2.55h1.5v12h-1.5v-12z"/>
  </g>
  <defs>
    <clipPath id="clip0_1534_4754">
      <path d="M0 0h16v16H0z" transform="translate(.653 .55)"/>
    </clipPath>
  </defs>
</svg>
