<svg xmlns="http://www.w3.org/2000/svg" fill="currentColor" aria-hidden="true" viewBox="-2 -2 20 20">
  <g clip-path="url(#clip0_1534_4780)">
    <path fill-rule="evenodd" d="M14.293 4.567l-.767-1.368a2.75 2.75 0 00-2.399-1.406H6.244a2.75 2.75 0 00-2.39 1.39l-.83 1.46-.144-.23H1.408a.75.75 0 000 1.5h.64l.117.19a2.001 2.001 0 00-1.47 1.929v6.092a1 1 0 001 1h1.5a1 1 0 001-1v-.812h8.92v.812a1 1 0 001 1h1.5a1 1 0 001-1V8.052c0-.92-.617-1.684-1.446-1.923l-.039-.07.092-.146h.64a.75.75 0 100-1.5h-1.473l-.096.154zM6.244 3.293c-.45 0-.864.242-1.086.632L3.905 6.128l2.462.21a30 30 0 005.358-.024l1.667-.157a.741.741 0 01.017-.1l-1.191-2.125a1.25 1.25 0 00-1.09-.639H6.243zm8.86 4.655l-2.172.667a1.848 1.848 0 00-1.257 1.345.462.462 0 00.511.563l2.929-.394v.683a1 1 0 01-1 1H3.195a1 1 0 01-1-1v-.683l2.929.394a.462.462 0 00.511-.563 1.848 1.848 0 00-1.257-1.345l-2.176-.668a.5.5 0 01.536-.413l3.502.298a31.5 31.5 0 005.625-.024l2.703-.255a.5.5 0 01.536.395z" clip-rule="evenodd"/>
  </g>
  <defs>
    <clipPath id="clip0_1534_4780">
      <path d="M0 0h16v16H0z" transform="translate(.653 .55)"/>
    </clipPath>
  </defs>
</svg>
