<svg xmlns="http://www.w3.org/2000/svg" fill="currentColor" aria-hidden="true" viewBox="-2 -2 20 20">
  <g clip-path="url(#clip0_1534_4786)">
    <path stroke-linecap="round" stroke-linejoin="round" d="M11.306 2.817A1.658 1.658 0 009.71 1.61H7.5c-.76 0-1.4.51-1.596 1.207m5.402 0c.04.143.062.294.062.45a.553.553 0 01-.553.553h-4.42a.553.553 0 01-.553-.552c0-.157.022-.308.062-.451m5.402 0c.476.036.95.081 1.42.136.811.094 1.405.793 1.405 1.61v9.756c0 .916-.742 1.658-1.658 1.658H4.737a1.658 1.658 0 01-1.658-1.658V4.562c0-.816.594-1.515 1.405-1.61.47-.054.944-.1 1.42-.135m-.111 7.258l2.25 2.25 3.375-5.063"/>
  </g>
  <defs>
    <clipPath id="clip0_1534_4786">
      <path d="M0 0h16v16H0z" transform="translate(.605 .793)"/>
    </clipPath>
  </defs>
</svg>
