<svg xmlns="http://www.w3.org/2000/svg" fill="currentColor" aria-hidden="true" viewBox="-2 -2 20 20">
  <g clip-path="url(#clip0_1534_4752)">
    <path d="M.671 8.848c0 1.503.39 2.668 1.167 3.494.778.822 1.766 1.233 2.964 1.233 1.18 0 2.088-.316 2.725-.948.636-.636.99-1.414 1.06-2.333l.007-.093H7.063l-.007.093c-.049.579-.256 1.063-.623 1.451-.363.39-.906.584-1.631.584-.765 0-1.386-.298-1.863-.895-.473-.597-.71-1.434-.71-2.513V8.18c0-1.163.24-2.02.716-2.573.482-.557 1.099-.835 1.85-.835.76 0 1.326.19 1.697.57.376.376.566.862.57 1.459v.106h1.532v-.1A3.1 3.1 0 007.58 4.473c-.672-.632-1.598-.949-2.778-.949-1.198 0-2.186.412-2.964 1.234C1.06 5.58.671 6.744.671 8.252v.596zM9.506 13.377h1.532V9.584h1.75c1.07 0 1.898-.267 2.486-.802.588-.54.882-1.255.882-2.148 0-.893-.294-1.6-.882-2.122-.583-.526-1.412-.789-2.486-.789H9.506v9.654zm1.532-4.986V4.917h1.73c.694 0 1.178.161 1.452.484.274.322.411.733.411 1.233 0 .504-.137.924-.411 1.26-.274.331-.758.497-1.452.497h-1.73zm3.905 4.986h1.71l-2.486-4.615-1.558.16 2.334 4.454z"/>
  </g>
  <defs>
    <clipPath id="clip0_1534_4752">
      <path d="M0 0h16v16H0z" transform="translate(.653 .55)"/>
    </clipPath>
  </defs>
</svg>
