<svg xmlns="http://www.w3.org/2000/svg" fill="currentColor" aria-hidden="true" viewBox="-2 -2 20 20">
  <g clip-path="url(#clip0_1534_4757)">
    <path fill-rule="evenodd" d="M6.107 5.136a.75.75 0 01.476-.94l.013-.005a1.305 1.305 0 00.346-.215c.179-.156.355-.4.355-.817 0-.42-.18-.678-.367-.849a1.41 1.41 0 00-.356-.234l-.013-.006A.75.75 0 017.074.66l-.253.707.253-.706h.002l.004.002.008.003.022.008.064.027a2.911 2.911 0 01.765.5c.425.386.858 1.024.858 1.958 0 .938-.436 1.569-.87 1.947a2.804 2.804 0 01-.84.503l-.022.007-.008.003-.004.001h-.001v.001c-.001 0-.002 0-.227-.703l.225.703a.75.75 0 01-.943-.485zm-4.687.876a.75.75 0 00-.75.784l.12 2.61a7.262 7.262 0 001.258 3.763 5.812 5.812 0 002.121 1.88H1.403a.75.75 0 000 1.5h11.298a.75.75 0 000-1.5H9.912a5.812 5.812 0 002.121-1.88c.162-.236.309-.481.44-.733a5 5 0 003.384-1.715l.107-.123c.344-.398.559-.891.616-1.414l.013-.123a2.75 2.75 0 00-2.733-3.049H1.42zM14.722 9.74a3.5 3.5 0 01-1.632 1.061c.112-.455.18-.922.201-1.395l.087-1.894h.482a1.25 1.25 0 011.242 1.386l-.013.123c-.024.22-.115.428-.26.596l-.107.123zm-4.119-2.228H2.205l.084 1.825a5.762 5.762 0 00.998 2.986 4.315 4.315 0 003.563 1.882h.381c1.426 0 2.76-.704 3.564-1.882a5.762 5.762 0 00.998-2.986l.083-1.825h-1.273zM9.567 2.526a.75.75 0 01.663-1.345l-.322.677.323-.677h.001l.002.002.004.001.008.004.02.01a1.457 1.457 0 01.205.13c.117.084.266.21.412.387.301.365.568.917.568 1.687s-.268 1.319-.578 1.679a2.122 2.122 0 01-.578.471c-.021.012-.04.02-.055.028l-.021.01-.009.004-.003.001-.002.001h-.001l-.296-.689.295.69a.75.75 0 01-.61-1.37.625.625 0 00.144-.124c.085-.1.214-.305.214-.701 0-.397-.13-.617-.225-.732a.727.727 0 00-.159-.144zm-6.077-.99a.75.75 0 00.337.99.727.727 0 01.159.144c.095.115.224.335.224.732 0 .396-.128.6-.215.701a.625.625 0 01-.143.124.75.75 0 00.61 1.37l-.294-.69.295.69h.001l.002-.002.004-.001.008-.004.021-.01a1.394 1.394 0 00.211-.122c.12-.08.273-.203.423-.377.31-.36.577-.908.577-1.68 0-.769-.267-1.321-.568-1.686a2.225 2.225 0 00-.564-.487 1.42 1.42 0 00-.053-.03l-.02-.01-.008-.004-.004-.001-.001-.001H4.49s-.001-.001-.323.676l.322-.677a.75.75 0 00-1 .355z" clip-rule="evenodd"/>
  </g>
  <defs>
    <clipPath id="clip0_1534_4757">
      <path d="M0 0h16v16H0z" transform="translate(.653 .55)"/>
    </clipPath>
  </defs>
</svg>
