<svg xmlns="http://www.w3.org/2000/svg" fill="currentColor" aria-hidden="true" viewBox="-2 -2 20 20">
  <g clip-path="url(#clip0_1243_4968)">
    <path stroke-linecap="round" stroke-linejoin="round" d="M8 3.757v9.58m-2.395-2.25l.702.526c.935.702 2.451.702 3.386 0 .936-.701.936-1.838 0-2.54-.467-.35-1.08-.526-1.693-.526-.579 0-1.157-.175-1.599-.526-.883-.701-.883-1.839 0-2.54.883-.702 2.315-.702 3.198 0l.33.263m5.256 2.803a7.185 7.185 0 11-14.37 0 7.185 7.185 0 0114.37 0z"/>
  </g>
  <defs>
    <clipPath id="clip0_1243_4968">
      <path d="M0 0h16v16H0z" transform="translate(0 .547)"/>
    </clipPath>
  </defs>
</svg>
