<svg xmlns="http://www.w3.org/2000/svg" fill="currentColor" aria-hidden="true" viewBox="-2 -2 20 20">
  <g clip-path="url(#clip0_1534_4763)">
    <path fill-rule="evenodd" d="M10.83 1.793l-2.037 1.36c-.065.044-.126.091-.183.14H6.244c-.45 0-.864.242-1.086.632L3.905 6.128l2.462.21c1.062.09 2.128.124 3.193.101l.79.373-.53 1.121a31.5 31.5 0 01-3.58-.1l-3.502-.3a.5.5 0 00-.536.414l2.176.668A1.848 1.848 0 015.635 9.96a.462.462 0 01-.512.563l-2.928-.394v.683a1 1 0 001 1h5.699c.49.744 1.533 1.111 2.44.506l.758-.506h2.023a1 1 0 001-1v-.683l-.63.084 2.13-1.42V14.123a1 1 0 01-1 1h-1.5a1 1 0 01-1-1v-.812h-8.92v.812a1 1 0 01-1 1h-1.5a1 1 0 01-1-1V8.032c0-.928.629-1.698 1.47-1.93l-.118-.189h-.64a.75.75 0 010-1.5H2.88l.144.23.83-1.46a2.75 2.75 0 012.39-1.39h4.586z" clip-rule="evenodd"/>
    <mask id="a">
      <path fill-rule="evenodd" d="M10.174 4.68a.18.18 0 01-.023-.312L15.787.605c.152-.101.34.061.262.226l-1.842 3.902a.18.18 0 00.086.239l2.204 1.04a.18.18 0 01.023.311l-5.637 3.763c-.151.101-.34-.061-.262-.226l1.842-3.901a.18.18 0 00-.085-.24l-2.204-1.04z" clip-rule="evenodd"/>
    </mask>
    <path fill-rule="evenodd" d="M10.174 4.68a.18.18 0 01-.023-.312L15.787.605c.152-.101.34.061.262.226l-1.842 3.902a.18.18 0 00.086.239l2.204 1.04a.18.18 0 01.023.311l-5.637 3.763c-.151.101-.34-.061-.262-.226l1.842-3.901a.18.18 0 00-.085-.24l-2.204-1.04z" clip-rule="evenodd"/>
    <path d="M10.883 10.086l.479.717-.479-.717zm5.614-4.074l.367-.78-.367.78zm.023.311l.478.717-.478-.717zm-2.313-1.59l.78.368-.78-.368zm.086.239l.368-.78-.368.78zm-4.142-.604l.478.717-.478-.717zM15.787.605l.479.717-.479-.717zm.262.226l.78.368-.78-.368zm.217.49l-5.637 3.764-.957-1.434 5.637-3.763.957 1.434zm-2.838 3.044L15.27.463l1.559.736L14.987 5.1l-1.56-.736zm2.7 2.426l-2.203-1.04.736-1.559 2.204 1.04-.736 1.56zM10.406 9.37l5.636-3.763.957 1.434-5.636 3.763-.957-1.434zm2.838-3.042L11.4 10.228l-1.56-.736 1.843-3.901 1.559.736zM10.542 3.9l2.203 1.04-.735 1.56-2.204-1.04.736-1.56zm1.142 1.69a.682.682 0 00.326.91l.735-1.56c.52.245.743.866.498 1.387l-1.56-.736zm-.322 5.213c-.879.587-1.971-.356-1.52-1.31l1.559.735c.295-.625-.421-1.243-.996-.859l.957 1.434zm5.502-5.571c.733.346.808 1.358.134 1.808l-.957-1.434a.682.682 0 00.088 1.185l.735-1.56zM14.987 5.1a.682.682 0 00-.326-.909l-.736 1.56a1.042 1.042 0 01-.497-1.387l1.559.736zm-4.358-.016a.682.682 0 00-.087-1.185l-.736 1.56a1.042 1.042 0 01-.134-1.809l.957 1.434zm4.68-5.197c.878-.586 1.97.356 1.52 1.31l-1.56-.735c-.294.626.421 1.243.997.859l-.957-1.434z" mask="url(#a)"/>
  </g>
  <defs>
    <clipPath id="clip0_1534_4763">
      <path d="M0 0h16v16H0z" transform="translate(.653 .55)"/>
    </clipPath>
  </defs>
</svg>
