<svg xmlns="http://www.w3.org/2000/svg" fill="currentColor" aria-hidden="true" viewBox="-2 -2 20 20">
  <g clip-path="url(#clip0_1534_4773)">
    <path d="M9.674 7.71h1.51l-1.81 2.707 2.043 3.01H9.849l-1.244-1.86-.56.837h.56v1.023H5.794l2.042-3.01-1.81-2.706h1.51l1.07 1.574 1.068-1.574z"/>
    <path fill-rule="evenodd" d="M3.921.88h3.582a7.363 7.363 0 017.363 7.362v6.889c0 .87-.706 1.576-1.577 1.576H3.921c-.87 0-1.577-.706-1.577-1.576V2.456c0-.87.706-1.577 1.577-1.577zm-.077 1.576c0-.042.035-.077.077-.077h3.307c.955 0 1.73.775 1.73 1.73v1.102c0 .871.705 1.577 1.576 1.577h1.102c.956 0 1.73.774 1.73 1.73v6.613a.077.077 0 01-.077.076H3.921a.077.077 0 01-.077-.076V2.456zm6.613 1.653c0-.358-.058-.703-.166-1.026a5.89 5.89 0 012.371 2.371 3.226 3.226 0 00-1.026-.166h-1.102a.077.077 0 01-.077-.077V4.11z" clip-rule="evenodd"/>
  </g>
  <defs>
    <clipPath id="clip0_1534_4773">
      <path d="M0 0h16v16H0z" transform="translate(.605 .793)"/>
    </clipPath>
  </defs>
</svg>
