<svg xmlns="http://www.w3.org/2000/svg" fill="currentColor" aria-hidden="true" viewBox="-2 -2 20 20">
  <g clip-path="url(#clip0_1534_4755)">
    <path fill-rule="evenodd" d="M3.697.585a1.75 1.75 0 00-1.75 1.75V15.05h-.544a.75.75 0 000 1.5h1.13a.752.752 0 00.164.018h8.71a.752.752 0 00.165-.018h1.13a.75.75 0 000-1.5h-.544V9.524h.44a.25.25 0 01.25.25v2.98c0 .966.784 1.75 1.75 1.75h.304a1.75 1.75 0 001.75-1.75V7.798a5.75 5.75 0 00-.688-2.729l-1.472-2.73a.75.75 0 00-1.32.713l1.471 2.73a4.25 4.25 0 01.51 2.016v4.956a.25.25 0 01-.25.25h-.305a.25.25 0 01-.25-.25v-2.98a1.75 1.75 0 00-1.75-1.75h-.44V2.335a1.75 1.75 0 00-1.75-1.75H3.697zm6.96 14.465V6.664H3.448v8.386h7.21zm-7.21-9.886H10.657V2.335a.25.25 0 00-.25-.25h-6.71a.25.25 0 00-.25.25v2.83z" clip-rule="evenodd"/>
  </g>
  <defs>
    <clipPath id="clip0_1534_4755">
      <path d="M0 0h16v16H0z" transform="translate(.653 .55)"/>
    </clipPath>
  </defs>
</svg>
