<svg xmlns="http://www.w3.org/2000/svg" fill="currentColor" aria-hidden="true" viewBox="-2 -2 20 20">
  <g clip-path="url(#clip0_1534_4775)">
    <path d="M3.225 6.721l-.53-.53.53.53 3.567-3.567c.352-.352.462-.836.435-1.226a.248.248 0 01.072-.194l.324-.324a.25.25 0 01.354 0l3.54 3.539a.25.25 0 010 .354l-.325.324a.248.248 0 01-.194.072c-.39-.027-.874.083-1.226.435L6.205 9.7c-.352.352-.462.836-.435 1.226a.248.248 0 01-.072.194l-.324.324a.25.25 0 01-.354 0l-3.54-3.54a.25.25 0 010-.353l.325-.324a.248.248 0 01.194-.072c.39.027.874-.083 1.226-.435zm7.192 2.27a.25.25 0 01.353 0l4.752 4.752a1.207 1.207 0 11-1.708 1.708L9.063 10.7a.25.25 0 010-.353l1.354-1.354z"/>
  </g>
  <defs>
    <clipPath id="clip0_1534_4775">
      <path d="M0 0h16v16H0z" transform="translate(.653 .55)"/>
    </clipPath>
  </defs>
</svg>
