<svg xmlns="http://www.w3.org/2000/svg" fill="currentColor" aria-hidden="true" viewBox="-2 -2 20 20">
  <g stroke-linecap="round" stroke-linejoin="round" stroke-width="1.5" clip-path="url(#clip0_1534_4785)">
    <path d="M1.402 1.829a.5.5 0 01.5-.5h2.3a.5.5 0 01.5.5v2.3a.5.5 0 01-.5.5h-2.3a.5.5 0 01-.5-.5v-2.3zM6.976 1.829a.5.5 0 01.5-.5h2.3a.5.5 0 01.5.5v2.3a.5.5 0 01-.5.5h-2.3a.5.5 0 01-.5-.5v-2.3zM12.55 1.829a.5.5 0 01.5-.5h2.3a.5.5 0 01.5.5v2.3a.5.5 0 01-.5.5h-2.3a.5.5 0 01-.5-.5v-2.3zM1.402 7.4a.5.5 0 01.5-.5h2.3a.5.5 0 01.5.5v2.3a.5.5 0 01-.5.5h-2.3a.5.5 0 01-.5-.5V7.4zM6.976 7.4a.5.5 0 01.5-.5h2.3a.5.5 0 01.5.5v2.3a.5.5 0 01-.5.5h-2.3a.5.5 0 01-.5-.5V7.4zM12.55 7.4a.5.5 0 01.5-.5h2.3a.5.5 0 01.5.5v2.3a.5.5 0 01-.5.5h-2.3a.5.5 0 01-.5-.5V7.4zM1.402 12.97a.5.5 0 01.5-.5h2.3a.5.5 0 01.5.5v2.3a.5.5 0 01-.5.5h-2.3a.5.5 0 01-.5-.5v-2.3zM6.976 12.97a.5.5 0 01.5-.5h2.3a.5.5 0 01.5.5v2.3a.5.5 0 01-.5.5h-2.3a.5.5 0 01-.5-.5v-2.3zM12.55 12.97a.5.5 0 01.5-.5h2.3a.5.5 0 01.5.5v2.3a.5.5 0 01-.5.5h-2.3a.5.5 0 01-.5-.5v-2.3z"/>
  </g>
  <defs>
    <clipPath id="clip0_1534_4785">
      <path d="M0 0h16v16H0z" transform="translate(.653 .55)"/>
    </clipPath>
  </defs>
</svg>
