<svg xmlns="http://www.w3.org/2000/svg" fill="currentColor" aria-hidden="true" viewBox="-2 -2 20 20">
  <path stroke-linecap="round" stroke-linejoin="round" d="M4.025 7.842c.593 0 1.129-.328 1.495-.795a6.651 6.651 0 012.105-1.765c.531-.283.992-.704 1.216-1.263a3.31 3.31 0 00.236-1.23v-.465c0-.305.247-.552.552-.552.914 0 1.655.741 1.655 1.655 0 .848-.19 1.65-.532 2.368-.195.41.079.943.534.943m0 0h2.3c.755 0 1.43.51 1.51 1.262a8.791 8.791 0 01-1.899 6.479c-.284.354-.725.536-1.18.536H9.063c-.356 0-.71-.058-1.047-.17l-2.291-.764a3.311 3.311 0 00-1.047-.17H3.489m7.797-7.173H9.629m-6.14 7.173c.061.15.127.298.199.443.145.294-.058.66-.385.66h-.668c-.654 0-1.26-.38-1.451-1.006a8.828 8.828 0 01-.383-2.58c0-1.142.217-2.234.612-3.235.224-.57.798-.903 1.41-.903h.775c.347 0 .548.409.368.706a6.59 6.59 0 00-.958 3.432c0 .878.17 1.716.481 2.483z"/>
</svg>
