<svg xmlns="http://www.w3.org/2000/svg" fill="currentColor" aria-hidden="true" viewBox="-2 -2 20 20">
  <path stroke-linecap="round" stroke-linejoin="round" d="M5.786 2.487h-1.54a1.66 1.66 0 00-1.587 1.171L.879 9.442a1.66 1.66 0 00-.073.488V13c0 .918.743 1.661 1.66 1.661h11.068a1.66 1.66 0 001.66-1.66V9.93c0-.166-.025-.33-.073-.489l-1.78-5.784a1.66 1.66 0 00-1.587-1.171h-1.54M.806 9.68h2.848a1.66 1.66 0 011.484.917l.19.378a1.66 1.66 0 001.484.918h2.375a1.66 1.66 0 001.485-.918l.19-.378a1.66 1.66 0 011.484-.917h2.848M8 1.933V8.02m0 0L5.786 5.807M8 8.02l2.213-2.213"/>
</svg>
