<svg xmlns="http://www.w3.org/2000/svg" fill="currentColor" aria-hidden="true" viewBox="-2 -2 20 20">
  <g clip-path="url(#clip0_1534_4751)">
    <path fill-rule="evenodd" d="M.653 8.55c0 4.416 3.584 8 8 8s8-3.584 8-8-3.584-8-8-8-8 3.584-8 8zm.907 0a7.097 7.097 0 017.093-7.093 7.097 7.097 0 017.093 7.093 7.097 7.097 0 01-7.093 7.093A7.097 7.097 0 011.56 8.55zm1.472 0c0 .843.181 1.632.512 2.347l.811-5.963A5.598 5.598 0 003.032 8.55zm7.264-5.376A5.57 5.57 0 007.288 3.1l1.536 5.099 1.472-5.024v-.001zm2.816 1.963v.001-.001zm0 .001a5.606 5.606 0 011.162 3.412c0 .832-.18 1.61-.5 2.315l-.662-5.727zm-4.97 8.618l1.28.02v.002l1.93-6.443.47 5.845a5.578 5.578 0 01-3.169.98 5.633 5.633 0 01-2.912-.81l.501-5.781 1.9 6.187z" clip-rule="evenodd"/>
  </g>
  <defs>
    <clipPath id="clip0_1534_4751">
      <path d="M0 0h16v16H0z" transform="translate(.653 .55)"/>
    </clipPath>
  </defs>
</svg>
