<svg xmlns="http://www.w3.org/2000/svg" fill="currentColor" aria-hidden="true" viewBox="-2 -2 20 20">
  <g clip-path="url(#clip0_1534_4770)">
    <path fill-rule="evenodd" d="M5.733 1.135A1 1 0 017 .61l1.299.494a1 1 0 00.71 0l1.3-.493a1 1 0 011.266.525l.57 1.267a1 1 0 00.502.502l1.268.57a1 1 0 01.524 1.268l-.493 1.298a1 1 0 000 .71l.493 1.3a1 1 0 01-.525 1.267l-1.268.57a1 1 0 00-.273.181c.008.025.013.05.018.076l1 5.501a.75.75 0 01-1.04.82l-3.698-1.628-3.698 1.629a.75.75 0 01-1.04-.821l1-5.5a.751.751 0 01.018-.077.999.999 0 00-.274-.182l-1.267-.57a1 1 0 01-.525-1.267l.494-1.3a1 1 0 000-.71l-.493-1.3a1 1 0 01.525-1.266l1.268-.57a1 1 0 00.502-.502l.57-1.267zm1.265 11.047a1 1 0 01-.91-.103l-.444 2.445 2.707-1.192a.75.75 0 01.604 0l2.708 1.192-.445-2.445a1 1 0 01-.911.103l-1.3-.494a1 1 0 00-.71 0l-1.299.494zM4.772 6.396a3.881 3.881 0 117.762 0 3.881 3.881 0 01-7.762 0z" clip-rule="evenodd"/>
  </g>
  <defs>
    <clipPath id="clip0_1534_4770">
      <path d="M0 0h16v16H0z" transform="translate(.653 .55)"/>
    </clipPath>
  </defs>
</svg>
