<svg xmlns="http://www.w3.org/2000/svg" fill="currentColor" aria-hidden="true" viewBox="-2 -2 20 20">
  <g clip-path="url(#clip0_1534_4772)">
    <path d="M7.15 4.818a6.75 6.75 0 00-2.5.686A7.25 7.25 0 018.653 4.3h.001a7.25 7.25 0 017.123 5.898.436.436 0 01-.12.397.693.693 0 01-.503.205c-.382 0-.81-.338-.96-.92A6.748 6.748 0 007.15 4.818zm-.06 5.17l.133.106.469-.585-.469.585c.363.29.804.319 1.143.24l-.171-.73.171.73a1.25 1.25 0 11-.876.757l.16-.404-.272-.34-.288-.359z"/>
  </g>
  <defs>
    <clipPath id="clip0_1534_4772">
      <path d="M0 0h16v16H0z" transform="matrix(-1 0 0 1 16.653 .55)"/>
    </clipPath>
  </defs>
</svg>
