<svg xmlns="http://www.w3.org/2000/svg" fill="currentColor" aria-hidden="true" viewBox="-2 -2 20 20">
  <g stroke-linecap="round" stroke-linejoin="round" stroke-width="1.5" clip-path="url(#clip0_1243_5069)">
    <path d="M.917 2.43c0-.534.432-.966.965-.966h3.864c.534 0 .966.432.966.966v3.863a.966.966 0 01-.966.966H1.882a.966.966 0 01-.965-.966V2.43zM.917 10.8c0-.533.432-.965.965-.965h3.864c.534 0 .966.432.966.966v3.864a.966.966 0 01-.966.966H1.882a.966.966 0 01-.965-.966V10.8zM9.288 2.43c0-.534.432-.966.966-.966h3.864c.533 0 .966.432.966.966v3.863a.966.966 0 01-.966.966h-3.864a.966.966 0 01-.966-.966V2.43z"/>
    <path d="M3.492 4.04h.644v.643h-.644V4.04zM3.492 12.41h.644v.645h-.644v-.644zM11.864 4.04h.644v.643h-.644V4.04zM9.288 9.835h.644v.644h-.644v-.644zM9.288 14.987h.644v.644h-.644v-.644zM14.44 9.835h.644v.644h-.644v-.644zM14.44 14.987h.644v.644h-.644v-.644zM11.864 12.41h.644v.645h-.644v-.644z"/>
  </g>
  <defs>
    <clipPath id="clip0_1243_5069">
      <path d="M0 0h16v16H0z" transform="translate(0 .547)"/>
    </clipPath>
  </defs>
</svg>
