<svg xmlns="http://www.w3.org/2000/svg" fill="currentColor" aria-hidden="true" viewBox="-2 -2 20 20">
  <g stroke-linecap="round" stroke-linejoin="round" stroke-width="1.5" clip-path="url(#clip0_1243_5090)">
    <path d="M.872 3.363c0-1.074.87-1.944 1.944-1.944H4.76c1.074 0 1.944.87 1.944 1.944v1.944c0 1.074-.87 1.944-1.944 1.944H2.816A1.944 1.944 0 01.872 5.307V3.363zM.872 11.787c0-1.074.87-1.944 1.944-1.944H4.76c1.074 0 1.944.87 1.944 1.944v1.944c0 1.074-.87 1.944-1.944 1.944H2.816a1.944 1.944 0 01-1.944-1.944v-1.944zM9.296 3.363c0-1.074.87-1.944 1.944-1.944h1.944c1.074 0 1.944.87 1.944 1.944v1.944c0 1.074-.87 1.944-1.944 1.944H11.24a1.944 1.944 0 01-1.944-1.944V3.363zM9.296 11.787c0-1.074.87-1.944 1.944-1.944h1.944c1.074 0 1.944.87 1.944 1.944v1.944c0 1.074-.87 1.944-1.944 1.944H11.24a1.944 1.944 0 01-1.944-1.944v-1.944z"/>
  </g>
  <defs>
    <clipPath id="clip0_1243_5090">
      <path d="M0 0h16v16H0z" transform="translate(0 .547)"/>
    </clipPath>
  </defs>
</svg>
