<svg xmlns="http://www.w3.org/2000/svg" fill="currentColor" aria-hidden="true" viewBox="-2 -2 20 20">
  <g clip-path="url(#clip0_1534_4774)">
    <path fill-rule="evenodd" d="M2.57 8.55c0-.136.004-.27.012-.403l2.692 1.757c.963.629 1.595 1.54 1.767 2.545l.35 2.054A6.086 6.086 0 012.57 8.55zm6.08 5.273l.262-1.532a4.4 4.4 0 01.392-1.203 2.247 2.247 0 01-1.307-.002 4.4 4.4 0 01.392 1.205l.262 1.532zm6.087-5.273c0 2.93-2.07 5.375-4.827 5.954l.35-2.055c.172-1.005.805-1.916 1.768-2.545l2.696-1.76c.009.134.013.27.013.406zm-.708-1.388l-2.718.463c-.25.042-.502.079-.754.11a2.24 2.24 0 01.327 1.494c.097-.073.197-.142.3-.21l2.845-1.857zM6.403 8.934c0 .101.007.2.02.298a5.995 5.995 0 00-.305-.213L3.266 7.157l2.844.476c.214.036.429.067.644.094a2.24 2.24 0 00-.35 1.207zM3.186 5.877l3.13.523c1.584.265 3.201.262 4.785-.007l3.02-.515a6.084 6.084 0 00-10.934-.001zM1.07 8.55a7.584 7.584 0 1115.168 0 7.584 7.584 0 01-15.168 0zm7.584-.366a.75.75 0 100 1.5.75.75 0 000-1.5z" clip-rule="evenodd"/>
  </g>
  <defs>
    <clipPath id="clip0_1534_4774">
      <path d="M0 0h16v16H0z" transform="translate(.653 .55)"/>
    </clipPath>
  </defs>
</svg>
