<svg xmlns="http://www.w3.org/2000/svg" fill="currentColor" aria-hidden="true" viewBox="-2 -2 20 20">
  <path stroke-linecap="round" stroke-linejoin="round" d="M5.236 13.47a1.106 1.106 0 11-2.212 0m2.212 0a1.106 1.106 0 10-2.212 0m2.212 0H9.66m-6.636 0H1.642a.83.83 0 01-.83-.829v-2.488m12.719 3.318a1.106 1.106 0 01-2.212 0m2.212 0a1.106 1.106 0 00-2.212 0m2.212 0h.83c.457 0 .831-.372.803-.83a13.2 13.2 0 00-2.37-6.777 1.516 1.516 0 00-1.164-.634H9.66m1.659 8.24H9.66m0-8.24v-.706a.816.816 0 00-.728-.816 35.798 35.798 0 00-7.392 0 .816.816 0 00-.727.816v5.63M9.66 5.23v4.923m0 3.318v-3.318m0 0H.813"/>
</svg>
