<?xml version="1.0" encoding="utf-8"?>
<!-- Generator: Adobe Illustrator 27.5.0, SVG Export Plug-In . SVG Version: 6.00 Build 0)  -->
<svg version="1.1" id="Layer_1" xmlns="http://www.w3.org/2000/svg" xmlns:xlink="http://www.w3.org/1999/xlink" x="0px" y="0px"
	 viewBox="0 0 125 75" style="enable-background:new 0 0 125 75;" xml:space="preserve">
<style type="text/css">
	.st0{fill:#FFFFFF;}
	.st1{clip-path:url(#SVGID_00000099659509406584646310000008231604161977006980_);}
	.st2{fill:#000830;}
	.st3{fill:#00B2E3;}
	.st4{fill:#54565B;}
</style>
<rect class="st0" width="125" height="75"/>
<g>
	<defs>
		<rect id="SVGID_1_" x="7.5" y="9.5" width="110" height="56"/>
	</defs>
	<clipPath id="SVGID_00000114774052645164267150000003566065684776774302_">
		<use xlink:href="#SVGID_1_"  style="overflow:visible;"/>
	</clipPath>
	<g style="clip-path:url(#SVGID_00000114774052645164267150000003566065684776774302_);">
		<path class="st2" d="M76.5,15.4c-1.2,1.6-2.6,3.3-4.1,4.8C67.7,25.2,62,29.5,57,32.6c-0.8,0.5-1.6,0.9-2.3,1.3
			c0.2,0.2,0.4,0.3,0.7,0.5c0.8,0.5,1.6,1.1,2.3,1.5C60.1,37.3,62,38,62,38l0.5,0.2l0.5-0.2c0,0,3.3-1.3,6.6-3.6
			c3.3-2.3,6.9-5.9,6.9-10.6L76.5,15.4z M73.9,23.8c0,3.6-2.8,6.6-5.8,8.7c-2.7,1.9-5,2.8-5.6,3.1c-0.4-0.2-1.3-0.5-2.5-1.2
			c6-4.1,10.7-9.2,14-14V23.8L73.9,23.8z"/>
		<path class="st2" d="M71.4,11.6c-4.6-0.6-8.5-2-8.5-2l-0.5-0.2L62,9.7c0,0-6.2,2.3-12.3,2.3h-1.3v11.9c0,0.4,0.1,0.8,0.1,1.2
			l0.1,0.3c0.2,1,0.5,1.9,0.9,2.8c0.7-0.4,1.5-0.8,2.3-1.2c3.3-1.8,7.1-4,11-6.8c1.1-0.8,2.1-1.6,3.2-2.4c1.6-1.2,3.2-2.6,4.7-4
			c0.7-0.7,1.5-1.4,2.2-2.1L71.4,11.6z M51.1,24.1c0,0,0-0.2,0-0.3v-9.6c5.8-0.3,10.8-1.9,11.5-2.2c0.5,0.2,3,1,6.5,1.6
			c-1.9,1.5-3.9,2.9-5.9,4.2l-4,2.4C56.5,21.7,53.9,23,51.1,24.1"/>
		<path class="st3" d="M75.3,13.5c-5.7,7.9-20,17.7-20,17.7c-0.7,0.4-1.4,0.9-2.2,1.3c-0.9-0.8-1.7-1.7-2.4-2.6
			c0.7-0.4,1.4-0.8,2.2-1.2C52.8,28.7,60.8,25.3,75.3,13.5L75.3,13.5z"/>
		<path class="st2" d="M10,55.1H7.6V43.2H10V55.1z"/>
		<path class="st2" d="M23.6,55.1h-2.4l-4.8-7.8v7.8H14V43.2h2.4l4.8,7.8v-7.8h2.4V55.1z"/>
		<path class="st2" d="M36.3,45.2h-3.6v9.9h-2.4v-9.9h-3.6v-2h9.6V45.2z"/>
		<path class="st2" d="M46.5,49.9h-4.7v3.2h5.5v2h-7.9V43.2h7.9v2h-5.5V48h4.7L46.5,49.9L46.5,49.9z"/>
		<path class="st2" d="M54.8,50.7h-1.9v4.3h-2.4V43.2h4.4c1.4,0,2.5,0.3,3.2,0.9c0.8,0.6,1.1,1.5,1.1,2.6c0,0.8-0.2,1.5-0.5,2
			c-0.4,0.5-0.9,1-1.6,1.3l2.6,4.8v0.1H57L54.8,50.7L54.8,50.7z M52.9,48.8h2c0.6,0,1.1-0.2,1.4-0.5c0.3-0.3,0.5-0.8,0.5-1.3
			s-0.2-1-0.5-1.3c-0.3-0.3-0.8-0.5-1.5-0.5h-2L52.9,48.8L52.9,48.8z"/>
		<path class="st2" d="M68.9,52c0-0.5-0.2-0.8-0.5-1.1c-0.3-0.2-0.9-0.5-1.8-0.8c-0.9-0.3-1.5-0.5-2-0.8c-1.3-0.7-2-1.7-2-2.9
			c0-0.6,0.2-1.2,0.5-1.7c0.4-0.5,0.9-0.9,1.6-1.2c0.7-0.3,1.4-0.4,2.3-0.4s1.6,0.2,2.3,0.5c0.7,0.3,1.2,0.8,1.6,1.3
			c0.4,0.5,0.5,1.2,0.5,1.9h-2.4c0-0.5-0.2-1-0.5-1.3C68,45.2,67.5,45,66.9,45c-0.6,0-1.1,0.1-1.4,0.4c-0.3,0.3-0.5,0.6-0.5,1
			c0,0.4,0.2,0.7,0.6,1c0.4,0.3,1,0.5,1.7,0.7c1.4,0.4,2.4,0.9,3.1,1.6c0.6,0.6,1,1.4,1,2.3c0,1-0.4,1.8-1.2,2.4
			c-0.8,0.6-1.8,0.9-3.1,0.9c-0.9,0-1.7-0.2-2.5-0.5c-0.8-0.3-1.3-0.8-1.7-1.4c-0.4-0.6-0.6-1.2-0.6-2h2.5c0,1.3,0.8,2,2.3,2
			c0.6,0,1-0.1,1.4-0.4C68.7,52.7,68.8,52.4,68.9,52L68.9,52z"/>
		<path class="st2" d="M83.6,45.2h-3.6v9.9h-2.4v-9.9h-3.6v-2h9.6V45.2z"/>
		<path class="st2" d="M92.3,52.6H88l-0.8,2.4h-2.6l4.4-11.8h2.3l4.4,11.8h-2.6L92.3,52.6L92.3,52.6z M88.7,50.7h3l-1.5-4.4
			L88.7,50.7L88.7,50.7z"/>
		<path class="st2" d="M106.5,45.2h-3.6v9.9h-2.4v-9.9h-3.6v-2h9.6V45.2z"/>
		<path class="st2" d="M116.7,49.9H112v3.2h5.5v2h-7.9V43.2h7.9v2H112V48h4.7L116.7,49.9L116.7,49.9z"/>
		<path class="st4" d="M7.5,65.4v-7.9h2.2c0.6,0,1.2,0.2,1.7,0.4c0.5,0.3,0.9,0.7,1.2,1.3c0.3,0.5,0.4,1.2,0.4,1.9v0.7
			c0,0.7-0.2,1.3-0.4,1.9c-0.3,0.5-0.7,1-1.2,1.3c-0.5,0.3-1.1,0.4-1.8,0.4L7.5,65.4L7.5,65.4z M8.2,58.1v6.8h1.5
			c0.8,0,1.5-0.3,2-0.8c0.5-0.5,0.8-1.3,0.8-2.3v-0.7c0-0.9-0.2-1.6-0.8-2.2c-0.5-0.5-1.1-0.8-1.9-0.8L8.2,58.1L8.2,58.1z"/>
		<path class="st4" d="M21.5,61.6h-3.7v3.2H22v0.6h-4.9v-7.9H22v0.6h-4.2v3h3.7V61.6z"/>
		<path class="st4" d="M30.3,63.5c0-0.4-0.2-0.8-0.5-1c-0.3-0.3-0.9-0.5-1.7-0.7c-0.8-0.2-1.4-0.5-1.8-0.8c-0.5-0.4-0.8-0.9-0.8-1.5
			c0-0.6,0.2-1.1,0.8-1.5c0.5-0.4,1.1-0.6,1.9-0.6c0.5,0,1,0.1,1.4,0.3c0.4,0.2,0.7,0.5,1,0.9c0.2,0.4,0.3,0.8,0.3,1.2h-0.7
			c0-0.5-0.2-1-0.5-1.3c-0.4-0.3-0.9-0.5-1.5-0.5s-1.1,0.1-1.4,0.4c-0.4,0.3-0.5,0.6-0.5,1.1c0,0.4,0.2,0.7,0.5,1
			c0.3,0.3,0.8,0.5,1.6,0.7c0.7,0.2,1.2,0.4,1.6,0.6c0.4,0.2,0.6,0.5,0.8,0.8c0.2,0.3,0.3,0.6,0.3,1c0,0.6-0.2,1.1-0.8,1.5
			c-0.5,0.4-1.2,0.6-2,0.6c-0.5,0-1.1-0.1-1.5-0.3c-0.5-0.2-0.8-0.5-1.1-0.8c-0.2-0.4-0.4-0.8-0.4-1.2H26c0,0.5,0.2,1,0.6,1.3
			c0.4,0.3,1,0.5,1.7,0.5c0.6,0,1.1-0.1,1.5-0.4C30.1,64.2,30.3,63.9,30.3,63.5L30.3,63.5z"/>
		<path class="st4" d="M35.6,65.4h-0.7v-7.9h0.7V65.4z"/>
		<path class="st4" d="M45.8,64.5c-0.2,0.3-0.6,0.6-1.1,0.8c-0.5,0.2-1,0.3-1.7,0.3c-0.6,0-1.2-0.2-1.6-0.4
			c-0.5-0.3-0.9-0.7-1.1-1.2c-0.3-0.5-0.4-1.2-0.4-1.9v-1c0-1.1,0.3-2,0.8-2.6c0.5-0.6,1.3-1,2.2-1c0.8,0,1.5,0.2,2,0.6
			c0.5,0.4,0.8,1,0.9,1.7h-0.7c-0.1-0.6-0.3-1-0.7-1.3C44.1,58.1,43.6,58,43,58c-0.7,0-1.3,0.3-1.8,0.8c-0.4,0.5-0.6,1.3-0.6,2.2
			v0.9c0,0.6,0.1,1.1,0.3,1.6c0.2,0.5,0.5,0.8,0.9,1.1c0.4,0.3,0.8,0.4,1.3,0.4c0.6,0,1.1-0.1,1.5-0.3c0.3-0.1,0.5-0.3,0.6-0.4v-2
			H43v-0.6h2.8L45.8,64.5L45.8,64.5z"/>
		<path class="st4" d="M55.9,65.4h-0.7l-4.5-6.8v6.8h-0.7v-7.9h0.7l4.5,6.8v-6.8h0.7V65.4z"/>
		<path class="st4" d="M69.8,63.5c0-0.4-0.2-0.8-0.5-1c-0.3-0.3-0.9-0.5-1.7-0.7c-0.8-0.2-1.4-0.5-1.8-0.8c-0.5-0.4-0.8-0.9-0.8-1.5
			c0-0.6,0.2-1.1,0.8-1.5c0.5-0.4,1.1-0.6,1.9-0.6c0.5,0,1,0.1,1.4,0.3c0.4,0.2,0.7,0.5,1,0.9c0.2,0.4,0.3,0.8,0.3,1.2h-0.7
			c0-0.5-0.2-1-0.5-1.3c-0.4-0.3-0.9-0.5-1.5-0.5c-0.6,0-1.1,0.1-1.4,0.4c-0.4,0.3-0.5,0.6-0.5,1.1c0,0.4,0.2,0.7,0.5,1
			c0.3,0.3,0.8,0.5,1.6,0.7c0.7,0.2,1.2,0.4,1.6,0.6c0.4,0.2,0.6,0.5,0.8,0.8c0.2,0.3,0.3,0.6,0.3,1c0,0.6-0.2,1.1-0.8,1.5
			c-0.5,0.4-1.2,0.6-2,0.6c-0.5,0-1.1-0.1-1.5-0.3c-0.5-0.2-0.8-0.5-1.1-0.8c-0.2-0.4-0.4-0.8-0.4-1.2h0.7c0,0.5,0.2,1,0.6,1.3
			c0.4,0.3,1,0.5,1.7,0.5c0.6,0,1.1-0.1,1.5-0.4C69.6,64.2,69.8,63.9,69.8,63.5L69.8,63.5z"/>
		<path class="st4" d="M76.6,61.8l2.4-4.3h0.8L77,62.4v3h-0.7v-3l-2.8-4.9h0.8L76.6,61.8L76.6,61.8z"/>
		<path class="st4" d="M87.7,63.5c0-0.4-0.2-0.8-0.5-1c-0.3-0.3-0.9-0.5-1.7-0.7c-0.8-0.2-1.4-0.5-1.8-0.8c-0.5-0.4-0.8-0.9-0.8-1.5
			c0-0.6,0.2-1.1,0.8-1.5s1.1-0.6,1.9-0.6c0.5,0,1,0.1,1.4,0.3c0.4,0.2,0.7,0.5,1,0.9c0.2,0.4,0.3,0.8,0.3,1.2h-0.7
			c0-0.5-0.2-1-0.5-1.3c-0.4-0.3-0.9-0.5-1.5-0.5c-0.6,0-1.1,0.1-1.4,0.4c-0.4,0.3-0.5,0.6-0.5,1.1c0,0.4,0.2,0.7,0.5,1
			c0.3,0.3,0.8,0.5,1.6,0.7c0.7,0.2,1.2,0.4,1.6,0.6c0.4,0.2,0.6,0.5,0.8,0.8c0.2,0.3,0.3,0.6,0.3,1c0,0.6-0.2,1.1-0.8,1.5
			s-1.2,0.6-2,0.6c-0.5,0-1.1-0.1-1.5-0.3c-0.5-0.2-0.8-0.5-1.1-0.8c-0.2-0.4-0.4-0.8-0.4-1.2h0.7c0,0.5,0.2,1,0.6,1.3
			c0.4,0.3,1,0.5,1.7,0.5c0.6,0,1.1-0.1,1.5-0.4C87.5,64.2,87.7,63.9,87.7,63.5L87.7,63.5z"/>
		<path class="st4" d="M97.5,58.1h-2.7v7.3h-0.7v-7.3h-2.7v-0.6h6.1V58.1z"/>
		<path class="st4" d="M105.6,61.6h-3.7v3.2h4.2v0.6h-4.9v-7.9h4.9v0.6h-4.2v3h3.7V61.6z"/>
		<path class="st4" d="M110.8,57.5l2.9,7l2.9-7h0.9v7.9h-0.7V62l0.1-3.5l-2.9,7h-0.5l-2.9-6.9l0.1,3.5v3.5h-0.7v-7.9H110.8
			L110.8,57.5z"/>
	</g>
</g>
</svg>
