<svg xmlns="http://www.w3.org/2000/svg" fill="none" viewBox="0 0 17 17">
  <g clip-path="url(#clip0_1534_4784)">
    <path fill="#000" fill-rule="evenodd" d="M15.574 2.861a3 3 0 01-.315 2.178 8.007 8.007 0 00-4.98-3.321 3 3 0 015.295 1.143zM7.027 1.717zM5.138.59a3 3 0 011.889 1.127 8.006 8.006 0 00-4.98 3.322A3 3 0 015.138.589zM3.153 9.544a5.5 5.5 0 1111 0 5.5 5.5 0 01-11 0zm5.5-7a7 7 0 100 14 7 7 0 000-14zm2.694 5.873a.75.75 0 10-1.22-.872l-2.09 2.926-.937-.937a.75.75 0 00-1.06 1.06l1.562 1.563a.75.75 0 001.14-.094l2.605-3.646z" clip-rule="evenodd"/>
  </g>
  <defs>
    <clipPath id="clip0_1534_4784">
      <path fill="#fff" d="M0 0h16v16H0z" transform="translate(.653 .55)"/>
    </clipPath>
  </defs>
</svg>
