<svg xmlns="http://www.w3.org/2000/svg" viewBox="0 0 16 16" fill="currentColor" aria-hidden="true">
  <g clip-path="url(#a)">
    <path d="M14.606 4.489a3 3 0 00-4.98-3.321 8.007 8.007 0 014.98 3.32zM6.374 1.168a3 3 0 00-4.98 3.32 8.006 8.006 0 014.98-3.321z"/>
    <path fill-rule="evenodd" d="M8.001 3.5a5.5 5.5 0 100 11 5.5 5.5 0 000-11zm-7 5.5a7 7 0 1114 0 7 7 0 01-14 0zm9.52-2.173a.75.75 0 01.174 1.046L8.091 11.52a.75.75 0 01-1.14.095L5.387 10.05a.75.75 0 011.06-1.06l.937.936 2.09-2.925a.75.75 0 011.046-.175z" clip-rule="evenodd"/>
  </g>
  <defs>
    <clipPath id="a">
      <path d="M0 0h16v16H0z"/>
    </clipPath>
  </defs>
</svg>
