<svg xmlns="http://www.w3.org/2000/svg" fill="none" viewBox="0 0 17 17">
  <g clip-path="url(#clip0_1534_4761)">
    <path fill="#000" fill-rule="evenodd" d="M15.574 2.861a3 3 0 01-.315 2.178 8.007 8.007 0 00-4.98-3.321 3 3 0 015.295 1.143zM7.027 1.717zM5.138.59a3 3 0 011.889 1.127 8.006 8.006 0 00-4.98 3.322A3 3 0 015.138.589zM3.153 9.544a5.5 5.5 0 1111 0 5.5 5.5 0 01-11 0zm5.5-7a7 7 0 100 14 7 7 0 000-14zm.75 4.916a.75.75 0 10-1.5 0v1.334H6.57a.75.75 0 000 1.5h1.333v1.333a.75.75 0 001.5 0v-1.333h1.333a.75.75 0 100-1.5H9.403V7.46z" clip-rule="evenodd"/>
  </g>
  <defs>
    <clipPath id="clip0_1534_4761">
      <path fill="#fff" d="M0 0h16v16H0z" transform="translate(.653 .55)"/>
    </clipPath>
  </defs>
</svg>
