<svg xmlns="http://www.w3.org/2000/svg" viewBox="0 0 16 16" fill="currentColor" aria-hidden="true">
  <g clip-path="url(#a)">
    <path fill-rule="evenodd" d="M2.6 5.6a5.4 5.4 0 0110.8 0v.6c0 1.698.64 3.246 1.694 4.416a.6.6 0 01-.237.965 19.644 19.644 0 01-3.865.994 3 3 0 11-5.984 0 19.667 19.667 0 01-3.865-.995.6.6 0 01-.238-.964A6.574 6.574 0 002.6 6.2v-.6zm3.602 7.12a1.8 1.8 0 103.596 0c-1.196.108-2.4.108-3.596 0z" clip-rule="evenodd"/>
  </g>
  <defs>
    <clipPath id="a">
      <path d="M0 0h16v16H0z"/>
    </clipPath>
  </defs>
</svg>
