<svg xmlns="http://www.w3.org/2000/svg" fill="none" viewBox="0 0 16 17" stroke-width="1.5" stroke="currentColor" aria-hidden="true">
  <path stroke-linecap="round" stroke-linejoin="round" d="M4.203 4.272A1.696 1.696 0 013 5.046c-.279.04-.556.082-.833.128-.772.13-1.322.809-1.322 1.592v6.185c0 .912.74 1.651 1.651 1.651h11.01c.912 0 1.651-.739 1.651-1.651V6.766c0-.783-.55-1.463-1.322-1.592A35.13 35.13 0 0013 5.046c-.495-.07-.939-.35-1.204-.774l-.603-.966a1.609 1.609 0 00-1.274-.763 35.8 35.8 0 00-3.84 0 1.609 1.609 0 00-1.274.763l-.603.966z"/>
  <path stroke-linecap="round" stroke-linejoin="round" d="M11.303 9.098a3.303 3.303 0 11-6.606 0 3.303 3.303 0 016.606 0zM12.954 7.446h.006v.006h-.006v-.006z"/>
</svg>
