<svg xmlns="http://www.w3.org/2000/svg" viewBox="0 0 16 16" fill="currentColor" aria-hidden="true">
  <path fill-rule="evenodd" d="M13.64 4.017l-.767-1.368a2.75 2.75 0 00-2.399-1.405H5.591a2.75 2.75 0 00-2.39 1.39l-.83 1.46-.144-.23H.754a.75.75 0 100 1.5h.64l.118.189a2.001 2.001 0 00-1.47 1.93v6.09a1 1 0 001 1h1.5a1 1 0 001-1v-.811h8.92v.812a1 1 0 001 1h1.5a1 1 0 001-1V7.5a2 2 0 00-1.446-1.922l-.039-.069.091-.146h.64a.75.75 0 100-1.5h-1.473l-.095.153zM5.591 2.744c-.45 0-.864.24-1.086.632L3.252 5.578l2.462.21a30 30 0 005.358-.024l1.666-.156a.74.74 0 01.018-.101l-1.191-2.125a1.25 1.25 0 00-1.09-.638H5.59zm8.86 4.654l-2.172.667a1.848 1.848 0 00-1.257 1.345.462.462 0 00.511.563l2.928-.394v.683a1 1 0 01-1 1H2.542a1 1 0 01-1-1v-.683l2.928.394a.462.462 0 00.512-.563 1.848 1.848 0 00-1.257-1.345l-2.176-.668a.5.5 0 01.535-.413l3.502.298a31.5 31.5 0 005.626-.024l2.703-.255a.5.5 0 01.536.395z" clip-rule="evenodd"/>
</svg>
