<svg xmlns="http://www.w3.org/2000/svg" fill="none" viewBox="0 0 16 17" stroke-width="1.5" stroke="currentColor" aria-hidden="true">
  <path stroke-linecap="round" stroke-linejoin="round" d="M14.087 5.973c.653.21 1.107.832 1.107 1.547v3.162c0 .839-.625 1.55-1.461 1.618-.25.02-.501.039-.753.054v2.28l-2.213-2.213c-.999 0-1.988-.04-2.966-.12a1.56 1.56 0 01-.609-.179m6.895-6.15a1.57 1.57 0 00-.351-.07 35.89 35.89 0 00-5.938 0c-.835.07-1.458.78-1.458 1.618v3.162c0 .618.34 1.167.852 1.44m6.895-6.15V4.59c0-1.196-.85-2.233-2.036-2.387a35.753 35.753 0 00-9.209 0C1.656 2.357.806 3.394.806 4.59v4.594c0 1.196.85 2.233 2.036 2.387.426.055.854.103 1.284.143v3.474l3.066-3.066"/>
</svg>
