<svg viewBox="0 0 16 17" stroke-width="1.5" stroke="currentColor" aria-hidden="true" fill="none">
  <g clip-path="url(#a)">
    <path stroke-linecap="round" stroke-linejoin="round" d="M.873 9.534c0 1.17.821 2.19 1.98 2.36.793.116 1.596.207 2.406.27v3.394l2.864-2.864a1.535 1.535 0 011.037-.444 35.38 35.38 0 003.988-.356c1.158-.17 1.979-1.19 1.979-2.36V5.135c0-1.17-.822-2.189-1.98-2.36A35.373 35.373 0 008 2.402c-1.749 0-3.468.128-5.148.375-1.158.17-1.979 1.189-1.979 2.36v4.398z"/>
  </g>
  <defs>
    <clipPath id="a">
      <path d="M0 0h16v16H0z" transform="translate(0 .98)"/>
    </clipPath>
  </defs>
</svg>
