<svg xmlns="http://www.w3.org/2000/svg" fill="none" viewBox="0 0 16 17" stroke-width="1.5" stroke="currentColor" aria-hidden="true">
  <g stroke-linecap="round" stroke-linejoin="round" stroke-width="1.5" clip-path="url(#clip0_1243_4938)">
    <path d="M6.678 2.117a.897.897 0 01.885-.75h.873c.439 0 .813.317.885.75l.119.713c.056.339.306.61.623.742.317.131.681.114.96-.086l.589-.42a.897.897 0 011.156.096l.617.617c.31.31.35.799.096 1.156l-.42.589c-.2.279-.218.643-.086.96.132.317.403.566.741.623l.714.118c.432.073.75.447.75.886v.872a.897.897 0 01-.75.886l-.714.119c-.338.056-.61.306-.741.623-.132.317-.114.68.085.96l.42.588a.897.897 0 01-.095 1.156l-.617.618c-.31.31-.8.35-1.156.095l-.589-.42c-.28-.2-.643-.217-.96-.085-.317.131-.567.402-.623.74l-.119.714a.898.898 0 01-.885.75h-.873a.897.897 0 01-.885-.75l-.119-.713c-.056-.338-.306-.61-.623-.741-.317-.132-.68-.114-.96.085l-.589.42a.898.898 0 01-1.156-.095l-.617-.617a.898.898 0 01-.096-1.157l.42-.588c.2-.28.218-.644.086-.96-.131-.317-.403-.567-.741-.623l-.713-.12a.897.897 0 01-.75-.885v-.872c0-.439.317-.813.75-.886l.713-.118c.338-.057.61-.306.741-.623.132-.317.114-.681-.085-.96l-.42-.589a.897.897 0 01.095-1.156l.617-.617c.31-.31.8-.351 1.157-.096l.588.42c.28.2.643.217.96.086.317-.132.567-.403.623-.742l.119-.713z"/>
    <path d="M10.393 8.547a2.393 2.393 0 11-4.786 0 2.393 2.393 0 014.786 0z"/>
  </g>
  <defs>
    <clipPath id="clip0_1243_4938">
      <path fill="#fff" d="M0 0h16v16H0z" transform="translate(0 .547)"/>
    </clipPath>
  </defs>
</svg>
