<svg xmlns="http://www.w3.org/2000/svg" viewBox="0 0 16 16" fill="currentColor" aria-hidden="true">
  <path d="M10.177 1.243L8.14 2.603a2.005 2.005 0 00-.183.14H5.591c-.45 0-.864.242-1.087.632L3.252 5.578l2.462.21c1.062.09 2.128.124 3.193.101l.79.373-.53 1.121a31.5 31.5 0 01-3.58-.1l-3.503-.3a.5.5 0 00-.535.414l2.176.668A1.848 1.848 0 014.982 9.41a.462.462 0 01-.512.563l-2.928-.394v.683a1 1 0 001 1H8.24c.491.744 1.534 1.111 2.44.506l.758-.506h2.023a1 1 0 001-1v-.683l-.629.084 2.13-1.42v5.33a1 1 0 01-1 1h-1.5a1 1 0 01-1-1v-.812h-8.92v.812a1 1 0 01-1 1h-1.5a1 1 0 01-1-1V7.482c0-.928.628-1.698 1.47-1.93l-.118-.189h-.64a.75.75 0 110-1.5h1.473l.143.23.83-1.46a2.75 2.75 0 012.391-1.39h4.586z"/>
  <path d="M9.52 4.13a.18.18 0 01-.023-.312L15.134.055c.151-.101.34.061.262.226l-1.842 3.902a.18.18 0 00.086.239l2.204 1.04a.18.18 0 01.023.311L10.23 9.536c-.152.102-.34-.06-.262-.226l1.842-3.9a.18.18 0 00-.086-.24L9.521 4.13z"/>
</svg>
