<svg xmlns="http://www.w3.org/2000/svg" fill="none" viewBox="0 0 17 17">
  <g clip-path="url(#clip0_1534_4779)">
    <path fill="#000" fill-rule="evenodd" d="M3.844 2.456c0-.042.035-.077.077-.077h3.307c.955 0 1.73.775 1.73 1.73v1.102c0 .871.705 1.577 1.576 1.577h1.102c.956 0 1.73.774 1.73 1.73v6.613a.077.077 0 01-.077.076H3.921a.077.077 0 01-.077-.076V2.456zM3.921.879h3.582a7.363 7.363 0 017.363 7.363v6.889c0 .87-.706 1.576-1.577 1.576H3.921c-.87 0-1.577-.706-1.577-1.576V2.456c0-.87.706-1.577 1.577-1.577zm6.536 3.23c0-.358-.058-.703-.166-1.026a5.89 5.89 0 012.371 2.371 3.226 3.226 0 00-1.026-.166h-1.102a.077.077 0 01-.077-.077V4.11zm1.966 7.303c-.157-.155-.507-.238-1.04-.245a8.69 8.69 0 00-1.25.092 3.152 3.152 0 01-.58-.401c-.445-.415-.816-.992-1.047-1.626l.007-.03.033-.134s.25-1.423.184-1.904a.54.54 0 00-.033-.136l-.021-.056c-.068-.157-.202-.323-.411-.314l-.127-.004c-.234 0-.424.119-.473.298-.152.56.005 1.398.288 2.482l-.072.177c-.204.496-.458.995-.683 1.435l-.03.057a24.18 24.18 0 01-.646 1.19l-.2.106c-.015.007-.36.19-.44.239-.685.409-1.138.873-1.214 1.241-.024.118-.006.268.115.338l.195.097a.586.586 0 00.264.064c.488 0 1.055-.607 1.835-1.97a18.35 18.35 0 012.826-.671c.685.385 1.527.653 2.059.653a.946.946 0 00.242-.027.413.413 0 00.24-.164c.103-.155.124-.37.096-.588a.393.393 0 00-.116-.2zm-7.287 2.596c.09-.243.441-.724.962-1.151.033-.027.113-.102.187-.173-.544.869-.909 1.216-1.149 1.324zm3.085-7.103c.157 0 .246.395.254.766.007.37-.08.631-.187.824-.089-.285-.132-.734-.132-1.028 0 0-.007-.562.065-.562zm-.92 5.062c.109-.196.222-.402.338-.621.284-.536.462-.954.595-1.299A4.3 4.3 0 009.37 11.39c-.789.156-1.47.346-2.07.577zm4.971-.045c-.048.03-.185.048-.273.048-.286 0-.64-.13-1.135-.344.19-.014.365-.021.522-.021h.017c.273 0 .36 0 .634.07.28.072.283.218.235.247z" clip-rule="evenodd"/>
  </g>
  <defs>
    <clipPath id="clip0_1534_4779">
      <path fill="#fff" d="M0 0h16v16H0z" transform="translate(.605 .793)"/>
    </clipPath>
  </defs>
</svg>
