<svg xmlns="http://www.w3.org/2000/svg" viewBox="0 0 16 16" fill="currentColor" aria-hidden="true">
  <g clip-path="url(#a)">
    <path fill-rule="evenodd" d="M.8.2a.6.6 0 01.6.6v.432L2.87.864a7.8 7.8 0 015.38.59l.087.044a6.6 6.6 0 004.464.521l2.487-.585a.6.6 0 01.734.648 38.219 38.219 0 00.004 8.27.6.6 0 01-.46.649l-2.49.586a7.8 7.8 0 01-5.276-.616l-.086-.043a6.6 6.6 0 00-4.552-.5l-1.762.44V15.2a.6.6 0 01-1.2 0V.8A.6.6 0 01.8.2z" clip-rule="evenodd"/>
  </g>
  <defs>
    <clipPath id="a">
      <path d="M0 0h16v16H0z"/>
    </clipPath>
  </defs>
</svg>
