<svg xmlns="http://www.w3.org/2000/svg" fill="none" viewBox="0 0 17 17">
  <path stroke="#000" stroke-width="1.5" d="M3.577 2.224h1.416v2.487c0 .69.56 1.25 1.25 1.25h4.749c.69 0 1.25-.56 1.25-1.25V2.224h.005c.332 0 .65.133.886.368l1.482 1.489c.233.234.364.551.364.882v8.663c0 .69-.56 1.25-1.25 1.25H3.577c-.69 0-1.25-.56-1.25-1.25V3.474c0-.69.56-1.25 1.25-1.25zm2.916 0h4.249v2.237H6.493V2.224zm6.639 12.242V9.332c0-.69-.56-1.25-1.25-1.25h-6.46c-.69 0-1.25.56-1.25 1.25v5.134h1.5V9.582h5.96v4.884h1.5z"/>
</svg>
