<svg xmlns="http://www.w3.org/2000/svg" fill="none" viewBox="0 0 17 17">
  <g clip-path="url(#clip0_1534_4759)">
    <path fill="#000" fill-rule="evenodd" d="M13.153 1.3a.75.75 0 00-1.5 0v4.112a.75.75 0 001.5 0V1.3zM9.947.599a.75.75 0 01.75.75v4.473c0 .69.56 1.25 1.25 1.25h.87c.69 0 1.25-.56 1.25-1.25V1.35a.75.75 0 011.5 0v4.473a2.75 2.75 0 01-1.722 2.551c.134.24.21.517.21.812v5.7a1.673 1.673 0 01-3.346 0v-5.7c0-.295.076-.571.21-.812a2.75 2.75 0 01-1.722-2.55V1.348a.75.75 0 01.75-.75zm2.435 8.413a.173.173 0 00-.173.173v5.7a.173.173 0 10.346 0v-5.7a.173.173 0 00-.173-.173zm-5.995-.365c.301-.153.58-.355.826-.606.64-.657.989-1.587.989-2.7a5.997 5.997 0 00-.892-3.113C6.77 1.372 5.907.598 4.802.598s-1.967.774-2.508 1.63a5.997 5.997 0 00-.892 3.112c0 1.114.35 2.044.99 2.7.245.252.523.454.825.607a1.67 1.67 0 00-.088.538v5.7a1.673 1.673 0 003.346 0v-5.7c0-.188-.031-.37-.088-.538zm-1.585.365a.173.173 0 00-.173.173v5.7a.173.173 0 00.346 0v-5.7a.173.173 0 00-.173-.173zm-1.9-3.672c0-.812.256-1.672.66-2.31.419-.663.882-.931 1.24-.931s.821.268 1.24.93c.404.64.66 1.499.66 2.311 0 .796-.244 1.326-.563 1.653-.32.329-.78.519-1.337.519-.557 0-1.016-.19-1.337-.519-.32-.327-.563-.857-.563-1.653z" clip-rule="evenodd"/>
  </g>
  <defs>
    <clipPath id="clip0_1534_4759">
      <path fill="#fff" d="M0 0h16v16H0z" transform="translate(.653 .55)"/>
    </clipPath>
  </defs>
</svg>
