<svg xmlns="http://www.w3.org/2000/svg" viewBox="0 0 16 16" stroke-width="1.5" stroke="currentColor" aria-hidden="true" fill="none">
  <defs>
    <clipPath id="a">
      <path d="M0 0h16v16H0z"/>
    </clipPath>
  </defs>
  <g clip-path="url(#a)">
    <path d="M.828 7.356a.25.25 0 010-.354l.324-.324a.248.248 0 01.194-.072c.39.027.874-.083 1.226-.435l3.567-3.567c.351-.352.461-.836.434-1.226a.248.248 0 01.073-.194L6.97.86a.25.25 0 01.354 0l3.539 3.54a.25.25 0 010 .353l-.324.324a.248.248 0 01-.195.072c-.39-.027-.874.083-1.225.435L5.55 9.15c-.351.352-.461.836-.434 1.226a.248.248 0 01-.073.194l-.324.324a.25.25 0 01-.353 0L.827 7.356zm7.581 2.44l1.355-1.354a.25.25 0 01.353 0l4.752 4.752A1.207 1.207 0 1113.16 14.9l-4.75-4.75a.25.25 0 010-.354z"/>
  </g>
</svg>
