<svg xmlns="http://www.w3.org/2000/svg" viewBox="0 0 16 16" stroke-width="1.5" stroke="currentColor" aria-hidden="true" fill="none">
  <defs>
    <clipPath id="a">
      <path d="M0 0h16v16H0z"/>
    </clipPath>
  </defs>
  <g stroke-linecap="round" stroke-linejoin="round" stroke-width="1.5" clip-path="url(#a)">
    <path d="M.75 1.279a.5.5 0 01.5-.5h2.3a.5.5 0 01.5.5v2.3a.5.5 0 01-.5.5h-2.3a.5.5 0 01-.5-.5v-2.3zm5.573 0a.5.5 0 01.5-.5h2.3a.5.5 0 01.5.5v2.3a.5.5 0 01-.5.5h-2.3a.5.5 0 01-.5-.5v-2.3zm5.573 0a.5.5 0 01.5-.5h2.3a.5.5 0 01.5.5v2.3a.5.5 0 01-.5.5h-2.3a.5.5 0 01-.5-.5v-2.3zM.75 6.85a.5.5 0 01.5-.5h2.3a.5.5 0 01.5.5v2.3a.5.5 0 01-.5.5h-2.3a.5.5 0 01-.5-.5v-2.3zm5.573 0a.5.5 0 01.5-.5h2.3a.5.5 0 01.5.5v2.3a.5.5 0 01-.5.5h-2.3a.5.5 0 01-.5-.5v-2.3zm5.573 0a.5.5 0 01.5-.5h2.3a.5.5 0 01.5.5v2.3a.5.5 0 01-.5.5h-2.3a.5.5 0 01-.5-.5v-2.3zM.75 12.421a.5.5 0 01.5-.5h2.3a.5.5 0 01.5.5v2.3a.5.5 0 01-.5.5h-2.3a.5.5 0 01-.5-.5v-2.3zm5.573 0a.5.5 0 01.5-.5h2.3a.5.5 0 01.5.5v2.3a.5.5 0 01-.5.5h-2.3a.5.5 0 01-.5-.5v-2.3zm5.573 0a.5.5 0 01.5-.5h2.3a.5.5 0 01.5.5v2.3a.5.5 0 01-.5.5h-2.3a.5.5 0 01-.5-.5v-2.3z"/>
  </g>
</svg>
