<svg xmlns="http://www.w3.org/2000/svg" fill="none" viewBox="0 0 17 17">
  <g clip-path="url(#clip0_1534_4753)">
    <path fill="#000" fill-rule="evenodd" d="M13.277 2.825l-.629-1.122A2.256 2.256 0 0010.68.55H6.674c-.811 0-1.56.435-1.961 1.14l-.681 1.198-.118-.189H2.706a.615.615 0 000 1.231h.524l.097.155c-.69.19-1.206.822-1.206 1.583v4.998c0 .453.368.82.82.82h1.231a.82.82 0 00.82-.82V10h7.318v.666c0 .453.368.82.82.82h1.231a.82.82 0 00.82-.82V5.684c0-.754-.505-1.381-1.185-1.577l-.032-.057.075-.12h.525a.615.615 0 100-1.23h-1.209l-.078.125zM6.674 1.781c-.369 0-.71.198-.892.518L4.755 4.106l2.02.172c1.462.125 2.933.118 4.395-.02l1.368-.128a.617.617 0 01.014-.082l-.977-1.743a1.025 1.025 0 00-.895-.524H6.674zm7.269 3.818l-1.783.547a1.516 1.516 0 00-1.03 1.104.38.38 0 00.419.462l2.402-.324v.56a.82.82 0 01-.82.821H4.172a.82.82 0 01-.82-.82v-.56l2.402.323a.379.379 0 00.42-.462 1.516 1.516 0 00-1.031-1.104l-1.785-.548a.41.41 0 01.439-.339l2.873.245c1.536.131 3.08.124 4.615-.02l2.218-.209a.41.41 0 01.44.324z" clip-rule="evenodd"/>
    <path stroke="#000" stroke-linecap="round" stroke-width="1.5" d="M1.407 13.172v1.114a1.5 1.5 0 001.5 1.5h11.476a1.5 1.5 0 001.5-1.5v-1.114"/>
    <path stroke="#000" stroke-linecap="round" stroke-linejoin="round" stroke-width="1.5" d="M10.655 11.802l-2.01 1.37-2.01-1.37"/>
  </g>
  <defs>
    <clipPath id="clip0_1534_4753">
      <path fill="#fff" d="M0 0h16v16H0z" transform="translate(.653 .55)"/>
    </clipPath>
  </defs>
</svg>
