<svg xmlns="http://www.w3.org/2000/svg" viewBox="0 0 16 17" fill="currentColor" aria-hidden="true">
  <g clip-path="url(#clip0_1022_8649)">
    <path d="M7.709 16.164l-.006-.003-.018-.01a9.183 9.183 0 01-.315-.178 20.664 20.664 0 01-3.484-2.603c-1.888-1.76-3.89-4.376-3.89-7.598 0-2.404 2.023-4.31 4.464-4.31 1.436 0 2.721.656 3.54 1.685a4.514 4.514 0 013.54-1.684c2.441 0 4.463 1.905 4.463 4.309 0 3.222-2 5.838-3.89 7.598a20.67 20.67 0 01-3.483 2.603 12.992 12.992 0 01-.315.178l-.018.01-.006.003-.002.002a.617.617 0 01-.578 0l-.002-.002z"/>
  </g>
  <defs>
    <clipPath id="clip0_1022_8649">
      <path d="M0 0h16v16H0z" transform="translate(0 .547)"/>
    </clipPath>
  </defs>
</svg>
