<svg xmlns="http://www.w3.org/2000/svg" viewBox="0 0 16 16" fill="currentColor" aria-hidden="true">
  <g clip-path="url(#a)">
    <path d="M7.709 15.617l-.006-.003-.018-.01a9.183 9.183 0 01-.315-.178 20.664 20.664 0 01-3.484-2.603c-1.888-1.76-3.89-4.376-3.89-7.598C-.003 2.82 2.02.915 4.46.915 5.896.915 7.181 1.571 8 2.6A4.514 4.514 0 0111.54.915c2.441 0 4.463 1.906 4.463 4.31 0 3.222-2 5.837-3.89 7.598a20.67 20.67 0 01-3.483 2.602 12.992 12.992 0 01-.315.18l-.018.01-.006.002-.002.001a.617.617 0 01-.578 0h-.002z"/>
  </g>
  <defs>
    <clipPath id="a">
      <path d="M0 0h16v16H0z"/>
    </clipPath>
  </defs>
</svg>
