<svg xmlns="http://www.w3.org/2000/svg" viewBox="0 0 16 16" stroke-width="1.5" stroke="currentColor" aria-hidden="true" fill="none">
  <defs>
    <clipPath id="a">
      <path d="M0 0h16v16H0z"/>
    </clipPath>
  </defs>
  <g clip-path="url(#a)">
    <path stroke-linecap="round" d="M2.841 11.484l3.271-3.27a1.427 1.427 0 012.018 0l3.27 3.27m-.95-.95l.893-.894a1.426 1.426 0 012.017 0l1.845 1.844m-12.774.663h-.704a1 1 0 01-1-1V3.042a1 1 0 011-1H12.7a1 1 0 011 1v.599M3.792 13.86h10.462a.951.951 0 00.95-.95V5.302a.951.951 0 00-.95-.95H3.792a.951.951 0 00-.95.95v7.609c0 .525.425.95.95.95zm6.658-7.13h.004v.005h-.004V6.73zm.237 0a.238.238 0 11-.475 0 .238.238 0 01.475 0z"/>
  </g>
</svg>
