<svg xmlns="http://www.w3.org/2000/svg" viewBox="0 0 16 16" fill="currentColor" aria-hidden="true">
  <g clip-path="url(#a)">
    <path fill-rule="evenodd" d="M8.638.374a.75.75 0 00-1.276 0L3.114 7.238c-2.098 3.39-.192 7.833 3.71 8.65a5.749 5.749 0 002.352 0c3.902-.816 5.808-5.26 3.71-8.65L8.638.374zM7.436 3.106L8 2.194l3.61 5.834c1.551 2.505.143 5.788-2.74 6.391a4.25 4.25 0 01-1.74 0c-2.361-.494-3.734-2.787-3.3-4.977a3.518 3.518 0 004.223 3.548c2.41-.494 3.583-3.247 2.267-5.326L7.436 3.106z" clip-rule="evenodd"/>
  </g>
  <defs>
    <clipPath id="a">
      <path d="M0 0h16v16H0z"/>
    </clipPath>
  </defs>
</svg>
