<svg viewBox="0 0 16 17" stroke-width="1.5" stroke="currentColor" aria-hidden="true" fill="none">
  <path stroke-linecap="round" stroke-linejoin="round" d="M.859 11.726l3.778-3.779a1.648 1.648 0 012.331 0l3.779 3.779m-1.099-1.099l1.032-1.032a1.648 1.648 0 012.33 0l2.131 2.131M1.957 14.473h12.086c.606 0 1.098-.492 1.098-1.099v-8.79c0-.606-.492-1.098-1.098-1.098H1.957c-.606 0-1.098.492-1.098 1.099v8.789c0 .607.492 1.099 1.098 1.099zm7.691-8.24h.005v.005h-.005v-.005zm.275 0a.275.275 0 11-.55 0 .275.275 0 01.55 0z"/>
</svg>
