<svg xmlns="http://www.w3.org/2000/svg" viewBox="0 0 16 16" stroke-width="1.5" stroke="currentColor" aria-hidden="true" fill="none">
  <defs>
    <clipPath id="a">
      <path d="M0 0h16v16H0z"/>
    </clipPath>
  </defs>
  <g stroke-linecap="round" stroke-linejoin="round" stroke-width="1.5" clip-path="url(#a)">
    <path d="M.917 1.882c0-.533.432-.966.965-.966h3.864c.534 0 .966.433.966.966v3.864a.966.966 0 01-.966.966H1.882a.966.966 0 01-.965-.966V1.882zm0 8.372c0-.534.432-.966.965-.966h3.864c.534 0 .966.432.966.966v3.864a.966.966 0 01-.966.966H1.882a.966.966 0 01-.965-.966v-3.864zm8.371-8.372c0-.533.432-.966.966-.966h3.864c.533 0 .966.433.966.966v3.864a.966.966 0 01-.966.966h-3.864a.966.966 0 01-.966-.966V1.882z"/>
    <path d="M3.492 3.492h.644v.644h-.644v-.644zm0 8.372h.644v.644h-.644v-.644zm8.372-8.372h.644v.644h-.644v-.644zM9.288 9.288h.644v.644h-.644v-.644zm0 5.152h.644v.644h-.644v-.644zm5.152-5.152h.644v.644h-.644v-.644zm0 5.152h.644v.644h-.644v-.644zm-2.576-2.576h.644v.644h-.644v-.644z"/>
  </g>
</svg>
