<svg viewBox="0 0 17 17" stroke-width="1.5" stroke="currentColor" aria-hidden="true" fill="none">
  <g stroke-linecap="round" stroke-linejoin="round" stroke-width="1.5" clip-path="url(#a)">
    <path d="M1.732 2.862c0-.534.432-.966.966-.966H6.56c.534 0 .966.432.966.966v3.864a.966.966 0 01-.966.965H2.698a.966.966 0 01-.966-.965V2.862zm0 8.371c0-.533.432-.966.966-.966H6.56c.534 0 .966.433.966.966v3.864a.966.966 0 01-.966.966H2.698a.966.966 0 01-.966-.966v-3.864zm8.371-8.371c0-.534.433-.966.966-.966h3.864c.533 0 .966.432.966.966v3.864a.966.966 0 01-.966.965h-3.864a.966.966 0 01-.966-.965V2.862z"/>
    <path d="M4.308 4.472h.643v.644h-.643v-.644zm0 8.371h.643v.644h-.643v-.644zm8.371-8.371h.644v.644h-.644v-.644zm-2.576 5.795h.644v.644h-.644v-.644zm0 5.152h.644v.644h-.644v-.644zm5.152-5.152h.644v.644h-.644v-.644zm0 5.152h.644v.644h-.644v-.644zm-2.576-2.576h.644v.644h-.644v-.644z"/>
  </g>
  <defs>
    <clipPath id="a">
      <path d="M0 0h16v16H0z" transform="translate(.815 .98)"/>
    </clipPath>
  </defs>
</svg>
