<svg xmlns="http://www.w3.org/2000/svg" fill="none" viewBox="0 0 17 17">
  <g clip-path="url(#clip0_1534_4790)">
    <path fill="#000" fill-rule="evenodd" d="M7.144.56c-.957 0-1.733.777-1.733 1.733v.778c0 .103.01.204.026.302a2.403 2.403 0 00-2.056 2.205l-.427 5.9a2.442 2.442 0 00-.007.19c-.776.034-1.51.64-1.51 1.567v.577a2.737 2.737 0 002.738 2.738h8.957a2.737 2.737 0 002.737-2.738v-.55c0-.928-.734-1.533-1.51-1.567 0-.072-.001-.144-.006-.217l-.428-5.9a2.403 2.403 0 00-2.056-2.205c.017-.098.026-.199.026-.302v-.778c0-.956-.775-1.732-1.732-1.732h-3.02zm-.016 4.244h4.401c.497 0 .91.384.946.88l.427 5.9a.948.948 0 01-.945 1.016h-.061c.02-.123.027-.25.019-.38l-.222-3.74a1.732 1.732 0 00-1.73-1.63h-2.62c-.917 0-1.675.714-1.73 1.63l-.221 3.74c-.008.13-.001.257.019.38H5.35a.948.948 0 01-.946-1.017l.428-5.9a.948.948 0 01.945-.88h1.351zm3.041-1.455a.278.278 0 00.272-.278v-.778a.278.278 0 00-.278-.278h-3.02a.278.278 0 00-.277.278v.778c0 .152.12.275.271.278h3.032zm.02 9.25H7.117a.278.278 0 01-.274-.294l.222-3.74a.278.278 0 01.278-.26h2.62c.148 0 .27.114.278.26l.222 3.74a.278.278 0 01-.274.295zm-7.28.57c-.007.01-.017.028-.017.066v.577c0 .709.574 1.284 1.283 1.284h8.957c.708 0 1.283-.575 1.283-1.284v-.55c0-.039-.01-.056-.018-.066a.12.12 0 00-.055-.038.12.12 0 00-.068-.006c-.012.003-.03.01-.055.039l-.197.239c-.33.397-.819.627-1.335.627H4.645c-.512 0-.997-.226-1.327-.618l-.231-.275c-.025-.03-.043-.036-.055-.039a.12.12 0 00-.068.006.12.12 0 00-.055.039z" clip-rule="evenodd"/>
  </g>
  <defs>
    <clipPath id="clip0_1534_4790">
      <path fill="#fff" d="M0 0h16v16H0z" transform="translate(.653 .55)"/>
    </clipPath>
  </defs>
</svg>
