<svg xmlns="http://www.w3.org/2000/svg" viewBox="0 0 16 16" stroke-width="1.5" stroke="currentColor" aria-hidden="true" fill="none">
  <defs>
    <clipPath id="a">
      <path d="M0 0h16v16H0z"/>
    </clipPath>
  </defs>
  <g stroke-linecap="round" stroke-linejoin="round" stroke-width="1.5" clip-path="url(#a)">
    <path d="M.872 2.816c0-1.074.87-1.944 1.944-1.944H4.76c1.074 0 1.944.87 1.944 1.944V4.76c0 1.074-.87 1.944-1.944 1.944H2.816A1.944 1.944 0 01.872 4.76V2.816zm0 8.424c0-1.074.87-1.944 1.944-1.944H4.76c1.074 0 1.944.87 1.944 1.944v1.944c0 1.074-.87 1.944-1.944 1.944H2.816a1.944 1.944 0 01-1.944-1.944V11.24zm8.424-8.424c0-1.074.87-1.944 1.944-1.944h1.944c1.074 0 1.944.87 1.944 1.944V4.76c0 1.074-.87 1.944-1.944 1.944H11.24A1.944 1.944 0 019.296 4.76V2.816zm0 8.424c0-1.074.87-1.944 1.944-1.944h1.944c1.074 0 1.944.87 1.944 1.944v1.944c0 1.074-.87 1.944-1.944 1.944H11.24a1.944 1.944 0 01-1.944-1.944V11.24z"/>
  </g>
</svg>
