<svg xmlns="http://www.w3.org/2000/svg" viewBox="0 0 16 16" fill="currentColor" aria-hidden="true">
  <g clip-path="url(#a)">
    <path fill-rule="evenodd" d="M9.069 1.053c-.408-.98-1.796-.98-2.204 0L5.262 4.91 1.1 5.242C.042 5.327-.387 6.647.419 7.338l3.17 2.716-.968 4.062c-.148.62.199 1.163.695 1.377a1.182 1.182 0 001.087-.082l3.564-2.176 3.563 2.176c.906.553 2.03-.263 1.783-1.295l-.969-4.062 3.171-2.716c.806-.69.377-2.01-.68-2.096l-4.163-.333L9.07 1.053zM8 11.683c.204.005.408.063.589.174l3.094 1.89-.841-3.527a1.193 1.193 0 01.384-1.183l2.753-2.358-3.613-.29a1.193 1.193 0 01-1.007-.731L8 2.39v9.292z" clip-rule="evenodd"/>
  </g>
  <defs>
    <clipPath id="a">
      <path d="M0 0h16v16H0z"/>
    </clipPath>
  </defs>
</svg>
