<svg xmlns="http://www.w3.org/2000/svg" fill="none" viewBox="0 0 17 17">
  <g clip-path="url(#clip0_1534_4768)">
    <mask id="a" fill="#fff">
      <path fill-rule="evenodd" d="M6.903.56a.75.75 0 100 1.5h3.5a.75.75 0 000-1.5h-3.5zm-3.75 8.984a5.5 5.5 0 1111 0 5.5 5.5 0 01-11 0zm5.5-7a7 7 0 100 14 7 7 0 000-14zm3.584 4.502a.75.75 0 10-1.06-1.06L9.272 7.888a1.75 1.75 0 101.04 1.081l1.924-1.924z" clip-rule="evenodd"/>
    </mask>
    <path fill="#000" fill-rule="evenodd" d="M6.903.56a.75.75 0 100 1.5h3.5a.75.75 0 000-1.5h-3.5zm-3.75 8.984a5.5 5.5 0 1111 0 5.5 5.5 0 01-11 0zm5.5-7a7 7 0 100 14 7 7 0 000-14zm3.584 4.502a.75.75 0 10-1.06-1.06L9.272 7.888a1.75 1.75 0 101.04 1.081l1.924-1.924z" clip-rule="evenodd"/>
    <path fill="#000" d="M12.237 5.985l-.707.707.707-.707zm0 1.06l-.707-.706.707.707zm-1.06-1.06l.706.707-.707-.707zM9.272 7.89l-.354.935.604.229.457-.457-.707-.707zm1.04 1.08l-.707-.706-.438.437.197.587.948-.317zM7.153 1.31a.25.25 0 01-.25.25v-2a1.75 1.75 0 00-1.75 1.75h2zm-.25-.25a.25.25 0 01.25.25h-2c0 .967.784 1.75 1.75 1.75v-2zm3.5 0h-3.5v2h3.5v-2zm-.25.25a.25.25 0 01.25-.25v2a1.75 1.75 0 001.75-1.75h-2zm.25.25a.25.25 0 01-.25-.25h2a1.75 1.75 0 00-1.75-1.75v2zm-3.5 0h3.5v-2h-3.5v2zm1.75 1.484a6.5 6.5 0 00-6.5 6.5h2a4.5 4.5 0 014.5-4.5v-2zm6.5 6.5a6.5 6.5 0 00-6.5-6.5v2a4.5 4.5 0 014.5 4.5h2zm-6.5 6.5a6.5 6.5 0 006.5-6.5h-2a4.5 4.5 0 01-4.5 4.5v2zm-6.5-6.5a6.5 6.5 0 006.5 6.5v-2a4.5 4.5 0 01-4.5-4.5h-2zm.5 0a6 6 0 016-6v-2a8 8 0 00-8 8h2zm6 6a6 6 0 01-6-6h-2a8 8 0 008 8v-2zm6-6a6 6 0 01-6 6v2a8 8 0 008-8h-2zm-6-6a6 6 0 016 6h2a8 8 0 00-8-8v2zm2.877 3.148a.25.25 0 010-.353l1.414 1.414a1.75 1.75 0 000-2.475L11.53 6.692zm.353 0a.25.25 0 01-.353 0l1.414-1.414a1.75 1.75 0 00-2.475 0l1.414 1.414zM9.98 8.596l1.903-1.904-1.414-1.414-1.903 1.904L9.98 8.596zm-1.327.18c.095 0 .184.017.266.048l.708-1.87a2.746 2.746 0 00-.974-.178v2zm-.75.75a.75.75 0 01.75-.75v-2a2.75 2.75 0 00-2.75 2.75h2zm.75.75a.75.75 0 01-.75-.75h-2a2.75 2.75 0 002.75 2.75v-2zm.75-.75a.75.75 0 01-.75.75v2a2.75 2.75 0 002.75-2.75h-2zm-.038-.239a.748.748 0 01.038.239h2c0-.304-.05-.598-.142-.874l-1.896.635zM11.53 6.34L9.606 8.263l1.414 1.414 1.924-1.924-1.414-1.414z" mask="url(#a)"/>
  </g>
  <defs>
    <clipPath id="clip0_1534_4768">
      <path fill="#fff" d="M0 0h16v16H0z" transform="translate(.653 .55)"/>
    </clipPath>
  </defs>
</svg>
