<svg xmlns="http://www.w3.org/2000/svg" viewBox="0 0 16 16" fill="currentColor" aria-hidden="true">
  <g clip-path="url(#a)">
    <path fill-rule="evenodd" d="M3.48 7.723a4.487 4.487 0 118.975 0 4.487 4.487 0 01-8.974 0zm.847 0c0-.09.003-.178.01-.266l1.7 1.159c.517.353.858.865.95 1.43l.202 1.234a3.642 3.642 0 01-2.862-3.557zm3.64 2.719l.082-.505c.044-.269.13-.528.252-.773a1.271 1.271 0 01-.67 0c.124.244.21.504.253.773l.083.505zm3.642-2.72a3.642 3.642 0 01-2.865 3.559l.202-1.235c.092-.565.433-1.077.951-1.43l1.702-1.16c.007.087.01.177.01.267zm-.89-.663l-1.24.211a8.89 8.89 0 01-.398.059 1.264 1.264 0 01.149.748c.035-.026.07-.05.106-.075l1.383-.943zm-4.02.88c0 .047.002.094.007.14a3.385 3.385 0 00-.109-.077L5.21 7.055l1.312.22c.112.018.224.035.336.05a1.264 1.264 0 00-.158.614zM4.7 6.112l1.96.328a8.04 8.04 0 002.676-.004l1.898-.323a3.641 3.641 0 00-6.534 0zm3.267 1.404a.423.423 0 100 .846.423.423 0 000-.846z" clip-rule="evenodd"/>
    <path d="M14.742 8.06a6.729 6.729 0 10-10.58 5.827l-.081-1.179a.625.625 0 111.247-.086l.172 2.49a.625.625 0 01-.578.667H4.92v.002l-3.036.217a.625.625 0 01-.09-1.246l1.31-.094a7.979 7.979 0 118.62.784.625.625 0 11-.58-1.107 6.73 6.73 0 003.598-6.274z"/>
  </g>
  <defs>
    <clipPath id="a">
      <path d="M0 0h16v16H0z"/>
    </clipPath>
  </defs>
</svg>
