<svg xmlns="http://www.w3.org/2000/svg" fill="none" viewBox="0 0 17 17">
  <g clip-path="url(#clip0_1534_4748)">
    <path stroke="#000" stroke-linecap="round" stroke-linejoin="round" stroke-width="1.25" d="M12.083 15.408a7.354 7.354 0 10-6.777.026M5.525 15.677l-.178-2.494m-2.86 2.711l3.037-.217"/>
    <path fill="#000" fill-rule="evenodd" d="M7.817 3.374a.96.96 0 00-.96.96v.432c0 .057.004.112.014.167a1.332 1.332 0 00-1.14 1.222l-.236 3.27c-.003.035-.004.07-.004.105a.864.864 0 00-.837.868v.32c0 .838.68 1.518 1.517 1.518h4.964c.838 0 1.518-.68 1.518-1.518v-.305a.864.864 0 00-.838-.868c.001-.04 0-.08-.003-.12l-.237-3.27a1.332 1.332 0 00-1.14-1.222.97.97 0 00.015-.167v-.432a.96.96 0 00-.96-.96H7.817zm-.011 2.352h2.441c.276 0 .504.212.524.487l.237 3.27a.526.526 0 01-.524.563h-.034a.97.97 0 00.011-.21l-.123-2.073a.96.96 0 00-.958-.903H7.927a.96.96 0 00-.958.903l-.123 2.072a.965.965 0 00.01.211h-.033a.525.525 0 01-.525-.563l.237-3.27a.525.525 0 01.524-.487h.747zm1.688-.807a.154.154 0 00.15-.153v-.432a.154.154 0 00-.154-.154H7.817a.154.154 0 00-.155.154v.432c0 .083.067.151.15.153h1.682zm.012 5.127H7.8a.154.154 0 01-.15-.163l.123-2.072a.154.154 0 01.154-.145H9.38c.081 0 .148.063.153.145l.123 2.072a.154.154 0 01-.15.163zm-4.036.316c-.004.006-.01.015-.01.036v.32c0 .393.319.712.711.712h4.964a.711.711 0 00.711-.712v-.305c0-.021-.005-.03-.01-.036a.067.067 0 00-.03-.022.067.067 0 00-.038-.003c-.006.002-.016.006-.03.022l-.11.132a.96.96 0 01-.739.348H6.432a.96.96 0 01-.735-.342l-.129-.153c-.013-.016-.024-.02-.03-.022a.068.068 0 00-.038.004.066.066 0 00-.03.021z" clip-rule="evenodd"/>
  </g>
  <defs>
    <clipPath id="clip0_1534_4748">
      <path fill="#fff" d="M0 0h16v16H0z" transform="translate(.653 .55)"/>
    </clipPath>
  </defs>
</svg>
