<svg xmlns="http://www.w3.org/2000/svg" fill="none" viewBox="0 0 17 17">
  <g clip-path="url(#clip0_1534_4771)">
    <path stroke="#000" stroke-linecap="round" stroke-linejoin="round" stroke-width="1.25" d="M12.083 15.408a7.354 7.354 0 10-6.777.026M5.525 15.677l-.178-2.494m-2.86 2.711l3.037-.217"/>
    <path fill="#000" d="M3.22 9.488c0 .352.12.638.36.86.24.22.587.33 1.038.33.446 0 .798-.11 1.056-.328.259-.221.388-.522.388-.904a.992.992 0 00-.21-.643.992.992 0 00-.565-.349v-.01a.944.944 0 00.483-.386c.103-.17.154-.36.154-.57 0-.3-.112-.552-.337-.758-.223-.206-.542-.309-.957-.309-.412 0-.736.112-.972.334-.234.221-.351.49-.351.804v.036h.747V7.56c0-.182.049-.32.146-.416.097-.095.236-.143.415-.143.175 0 .308.048.402.146.096.095.143.238.143.427 0 .194-.056.346-.168.455-.113.108-.276.162-.492.162h-.325v.556h.353c.244 0 .431.058.562.172.131.112.197.28.197.505 0 .232-.058.404-.174.514-.115.109-.277.163-.486.163-.208 0-.37-.054-.486-.163-.114-.108-.171-.26-.171-.455v-.048h-.75v.054zM6.319 8.881c0 .637.144 1.095.432 1.376.289.281.642.421 1.062.421.436 0 .781-.13 1.036-.393.256-.262.385-.602.385-1.019 0-.414-.114-.747-.34-1-.225-.254-.53-.382-.918-.382-.367 0-.655.13-.862.39-.206.26-.31.59-.31.986h.253c0-.247.072-.443.217-.59a.706.706 0 01.525-.221c.224 0 .393.074.505.222.114.148.171.349.171.603 0 .268-.056.473-.168.615-.11.143-.277.214-.5.214-.22 0-.4-.086-.536-.259-.137-.174-.205-.486-.205-.937l-.037-.138c0-.612.147-1.052.441-1.32.296-.27.702-.404 1.219-.404h.067v-.596h-.07c-.773 0-1.36.213-1.763.638-.403.423-.604.99-.604 1.699v.095zM9.44 9.218c0 .438.12.791.36 1.059.24.268.582.402 1.027.402.44 0 .781-.134 1.023-.402.243-.268.365-.62.365-1.059V7.882c0-.439-.121-.791-.363-1.06-.241-.267-.583-.4-1.025-.4-.445 0-.788.134-1.027.404-.24.267-.36.62-.36 1.056v1.336zm.775.062V7.82c0-.24.049-.435.146-.584.098-.152.253-.228.466-.228.216 0 .372.076.47.228.097.15.145.344.145.584v1.46c0 .24-.048.435-.146.587-.097.152-.253.227-.469.227-.215 0-.371-.075-.469-.227-.095-.152-.143-.347-.143-.587zM12.598 7.21c0 .212.074.392.222.54a.726.726 0 00.528.219.7.7 0 00.52-.222.736.736 0 00.218-.537.742.742 0 00-.219-.536.691.691 0 00-.52-.227.712.712 0 00-.527.227.737.737 0 00-.222.536zm.388 0c0-.106.034-.195.104-.266a.352.352 0 01.258-.107c.101 0 .184.035.25.107.067.07.1.16.1.266a.37.37 0 01-.1.264.329.329 0 01-.25.104.357.357 0 01-.362-.368z"/>
  </g>
  <defs>
    <clipPath id="clip0_1534_4771">
      <path fill="#fff" d="M0 0h16v16H0z" transform="translate(.653 .55)"/>
    </clipPath>
  </defs>
</svg>
