<svg xmlns="http://www.w3.org/2000/svg" fill="none" viewBox="0 0 17 17">
  <g clip-path="url(#clip0_1534_4750)">
    <path stroke="#000" stroke-linecap="round" stroke-linejoin="round" stroke-width="1.25" d="M12.083 15.408a7.354 7.354 0 10-6.777.026M5.525 15.677l-.178-2.494m-2.86 2.711l3.037-.217"/>
    <path fill="#000" fill-rule="evenodd" d="M7.234 4.797a.733.733 0 00-.636.37l-.734 1.291 1.442.123c1.045.09 2.096.085 3.14-.014l.977-.091a.428.428 0 01.01-.06l-.698-1.245a.733.733 0 00-.639-.374H7.234zm4.717.746l-.45-.802a1.612 1.612 0 00-1.405-.823H7.234c-.58 0-1.114.311-1.4.815l-.487.855-.084-.135h-.864a.44.44 0 10.001.88h.375l.069.11a1.173 1.173 0 00-.862 1.131V11.144c0 .324.263.586.586.586h.88a.586.586 0 00.586-.586v-.476h5.227v.476c0 .324.262.586.586.586h.879a.586.586 0 00.586-.586V7.585c0-.538-.362-.986-.847-1.126l-.023-.04.054-.086h.374a.44.44 0 100-.88h-.863l-.056.09zm.476 1.982l-1.273.39a1.083 1.083 0 00-.737.789.27.27 0 00.3.33l1.716-.231v.4a.586.586 0 01-.586.586h-6.4a.586.586 0 01-.586-.586v-.4l1.717.23a.27.27 0 00.3-.33 1.083 1.083 0 00-.737-.787l-1.275-.392a.293.293 0 01.313-.242l2.053.175c1.097.094 2.2.089 3.297-.014l1.583-.15a.293.293 0 01.315.232z" clip-rule="evenodd"/>
  </g>
  <defs>
    <clipPath id="clip0_1534_4750">
      <path fill="#fff" d="M0 0h16v16H0z" transform="translate(.653 .55)"/>
    </clipPath>
  </defs>
</svg>
