<svg xmlns="http://www.w3.org/2000/svg" viewBox="0 0 16 16" fill="currentColor" aria-hidden="true">
  <g clip-path="url(#a)">
    <path fill-rule="evenodd" d="M11.298 4.993l-.45-.801a1.612 1.612 0 00-1.405-.824H6.581c-.58 0-1.114.311-1.4.815l-.487.856-.084-.135h-.863a.44.44 0 100 .879h.374l.07.11a1.173 1.173 0 00-.862 1.131v3.57c0 .324.263.586.586.586h.88a.586.586 0 00.585-.586v-.476h5.228v.476c0 .324.262.586.586.586h.879a.586.586 0 00.586-.586V7.035c0-.538-.362-.986-.847-1.126l-.023-.04.053-.086h.375a.44.44 0 000-.88h-.863l-.056.09zm-4.717-.746a.733.733 0 00-.637.37L5.21 5.909l1.443.123c1.045.09 2.096.085 3.14-.013l.977-.092a.427.427 0 01.01-.06l-.698-1.244a.733.733 0 00-.639-.375H6.581zm5.192 2.728l-1.273.39a1.083 1.083 0 00-.736.789.27.27 0 00.3.33l1.716-.231v.4a.586.586 0 01-.586.586h-6.4a.586.586 0 01-.586-.586v-.4l1.716.231a.27.27 0 00.3-.33 1.083 1.083 0 00-.737-.788l-1.275-.392a.293.293 0 01.314-.242l2.052.175a18.43 18.43 0 003.297-.014l1.584-.15a.293.293 0 01.314.232z" clip-rule="evenodd"/>
    <path d="M14.705 8.06a6.729 6.729 0 10-10.58 5.827l-.082-1.179a.625.625 0 011.247-.086l.172 2.49a.625.625 0 01-.578.667h-.002v.002l-3.036.217a.625.625 0 01-.09-1.246l1.31-.094a7.979 7.979 0 118.621.784.625.625 0 11-.58-1.107 6.73 6.73 0 003.598-6.274z"/>
  </g>
  <defs>
    <clipPath id="a">
      <path d="M0 0h16v16H0z"/>
    </clipPath>
  </defs>
</svg>
