<svg viewBox="0 0 16 17" stroke-width="1.5" stroke="currentColor" aria-hidden="true" fill="none">
  <path stroke-linecap="round" stroke-linejoin="round" d="M10.216 13.854a6.93 6.93 0 001.94.275 6.898 6.898 0 003.044-.703 3.047 3.047 0 00-5.565-1.841m.581 2.27v-.003c0-.822-.21-1.595-.58-2.268m.58 2.27v.079a9.1 9.1 0 01-4.71 1.304 9.1 9.1 0 01-4.708-1.304l-.001-.08a4.71 4.71 0 018.838-2.269M8 4.433a2.493 2.493 0 11-4.987 0 2.493 2.493 0 014.987 0zm6.095 1.662a1.94 1.94 0 11-3.879 0 1.94 1.94 0 013.879 0z"/>
</svg>
