<svg xmlns="http://www.w3.org/2000/svg" viewBox="0 0 16 16" stroke-width="1.5" stroke="currentColor" aria-hidden="true" fill="none">
  <defs>
    <clipPath id="a">
      <path d="M0 0h16v16H0z"/>
    </clipPath>
  </defs>
  <g clip-path="url(#a)">
    <path stroke-linecap="round" stroke-linejoin="round" d="M10.216 13.266a6.93 6.93 0 001.94.275 6.898 6.898 0 003.044-.704 3.047 3.047 0 00-5.565-1.841m.581 2.27v-.002c0-.822-.21-1.595-.58-2.268m.58 2.27v.079a9.1 9.1 0 01-4.71 1.304 9.1 9.1 0 01-4.708-1.304l-.001-.081a4.71 4.71 0 018.838-2.268M8 3.844a2.493 2.493 0 11-4.987 0 2.493 2.493 0 014.987 0zm6.095 1.663a1.94 1.94 0 11-3.879 0 1.94 1.94 0 013.879 0z"/>
  </g>
</svg>
