<svg width="17" height="17" viewBox="0 0 17 17" fill="none" xmlns="http://www.w3.org/2000/svg">
<g clip-path="url(#clip0_1534_4782)">
<path d="M5.24896 1.54321C5.24896 1.129 4.91318 0.793213 4.49896 0.793213C4.08475 0.793213 3.74896 1.129 3.74896 1.54321V16.0142C3.74896 16.4284 4.08475 16.7642 4.49896 16.7642C4.91318 16.7642 5.24896 16.4284 5.24896 16.0142L5.24896 9.13674C5.3049 9.33666 5.4115 9.5254 5.56875 9.68265L12.3009 16.4148C12.789 16.9029 13.5805 16.9029 14.0686 16.4148C14.5568 15.9266 14.5568 15.1352 14.0686 14.647L8.2204 8.79877L14.0686 2.95053C14.5568 2.46238 14.5568 1.67092 14.0686 1.18277C13.5805 0.694612 12.789 0.694612 12.3009 1.18277L5.56875 7.91488C5.4115 8.07214 5.3049 8.26087 5.24896 8.4608L5.24896 1.54321Z" fill="black"/>
</g>
<defs>
<clipPath id="clip0_1534_4782">
<rect width="16" height="16" fill="white" transform="translate(0.605225 0.793457)"/>
</clipPath>
</defs>
</svg>
