<svg width="17" height="17" viewBox="0 0 17 17" fill="none" xmlns="http://www.w3.org/2000/svg">
<g clip-path="url(#clip0_1534_4754)">
<path d="M0.653198 3.54993C0.653198 2.99764 1.10091 2.54993 1.6532 2.54993H2.6532V14.5499H1.6532C1.10091 14.5499 0.653198 14.1022 0.653198 13.5499V3.54993Z" fill="black"/>
<path d="M3.6532 2.54993H4.6532V14.5499H3.6532V2.54993Z" fill="black"/>
<path d="M11.6532 2.54993H12.6532V14.5499H11.6532V2.54993Z" fill="black"/>
<path d="M13.6532 2.54993H15.6532C16.2055 2.54993 16.6532 2.99764 16.6532 3.54993V13.5499C16.6532 14.1022 16.2055 14.5499 15.6532 14.5499H13.6532V2.54993Z" fill="black"/>
<path d="M5.65318 2.54993H8.15318V14.5499H5.65318V2.54993Z" fill="black"/>
<path d="M9.15318 2.54993H10.6532V14.5499H9.15318V2.54993Z" fill="black"/>
</g>
<defs>
<clipPath id="clip0_1534_4754">
<rect width="16" height="16" fill="white" transform="translate(0.653198 0.549927)"/>
</clipPath>
</defs>
</svg>
