<svg width="17" height="17" viewBox="0 0 17 17" fill="none" xmlns="http://www.w3.org/2000/svg">
<g clip-path="url(#clip0_1534_4752)">
<path d="M0.671387 8.84825C0.671387 10.351 1.06034 11.5157 1.83824 12.3422C2.61615 13.1643 3.604 13.5753 4.80179 13.5753C5.98191 13.5753 6.8902 13.2593 7.52666 12.6273C8.16313 11.9908 8.51672 11.2129 8.58744 10.2936L8.59407 10.2007H7.06257L7.05594 10.2936C7.00733 10.8726 6.79959 11.3566 6.43274 11.7455C6.0703 12.1345 5.52666 12.3289 4.80179 12.3289C4.03715 12.3289 3.41615 12.0306 2.9388 11.4339C2.46587 10.8372 2.2294 9.99964 2.2294 8.92118V8.17864C2.2294 7.0162 2.46808 6.15874 2.94543 5.60625C3.4272 5.04934 4.04378 4.77089 4.79516 4.77089C5.55539 4.77089 6.12113 4.96095 6.49241 5.34106C6.8681 5.71675 7.05815 6.20294 7.06257 6.79963V6.90571H8.59407V6.80626C8.58965 5.8825 8.25153 5.10459 7.5797 4.47255C6.90788 3.8405 5.98191 3.52448 4.80179 3.52448C3.604 3.52448 2.61615 3.93553 1.83824 4.75763C1.06034 5.57973 0.671387 6.74438 0.671387 8.25157V8.84825Z" fill="black"/>
<path d="M9.50621 13.3765H11.0377V9.58417H12.788C13.8576 9.58417 14.6863 9.31677 15.2742 8.78196C15.862 8.24273 16.156 7.5267 16.156 6.63388C16.156 5.74106 15.862 5.03387 15.2742 4.51232C14.6908 3.98636 13.862 3.72337 12.788 3.72337H9.50621V13.3765ZM11.0377 8.39079V4.91675H12.7681C13.462 4.91675 13.946 5.07807 14.22 5.40073C14.4941 5.72338 14.6311 6.13443 14.6311 6.63388C14.6311 7.13775 14.4941 7.55764 14.22 7.89355C13.946 8.22505 13.462 8.39079 12.7681 8.39079H11.0377ZM14.9427 13.3765H16.6532L14.167 8.76207L12.609 8.92118L14.9427 13.3765Z" fill="black"/>
</g>
<defs>
<clipPath id="clip0_1534_4752">
<rect width="16" height="16" fill="white" transform="translate(0.653198 0.549927)"/>
</clipPath>
</defs>
</svg>
