<svg width="17" height="17" viewBox="0 0 17 17" fill="none" xmlns="http://www.w3.org/2000/svg">
<g clip-path="url(#clip0_1534_4757)">
<path fill-rule="evenodd" clip-rule="evenodd" d="M6.10715 5.13633C5.98155 4.74482 6.1946 4.32583 6.5835 4.19592L6.59561 4.19125C6.61126 4.185 6.63903 4.17318 6.67485 4.1551C6.74794 4.11819 6.84555 4.0597 6.94111 3.97627C7.12054 3.8196 7.29749 3.57643 7.29749 3.15931C7.29748 2.73944 7.11778 2.48098 6.92977 2.31C6.83118 2.22033 6.73078 2.15658 6.6559 2.11606C6.61914 2.09616 6.59055 2.08295 6.57422 2.07583L6.56099 2.07026C6.17618 1.92794 5.97664 1.50203 6.11499 1.11464C6.25429 0.724559 6.68345 0.521262 7.07353 0.660569L6.8213 1.36688C7.07353 0.660569 7.07388 0.660691 7.07423 0.660816L7.07495 0.661074L7.07648 0.661626L7.07989 0.662868L7.08812 0.665916L7.10996 0.674323C7.12684 0.68097 7.14832 0.689764 7.17375 0.700852C7.22448 0.722973 7.29168 0.754555 7.36988 0.796877C7.5249 0.880781 7.73105 1.01117 7.939 1.20029C8.36409 1.58689 8.79748 2.22464 8.79749 3.15931C8.79749 4.09673 8.36135 4.72752 7.92768 5.10617C7.71669 5.2904 7.50775 5.41491 7.35093 5.49409C7.2718 5.53405 7.20377 5.56355 7.15236 5.5841C7.12659 5.5944 7.10479 5.60254 7.08763 5.60867L7.06537 5.61643L7.05695 5.61925L7.05344 5.62039L7.05186 5.62091L7.05112 5.62115C7.05076 5.62126 7.05041 5.62137 6.82472 4.9179L7.0504 5.62138C6.65599 5.74791 6.23368 5.53075 6.10715 5.13633ZM1.41968 6.01196C1.2148 6.01196 1.01884 6.09578 0.877328 6.24393C0.735817 6.39208 0.661074 6.59168 0.670466 6.79634L0.790231 9.4062C0.852036 10.753 1.28754 12.0561 2.04798 13.1694C2.59729 13.9736 3.32997 14.614 4.16923 15.0499H1.4032C0.988985 15.0499 0.653198 15.3857 0.653198 15.7999C0.653198 16.2141 0.988985 16.5499 1.4032 16.5499H12.7014C13.1156 16.5499 13.4514 16.2141 13.4514 15.7999C13.4514 15.3857 13.1156 15.0499 12.7014 15.0499H9.91197C10.7512 14.614 11.4839 13.9736 12.0332 13.1694C12.1947 12.933 12.3415 12.688 12.4732 12.4359C13.7772 12.3316 14.9947 11.7191 15.8571 10.7214L15.9639 10.5978C16.3079 10.1998 16.5227 9.70656 16.5798 9.1836L16.5932 9.06052C16.7709 7.43326 15.4964 6.01205 13.8595 6.01205H12.6734L12.6615 6.01196H1.41968ZM14.7222 9.74047C14.2848 10.2465 13.7169 10.611 13.0901 10.8012C13.2016 10.3458 13.2693 9.87868 13.291 9.4062L13.3779 7.51205H13.8595C14.6035 7.51205 15.1828 8.15806 15.1021 8.89772L15.0886 9.0208C15.0646 9.24124 14.974 9.44914 14.829 9.61691L14.7222 9.74047ZM10.6034 7.51205L10.5914 7.51196H2.20488L2.28865 9.33744C2.33769 10.4061 2.68325 11.44 3.28662 12.3233C4.09069 13.5005 5.42428 14.2046 6.84986 14.2046H7.23134C8.65692 14.2046 9.99051 13.5005 10.7946 12.3234C11.398 11.44 11.7435 10.4061 11.7925 9.33744L11.8763 7.51205H10.6034ZM9.56738 2.52634C9.20675 2.34256 9.05603 1.90378 9.23102 1.53602C9.409 1.16199 9.85649 1.00306 10.2305 1.18103L9.9083 1.85819C10.2305 1.18103 10.2309 1.18123 10.2313 1.18142L10.2321 1.18181L10.2338 1.18263L10.2375 1.1844L10.2457 1.18846L10.2657 1.19872C10.2806 1.20653 10.2985 1.21633 10.3191 1.22826C10.3601 1.25207 10.4119 1.28464 10.4708 1.32711C10.5882 1.41176 10.7367 1.53797 10.883 1.71528C11.184 2.07998 11.4508 2.63219 11.4508 3.40192C11.4508 4.17267 11.183 4.72062 10.8733 5.0809C10.7234 5.25527 10.5712 5.37731 10.4507 5.45834C10.3903 5.49899 10.3371 5.52987 10.2949 5.55236C10.2737 5.56362 10.2552 5.57285 10.2398 5.5802L10.219 5.58985L10.2104 5.59368L10.2066 5.59535L10.2048 5.59613L10.2039 5.5965C10.2035 5.59668 10.2031 5.59686 9.90826 4.90723L10.2031 5.59686C9.82218 5.75967 9.38143 5.58289 9.21863 5.20201C9.05888 4.82828 9.22609 4.39691 9.59225 4.22704C9.59592 4.22497 9.60329 4.22062 9.61345 4.21378C9.6416 4.19484 9.68752 4.15928 9.73577 4.10314C9.82236 4.0024 9.95081 3.79769 9.95081 3.40192C9.9508 3.00512 9.82137 2.7855 9.72607 2.67002C9.67425 2.60723 9.62463 2.56626 9.59341 2.54375C9.58058 2.53449 9.57144 2.52878 9.56738 2.52634ZM3.49042 1.53602C3.31543 1.90378 3.46615 2.34256 3.82678 2.52634C3.83084 2.52878 3.83998 2.53449 3.85281 2.54375C3.88403 2.56626 3.93365 2.60723 3.98547 2.67002C4.08077 2.7855 4.2102 3.00512 4.21021 3.40192C4.21021 3.79769 4.08176 4.0024 3.99517 4.10314C3.94692 4.15928 3.901 4.19484 3.87285 4.21378C3.86269 4.22062 3.85531 4.22497 3.85165 4.22704C3.48548 4.39691 3.31827 4.82828 3.47803 5.20201C3.64083 5.58289 4.08157 5.75967 4.46245 5.59686L4.16766 4.90723C4.46245 5.59686 4.46287 5.59668 4.4633 5.5965L4.46417 5.59613L4.46596 5.59535L4.46979 5.59368L4.47839 5.58985L4.49919 5.5802C4.51461 5.57285 4.53312 5.56362 4.55427 5.55236C4.5965 5.52987 4.64973 5.49899 4.71015 5.45834C4.8306 5.37731 4.98282 5.25527 5.1327 5.0809C5.44238 4.72062 5.71021 4.17267 5.71021 3.40192C5.7102 2.63219 5.44336 2.07998 5.1424 1.71528C4.99608 1.53797 4.84757 1.41176 4.73018 1.32711C4.6713 1.28464 4.61947 1.25207 4.57847 1.22826C4.55794 1.21633 4.54001 1.20653 4.52513 1.19872L4.50512 1.18846L4.4969 1.1844L4.49325 1.18263L4.49154 1.18181L4.49072 1.18142C4.49031 1.18123 4.48991 1.18103 4.1677 1.85819L4.48991 1.18103C4.11589 1.00306 3.6684 1.16199 3.49042 1.53602Z" fill="black"/>
</g>
<defs>
<clipPath id="clip0_1534_4757">
<rect width="16" height="16" fill="white" transform="translate(0.653198 0.549927)"/>
</clipPath>
</defs>
</svg>
