<svg width="17" height="17" viewBox="0 0 17 17" fill="none" xmlns="http://www.w3.org/2000/svg">
<g clip-path="url(#clip0_1534_4779)">
<path fill-rule="evenodd" clip-rule="evenodd" d="M3.84448 2.45601C3.84448 2.4137 3.87878 2.37939 3.9211 2.37939H5.84987H7.22756C8.18293 2.37939 8.95741 3.15387 8.95741 4.10924V5.2114C8.95741 6.08214 9.66328 6.78801 10.534 6.78801H11.6362C12.5915 6.78801 13.366 7.56249 13.366 8.51786V10.4466V15.1308C13.366 15.1731 13.3317 15.2074 13.2894 15.2074H3.9211C3.87878 15.2074 3.84448 15.1731 3.84448 15.1308V2.45601ZM3.9211 0.879395H5.84987H7.22756H7.5031C11.5695 0.879395 14.866 4.17589 14.866 8.24232V8.51786V10.4466V15.1308C14.866 16.0015 14.1602 16.7074 13.2894 16.7074H3.9211C3.05036 16.7074 2.34448 16.0015 2.34448 15.1308V2.45601C2.34448 1.58527 3.05036 0.879395 3.9211 0.879395ZM10.4574 4.10924C10.4574 3.75066 10.399 3.40572 10.2911 3.08343C11.2932 3.62612 12.1193 4.45225 12.662 5.45432C12.3397 5.34645 11.9948 5.28801 11.6362 5.28801H10.534C10.4917 5.28801 10.4574 5.25371 10.4574 5.2114V4.10924ZM12.4233 11.4118C12.2657 11.2565 11.9158 11.1744 11.3831 11.167C10.9646 11.1674 10.5467 11.1981 10.1327 11.2587C9.92849 11.1411 9.71763 11.0123 9.55264 10.8577C9.10799 10.4426 8.73658 9.86628 8.50574 9.23222L8.51315 9.20266L8.51319 9.2025C8.52504 9.1553 8.53588 9.11214 8.54569 9.06797C8.54569 9.06797 8.7965 7.64522 8.72992 7.16431C8.72502 7.11771 8.71407 7.07195 8.69736 7.02818L8.67591 6.97195C8.60784 6.8151 8.47393 6.64863 8.26455 6.65751L8.13803 6.65381C7.90423 6.65381 7.71409 6.77293 7.66452 6.95197C7.51285 7.51205 7.6697 8.34957 7.95306 9.4342L7.88056 9.61103C7.6771 10.1067 7.42258 10.6061 7.19767 11.0464L7.16807 11.1033C6.93132 11.5665 6.71676 11.9593 6.52217 12.2923L6.32167 12.3988C6.30688 12.4062 5.96284 12.589 5.8822 12.6378C5.19709 13.0469 4.74355 13.5108 4.66809 13.8793C4.64441 13.9969 4.66217 14.1471 4.7835 14.2167L4.97809 14.3143C5.05993 14.3559 5.1504 14.3777 5.24222 14.3779C5.72979 14.3779 6.29652 13.7705 7.07707 12.4084C7.99967 12.1102 8.94448 11.8855 9.9026 11.7366C10.5877 12.1221 11.4304 12.3899 11.9616 12.3899C12.0563 12.3899 12.1377 12.3811 12.2036 12.3633C12.301 12.3396 12.3865 12.2812 12.444 12.1991C12.5469 12.0437 12.5683 11.8299 12.5402 11.6109C12.5225 11.5339 12.482 11.464 12.424 11.4104L12.4233 11.4118ZM5.13642 14.008C5.2252 13.7646 5.57737 13.2837 6.09823 12.8568C6.13079 12.8302 6.21143 12.7547 6.28542 12.6844C5.74088 13.553 5.37613 13.9 5.13642 14.008ZM8.22089 6.90536C8.37774 6.90536 8.46727 7.30045 8.47467 7.67112C8.48206 8.04179 8.3955 8.30222 8.28822 8.49458C8.19944 8.20973 8.15579 7.76064 8.15579 7.46691C8.15579 7.46691 8.14913 6.90536 8.22089 6.90536ZM7.30051 11.9667C7.41001 11.7714 7.52321 11.565 7.63936 11.346C7.92273 10.8103 8.10104 10.3916 8.23421 10.0475C8.48427 10.5109 8.81731 10.9245 9.21675 11.2676C9.26484 11.3083 9.31663 11.3497 9.3699 11.3904C8.58121 11.5465 7.90053 11.7359 7.30051 11.9667ZM12.2724 11.9224C12.2243 11.9527 12.0867 11.9697 11.9986 11.9697C11.713 11.9697 11.3594 11.8395 10.8644 11.6264C11.0546 11.6124 11.2292 11.605 11.386 11.605L11.403 11.6049H11.403C11.6758 11.6049 11.763 11.6049 12.0371 11.6752C12.3168 11.747 12.3205 11.8928 12.2724 11.9224Z" fill="black"/>
</g>
<defs>
<clipPath id="clip0_1534_4779">
<rect width="16" height="16" fill="white" transform="translate(0.605225 0.793457)"/>
</clipPath>
</defs>
</svg>
