<svg width="17" height="17" viewBox="0 0 17 17" fill="none" xmlns="http://www.w3.org/2000/svg">
<g clip-path="url(#clip0_1534_4766)">
<path fill-rule="evenodd" clip-rule="evenodd" d="M4.73804 9.22888C4.73804 8.6766 5.18575 8.22888 5.73804 8.22888H11.4851C12.0374 8.22888 12.4851 8.6766 12.4851 9.22888V12.6518C12.4851 13.2041 12.0374 13.6518 11.4851 13.6518H5.73804C5.18575 13.6518 4.73804 13.2041 4.73804 12.6518V9.22888ZM5.76274 12.8771H7.06215V11.3277H5.51274V12.6271C5.51274 12.7652 5.62467 12.8771 5.76274 12.8771ZM5.51274 10.553H7.06215V9.00359H5.76274C5.62467 9.00359 5.51274 9.11552 5.51274 9.25359V10.553ZM7.83686 12.8771H9.38627V11.3277H7.83686V12.8771ZM7.83686 10.553H9.38627V9.00359H7.83686V10.553ZM11.4604 12.8771C11.5985 12.8771 11.7104 12.7652 11.7104 12.6271V11.3277H10.161V12.8771H11.4604ZM10.161 10.553H11.7104V9.25359C11.7104 9.11552 11.5985 9.00359 11.4604 9.00359H10.161V10.553Z" fill="black"/>
<path fill-rule="evenodd" clip-rule="evenodd" d="M3.9211 0.879395H7.5031C11.5695 0.879395 14.866 4.17589 14.866 8.24232V15.1308C14.866 16.0015 14.1602 16.7074 13.2894 16.7074H3.9211C3.05036 16.7074 2.34448 16.0015 2.34448 15.1308V2.45601C2.34448 1.58527 3.05036 0.879395 3.9211 0.879395ZM3.84448 2.45601C3.84448 2.4137 3.87878 2.37939 3.9211 2.37939H7.22756C8.18293 2.37939 8.95741 3.15387 8.95741 4.10924V5.2114C8.95741 6.08214 9.66328 6.78801 10.534 6.78801H11.6362C12.5915 6.78801 13.366 7.56249 13.366 8.51786V15.1308C13.366 15.1731 13.3317 15.2074 13.2894 15.2074H3.9211C3.87879 15.2074 3.84448 15.1731 3.84448 15.1308V2.45601ZM10.4574 4.10924C10.4574 3.75066 10.399 3.40572 10.2911 3.08343C11.2932 3.62612 12.1193 4.45225 12.662 5.45432C12.3397 5.34645 11.9948 5.28801 11.6362 5.28801H10.534C10.4917 5.28801 10.4574 5.25371 10.4574 5.2114V4.10924Z" fill="black"/>
</g>
<defs>
<clipPath id="clip0_1534_4766">
<rect width="16" height="16" fill="white" transform="translate(0.605225 0.793457)"/>
</clipPath>
</defs>
</svg>
