<svg width="17" height="17" viewBox="0 0 17 17" fill="none" xmlns="http://www.w3.org/2000/svg">
<g clip-path="url(#clip0_1534_4759)">
<path fill-rule="evenodd" clip-rule="evenodd" d="M13.1532 1.29993C13.1532 0.885713 12.8174 0.549927 12.4032 0.549927C11.989 0.549927 11.6532 0.885713 11.6532 1.29993V5.41217C11.6532 5.82638 11.989 6.16217 12.4032 6.16217C12.8174 6.16217 13.1532 5.82638 13.1532 5.41217V1.29993ZM9.94678 0.598572C10.361 0.598572 10.6968 0.934358 10.6968 1.34857V5.82215C10.6968 6.5125 11.2564 7.07215 11.9468 7.07215H12.8173C13.5077 7.07215 14.0673 6.5125 14.0673 5.82214V1.34857C14.0673 0.934358 14.4031 0.598572 14.8173 0.598572C15.2315 0.598572 15.5673 0.934358 15.5673 1.34857V5.82214C15.5673 6.97741 14.8549 7.96629 13.8455 8.37348C13.979 8.61377 14.055 8.89038 14.055 9.18473V14.8844C14.055 15.8083 13.306 16.5574 12.382 16.5574C11.458 16.5574 10.709 15.8083 10.709 14.8844V9.18473C10.709 8.89036 10.785 8.61375 10.9185 8.37345C9.90911 7.96624 9.19678 6.97738 9.19678 5.82215V1.34857C9.19678 0.934358 9.53256 0.598572 9.94678 0.598572ZM12.382 9.01172C12.2864 9.01172 12.209 9.08918 12.209 9.18473V14.8844C12.209 14.9799 12.2864 15.0574 12.382 15.0574C12.4776 15.0574 12.555 14.9799 12.555 14.8844V9.18473C12.555 9.08918 12.4776 9.01172 12.382 9.01172ZM6.38657 8.64679C6.68846 8.49387 6.96736 8.29223 7.21275 8.04063C7.85273 7.38446 8.20203 6.45367 8.20203 5.34044C8.20203 4.24433 7.86531 3.10747 7.30996 2.22814C6.76925 1.37199 5.90721 0.598572 4.80195 0.598572C3.6967 0.598572 2.83465 1.37199 2.29393 2.22814C1.73858 3.10747 1.40186 4.24432 1.40186 5.34044C1.40186 6.45367 1.75116 7.38447 2.39115 8.04063C2.63653 8.29221 2.91541 8.49384 3.21728 8.64677C3.15998 8.8156 3.12891 8.99654 3.12891 9.18473V14.8844C3.12891 15.8083 3.87794 16.5574 4.80192 16.5574C5.7259 16.5574 6.47494 15.8083 6.47494 14.8844V9.18473C6.47494 8.99655 6.44386 8.81561 6.38657 8.64679ZM4.80192 9.01172C4.70637 9.01172 4.62891 9.08918 4.62891 9.18473V14.8844C4.62891 14.9799 4.70637 15.0574 4.80192 15.0574C4.89747 15.0574 4.97494 14.9799 4.97494 14.8844V9.18473C4.97494 9.08918 4.89747 9.01172 4.80192 9.01172ZM2.90186 5.34044C2.90186 4.52755 3.15838 3.66847 3.56217 3.02912C3.98061 2.36658 4.4436 2.09857 4.80195 2.09857C5.1603 2.09857 5.62329 2.36658 6.04172 3.02911C6.4455 3.66846 6.70203 4.52755 6.70203 5.34044C6.70203 6.13623 6.45808 6.66607 6.13893 6.99329C5.81828 7.32205 5.35853 7.51172 4.80195 7.51172C4.24537 7.51172 3.78562 7.32205 3.46496 6.99329C3.1458 6.66607 2.90186 6.13623 2.90186 5.34044Z" fill="black"/>
</g>
<defs>
<clipPath id="clip0_1534_4759">
<rect width="16" height="16" fill="white" transform="translate(0.653198 0.549927)"/>
</clipPath>
</defs>
</svg>
