<svg width="17" height="17" viewBox="0 0 17 17" fill="none" xmlns="http://www.w3.org/2000/svg">
<g clip-path="url(#clip0_1534_4775)">
<path d="M3.22481 6.72121L2.69448 6.19088L3.22481 6.72121L6.79216 3.15386C7.14375 2.80228 7.25369 2.31828 7.22674 1.92821C7.22182 1.85688 7.24623 1.78691 7.29936 1.73379L7.62331 1.40983C7.72094 1.3122 7.87924 1.3122 7.97687 1.40983L11.5161 4.94905C11.6137 5.04669 11.6137 5.20498 11.5161 5.30261L11.1921 5.62656C11.139 5.6797 11.069 5.70411 10.9977 5.69917C10.6076 5.67217 10.1236 5.78209 9.77198 6.13368L6.20463 9.70103C5.85305 10.0526 5.74315 10.5366 5.77016 10.9267C5.7751 10.998 5.75068 11.068 5.69755 11.1212L5.37359 11.4451C5.27596 11.5427 5.11767 11.5427 5.02004 11.4451L1.48082 7.90588C1.38318 7.80825 1.38318 7.64996 1.48082 7.55233L1.80477 7.22838C1.8579 7.17525 1.92787 7.15083 1.9992 7.15576C2.38924 7.18272 2.87323 7.07279 3.22481 6.72121ZM10.4168 8.99173C10.5144 8.8941 10.6727 8.8941 10.7703 8.99173L15.5221 13.7435C15.9937 14.2151 15.9937 14.9796 15.5221 15.4512C15.0505 15.9228 14.2859 15.9228 13.8144 15.4512L9.0626 10.6995C8.96497 10.6018 8.96497 10.4435 9.0626 10.3459L10.4168 8.99173Z" stroke="black" stroke-width="1.5"/>
</g>
<defs>
<clipPath id="clip0_1534_4775">
<rect width="16" height="16" fill="white" transform="translate(0.653198 0.549927)"/>
</clipPath>
</defs>
</svg>
