<svg width="17" height="17" viewBox="0 0 17 17" fill="none" xmlns="http://www.w3.org/2000/svg">
<g clip-path="url(#clip0_1534_4785)">
<path d="M1.40247 1.82873C1.40247 1.55259 1.62632 1.32874 1.90247 1.32874H4.20247C4.47861 1.32874 4.70247 1.55259 4.70247 1.82874V4.12874C4.70247 4.40488 4.47861 4.62874 4.20247 4.62874H1.90247C1.62632 4.62874 1.40247 4.40488 1.40247 4.12874V1.82873Z" stroke="black" stroke-width="1.5" stroke-linecap="round" stroke-linejoin="round"/>
<path d="M6.97571 1.82873C6.97571 1.55259 7.19957 1.32874 7.47571 1.32874H9.77571C10.0519 1.32874 10.2757 1.55259 10.2757 1.82874V4.12874C10.2757 4.40488 10.0519 4.62874 9.77571 4.62874H7.47571C7.19957 4.62874 6.97571 4.40488 6.97571 4.12874V1.82873Z" stroke="black" stroke-width="1.5" stroke-linecap="round" stroke-linejoin="round"/>
<path d="M12.5491 1.82873C12.5491 1.55259 12.7729 1.32874 13.0491 1.32874H15.3491C15.6252 1.32874 15.8491 1.55259 15.8491 1.82874V4.12874C15.8491 4.40488 15.6252 4.62874 15.3491 4.62874H13.0491C12.7729 4.62874 12.5491 4.40488 12.5491 4.12874V1.82873Z" stroke="black" stroke-width="1.5" stroke-linecap="round" stroke-linejoin="round"/>
<path d="M1.40247 7.3999C1.40247 7.12376 1.62632 6.8999 1.90247 6.8999H4.20247C4.47861 6.8999 4.70247 7.12376 4.70247 7.3999V9.6999C4.70247 9.97604 4.47861 10.1999 4.20247 10.1999H1.90247C1.62632 10.1999 1.40247 9.97604 1.40247 9.6999V7.3999Z" stroke="black" stroke-width="1.5" stroke-linecap="round" stroke-linejoin="round"/>
<path d="M6.97583 7.3999C6.97583 7.12376 7.19969 6.8999 7.47583 6.8999H9.77583C10.052 6.8999 10.2758 7.12376 10.2758 7.3999V9.6999C10.2758 9.97604 10.052 10.1999 9.77583 10.1999H7.47583C7.19969 10.1999 6.97583 9.97604 6.97583 9.6999V7.3999Z" stroke="black" stroke-width="1.5" stroke-linecap="round" stroke-linejoin="round"/>
<path d="M12.5492 7.3999C12.5492 7.12376 12.7731 6.8999 13.0492 6.8999H15.3492C15.6253 6.8999 15.8492 7.12376 15.8492 7.3999V9.6999C15.8492 9.97604 15.6253 10.1999 15.3492 10.1999H13.0492C12.7731 10.1999 12.5492 9.97604 12.5492 9.6999V7.3999Z" stroke="black" stroke-width="1.5" stroke-linecap="round" stroke-linejoin="round"/>
<path d="M1.40247 12.9709C1.40247 12.6947 1.62632 12.4709 1.90247 12.4709H4.20247C4.47861 12.4709 4.70247 12.6947 4.70247 12.9709V15.2709C4.70247 15.547 4.47861 15.7709 4.20247 15.7709H1.90247C1.62632 15.7709 1.40247 15.547 1.40247 15.2709V12.9709Z" stroke="black" stroke-width="1.5" stroke-linecap="round" stroke-linejoin="round"/>
<path d="M6.97583 12.9709C6.97583 12.6947 7.19969 12.4709 7.47583 12.4709H9.77583C10.052 12.4709 10.2758 12.6947 10.2758 12.9709V15.2709C10.2758 15.547 10.052 15.7709 9.77583 15.7709H7.47583C7.19969 15.7709 6.97583 15.547 6.97583 15.2709V12.9709Z" stroke="black" stroke-width="1.5" stroke-linecap="round" stroke-linejoin="round"/>
<path d="M12.5492 12.9709C12.5492 12.6947 12.7731 12.4709 13.0492 12.4709H15.3492C15.6253 12.4709 15.8492 12.6947 15.8492 12.9709V15.2709C15.8492 15.547 15.6253 15.7709 15.3492 15.7709H13.0492C12.7731 15.7709 12.5492 15.547 12.5492 15.2709V12.9709Z" stroke="black" stroke-width="1.5" stroke-linecap="round" stroke-linejoin="round"/>
</g>
<defs>
<clipPath id="clip0_1534_4785">
<rect width="16" height="16" fill="white" transform="translate(0.653198 0.549927)"/>
</clipPath>
</defs>
</svg>
