<svg width="17" height="17" viewBox="0 0 17 17" fill="none" xmlns="http://www.w3.org/2000/svg">
<g clip-path="url(#clip0_1534_4753)">
<path fill-rule="evenodd" clip-rule="evenodd" d="M13.2773 2.82504L12.648 1.70266C12.2488 0.990744 11.4963 0.549927 10.6801 0.549927H6.67388C5.86265 0.549927 5.11386 0.985458 4.71278 1.69061L4.03155 2.88829L3.91397 2.69941L2.70587 2.69944C2.36604 2.69945 2.09057 2.97494 2.09058 3.31477C2.09059 3.6546 2.36608 3.93007 2.7059 3.93006L3.23046 3.93005L3.32714 4.08535C2.63698 4.275 2.12132 4.90703 2.12132 5.6681L2.12132 10.6658C2.12132 11.1189 2.48863 11.4862 2.94174 11.4862L4.17236 11.4862C4.62546 11.4862 4.99277 11.1189 4.99277 10.6658L4.99277 9.99962H12.3104V10.6658C12.3104 11.1189 12.6777 11.4862 13.1308 11.4862L14.3614 11.4862C14.8145 11.4862 15.1818 11.1189 15.1818 10.6658V7.95607L15.1819 7.94859V5.68389C15.1819 4.9296 14.6756 4.3029 13.996 4.10674L13.9643 4.05018L14.0391 3.93005L14.5636 3.93006C14.9034 3.93007 15.1789 3.6546 15.1789 3.31477C15.1789 2.97494 14.9035 2.69945 14.5636 2.69944L13.3555 2.69941L13.2773 2.82504ZM6.67388 1.78055C6.30514 1.78055 5.96478 1.97852 5.78247 2.29904L4.75473 4.10593L6.7745 4.27811C8.23737 4.40281 9.70846 4.39636 11.1702 4.25885L12.5376 4.13021C12.5405 4.10256 12.5453 4.07498 12.552 4.04766L11.5746 2.30452C11.3932 1.98092 11.0511 1.78055 10.6801 1.78055H6.67388ZM13.9425 5.59928L12.1604 6.14627C11.6449 6.30449 11.2523 6.72458 11.1291 7.24955C11.0685 7.50806 11.2856 7.74719 11.5488 7.71176L13.9512 7.3883V7.94859C13.9512 8.40169 13.5839 8.769 13.1308 8.769H4.17236C3.71925 8.769 3.35194 8.40169 3.35194 7.94859V7.38825L5.75435 7.7117C6.0175 7.74713 6.23459 7.50801 6.17396 7.2495C6.05085 6.72452 5.65818 6.30444 5.1427 6.14622L3.35782 5.59838C3.393 5.39246 3.58127 5.24099 3.79699 5.25938L6.66997 5.50428C8.20599 5.63522 9.75064 5.62845 11.2854 5.48406L13.5026 5.27548C13.7143 5.25556 13.9008 5.39972 13.9425 5.59928Z" fill="black"/>
<path d="M1.40723 13.1721V14.2864C1.40723 15.1148 2.0788 15.7864 2.90723 15.7864H14.3828C15.2112 15.7864 15.8828 15.1148 15.8828 14.2864V13.1721" stroke="black" stroke-width="1.5" stroke-linecap="round"/>
<path d="M10.6547 11.8018L8.64499 13.1721L6.63525 11.8018" stroke="black" stroke-width="1.5" stroke-linecap="round" stroke-linejoin="round"/>
</g>
<defs>
<clipPath id="clip0_1534_4753">
<rect width="16" height="16" fill="white" transform="translate(0.653198 0.549927)"/>
</clipPath>
</defs>
</svg>
