<svg width="17" height="17" viewBox="0 0 17 17" fill="none" xmlns="http://www.w3.org/2000/svg">
<g clip-path="url(#clip0_1534_4783)">
<path d="M3.44653 12.2775L6.71748 9.0066C7.27459 8.44949 8.17784 8.44949 8.73494 9.0066L12.0059 12.2775M11.0549 11.3265L11.9482 10.4332C12.5053 9.87605 13.4086 9.87605 13.9657 10.4332L15.8101 12.2775M3.03589 12.9404L2.33264 12.9404C1.78035 12.9404 1.33264 12.4927 1.33264 11.9404L1.33264 3.83545C1.33264 3.28316 1.78036 2.83545 2.33264 2.83545L13.3051 2.83545C13.8574 2.83545 14.3051 3.28316 14.3051 3.83545V4.43424M4.39757 14.6551H14.859C15.3843 14.6551 15.8101 14.2294 15.8101 13.7041V6.09579C15.8101 5.57054 15.3843 5.14475 14.859 5.14475H4.39757C3.87233 5.14475 3.44653 5.57054 3.44653 6.09579V13.7041C3.44653 14.2294 3.87233 14.6551 4.39757 14.6551ZM11.0549 7.52235H11.0596V7.5271H11.0549V7.52235ZM11.2926 7.52235C11.2926 7.65366 11.1862 7.76011 11.0549 7.76011C10.9235 7.76011 10.8171 7.65366 10.8171 7.52235C10.8171 7.39104 10.9235 7.28459 11.0549 7.28459C11.1862 7.28459 11.2926 7.39104 11.2926 7.52235Z" stroke="black" stroke-width="1.5" stroke-linecap="round"/>
</g>
<defs>
<clipPath id="clip0_1534_4783">
<rect width="16" height="16" fill="white" transform="translate(0.605225 0.793457)"/>
</clipPath>
</defs>
</svg>
