<svg width="17" height="17" viewBox="0 0 17 17" fill="none" xmlns="http://www.w3.org/2000/svg">
<g clip-path="url(#clip0_1534_4751)">
<path fill-rule="evenodd" clip-rule="evenodd" d="M0.653198 8.54993C0.653198 12.9659 4.2372 16.5499 8.6532 16.5499C13.0692 16.5499 16.6532 12.9659 16.6532 8.54993C16.6532 4.13393 13.0692 0.549927 8.6532 0.549927C4.2372 0.549927 0.653198 4.13393 0.653198 8.54993ZM1.5602 8.54993C1.5602 4.63493 4.7392 1.45693 8.6532 1.45693C12.5672 1.45693 15.7462 4.63593 15.7462 8.54993C15.7462 12.4639 12.5672 15.6429 8.6532 15.6429C6.77234 15.6419 4.96883 14.8942 3.63886 13.5643C2.30889 12.2343 1.56126 10.4308 1.5602 8.54993ZM3.03223 8.54993C3.03223 9.39293 3.21323 10.1819 3.54423 10.8969L4.35523 4.93393C3.50053 5.94491 3.03179 7.22608 3.03223 8.54993ZM10.2962 3.17393C9.31933 2.87378 8.2787 2.84818 7.28823 3.09993L8.82423 8.19893L10.2962 3.17493V3.17393ZM13.1122 5.13693L13.1124 5.13847L13.1112 5.13693H13.1122ZM13.1124 5.13847C13.8377 6.08721 14.2742 7.27062 14.2742 8.54993C14.2742 9.38193 14.0932 10.1609 13.7732 10.8649L13.1124 5.13847ZM8.14121 13.7559L9.42121 13.7769V13.7779L11.3522 7.3349L11.8212 13.1799C10.8891 13.8205 9.78425 14.1626 8.65321 14.1609C7.62678 14.1609 6.61986 13.8805 5.74121 13.3499L6.24221 7.5689L8.14121 13.7559Z" fill="black"/>
</g>
<defs>
<clipPath id="clip0_1534_4751">
<rect width="16" height="16" fill="white" transform="translate(0.653198 0.549927)"/>
</clipPath>
</defs>
</svg>
