<svg width="17" height="17" viewBox="0 0 17 17" fill="none" xmlns="http://www.w3.org/2000/svg">
<g clip-path="url(#clip0_1534_4770)">
<path fill-rule="evenodd" clip-rule="evenodd" d="M5.73282 1.13486C5.94987 0.652311 6.50525 0.422359 6.99988 0.610235L8.29887 1.10362C8.52752 1.19047 8.78008 1.19051 9.00875 1.10373L10.3082 0.610574C10.8029 0.422841 11.3582 0.652952 11.5752 1.13556L12.1449 2.40322C12.2452 2.62631 12.4237 2.80492 12.6468 2.90525L13.9145 3.47547C14.397 3.69252 14.627 4.2479 14.4391 4.74253L13.9457 6.0415C13.8589 6.27015 13.8589 6.5227 13.9456 6.75138L14.4389 8.0511C14.6266 8.54579 14.3965 9.1011 13.9139 9.31801L12.6464 9.8877C12.5451 9.9332 12.4531 9.99482 12.3733 10.0694C12.3805 10.094 12.3864 10.1193 12.3911 10.1451L13.3911 15.646C13.4407 15.919 13.3356 16.1971 13.1177 16.369C12.8998 16.5408 12.6049 16.5784 12.3509 16.4665L8.6532 14.8379L4.9555 16.4665C4.70155 16.5784 4.40658 16.5408 4.18871 16.369C3.97084 16.1971 3.86566 15.919 3.91529 15.646L4.91529 10.1451C4.91999 10.1192 4.92596 10.0939 4.93312 10.0693C4.85323 9.99436 4.76094 9.9325 4.65944 9.88684L3.39187 9.31668C2.90933 9.09963 2.67938 8.54425 2.86725 8.04962L3.36084 6.75011C3.44769 6.52146 3.44773 6.26891 3.36094 6.04023L2.86781 4.74078C2.68008 4.24609 2.91019 3.69078 3.39279 3.47387L4.66079 2.90396C4.88388 2.80369 5.06249 2.62513 5.16282 2.40207L5.73282 1.13486ZM6.99805 12.1816C6.68547 12.3003 6.34868 12.252 6.08836 12.0787L5.64378 14.5243L8.35089 13.332C8.5435 13.2472 8.76289 13.2472 8.9555 13.332L11.6626 14.5243L11.218 12.0786C10.9575 12.2525 10.6201 12.301 10.307 12.1821L9.00754 11.6885C8.77889 11.6017 8.52634 11.6017 8.29766 11.6884L6.99805 12.1816ZM4.77197 6.39618C4.77197 4.25264 6.50966 2.51495 8.6532 2.51495C10.7967 2.51495 12.5344 4.25264 12.5344 6.39618C12.5344 8.53972 10.7967 10.2774 8.6532 10.2774C6.50966 10.2774 4.77197 8.53972 4.77197 6.39618Z" fill="black"/>
</g>
<defs>
<clipPath id="clip0_1534_4770">
<rect width="16" height="16" fill="white" transform="translate(0.653198 0.549927)"/>
</clipPath>
</defs>
</svg>
