<svg width="17" height="17" viewBox="0 0 17 17" fill="none" xmlns="http://www.w3.org/2000/svg">
<g clip-path="url(#clip0_1534_4772)">
<path d="M7.15036 4.81821C6.27733 4.88342 5.42891 5.11753 4.65094 5.50387C5.82883 4.72435 7.21862 4.29977 8.65219 4.29977H8.65319C10.576 4.29977 12.4201 5.06361 13.7797 6.42325C14.8164 7.4599 15.5067 8.77819 15.7761 10.1983C15.8048 10.3495 15.761 10.4835 15.6561 10.5947C15.5447 10.7128 15.3647 10.7998 15.1532 10.7998C14.7709 10.7998 14.3421 10.4623 14.1934 9.87976C14.0278 9.2309 13.7657 8.60725 13.4133 8.03043C12.7659 6.97069 11.8387 6.1101 10.7337 5.54336C9.62868 4.97662 8.38876 4.7257 7.15036 4.81821ZM7.09049 9.98806L7.22332 10.0943L7.69186 9.5087L7.22332 10.0943C7.58637 10.3848 8.02747 10.413 8.36629 10.3333L8.19456 9.60322L8.36629 10.3333C8.5848 10.2819 8.81429 10.2901 9.03035 10.3586C9.30431 10.4454 9.53996 10.6241 9.69762 10.8644C9.85528 11.1046 9.92533 11.3919 9.89596 11.6778C9.86659 11.9637 9.73961 12.2308 9.53639 12.434C9.33317 12.6372 9.06613 12.7642 8.78023 12.7935C8.49434 12.8229 8.20706 12.7529 7.96677 12.5952C7.72648 12.4375 7.54785 12.2019 7.46098 11.9279C7.3741 11.654 7.38428 11.3585 7.48981 11.0911L7.64943 10.6867L7.37784 10.3473L7.09049 9.98806Z" stroke="black" stroke-width="1.5"/>
</g>
<defs>
<clipPath id="clip0_1534_4772">
<rect width="16" height="16" fill="white" transform="matrix(-1 0 0 1 16.6532 0.549927)"/>
</clipPath>
</defs>
</svg>
