<svg width="17" height="17" viewBox="0 0 17 17" fill="none" xmlns="http://www.w3.org/2000/svg">
<g clip-path="url(#clip0_1534_4791)">
<path d="M11.7717 1.74588H11.0864L11.0247 2.42835L10.6782 6.26102L10.6524 6.54703L10.8242 6.77717L12.3689 8.84668H10.0392H9.39461L9.29769 9.48391L8.65314 13.7218L8.00859 9.48391L7.91167 8.84668H7.26712H4.9374L6.48212 6.77717L6.6539 6.54703L6.62804 6.26102L6.28154 2.42835L6.21984 1.74588L5.53458 1.74588C5.44331 1.74588 5.37137 1.71185 5.32588 1.66956C5.28133 1.62813 5.2672 1.58559 5.2672 1.54993V1.5229C5.2672 1.45024 5.34757 1.29993 5.56365 1.29993L11.7426 1.29993C11.9587 1.29993 12.0391 1.45024 12.0391 1.5229V1.54993C12.0391 1.58559 12.025 1.62813 11.9804 1.66956C11.9349 1.71185 11.863 1.74588 11.7717 1.74588ZM4.62872 9.26022L4.62892 9.25995C4.62886 9.26004 4.62879 9.26013 4.62872 9.26022L4.46947 9.14136L4.62872 9.26022Z" stroke="black" stroke-width="1.5"/>
</g>
<defs>
<clipPath id="clip0_1534_4791">
<rect width="16" height="16" fill="white" transform="translate(0.653198 0.549927)"/>
</clipPath>
</defs>
</svg>
