<svg width="17" height="17" viewBox="0 0 17 17" fill="none" xmlns="http://www.w3.org/2000/svg">
<g clip-path="url(#clip0_1534_4790)">
<path fill-rule="evenodd" clip-rule="evenodd" d="M7.1435 0.560913C6.18675 0.560913 5.41114 1.33651 5.41114 2.29327V3.07142C5.41114 3.17436 5.42012 3.2752 5.43734 3.37321C4.3344 3.52978 3.46389 4.43698 3.38123 5.57814L2.95384 11.4781C2.94921 11.542 2.94712 11.6054 2.94747 11.6682C2.17108 11.7022 1.43738 12.3083 1.43738 13.2347V13.8124C1.43738 15.3243 2.663 16.5499 4.17487 16.5499H13.1315C14.6434 16.5499 15.869 15.3243 15.869 13.8124L15.869 13.2614C15.869 12.3341 15.1349 11.7289 14.3588 11.695C14.3599 11.6234 14.358 11.551 14.3527 11.4781L13.9253 5.57814C13.8426 4.43697 12.9721 3.52978 11.8692 3.37321C11.8864 3.2752 11.8954 3.17436 11.8954 3.07142V2.29327C11.8954 1.33652 11.1198 0.560913 10.163 0.560913H7.1435ZM7.12797 4.8037C7.13314 4.80375 7.13832 4.80377 7.1435 4.80377H10.163C10.1682 4.80377 10.1734 4.80375 10.1786 4.8037H11.5291C12.0261 4.8037 12.4388 5.18752 12.4747 5.68322L12.9021 11.5832C12.9418 12.1323 12.5071 12.5997 11.9565 12.5997H11.896C11.9159 12.4766 11.9226 12.3492 11.9149 12.2192L11.693 8.4795C11.6387 7.56421 10.8806 6.84975 9.96371 6.84975H7.3428C6.4259 6.84975 5.6678 7.56421 5.61349 8.4795L5.39158 12.2192C5.38387 12.3492 5.39066 12.4766 5.41052 12.5997H5.35C4.79946 12.5997 4.3647 12.1323 4.40447 11.5832L4.83186 5.68322C4.86777 5.18752 5.2804 4.8037 5.77739 4.8037H7.12797ZM10.1692 3.34927C10.3199 3.34595 10.4409 3.22282 10.4409 3.07142V2.29327C10.4409 2.13978 10.3165 2.01535 10.163 2.01535H7.1435C6.99001 2.01535 6.86558 2.13978 6.86558 2.29327V3.07142C6.86558 3.22282 6.98666 3.34595 7.13727 3.34927H10.1692ZM10.1891 12.5997H7.11744C6.95911 12.5978 6.83406 12.4639 6.84347 12.3054L7.06537 8.56565C7.07408 8.41881 7.1957 8.30419 7.3428 8.30419H9.96371C10.1108 8.30419 10.2324 8.41881 10.2411 8.56565L10.463 12.3054C10.4725 12.4639 10.3474 12.5978 10.1891 12.5997ZM2.90898 13.1698C2.90182 13.1795 2.89181 13.1966 2.89181 13.2347L2.89182 13.8124C2.89182 14.521 3.46626 15.0955 4.17487 15.0955H13.1315C13.8402 15.0955 14.4146 14.521 14.4146 13.8124L14.4146 13.2614C14.4146 13.2231 14.4045 13.2059 14.3974 13.1964C14.3873 13.1829 14.3688 13.1673 14.3416 13.1575C14.3145 13.1478 14.2903 13.1479 14.2739 13.1519C14.2623 13.1547 14.2436 13.1615 14.2192 13.191L14.0217 13.4296C13.6926 13.8272 13.2033 14.0573 12.6872 14.0573H4.64473C4.13308 14.0573 3.6476 13.8311 3.31845 13.4394L3.08673 13.1637C3.06225 13.1345 3.04357 13.1278 3.03188 13.1251C3.01547 13.1212 2.99136 13.1211 2.96442 13.131C2.93747 13.1408 2.91903 13.1563 2.90898 13.1698Z" fill="black"/>
</g>
<defs>
<clipPath id="clip0_1534_4790">
<rect width="16" height="16" fill="white" transform="translate(0.653198 0.549927)"/>
</clipPath>
</defs>
</svg>
