<svg width="17" height="17" viewBox="0 0 17 17" fill="none" xmlns="http://www.w3.org/2000/svg">
<g clip-path="url(#clip0_1534_4776)">
<path d="M8.60522 1.20386C8.21003 1.20387 7.81485 1.41927 7.63565 1.85006L5.97005 5.85566L1.64685 6.20206C0.715651 6.27646 0.338051 7.43806 1.04765 8.04606L4.34125 10.8677L3.33565 15.0861C3.11885 15.9941 4.10685 16.7125 4.90365 16.2261L8.60522 13.9653V1.20386Z" fill="black"/>
<path d="M8.19594 2.18211C8.34737 1.81804 8.86311 1.81804 9.01453 2.18211L10.6899 6.21025C10.7538 6.36373 10.8981 6.4686 11.0638 6.48189L15.4125 6.83052C15.8056 6.86203 15.9649 7.35253 15.6655 7.60904L12.3522 10.4472C12.226 10.5554 12.1708 10.725 12.2094 10.8867L13.2217 15.1303C13.3132 15.5139 12.8959 15.817 12.5594 15.6115L8.8363 13.3374C8.69444 13.2508 8.51603 13.2508 8.37417 13.3374L4.65106 15.6115C4.31457 15.817 3.89732 15.5139 3.98881 15.1303L5.00107 10.8867C5.03964 10.725 4.98451 10.5554 4.85826 10.4472L1.545 7.60904C1.24554 7.35253 1.40491 6.86203 1.79795 6.83052L6.14667 6.48189C6.31237 6.4686 6.45671 6.36373 6.52054 6.21025L8.19594 2.18211Z" stroke="black" stroke-width="1.5" stroke-linecap="round" stroke-linejoin="round"/>
</g>
<defs>
<clipPath id="clip0_1534_4776">
<rect width="16" height="16" fill="white" transform="translate(0.605225 0.793457)"/>
</clipPath>
</defs>
</svg>
