<svg width="17" height="17" viewBox="0 0 17 17" fill="none" xmlns="http://www.w3.org/2000/svg">
<g clip-path="url(#clip0_1534_4774)">
<path fill-rule="evenodd" clip-rule="evenodd" d="M2.56909 8.55008C2.56909 8.41449 2.57353 8.27993 2.58226 8.14655L5.27384 9.90407C6.23655 10.5327 6.86941 11.4441 7.04086 12.4488L7.39142 14.5032C4.63677 13.9222 2.56909 11.4776 2.56909 8.55008ZM8.65088 13.8231L8.91227 12.2913C8.98329 11.8751 9.11588 11.4714 9.3044 11.0882C9.09828 11.1505 8.87967 11.1839 8.65326 11.1839C8.42479 11.1839 8.20428 11.1498 7.99652 11.0865C8.18548 11.4702 8.31836 11.8745 8.38949 12.2913L8.65088 13.8231ZM14.7372 8.55008C14.7372 11.4793 12.6672 13.925 9.91016 14.5042L10.2609 12.4488C10.4323 11.4441 11.0652 10.5327 12.0279 9.90407L14.7239 8.14368C14.7327 8.27801 14.7372 8.41352 14.7372 8.55008ZM14.0293 7.16164L11.3107 7.6248C11.0603 7.66748 10.809 7.704 10.5572 7.73436C10.7764 8.08158 10.9033 8.49292 10.9033 8.9339C10.9033 9.03377 10.8968 9.13213 10.8841 9.22856C10.9811 9.15643 11.0812 9.08667 11.1842 9.01944L14.0293 7.16164ZM6.40326 8.9339C6.40326 9.03513 6.40994 9.1348 6.4229 9.23249C6.32424 9.15896 6.22245 9.08789 6.1176 9.01944L3.26573 7.15726L6.10963 7.63279C6.32395 7.66863 6.53884 7.69996 6.75413 7.72679C6.53197 8.07559 6.40326 8.48971 6.40326 8.9339ZM3.18641 5.87664L6.31578 6.39991C7.89999 6.6648 9.5174 6.66232 11.1008 6.39256L14.1206 5.87807C13.1313 3.85743 11.0547 2.466 8.65317 2.466C6.2522 2.466 4.17606 3.85677 3.18641 5.87664ZM1.06909 8.55008C1.06909 4.36151 4.4646 0.966003 8.65317 0.966003C12.8417 0.966003 16.2372 4.36151 16.2372 8.55008C16.2372 12.7386 12.8417 16.1342 8.65317 16.1342C4.4646 16.1342 1.06909 12.7386 1.06909 8.55008ZM8.65326 8.1839C8.23905 8.1839 7.90326 8.51969 7.90326 8.9339C7.90326 9.34811 8.23905 9.6839 8.65326 9.6839C9.06747 9.6839 9.40326 9.34811 9.40326 8.9339C9.40326 8.51969 9.06747 8.1839 8.65326 8.1839Z" fill="black"/>
</g>
<defs>
<clipPath id="clip0_1534_4774">
<rect width="16" height="16" fill="white" transform="translate(0.653198 0.549927)"/>
</clipPath>
</defs>
</svg>
