<svg width="17" height="17" viewBox="0 0 17 17" fill="none" xmlns="http://www.w3.org/2000/svg">
<g clip-path="url(#clip0_1534_4768)">
<mask id="path-1-inside-1_1534_4768" fill="white">
<path fill-rule="evenodd" clip-rule="evenodd" d="M6.9032 0.560425C6.48898 0.560425 6.1532 0.896211 6.1532 1.31042C6.1532 1.72464 6.48898 2.06042 6.9032 2.06042H10.4032C10.8174 2.06042 11.1532 1.72464 11.1532 1.31042C11.1532 0.896211 10.8174 0.560425 10.4032 0.560425H6.9032ZM3.1532 9.54364C3.1532 6.50607 5.61563 4.04364 8.6532 4.04364C11.6908 4.04364 14.1532 6.50607 14.1532 9.54364C14.1532 12.5812 11.6908 15.0436 8.6532 15.0436C5.61563 15.0436 3.1532 12.5812 3.1532 9.54364ZM8.6532 2.54364C4.7872 2.54364 1.6532 5.67765 1.6532 9.54364C1.6532 13.4096 4.7872 16.5436 8.6532 16.5436C12.5192 16.5436 15.6532 13.4096 15.6532 9.54364C15.6532 5.67765 12.5192 2.54364 8.6532 2.54364ZM12.2368 7.04586C12.5297 6.75297 12.5297 6.2781 12.2368 5.9852C11.9439 5.69231 11.469 5.69231 11.1761 5.9852L9.27266 7.88868C9.08009 7.81578 8.8713 7.77588 8.6532 7.77588C7.6867 7.77588 6.9032 8.55938 6.9032 9.52588C6.9032 10.4924 7.6867 11.2759 8.6532 11.2759C9.6197 11.2759 10.4032 10.4924 10.4032 9.52588C10.4032 9.33145 10.3715 9.14442 10.313 8.96969L12.2368 7.04586Z"/>
</mask>
<path fill-rule="evenodd" clip-rule="evenodd" d="M6.9032 0.560425C6.48898 0.560425 6.1532 0.896211 6.1532 1.31042C6.1532 1.72464 6.48898 2.06042 6.9032 2.06042H10.4032C10.8174 2.06042 11.1532 1.72464 11.1532 1.31042C11.1532 0.896211 10.8174 0.560425 10.4032 0.560425H6.9032ZM3.1532 9.54364C3.1532 6.50607 5.61563 4.04364 8.6532 4.04364C11.6908 4.04364 14.1532 6.50607 14.1532 9.54364C14.1532 12.5812 11.6908 15.0436 8.6532 15.0436C5.61563 15.0436 3.1532 12.5812 3.1532 9.54364ZM8.6532 2.54364C4.7872 2.54364 1.6532 5.67765 1.6532 9.54364C1.6532 13.4096 4.7872 16.5436 8.6532 16.5436C12.5192 16.5436 15.6532 13.4096 15.6532 9.54364C15.6532 5.67765 12.5192 2.54364 8.6532 2.54364ZM12.2368 7.04586C12.5297 6.75297 12.5297 6.2781 12.2368 5.9852C11.9439 5.69231 11.469 5.69231 11.1761 5.9852L9.27266 7.88868C9.08009 7.81578 8.8713 7.77588 8.6532 7.77588C7.6867 7.77588 6.9032 8.55938 6.9032 9.52588C6.9032 10.4924 7.6867 11.2759 8.6532 11.2759C9.6197 11.2759 10.4032 10.4924 10.4032 9.52588C10.4032 9.33145 10.3715 9.14442 10.313 8.96969L12.2368 7.04586Z" fill="black"/>
<path d="M12.2368 5.9852L11.5297 6.69231L11.5297 6.69231L12.2368 5.9852ZM12.2368 7.04586L11.5297 6.33876L12.2368 7.04586ZM11.1761 5.9852L11.8832 6.69231L11.8832 6.69231L11.1761 5.9852ZM9.27266 7.88868L8.91861 8.82391L9.52289 9.05266L9.97976 8.59579L9.27266 7.88868ZM10.313 8.96969L9.60586 8.26259L9.16813 8.70032L9.36474 9.28731L10.313 8.96969ZM7.1532 1.31042C7.1532 1.4485 7.04127 1.56042 6.9032 1.56042V-0.439575C5.9367 -0.439575 5.1532 0.343927 5.1532 1.31042H7.1532ZM6.9032 1.06042C7.04127 1.06042 7.1532 1.17235 7.1532 1.31042H5.1532C5.1532 2.27692 5.9367 3.06042 6.9032 3.06042V1.06042ZM10.4032 1.06042H6.9032V3.06042H10.4032V1.06042ZM10.1532 1.31042C10.1532 1.17235 10.2651 1.06042 10.4032 1.06042V3.06042C11.3697 3.06042 12.1532 2.27692 12.1532 1.31042H10.1532ZM10.4032 1.56042C10.2651 1.56042 10.1532 1.4485 10.1532 1.31042H12.1532C12.1532 0.343926 11.3697 -0.439575 10.4032 -0.439575V1.56042ZM6.9032 1.56042H10.4032V-0.439575H6.9032V1.56042ZM8.6532 3.04364C5.06335 3.04364 2.1532 5.95379 2.1532 9.54364H4.1532C4.1532 7.05836 6.16792 5.04364 8.6532 5.04364V3.04364ZM15.1532 9.54364C15.1532 5.95379 12.243 3.04364 8.6532 3.04364V5.04364C11.1385 5.04364 13.1532 7.05836 13.1532 9.54364H15.1532ZM8.6532 16.0436C12.243 16.0436 15.1532 13.1335 15.1532 9.54364H13.1532C13.1532 12.0289 11.1385 14.0436 8.6532 14.0436V16.0436ZM2.1532 9.54364C2.1532 13.1335 5.06335 16.0436 8.6532 16.0436V14.0436C6.16792 14.0436 4.1532 12.0289 4.1532 9.54364H2.1532ZM2.6532 9.54364C2.6532 6.22993 5.33949 3.54364 8.6532 3.54364V1.54364C4.23492 1.54364 0.653198 5.12536 0.653198 9.54364H2.6532ZM8.6532 15.5436C5.33949 15.5436 2.6532 12.8573 2.6532 9.54364H0.653198C0.653198 13.9619 4.23492 17.5436 8.6532 17.5436V15.5436ZM14.6532 9.54364C14.6532 12.8573 11.9669 15.5436 8.6532 15.5436V17.5436C13.0715 17.5436 16.6532 13.9619 16.6532 9.54364H14.6532ZM8.6532 3.54364C11.9669 3.54364 14.6532 6.22993 14.6532 9.54364H16.6532C16.6532 5.12536 13.0715 1.54364 8.6532 1.54364V3.54364ZM11.5297 6.69231C11.4321 6.59468 11.4321 6.43639 11.5297 6.33876L12.9439 7.75297C13.6273 7.06955 13.6273 5.96151 12.9439 5.2781L11.5297 6.69231ZM11.8832 6.69231C11.7856 6.78994 11.6273 6.78994 11.5297 6.69231L12.9439 5.2781C12.2605 4.59468 11.1524 4.59468 10.469 5.2781L11.8832 6.69231ZM9.97976 8.59579L11.8832 6.69231L10.469 5.2781L8.56555 7.18157L9.97976 8.59579ZM8.6532 8.77588C8.74849 8.77588 8.83743 8.79317 8.91861 8.82391L9.6267 6.95345C9.32275 6.83839 8.99412 6.77588 8.6532 6.77588V8.77588ZM7.9032 9.52588C7.9032 9.11167 8.23898 8.77588 8.6532 8.77588V6.77588C7.13442 6.77588 5.9032 8.0071 5.9032 9.52588H7.9032ZM8.6532 10.2759C8.23898 10.2759 7.9032 9.94009 7.9032 9.52588H5.9032C5.9032 11.0447 7.13442 12.2759 8.6532 12.2759V10.2759ZM9.4032 9.52588C9.4032 9.94009 9.06741 10.2759 8.6532 10.2759V12.2759C10.172 12.2759 11.4032 11.0447 11.4032 9.52588H9.4032ZM9.36474 9.28731C9.38942 9.36097 9.4032 9.4408 9.4032 9.52588H11.4032C11.4032 9.2221 11.3536 8.92788 11.2612 8.65208L9.36474 9.28731ZM11.5297 6.33876L9.60586 8.26259L11.0201 9.6768L12.9439 7.75297L11.5297 6.33876Z" fill="black" mask="url(#path-1-inside-1_1534_4768)"/>
</g>
<defs>
<clipPath id="clip0_1534_4768">
<rect width="16" height="16" fill="white" transform="translate(0.653198 0.549927)"/>
</clipPath>
</defs>
</svg>
