<svg width="17" height="17" viewBox="0 0 17 17" fill="none" xmlns="http://www.w3.org/2000/svg">
<g clip-path="url(#clip0_1534_4748)">
<path d="M12.0833 15.4083C14.5344 14.1219 16.1522 11.4989 16.0151 8.55127C15.8264 4.49426 12.3845 1.35839 8.32753 1.54712C4.27051 1.73585 1.13465 5.17771 1.32338 9.23472C1.45013 11.9595 3.04434 14.2688 5.30678 15.4345" stroke="black" stroke-width="1.25" stroke-linecap="round" stroke-linejoin="round"/>
<path d="M5.52521 15.6768L5.34656 13.1832M2.48725 15.8944L5.52413 15.6769" stroke="black" stroke-width="1.25" stroke-linecap="round" stroke-linejoin="round"/>
<path fill-rule="evenodd" clip-rule="evenodd" d="M7.81645 3.37415C7.28619 3.37415 6.85634 3.804 6.85634 4.33426V4.76552C6.85634 4.82257 6.86131 4.87845 6.87085 4.93276C6.25959 5.01955 5.77715 5.52233 5.73133 6.15478L5.49446 9.4247C5.4919 9.46008 5.49074 9.49521 5.49094 9.53005C5.06066 9.5489 4.65405 9.8848 4.65405 10.3982L4.65405 10.7184C4.65406 11.5563 5.33332 12.2356 6.17123 12.2356H11.1352C11.9731 12.2356 12.6524 11.5563 12.6524 10.7184L12.6524 10.413C12.6524 9.8991 12.2455 9.56366 11.8153 9.54486C11.816 9.50518 11.8149 9.46509 11.812 9.4247L11.5751 6.15478C11.5293 5.52232 11.0468 5.01953 10.4355 4.93276C10.4451 4.87845 10.45 4.82257 10.45 4.76552V4.33426C10.45 3.804 10.0202 3.37415 9.48994 3.37415H7.81645ZM7.80551 5.72557C7.80915 5.72561 7.8128 5.72563 7.81645 5.72563H9.48994C9.49359 5.72563 9.49723 5.72561 9.50087 5.72557H10.2471C10.5225 5.72557 10.7512 5.93829 10.7711 6.21302L11.008 9.48294C11.03 9.78727 10.7891 10.0463 10.484 10.0463H10.4504C10.4614 9.97806 10.4652 9.90749 10.4609 9.83545L10.3379 7.76281C10.3078 7.25554 9.88766 6.85957 9.3795 6.85957H7.92693C7.41876 6.85957 6.99861 7.25554 6.96851 7.76281L6.84552 9.83545C6.84125 9.90749 6.84501 9.97806 6.85601 10.0463H6.82247C6.51735 10.0463 6.27639 9.78727 6.29844 9.48294L6.53531 6.21302C6.55521 5.93829 6.7839 5.72557 7.05934 5.72557H7.80551ZM9.49431 4.91949C9.57736 4.91717 9.64396 4.84913 9.64396 4.76552V4.33426C9.64396 4.24919 9.575 4.18023 9.48994 4.18023H7.81645C7.73138 4.18023 7.66242 4.24919 7.66242 4.33426V4.76552C7.66242 4.84913 7.72903 4.91717 7.81207 4.91949H9.49431ZM9.50614 10.0463H7.80029C7.71336 10.0443 7.64501 9.97048 7.65019 9.8832L7.77317 7.81056C7.778 7.72918 7.84541 7.66565 7.92693 7.66565H9.3795C9.46102 7.66565 9.52843 7.72918 9.53326 7.81056L9.65624 9.8832C9.66142 9.97048 9.59307 10.0443 9.50614 10.0463ZM5.46965 10.3623C5.46568 10.3676 5.46013 10.3771 5.46013 10.3982L5.46014 10.7184C5.46014 11.1111 5.7785 11.4295 6.17123 11.4295H11.1352C11.528 11.4295 11.8463 11.1111 11.8463 10.7184L11.8463 10.413C11.8463 10.3918 11.8407 10.3823 11.8368 10.377C11.8312 10.3695 11.8209 10.3609 11.8059 10.3555C11.7908 10.35 11.7774 10.3501 11.7683 10.3523C11.7619 10.3539 11.7516 10.3576 11.738 10.374L11.6286 10.5062C11.4462 10.7266 11.175 10.8541 10.889 10.8541H6.43164C6.14807 10.8541 5.87901 10.7288 5.69658 10.5117L5.56816 10.3589C5.5546 10.3427 5.54424 10.339 5.53776 10.3375C5.52867 10.3353 5.51531 10.3353 5.50037 10.3407C5.48544 10.3462 5.47522 10.3548 5.46965 10.3623Z" fill="black"/>
</g>
<defs>
<clipPath id="clip0_1534_4748">
<rect width="16" height="16" fill="white" transform="translate(0.653198 0.549927)"/>
</clipPath>
</defs>
</svg>
