<svg width="17" height="17" viewBox="0 0 17 17" fill="none" xmlns="http://www.w3.org/2000/svg">
<g clip-path="url(#clip0_1534_4771)">
<path d="M12.0833 15.4083C14.5344 14.1219 16.1522 11.4989 16.0151 8.55127C15.8264 4.49426 12.3845 1.35839 8.32753 1.54712C4.27051 1.73585 1.13465 5.17771 1.32338 9.23472C1.45013 11.9595 3.04434 14.2688 5.30678 15.4345" stroke="black" stroke-width="1.25" stroke-linecap="round" stroke-linejoin="round"/>
<path d="M5.52521 15.6768L5.34656 13.1832M2.48725 15.8944L5.52413 15.6769" stroke="black" stroke-width="1.25" stroke-linecap="round" stroke-linejoin="round"/>
<path d="M3.21985 9.48782C3.21985 9.83977 3.33966 10.1262 3.57929 10.3471C3.82079 10.568 4.16713 10.6785 4.6183 10.6785C5.06386 10.6785 5.41581 10.5689 5.67416 10.3499C5.93251 10.129 6.06169 9.8276 6.06169 9.44569C6.06169 9.19109 5.99148 8.97673 5.85108 8.80263C5.71067 8.62665 5.52252 8.51058 5.28664 8.45442V8.44319C5.50568 8.35707 5.66668 8.22883 5.76964 8.05847C5.87261 7.88811 5.92409 7.69809 5.92409 7.48842C5.92409 7.18888 5.81176 6.93615 5.58711 6.73022C5.36433 6.52429 5.04514 6.42133 4.62954 6.42133C4.21767 6.42133 3.8938 6.53272 3.65792 6.75549C3.42391 6.9764 3.3069 7.24411 3.3069 7.55862V7.59513H4.05387V7.55862C4.05387 7.37703 4.10254 7.23849 4.19989 7.14302C4.29724 7.04754 4.43577 6.9998 4.61549 6.9998C4.7896 6.9998 4.92345 7.04848 5.01706 7.14583C5.11254 7.2413 5.16027 7.38358 5.16027 7.57266C5.16027 7.76736 5.10411 7.919 4.99179 8.02758C4.87946 8.13616 4.71565 8.19045 4.50036 8.19045H4.17462V8.74647H4.52844C4.77181 8.74647 4.95902 8.80357 5.09007 8.91776C5.22112 9.03009 5.28664 9.19858 5.28664 9.42323C5.28664 9.65537 5.22861 9.82666 5.11254 9.93712C4.99834 10.0457 4.8364 10.1 4.62673 10.1C4.41892 10.1 4.25699 10.0457 4.14092 9.93712C4.02672 9.82854 3.96962 9.6769 3.96962 9.4822V9.43446H3.21985V9.48782Z" fill="black"/>
<path d="M6.3188 8.88126C6.3188 9.51777 6.46295 9.97643 6.75125 10.2572C7.03956 10.5381 7.39338 10.6785 7.81273 10.6785C8.24893 10.6785 8.59433 10.5474 8.84894 10.2853C9.10541 10.0232 9.23365 9.68345 9.23365 9.26597C9.23365 8.85224 9.12039 8.51901 8.89387 8.26627C8.66921 8.01167 8.36313 7.88437 7.9756 7.88437C7.60867 7.88437 7.32131 8.01448 7.1135 8.2747C6.90757 8.53492 6.80461 8.86347 6.80461 9.26036H7.05734C7.05734 9.01324 7.12942 8.81667 7.27357 8.67065C7.41772 8.52275 7.59276 8.4488 7.79869 8.4488C8.02334 8.4488 8.19183 8.52275 8.30416 8.67065C8.41835 8.81854 8.47545 9.01979 8.47545 9.2744C8.47545 9.54211 8.41929 9.7471 8.30696 9.88938C8.19651 10.0317 8.02989 10.1028 7.80712 10.1028C7.58621 10.1028 7.40742 10.0167 7.27076 9.84445C7.1341 9.67034 7.06577 9.3577 7.06577 8.90653L7.02926 8.76893C7.02926 8.15676 7.17622 7.71681 7.47014 7.44911C7.76593 7.17952 8.17217 7.04473 8.68887 7.04473H8.75627V6.44941H8.68606C7.91289 6.44941 7.32505 6.66189 6.92255 7.08685C6.52005 7.50995 6.3188 8.07626 6.3188 8.78578V8.88126Z" fill="black"/>
<path d="M9.44022 9.21823C9.44022 9.6563 9.56003 10.0092 9.79966 10.2769C10.0393 10.5446 10.3819 10.6785 10.8274 10.6785C11.2674 10.6785 11.6081 10.5446 11.8496 10.2769C12.093 10.0092 12.2147 9.6563 12.2147 9.21823V7.88156C12.2147 7.44349 12.0939 7.0906 11.8524 6.82289C11.6109 6.55518 11.2693 6.42133 10.8274 6.42133C10.3819 6.42133 10.0393 6.55612 9.79966 6.8257C9.56003 7.09341 9.44022 7.44536 9.44022 7.88156V9.21823ZM10.2153 9.28001V7.81978C10.2153 7.58015 10.2639 7.38545 10.3613 7.23569C10.4586 7.08405 10.614 7.00823 10.8274 7.00823C11.0427 7.00823 11.199 7.08405 11.2964 7.23569C11.3937 7.38545 11.4424 7.58015 11.4424 7.81978V9.28001C11.4424 9.51964 11.3937 9.71527 11.2964 9.86691C11.199 10.0186 11.0427 10.0944 10.8274 10.0944C10.6121 10.0944 10.4558 10.0186 10.3585 9.86691C10.263 9.71527 10.2153 9.51964 10.2153 9.28001Z" fill="black"/>
<path d="M12.5981 7.21041C12.5981 7.42196 12.6721 7.60168 12.82 7.74958C12.9679 7.8956 13.1439 7.96861 13.3479 7.96861C13.5501 7.96861 13.7233 7.89466 13.8674 7.74677C14.0134 7.59887 14.0865 7.42009 14.0865 7.21041C14.0865 7.00261 14.0134 6.82383 13.8674 6.67406C13.7233 6.52242 13.5501 6.4466 13.3479 6.4466C13.1439 6.4466 12.9679 6.52242 12.82 6.67406C12.6721 6.82383 12.5981 7.00261 12.5981 7.21041ZM12.9857 7.21041C12.9857 7.1037 13.0203 7.01478 13.0896 6.94364C13.1607 6.8725 13.2468 6.83693 13.3479 6.83693C13.449 6.83693 13.5323 6.8725 13.5978 6.94364C13.6652 7.01478 13.6989 7.1037 13.6989 7.21041C13.6989 7.31525 13.6652 7.40324 13.5978 7.47438C13.5323 7.54365 13.449 7.57828 13.3479 7.57828C13.2468 7.57828 13.1607 7.54365 13.0896 7.47438C13.0203 7.40324 12.9857 7.31525 12.9857 7.21041Z" fill="black"/>
</g>
<defs>
<clipPath id="clip0_1534_4771">
<rect width="16" height="16" fill="white" transform="translate(0.653198 0.549927)"/>
</clipPath>
</defs>
</svg>
