<svg width="17" height="17" viewBox="0 0 17 17" fill="none" xmlns="http://www.w3.org/2000/svg">
<g clip-path="url(#clip0_1534_4750)">
<path d="M12.0833 15.4083C14.5344 14.1219 16.1522 11.4989 16.0151 8.55127C15.8264 4.49426 12.3845 1.35839 8.32753 1.54712C4.27051 1.73585 1.13465 5.17771 1.32338 9.23472C1.45013 11.9595 3.04434 14.2688 5.30678 15.4345" stroke="black" stroke-width="1.25" stroke-linecap="round" stroke-linejoin="round"/>
<path d="M5.52521 15.6768L5.34656 13.1832M2.48725 15.8944L5.52413 15.6769" stroke="black" stroke-width="1.25" stroke-linecap="round" stroke-linejoin="round"/>
<path fill-rule="evenodd" clip-rule="evenodd" d="M7.23446 4.7971C6.97105 4.7971 6.72792 4.93852 6.59769 5.16748L5.86354 6.45821L7.30633 6.58119C8.35131 6.67027 9.40216 6.66567 10.4463 6.56744L11.4231 6.47554C11.4252 6.4558 11.4286 6.4361 11.4334 6.41658L10.7352 5.17139C10.6056 4.94023 10.3613 4.7971 10.0962 4.7971H7.23446ZM11.9515 5.54322L11.502 4.74147C11.2168 4.23292 10.6793 3.91803 10.0962 3.91803H7.23446C6.65496 3.91803 6.12008 4.22914 5.83358 4.73286L5.34695 5.5884L5.26296 5.45347L5.01882 5.45348L4.39997 5.4535C4.15722 5.45351 3.96044 5.6503 3.96045 5.89305C3.96046 6.1358 4.15725 6.33258 4.4 6.33257L4.77471 6.33256L4.84377 6.4435C4.35077 6.57897 3.98241 7.03045 3.98241 7.57411V9.18188V9.20314L3.98241 11.1442C3.98241 11.4678 4.24479 11.7302 4.56846 11.7302L5.44753 11.7302C5.7712 11.7302 6.03358 11.4678 6.03358 11.1442V10.6683H11.2608V11.1442C11.2608 11.4678 11.5232 11.7302 11.8469 11.7302L12.7259 11.7302C13.0496 11.7302 13.312 11.4678 13.312 11.1442V9.20849L13.312 9.20314V7.58539C13.312 7.04658 12.9504 6.5989 12.4649 6.45878L12.4422 6.41838L12.4956 6.33256L12.8704 6.33257C13.1131 6.33258 13.3099 6.1358 13.3099 5.89305C13.3099 5.6503 13.1131 5.45351 12.8704 5.4535L12.2515 5.45348L12.0074 5.45347L11.9515 5.54322ZM12.4267 7.52494L11.1537 7.91568C10.7854 8.0287 10.505 8.32878 10.417 8.70378C10.3737 8.88845 10.5288 9.05926 10.7168 9.03395L12.4329 8.8029V9.20314C12.4329 9.52681 12.1705 9.78919 11.8469 9.78919H5.44754C5.12387 9.78919 4.86148 9.52681 4.86148 9.20314V8.80287L6.5776 9.03392C6.76558 9.05923 6.92065 8.88842 6.87735 8.70375C6.7894 8.32875 6.50891 8.02867 6.14068 7.91565L4.86569 7.52431C4.89081 7.37721 5.0253 7.26901 5.1794 7.28215L7.23166 7.45709C8.32889 7.55062 9.43229 7.54579 10.5287 7.44265L12.1124 7.29365C12.2637 7.27942 12.3969 7.38239 12.4267 7.52494Z" fill="black"/>
</g>
<defs>
<clipPath id="clip0_1534_4750">
<rect width="16" height="16" fill="white" transform="translate(0.653198 0.549927)"/>
</clipPath>
</defs>
</svg>
