<svg width="17" height="17" viewBox="0 0 17 17" fill="none" xmlns="http://www.w3.org/2000/svg">
<g clip-path="url(#clip0_1534_4781)">
<path d="M9.48464 6.34671C9.81639 6.50519 10.1273 6.72182 10.4021 6.9966C11.7005 8.29502 11.7005 10.4002 10.4021 11.6986L7.07728 15.0234C5.77886 16.3218 3.67372 16.3218 2.3753 15.0234C1.07689 13.725 1.07689 11.6198 2.3753 10.3214L3.67343 9.02327M13.537 8.56364L14.8351 7.26551C16.1336 5.9671 16.1336 3.86195 14.8351 2.56353C13.5367 1.26512 11.4316 1.26512 10.1332 2.56353L6.80837 5.88833C5.50995 7.18675 5.50995 9.2919 6.80837 10.5903C7.08315 10.8651 7.39406 11.0817 7.72581 11.2402M10.9768 15.5942V14.0942M14.7758 14.8442L13.008 13.0764M15.2581 11.0266L13.7581 11.0265M6.43274 1.99402V3.49402M2.63378 2.74402L4.40155 4.51179M2.15149 6.56165L3.65149 6.56165" stroke="black" stroke-width="1.5" stroke-linecap="round"/>
</g>
<defs>
<clipPath id="clip0_1534_4781">
<rect width="16" height="16" fill="white" transform="translate(0.605225 0.793457)"/>
</clipPath>
</defs>
</svg>
