<svg xmlns="http://www.w3.org/2000/svg" aria-hidden="true" fill="currentColor" viewBox="0 0 16 16">
  <path d="M15.239 7.8c0 .15-.1.3-.5.45-.5.2-1.099.1-1.699-.15V4.603c.25.25.55.5.799.799.949 1.049 1.449 1.949 1.399 2.398zM1.899 2.504c-.5-.15-.749-.35-.849-.4.15-.1.55-.4 1.599-.6 1.049-.25 2.448-.4 3.897-.4s2.798.15 3.897.35c1.049.2 1.449.5 1.599.6-.15.1-.55.4-1.599.6-1.049.25-2.448.35-3.897.35h-.749v3.298c0 .4-.35.749-.749.749-.3 0-.5-.15-.65-.35V7.75c0 .799-.55 1.449-1.199 1.449S2 8.549 2 7.75V2.504zM14.39 4.902c-.5-.55-.999-.999-1.349-1.299V2.104c0-.7-.7-1.199-2.148-1.549-1.149-.3-2.698-.45-4.347-.45s-3.198.15-4.397.45C.7.905.001 1.404.001 2.104c0 .1 0 .15.05.2v11.542c0 .849 2.898 2.049 6.495 2.049s6.495-1.199 6.495-2.049V9.699c-2.248-.65-4.497-3.048-5.396-4.047h-.05c-.4 0-.7-.3-.7-.699s.3-.7.7-.7c.4 0 .7.3.7.7v.05s0 .1-.05.15c.2.25.5.55.899.949s.899.899 1.449 1.349C11.942 8.55 13.091 9.1 14.14 9.1c.3 0 .65-.05.899-.15.7-.25.899-.7.949-1.049.1-.699-.45-1.699-1.599-2.998z"/>
</svg>
