<svg xmlns="http://www.w3.org/2000/svg" aria-hidden="true" fill="currentColor" viewBox="0 0 16 16">
  <path d="M12.992 13.706a.856.856 0 01-.606-1.463 6.007 6.007 0 000-8.485.856.856 0 111.212-1.212c1.457 1.457 2.259 3.394 2.259 5.455s-.802 3.998-2.259 5.455a.856.856 0 01-.606.251zM9.947 12.09a.856.856 0 01-.606-1.463 3.72 3.72 0 000-5.253.856.856 0 111.212-1.212 5.434 5.434 0 010 7.677.856.856 0 01-.606.251zM7.572 16a.57.57 0 01-.404-.167l-4.404-4.404H.715a.57.57 0 01-.571-.571V5.144a.57.57 0 01.571-.571h2.049L7.168.169a.573.573 0 01.976.404V15.43a.57.57 0 01-.572.571z"/>
</svg>
