<svg xmlns="http://www.w3.org/2000/svg" aria-hidden="true" fill="currentColor" viewBox="0 0 16 16">
  <path d="M15.643 7.308c-.302-1.61-.714-3.693-1.006-5.102S13.45.737 11.99.737c-2.423.144-4.69.55-6.856 1.192l.214-.054a.766.766 0 00-.553.735v5.534c0 .293.171.545.418.663l.004.002c2.274 1.047 3.452 4.8 3.874 5.807s2.466.865 2.244-.574c-.111-.795-.282-1.771-.392-3.15-.081-.805.06-1.318.443-1.288a14.373 14.373 0 002.363.059l-.038.002c1.509-.081 2.304-.624 1.932-2.355zM3.99 8.203V2.276a.333.333 0 00-.331-.303l-.022.001h.001H.619l-.021-.001a.333.333 0 00-.331.301v5.928c.016.17.158.303.331.303l.022-.001H.619h3.019l.021.001a.333.333 0 00.331-.301v-.001z"/>
</svg>
