<!-- Generated by IcoMoon.io -->
<svg version="1.1" xmlns="http://www.w3.org/2000/svg" width="16" height="16" viewBox="0 0 16 16">
<title>arrows-up-down</title>
<path fill="#4a4a4a" d="M10.221 11.19l-1.252 1.252v-8.885l1.252 1.252c0.189 0.189 0.437 0.284 0.685 0.284s0.496-0.095 0.685-0.284c0.378-0.378 0.378-0.992 0-1.37l-2.906-2.906c-0.378-0.378-0.992-0.378-1.37 0l-2.906 2.906c-0.378 0.378-0.378 0.992 0 1.37s0.992 0.378 1.37 0l1.252-1.252v8.885l-1.252-1.252c-0.378-0.378-0.992-0.378-1.37 0s-0.378 0.992 0 1.37l2.906 2.906c0.189 0.189 0.437 0.284 0.685 0.284s0.496-0.095 0.685-0.284l2.906-2.906c0.378-0.378 0.378-0.992 0-1.37s-0.992-0.378-1.37 0z"></path>
</svg>
