<!-- Generated by IcoMoon.io -->
<svg version="1.1" xmlns="http://www.w3.org/2000/svg" width="16" height="16" viewBox="0 0 16 16">
<title>bell-o</title>
<path fill="#4a4a4a" d="M13.032 6.855c0-2.437-1.546-4.491-3.656-5.128 0.022-0.094 0.035-0.203 0.036-0.314v-0c0-0.779-0.631-1.41-1.41-1.41s-1.41 0.631-1.41 1.41v0c0 0.109 0.013 0.216 0.037 0.318l-0.002-0.010c-2.125 0.63-3.681 2.69-3.681 5.134 0 0.226 0.014 0.45 0.039 0.669l-0.003-0.027c0.044 1.077 0.003 3.653-1.040 5.952h3.509c0 1.408 1.141 2.549 2.549 2.549s2.549-1.141 2.549-2.549v0h3.51c-1.361-2.999-1.026-6.548-1.026-6.594zM7.989 3.037c1.928 0 3.498 1.688 3.525 3.769-0.023 0.332-0.035 0.72-0.035 1.111 0 1.425 0.171 2.809 0.494 4.135l-0.025-0.119h-7.888c0.287-1.158 0.452-2.488 0.452-3.857 0-0.223-0.004-0.445-0.013-0.666l0.001 0.032c0-0.039 0-0.077-0.009-0.116-0.017-0.141-0.027-0.305-0.027-0.471v-0c0-2.104 1.581-3.818 3.525-3.818zM7.999 14.588c-0.629-0.001-1.138-0.51-1.139-1.139v-0h2.278c0 0 0 0.001 0 0.001 0 0.629-0.51 1.139-1.139 1.14h-0z"></path>
</svg>
