<!-- Generated by IcoMoon.io -->
<svg version="1.1" xmlns="http://www.w3.org/2000/svg" width="16" height="16" viewBox="0 0 16 16">
<title>bell</title>
<path fill="#4a4a4a" d="M14.058 13.45c-1.361-3.001-1.026-6.55-1.026-6.597 0-2.437-1.546-4.491-3.656-5.128 0.022-0.094 0.035-0.203 0.036-0.314v-0c0-0.779-0.631-1.41-1.41-1.41s-1.41 0.631-1.41 1.41v0c0 0.109 0.013 0.216 0.037 0.318l-0.002-0.010c-2.125 0.632-3.681 2.692-3.681 5.137 0 0.226 0.014 0.45 0.039 0.669l-0.003-0.027c0.044 1.077 0.003 3.653-1.040 5.952h3.509c0 1.408 1.141 2.549 2.549 2.549s2.549-1.141 2.549-2.549v0h3.51zM9.138 13.45c0 0.629-0.51 1.139-1.139 1.139s-1.139-0.51-1.139-1.139v0h2.278z"></path>
</svg>
