<!-- Generated by IcoMoon.io -->
<svg version="1.1" xmlns="http://www.w3.org/2000/svg" width="16" height="16" viewBox="0 0 16 16">
<title>bubbles</title>
<path fill="#4a4a4a" d="M6.667 0.889v0c3.682 0 6.667 2.415 6.667 5.395s-2.985 5.395-6.667 5.395c-0.354 0-0.701-0.023-1.039-0.065-1.432 1.426-3.086 1.682-4.738 1.72v-0.349c0.892-0.435 1.611-1.229 1.611-2.135 0-0.126-0.010-0.251-0.028-0.372-1.508-0.989-2.472-2.5-2.472-4.193 0-2.98 2.985-5.395 6.667-5.395zM13.833 12.982c0 0.777 0.504 1.457 1.278 1.83v0.299c-1.432-0.032-2.747-0.251-3.988-1.474-0.294 0.037-0.594 0.056-0.901 0.056-1.326 0-2.547-0.358-3.522-0.959 2.009-0.007 3.906-0.651 5.345-1.815 0.725-0.587 1.297-1.275 1.7-2.046 0.427-0.818 0.644-1.689 0.644-2.589 0-0.145-0.006-0.289-0.017-0.433 1.008 0.832 1.629 1.967 1.629 3.218 0 1.451-0.836 2.746-2.142 3.594-0.016 0.104-0.024 0.211-0.024 0.319z"></path>
</svg>
