<!-- Generated by IcoMoon.io -->
<svg version="1.1" xmlns="http://www.w3.org/2000/svg" width="16" height="16" viewBox="0 0 16 16">
<title>camcorder</title>
<path fill="#4a4a4a" d="M15.494 3.949c-0.101 0-0.203 0-0.203 0-0.101 0-0.203 0.101-0.203 0.101l-2.835 2.025v-1.62c0-0.405-0.101-0.81-0.405-1.114s-0.81-0.405-1.215-0.405h-9.114c-0.405 0-0.81 0.101-1.114 0.405s-0.405 0.709-0.405 1.114v7.089c0 0.405 0.101 0.81 0.405 1.114s0.709 0.405 1.114 0.405h9.114c0.405 0 0.81-0.101 1.114-0.405s0.405-0.608 0.405-1.114v-1.722l2.835 2.025c0.101 0.101 0.203 0.101 0.203 0.101 0.101 0 0.203 0 0.203 0 0.101 0 0.203 0 0.304-0.101s0.203-0.101 0.203-0.203 0.101-0.203 0.101-0.203 0-0.203 0-0.304v-6.38c0-0.304-0.101-0.506-0.203-0.608 0-0.101-0.101-0.203-0.304-0.203z"></path>
</svg>
