<svg xmlns="http://www.w3.org/2000/svg" fill="currentColor" aria-hidden="true" viewBox="-2 -2 20 20">
  <path d="M15.494 3.949h-.203c-.101 0-.203.101-.203.101l-2.835 2.025v-1.62c0-.405-.101-.81-.405-1.114s-.81-.405-1.215-.405H1.519c-.405 0-.81.101-1.114.405S0 4.05 0 4.455v7.089c0 .405.101.81.405 1.114s.709.405 1.114.405h9.114c.405 0 .81-.101 1.114-.405s.405-.608.405-1.114V9.822l2.835 2.025a.314.314 0 00.203.101h.203c.101 0 .203 0 .304-.101s.203-.101.203-.203.101-.203.101-.203V4.757c0-.304-.101-.506-.203-.608 0-.101-.101-.203-.304-.203z"/>
</svg>
