<!-- Generated by IcoMoon.io -->
<svg version="1.1" xmlns="http://www.w3.org/2000/svg" width="16" height="16" viewBox="0 0 16 16">
<title>car-side</title>
<path fill="#4a4a4a" d="M15.957 8.909s0.046 1.022-0.6 1.41h-0.82c0.11-0.224 0.174-0.487 0.174-0.765 0-0.978-0.793-1.77-1.77-1.77s-1.77 0.793-1.77 1.77c0 0.278 0.064 0.541 0.178 0.775l-0.005-0.010h-6.575c0.11-0.224 0.174-0.487 0.174-0.765 0-0.978-0.793-1.77-1.77-1.77s-1.77 0.793-1.77 1.77c0 0.278 0.064 0.541 0.178 0.775l-0.005-0.010s-0.95 0.043-1.262-0.276-0.255-2.386-0.255-2.386c0.131-0.053 0.233-0.155 0.285-0.283l0.001-0.003c0.074-0.209 0.209-0.93 0.209-0.93s3.183-1.218 4.853-1.413 2.046-0.095 2.593-0.020c1.52 0.135 3.88 1.65 3.88 1.65s2.685 0.345 3.722 1.201c0.17 0.303 0.294 0.657 0.353 1.032l0.002 0.018zM8.153 5.262c-0.381-0.067-0.821-0.105-1.269-0.105-0.48 0-0.949 0.044-1.404 0.128l0.047-0.007s-1.591 0.286-2.102 0.539c-0.197 0.133 0 0.33 0 0.33 0.429 0.429 5.436 0.766 7.742 0.572-0.038-0.169-1.752-1.201-3.014-1.456zM4.628 9.556c-0 0.813-0.659 1.471-1.471 1.471s-1.471-0.659-1.471-1.471c0-0.809 0.653-1.465 1.46-1.471h0.001c0.003-0 0.007-0 0.010-0 0.813 0 1.471 0.659 1.471 1.471 0 0 0 0 0 0v0zM3.147 8.595c-0.53 0-0.96 0.43-0.96 0.96s0.43 0.96 0.96 0.96c0.53 0 0.96-0.43 0.96-0.96v0c0-0.53-0.43-0.96-0.96-0.96v0zM14.409 9.556c0 0.813-0.659 1.471-1.471 1.471s-1.471-0.659-1.471-1.471c0-0.813 0.659-1.471 1.471-1.471v0c0.813 0 1.471 0.659 1.471 1.471v0zM12.937 8.595c-0.53 0-0.96 0.43-0.96 0.96s0.43 0.96 0.96 0.96c0.53 0 0.96-0.43 0.96-0.96v0c0-0.53-0.43-0.96-0.96-0.96v0z"></path>
</svg>
