<!-- Generated by IcoMoon.io -->
<svg version="1.1" xmlns="http://www.w3.org/2000/svg" width="16" height="16" viewBox="0 0 16 16">
<title>car</title>
<path fill="#4a4a4a" d="M15.242 4.561h-0.988c-0.004-0-0.009-0-0.014-0-0.112 0-0.211 0.052-0.276 0.134l-0.001 0.001c-0.113 0.156-0.186 0.502-0.286 0.502h-0.338c-0.097-0.254-0.189-0.459-0.29-0.657l0.017 0.037c-0.153-0.318-0.297-0.578-0.454-0.829l0.021 0.036s-0.238-0.325-0.373-0.468c-0.182-0.211-0.435-0.357-0.721-0.402l-0.007-0.001c-0.39-0.065-0.901-0.113-0.901-0.113l-1.118-0.056h-2.911l-1.113 0.048s-0.511 0.048-0.901 0.113c-0.285 0.052-0.529 0.198-0.705 0.405l-0.001 0.002c-0.134 0.143-0.373 0.468-0.373 0.468-0.136 0.215-0.28 0.475-0.411 0.742l-0.022 0.051c-0.084 0.161-0.176 0.365-0.257 0.574l-0.016 0.045h-0.433c-0.1 0-0.173-0.347-0.286-0.502-0.065-0.082-0.164-0.135-0.276-0.135-0.005 0-0.010 0-0.015 0l0.001-0h-1.040c-0.003-0-0.006-0-0.009-0-0.213 0-0.386 0.173-0.386 0.386 0 0.006 0 0.012 0 0.018l-0-0.001v0.368c0 0.234 0.403 0.576 0.775 0.585h1.299l-0.52 0.485c-0.433 0.407-0.741 0.546-0.741 1.299 0 1.364 0.1 2.4 0.1 2.4l0.082 0.866c0.013 0.123 0.031 0.232 0.056 0.339l-0.004-0.018v1.538c0 0 0 0.001 0 0.001 0 0.23 0.179 0.418 0.406 0.432l0.001 0h1.837c0.226-0.016 0.403-0.204 0.403-0.432 0-0 0-0.001 0-0.001v0-0.784h7.909v0.775c0 0 0 0.001 0 0.001 0 0.229 0.177 0.416 0.401 0.432l0.001 0h1.841c0.226-0.016 0.403-0.204 0.403-0.432 0-0 0-0.001 0-0.001v0-1.239c0.065-0.179 0.116-0.389 0.142-0.606l0.001-0.014 0.082-0.866s0.1-1.035 0.1-2.4c0-0.736-0.303-0.866-0.741-1.299l-0.515-0.472h1.178c0.373 0 0.775-0.351 0.775-0.585v-0.373c0-0.004 0-0.008 0-0.013 0-0.213-0.173-0.386-0.386-0.386-0.003 0-0.006 0-0.009 0l0-0zM3.452 5.189c0.133-0.324 0.278-0.601 0.446-0.861l-0.013 0.021c0.119-0.178 0.25-0.332 0.397-0.471l0.001-0.001c0.26-0.146 0.568-0.24 0.895-0.26l0.006-0c0.801-0.087 2.101-0.087 2.101-0.087h1.438s1.299 0 2.105 0.087c0.335 0.019 0.644 0.113 0.916 0.265l-0.011-0.005c0.149 0.139 0.281 0.294 0.393 0.463l0.006 0.009c0.155 0.24 0.3 0.516 0.42 0.805l0.013 0.035c0.195 0.476-0.143 0.602-0.316 0.611s-2.733 0.026-2.733 0.026l-1.512-0.022-1.52 0.022s-2.551 0-2.724 0-0.494-0.16-0.308-0.637zM3.669 10.763h-1.178c-0.286 0-0.39-0.403-0.39-0.567s0.113-0.191 0.282-0.195h1.005c0.14 0.001 0.273 0.033 0.391 0.089l-0.006-0.002c0.088 0.053 0.162 0.121 0.219 0.201l0.001 0.002c0.054 0.079 0.093 0.172 0.112 0.273l0.001 0.004c0 0.108-0.048 0.195-0.437 0.195zM4.682 8.598c-0.323 0.066-0.695 0.104-1.075 0.104-0.079 0-0.157-0.002-0.235-0.005l0.011 0c-0.062 0.009-0.134 0.014-0.206 0.014-0.287 0-0.556-0.081-0.783-0.222l0.006 0.004c-0.256-0.176-0.425-0.464-0.433-0.791l-0-0.001c-0.030-0.407 0-0.619 0.481-0.624 0.015-0 0.033-0 0.051-0 0.561 0 1.087 0.15 1.541 0.411l-0.015-0.008c0.345 0.154 0.635 0.375 0.863 0.65l0.003 0.004c0.028 0.047 0.045 0.103 0.045 0.163 0 0.153-0.107 0.281-0.25 0.313l-0.002 0zM9.607 10.525h-3.162c-0.433 0-1.191-0.078-1.191-0.715 0.001-0.232 0.057-0.451 0.155-0.645l-0.004 0.008c0.134-0.429 0.508-0.743 0.961-0.788l0.005-0c0.467-0.077 1.006-0.122 1.555-0.122 0.035 0 0.070 0 0.105 0.001l-0.005-0c0.029-0 0.063-0 0.096-0 0.55 0 1.090 0.044 1.616 0.129l-0.058-0.008c0.456 0.049 0.829 0.361 0.964 0.78l0.002 0.008c0.1 0.189 0.162 0.411 0.169 0.648l0 0.002c0 0.637-0.788 0.715-1.208 0.715zM13.536 10.75h-1.178c-0.39 0-0.433-0.087-0.433-0.195 0.019-0.105 0.059-0.198 0.114-0.28l-0.002 0.003c0.060-0.082 0.134-0.149 0.218-0.202l0.003-0.002c0.113-0.054 0.245-0.086 0.385-0.087h1.005c0.169 0 0.282 0.035 0.282 0.195s-0.082 0.58-0.394 0.58zM14.064 7.718c-0.009 0.329-0.177 0.617-0.43 0.79l-0.003 0.002c-0.221 0.137-0.488 0.218-0.775 0.218-0.073 0-0.146-0.005-0.216-0.016l0.008 0.001c-0.068 0.003-0.148 0.005-0.228 0.005-0.379 0-0.749-0.038-1.107-0.11l0.036 0.006c-0.137-0.036-0.237-0.16-0.237-0.306 0-0.058 0.016-0.112 0.043-0.159l-0.001 0.002c0.231-0.279 0.521-0.5 0.851-0.648l0.015-0.006c0.439-0.254 0.966-0.403 1.528-0.403 0.017 0 0.034 0 0.051 0l-0.003-0c0.489 0 0.502 0.212 0.468 0.619z"></path>
</svg>
