<svg xmlns="http://www.w3.org/2000/svg" aria-hidden="true" fill="currentColor" viewBox="0 0 16 16">
  <path d="M8 8.5L4.5 12H7v3h2v-3h2.5L8 8.5z"/>
  <path d="M13.941 8.04a2.503 2.503 0 00-3.084-2.956A3.005 3.005 0 008 3a3.008 3.008 0 00-2.88 2.158A4.004 4.004 0 000 9a3.998 3.998 0 003.43 3.96.5.5 0 10.141-.99 2.997 2.997 0 01-2.57-2.969c0-1.654 1.346-3 3-3 .813 0 1.574.32 2.143.9a.5.5 0 00.714-.7 4.037 4.037 0 00-.809-.638 2.005 2.005 0 011.952-1.562A2.002 2.002 0 019.96 6.405a.5.5 0 10.98.2 2.99 2.99 0 00.06-.518 1.502 1.502 0 011.915 1.914h-.414a.5.5 0 000 1h1c.827 0 1.5.673 1.5 1.5s-.673 1.5-1.5 1.5h-1a.5.5 0 000 1h1c1.379 0 2.5-1.121 2.5-2.5 0-1.228-.89-2.251-2.059-2.46z"/>
</svg>
