<!-- Generated by IcoMoon.io -->
<svg version="1.1" xmlns="http://www.w3.org/2000/svg" width="16" height="16" viewBox="0 0 16 16">
<title>condition-report</title>
<path fill="#4a4a4a" d="M7.367 10.63c0.105 0 0.105 0 0.211 0.105l0.527 0.527c-0.357 0.457-0.818 0.816-1.348 1.046l-0.022 0.009c-0.469 0.207-1.015 0.328-1.59 0.328-0.108 0-0.216-0.004-0.322-0.013l0.014 0.001c-0.016 0-0.036 0-0.055 0-0.624 0-1.221-0.116-1.771-0.328l0.034 0.011c-0.537-0.228-0.993-0.549-1.369-0.947l-0.002-0.002c-0.424-0.433-0.75-0.963-0.941-1.553l-0.008-0.028c-0.2-0.516-0.317-1.113-0.317-1.737 0-0.016 0-0.032 0-0.047l-0 0.002c0.002-0.68 0.118-1.332 0.329-1.94l-0.013 0.042c0.226-0.578 0.547-1.072 0.95-1.488l-0.001 0.001c0.412-0.4 0.902-0.722 1.446-0.938l0.030-0.010c0.566-0.198 1.218-0.314 1.897-0.316h0.001c0.016-0 0.034-0 0.053-0 0.589 0 1.151 0.116 1.663 0.327l-0.029-0.011c0.493 0.204 0.914 0.489 1.265 0.843l0 0-0.422 0.527-0.105 0.105h-0.211c-0.105 0-0.105 0-0.211-0.105l-0.105-0.105-0.316-0.211c-0.105-0.105-0.211-0.105-0.422-0.211-0.142-0.040-0.321-0.076-0.503-0.103l-0.024-0.003c-0.173-0.072-0.373-0.113-0.583-0.113-0.054 0-0.108 0.003-0.161 0.008l0.007-0.001c-0.463 0.005-0.898 0.121-1.28 0.324l0.015-0.007c-0.424 0.153-0.78 0.407-1.051 0.734l-0.003 0.004c-0.297 0.299-0.544 0.647-0.728 1.032l-0.010 0.023c-0.116 0.471-0.191 1.018-0.21 1.579l-0 0.014c0.012 0.53 0.088 1.037 0.221 1.52l-0.010-0.044c0.195 0.445 0.443 0.828 0.742 1.164l-0.004-0.004c0.299 0.297 0.647 0.544 1.032 0.728l0.023 0.010c0.312 0.138 0.677 0.219 1.060 0.219 0.072 0 0.144-0.003 0.214-0.008l-0.009 0.001h0.738c0.211 0 0.422-0.105 0.633-0.105s0.316-0.105 0.527-0.211c0.189-0.085 0.337-0.233 0.42-0.417l0.002-0.005c-0.105-0.116 0-0.221 0.105-0.221z"></path>
<path fill="#4a4a4a" d="M10.003 8.732v3.796h-1.16v-9.067h2.53c0.534 0.020 1.040 0.096 1.526 0.222l-0.049-0.011c0.403 0.12 0.754 0.3 1.063 0.533l-0.008-0.006c0.226 0.25 0.435 0.526 0.618 0.819l0.014 0.025c0.114 0.311 0.19 0.671 0.21 1.045l0 0.010c0.004 0.050 0.007 0.107 0.007 0.166 0 0.243-0.041 0.476-0.116 0.693l0.004-0.015c-0.080 0.289-0.227 0.538-0.422 0.738l0-0c-0.197 0.229-0.444 0.409-0.725 0.523l-0.013 0.005c-0.264 0.191-0.592 0.308-0.947 0.316l-0.002 0c0.189 0.085 0.337 0.233 0.42 0.417l0.002 0.005 2.636 3.585h-1.054c-0.204-0.004-0.389-0.083-0.528-0.211l0.001 0.001-2.425-3.374c-0.105-0.105-0.105-0.211-0.211-0.211s-0.211-0.105-0.422-0.105zM10.003 7.783h1.265c0.047 0.003 0.101 0.004 0.156 0.004 0.282 0 0.555-0.040 0.813-0.115l-0.021 0.005c0.243-0.093 0.451-0.2 0.647-0.325l-0.014 0.008c0.193-0.125 0.34-0.306 0.419-0.52l0.002-0.007c0.069-0.183 0.11-0.396 0.11-0.617 0-0.043-0.001-0.085-0.004-0.127l0 0.006c-0.021-0.488-0.218-0.926-0.528-1.256l0.001 0.001c-0.415-0.266-0.921-0.424-1.465-0.424-0.041 0-0.082 0.001-0.122 0.003l0.006-0h-1.265z"></path>
</svg>
