<svg xmlns="http://www.w3.org/2000/svg" aria-hidden="true" fill="currentColor" viewBox="0 0 16 16">
  <path d="M7.367 10.63c.105 0 .105 0 .211.105l.527.527a3.454 3.454 0 01-1.348 1.046l-.022.009a3.958 3.958 0 01-1.912.315l.014.001h-.055a4.913 4.913 0 01-1.771-.328l.034.011a4.034 4.034 0 01-1.369-.947l-.002-.002a3.969 3.969 0 01-.941-1.553l-.008-.028a4.844 4.844 0 01-.317-1.737v-.047.002c.002-.68.118-1.332.329-1.94l-.013.042a4.438 4.438 0 01.95-1.488l-.001.001a4.42 4.42 0 011.446-.938l.03-.01a5.852 5.852 0 011.897-.316H5.1c.589 0 1.151.116 1.663.327l-.029-.011c.493.204.914.489 1.265.843l-.422.527-.105.105h-.211c-.105 0-.105 0-.211-.105l-.105-.105-.316-.211c-.105-.105-.211-.105-.422-.211a4.225 4.225 0 00-.503-.103l-.024-.003a1.526 1.526 0 00-.744-.105l.007-.001a2.782 2.782 0 00-1.28.324l.015-.007c-.424.153-.78.407-1.051.734l-.003.004a3.773 3.773 0 00-.728 1.032l-.01.023a7.84 7.84 0 00-.21 1.579v.014c.012.53.088 1.037.221 1.52l-.01-.044c.195.445.443.828.742 1.164l-.004-.004c.299.297.647.544 1.032.728l.023.01a2.638 2.638 0 001.274.211l-.009.001h.738c.211 0 .422-.105.633-.105s.316-.105.527-.211a.833.833 0 00.42-.417l.002-.005c-.105-.116 0-.221.105-.221zm2.636-1.898v3.796h-1.16V3.461h2.53c.534.02 1.04.096 1.526.222l-.049-.011c.403.12.754.3 1.063.533l-.008-.006c.226.25.435.526.618.819l.014.025c.114.311.19.671.21 1.045v.01a2.1 2.1 0 01-.109.859l.004-.015a1.7 1.7 0 01-.422.738 1.897 1.897 0 01-.725.523l-.013.005a1.679 1.679 0 01-.947.316h-.002a.833.833 0 01.42.417l.002.005 2.636 3.585h-1.054a.8.8 0 01-.528-.211l.001.001-2.425-3.374c-.105-.105-.105-.211-.211-.211s-.211-.105-.422-.105zm0-.949h1.265a2.91 2.91 0 00.969-.111l-.021.005c.243-.093.451-.2.647-.325l-.014.008c.193-.125.34-.306.419-.52l.002-.007a1.768 1.768 0 00.106-.744v.006a1.95 1.95 0 00-.528-1.256l.001.001a2.714 2.714 0 00-1.587-.421h.006-1.265z"/>
</svg>
