<!-- Generated by IcoMoon.io -->
<svg version="1.1" xmlns="http://www.w3.org/2000/svg" width="16" height="16" viewBox="0 0 16 16">
<title>cup</title>
<path fill="#4a4a4a" d="M13.953 6.512h-13.457c-0.274 0-0.496 0.222-0.496 0.496 0 1.513 0.309 2.996 0.892 4.29 0.574 1.272 1.396 2.328 2.379 3.055 0.085 0.063 0.189 0.097 0.295 0.097h-2.078c-0.274 0-0.496 0.222-0.496 0.496s0.222 0.496 0.496 0.496h9.922c0.274 0 0.496-0.222 0.496-0.496s-0.222-0.496-0.496-0.496h-2.078c0.106 0 0.21-0.034 0.295-0.097 0.904-0.669 1.673-1.617 2.237-2.755h0.104c1.572 0 2.52-0.549 3.037-1.009 0.622-0.553 0.994-1.312 0.994-2.030 0-1.128-0.918-2.047-2.047-2.047zM14.265 9.753c-0.334 0.297-0.932 0.645-1.93 0.715 0.307-0.895 0.492-1.856 0.547-2.84h1.072c0.513 0 0.93 0.417 0.93 0.93 0 0.312-0.163 0.79-0.619 1.195z"></path>
<path fill="#4a4a4a" d="M4.465 5.519c-0.274 0-0.496-0.222-0.496-0.496v-1.984c0-0.274 0.222-0.496 0.496-0.496s0.496 0.222 0.496 0.496v1.984c0 0.274-0.222 0.496-0.496 0.496z"></path>
<path fill="#4a4a4a" d="M6.45 5.519c-0.274 0-0.496-0.222-0.496-0.496v-3.969c0-0.274 0.222-0.496 0.496-0.496s0.496 0.222 0.496 0.496v3.969c0 0.274-0.222 0.496-0.496 0.496z"></path>
<path fill="#4a4a4a" d="M8.434 5.519c-0.274 0-0.496-0.222-0.496-0.496v-1.984c0-0.274 0.222-0.496 0.496-0.496s0.496 0.222 0.496 0.496v1.984c0 0.274-0.222 0.496-0.496 0.496z"></path>
</svg>
