<!-- Generated by IcoMoon.io -->
<svg version="1.1" xmlns="http://www.w3.org/2000/svg" width="24" height="16" viewBox="0 0 24 16">
<title>damages</title>
<path fill="#4a4a4a" d="M18.624 3.801h-1.207c-0.005-0-0.011-0-0.017-0-0.137 0-0.258 0.064-0.337 0.163l-0.001 0.001c-0.138 0.191-0.228 0.614-0.349 0.614h-0.413c-0.119-0.311-0.231-0.56-0.355-0.803l0.021 0.046c-0.187-0.389-0.363-0.706-0.555-1.012l0.026 0.044s-0.291-0.397-0.455-0.572c-0.223-0.258-0.531-0.437-0.881-0.491l-0.008-0.001c-0.508-0.085-1.111-0.148-1.111-0.148l-1.36-0.064h-3.551l-1.365 0.063s-0.624 0.058-1.101 0.138c-0.358 0.056-0.666 0.234-0.887 0.49l-0.002 0.002c-0.164 0.175-0.455 0.572-0.455 0.572-0.166 0.263-0.342 0.58-0.502 0.907l-0.027 0.062c-0.103 0.196-0.215 0.446-0.314 0.701l-0.019 0.055h-0.529c-0.122 0-0.212-0.423-0.349-0.614-0.079-0.1-0.201-0.164-0.337-0.164-0.006 0-0.012 0-0.018 0l0.001-0h-1.238c-0.004-0-0.008-0-0.012-0-0.257 0-0.466 0.209-0.466 0.466 0 0.013 0.001 0.026 0.002 0.039l-0-0.002v0.45c0 0.286 0.487 0.704 0.942 0.714h1.609l-0.656 0.587c-0.529 0.497-0.905 0.667-0.905 1.588 0 1.667 0.122 2.932 0.122 2.932l0.101 1.058c0.015 0.15 0.038 0.284 0.068 0.414l-0.004-0.022v1.879c0 0 0 0.001 0 0.001 0 0.281 0.219 0.511 0.496 0.528l0.002 0h2.244c0.276-0.020 0.492-0.249 0.492-0.528 0-0 0-0.001 0-0.001v0-0.958h9.684v0.947c0 0 0 0.001 0 0.001 0 0.279 0.216 0.508 0.49 0.528l0.002 0h2.249c0.276-0.020 0.492-0.249 0.492-0.528 0-0 0-0.001 0-0.001v0-1.513c0.080-0.219 0.141-0.475 0.173-0.74l0.002-0.017 0.101-1.058s0.122-1.265 0.122-2.932c0-0.9-0.37-1.058-0.905-1.588l-0.63-0.577h1.439c0.455 0 0.947-0.429 0.947-0.714v-0.455c0-0.005 0-0.011 0-0.017 0-0.26-0.211-0.471-0.471-0.471-0.011 0-0.022 0-0.034 0.001l0.001-0zM4.23 4.568c0.163-0.396 0.34-0.734 0.545-1.052l-0.015 0.026c0.146-0.217 0.306-0.406 0.485-0.575l0.002-0.002c0.321-0.18 0.7-0.295 1.105-0.317l0.007-0c0.979-0.106 2.567-0.106 2.567-0.106h1.757s1.588 0 2.572 0.106c0.409 0.023 0.787 0.138 1.119 0.324l-0.013-0.007c0.183 0.17 0.343 0.359 0.48 0.565l0.007 0.012c0.189 0.293 0.367 0.63 0.513 0.984l0.016 0.043c0.238 0.582-0.175 0.736-0.386 0.746s-3.329 0-3.329 0l-1.847-0.026-1.868 0.058s-3.117 0-3.329 0-0.624-0.196-0.386-0.778zM4.484 11.379h-1.439c-0.349 0-0.476-0.492-0.476-0.693s0.138-0.233 0.344-0.238h1.228c0.171 0.001 0.333 0.040 0.478 0.109l-0.007-0.003c0.108 0.064 0.198 0.148 0.268 0.246l0.002 0.003c0.066 0.096 0.114 0.21 0.137 0.333l0.001 0.005c0 0.132-0.058 0.238-0.534 0.238zM5.722 8.733c-0.394 0.081-0.848 0.127-1.312 0.127-0.097 0-0.194-0.002-0.29-0.006l0.014 0c-0.077 0.011-0.165 0.018-0.255 0.018-0.352 0-0.68-0.099-0.959-0.271l0.008 0.005c-0.313-0.214-0.519-0.566-0.529-0.967l-0-0.002c-0.037-0.497-0.026-0.757 0.587-0.762 0.018-0 0.040-0.001 0.062-0.001 0.686 0 1.328 0.183 1.882 0.502l-0.018-0.010c0.422 0.188 0.776 0.459 1.055 0.794l0.004 0.005c0.035 0.057 0.055 0.126 0.055 0.2 0 0.185-0.129 0.34-0.301 0.381l-0.003 0.001zM11.739 11.088h-3.863c-0.529 0-1.455-0.095-1.455-0.873 0.001-0.284 0.070-0.551 0.19-0.788l-0.005 0.010c0.166-0.512 0.612-0.886 1.153-0.947l0.006-0.001c0.571-0.095 1.229-0.149 1.9-0.149 0.043 0 0.085 0 0.128 0.001l-0.007-0c0.035-0 0.076-0.001 0.118-0.001 0.672 0 1.331 0.054 1.974 0.158l-0.070-0.009c0.557 0.059 1.012 0.441 1.177 0.953l0.003 0.010c0.112 0.227 0.178 0.495 0.18 0.777v0.001c0.021 0.778-0.915 0.873-1.429 0.873zM16.539 11.363h-1.439c-0.476 0-0.529-0.106-0.529-0.238 0.024-0.128 0.072-0.242 0.14-0.342l-0.002 0.003c0.074-0.1 0.163-0.182 0.266-0.246l0.004-0.002c0.138-0.066 0.3-0.105 0.471-0.106h1.228c0.206 0 0.344 0.042 0.344 0.238s-0.127 0.709-0.482 0.709zM17.184 7.659c-0.010 0.402-0.216 0.754-0.525 0.966l-0.004 0.003c-0.27 0.167-0.597 0.267-0.947 0.267-0.090 0-0.178-0.007-0.264-0.019l0.010 0.001c-0.083 0.004-0.181 0.006-0.279 0.006-0.463 0-0.915-0.046-1.352-0.135l0.044 0.007c-0.168-0.045-0.289-0.195-0.289-0.374 0-0.071 0.019-0.137 0.052-0.194l-0.001 0.002c0.283-0.34 0.637-0.611 1.040-0.792l0.018-0.007c0.537-0.31 1.18-0.493 1.867-0.493 0.021 0 0.042 0 0.063 0.001l-0.003-0c0.598 0 0.614 0.259 0.572 0.757z"></path>
<path fill="#4a4a4a" d="M19.693 9.294l1.921 2.297v-1.016l1.937 1.281-2.413-2.577 0.021 1.011-1.466-0.995z"></path>
<path fill="#4a4a4a" d="M19.693 7.738l1.921-2.297v1.021l1.937-1.286-2.413 2.577 0.021-1.011-1.466 0.995z"></path>
<path fill="#4a4a4a" d="M20.772 8.241l1.535 1.058-0.164-0.624 1.381 0.445-1.873-1.148 0.175 0.614-1.053-0.344z"></path>
</svg>
