<!-- Generated by IcoMoon.io -->
<svg version="1.1" xmlns="http://www.w3.org/2000/svg" width="16" height="16" viewBox="0 0 16 16">
<title>disk</title>
<path fill="#4a4a4a" d="M13.5 0h-13c-0.275 0-0.5 0.225-0.5 0.5v15c0 0.275 0.225 0.5 0.5 0.5h15c0.275 0 0.5-0.225 0.5-0.5v-13l-2.5-2.5zM4 0.5h8v4c0 0.275-0.225 0.5-0.5 0.5h-7c-0.275 0-0.5-0.225-0.5-0.5v-4zM14 15.5h-12v-6.5c0-0.552 0.448-1 1-1h10c0.552 0 1 0.448 1 1v6.5z"></path>
<path fill="#4a4a4a" d="M9 1h2v3h-2v-3z"></path>
<path fill="#4a4a4a" d="M4 9h8v1h-8v-1z"></path>
<path fill="#4a4a4a" d="M4 11h8v1h-8v-1z"></path>
<path fill="#4a4a4a" d="M4 13h8v1h-8v-1z"></path>
</svg>
