<!-- Generated by IcoMoon.io -->
<svg version="1.1" xmlns="http://www.w3.org/2000/svg" width="15" height="16" viewBox="0 0 15 16">
<title>export</title>
<path fill="#4a4a4a" d="M10.495 0l4.328 4.328-4.328 4.328v-2.863q-1.895-0.047-2.858 0.524c-0.581 0.314-1.029 0.812-1.273 1.414l-0.007 0.019c-0.12 0.334-0.189 0.72-0.189 1.121 0 0.274 0.032 0.54 0.093 0.795l-0.005-0.023c0.15 0.714 0.393 1.347 0.722 1.926l-0.017-0.033c-0.735-0.778-1.297-1.729-1.617-2.785l-0.013-0.050c-0.149-0.455-0.234-0.979-0.234-1.523 0-0.483 0.068-0.95 0.194-1.392l-0.009 0.036c0.292-0.929 0.883-1.693 1.657-2.2l0.015-0.010q1.278-0.878 3.546-0.822z"></path>
<path fill="#4a4a4a" d="M14.894 11.773v4.227h-14.894v-4.227h1.862v2.114h11.172v-2.114h1.86z"></path>
</svg>
