<!-- Generated by IcoMoon.io -->
<svg version="1.1" xmlns="http://www.w3.org/2000/svg" width="16" height="16" viewBox="0 0 16 16">
<title>fuel</title>
<path fill="#4a4a4a" d="M15.844 3.356l-2.133-2.133c-0.1-0.1-0.236-0.156-0.377-0.156h-1.067c-0.295 0-0.533 0.239-0.533 0.533s0.239 0.533 0.533 0.533h0.579l1.067 1.067h-0.579c-0.295 0-0.533 0.239-0.533 0.533v2.133c0 0.295 0.239 0.533 0.533 0.533h1.6v4.267c0 0.588-0.479 1.067-1.067 1.067s-1.067-0.479-1.067-1.067v-2.667c0-0.295-0.239-0.533-0.533-0.533h-1.6v-5.867c0-0.88-0.72-1.6-1.6-1.6h-6.4c-0.88 0-1.6 0.72-1.6 1.6v13.333h-1.067v1.067h11.733v-1.067h-1.067v-6.4h1.067v2.133c0 1.176 0.957 2.133 2.133 2.133s2.133-0.957 2.133-2.133v-6.933c0-0.141-0.056-0.277-0.156-0.377zM2.133 4.8v-3.2c0-0.293 0.24-0.533 0.533-0.533h6.4c0.294 0 0.533 0.24 0.533 0.533v3.2c0 0.293-0.24 0.533-0.533 0.533h-6.4c-0.293 0-0.533-0.24-0.533-0.533zM13.867 5.333v-1.067h1.067v1.067h-1.067z"></path>
</svg>
