<svg xmlns="http://www.w3.org/2000/svg" aria-hidden="true" fill="currentColor" viewBox="0 0 16 16">
  <path d="M16 9.501V6.498l-2.293-.382a6.016 6.016 0 00-.339-.82l1.351-1.891-2.123-2.123-1.888 1.349a5.917 5.917 0 00-.825-.342L9.502.001H6.499l-.381 2.288c-.285.094-.56.209-.824.342L3.406 1.282 1.283 3.405l1.351 1.891a6.016 6.016 0 00-.339.82l-2.293.382v3.003l2.299.383c.093.281.206.552.338.813l-1.355 1.898 2.123 2.123 1.901-1.358c.259.13.53.243.809.335l.384 2.304h3.003l.384-2.304a5.91 5.91 0 00.809-.335l1.901 1.358 2.123-2.123-1.355-1.898c.132-.261.245-.532.338-.813l2.299-.383zM8 10a2 2 0 11-.001-3.999A2 2 0 018 10z"/>
</svg>
