<!-- Generated by IcoMoon.io -->
<svg version="1.1" xmlns="http://www.w3.org/2000/svg" width="16" height="16" viewBox="0 0 16 16">
<title>grounding</title>
<path fill="#4a4a4a" d="M14.035 5.664c0.052-0.13 0.078-0.234 0.078-0.363v0c0.026-0.415 0.026-0.623-0.467-0.623-0.467 0-0.935 0.078-1.35 0.286-0.467-0.104-0.935-0.182-1.428-0.182-1.272 0-2.466 0.389-3.427 1.090-0.363 0.026-0.753 0.052-1.116 0.104-0.467 0.052-0.857 0.363-0.986 0.779-0.104 0.208-0.156 0.415-0.156 0.649 0 0.286 0.156 0.467 0.363 0.571-0.286 0.519-0.493 1.064-0.597 1.661h-0.986v0.779c0 0.234-0.182 0.415-0.415 0.441h-1.843c-0.234-0.026-0.415-0.208-0.415-0.441v-1.558c-0.026-0.104-0.052-0.208-0.052-0.312l-0.078-0.883c0 0-0.104-1.038-0.104-2.414 0-0.649 0.234-0.831 0.571-1.142 0.052-0.052 0.13-0.104 0.182-0.182l0.519-0.493h-1.298c-0.389 0-0.779-0.363-0.779-0.597v-0.312c0 0 0-0.026 0-0.026 0-0.234 0.182-0.389 0.389-0.389h1.064c0.104 0 0.234 0.052 0.286 0.13 0.052 0.052 0.078 0.156 0.13 0.26 0.052 0.13 0.104 0.26 0.156 0.26h0.441c0.078-0.208 0.182-0.415 0.286-0.623 0.13-0.286 0.26-0.545 0.415-0.805 0 0 0.234-0.337 0.389-0.467 0.182-0.208 0.441-0.363 0.727-0.415 0.389-0.078 0.909-0.104 0.909-0.104l1.116-0.052h2.959l1.142 0.052c0 0 0.519 0.052 0.909 0.104 0.286 0.052 0.545 0.182 0.727 0.415 0.13 0.156 0.363 0.467 0.363 0.467 0.156 0.26 0.312 0.519 0.441 0.805 0.104 0.208 0.208 0.415 0.286 0.623h0.337c0.052 0 0.104-0.13 0.156-0.26 0.026-0.104 0.078-0.182 0.13-0.26 0.078-0.078 0.182-0.13 0.312-0.13h1.012c0 0 0.026 0 0.026 0 0.208 0 0.389 0.182 0.389 0.389v0.389c0 0.234-0.415 0.597-0.779 0.597h-1.194l0.519 0.467c0.078 0.078 0.156 0.13 0.208 0.208 0.337 0.286 0.545 0.493 0.545 1.116 0 0.415 0 0.805-0.026 1.142-0.337-0.312-0.649-0.545-0.986-0.753zM3.288 6.261c0.441 0.026 0.883-0.026 1.324-0.104v0.026c0.026 0 0.078-0.026 0.104-0.026 0.156-0.078 0.208-0.286 0.104-0.441-0.234-0.286-0.545-0.519-0.883-0.649-0.493-0.286-1.038-0.415-1.609-0.415-0.493 0-0.519 0.208-0.493 0.623 0 0.312 0.182 0.623 0.441 0.805 0.337 0.156 0.675 0.234 1.012 0.182zM2.406 8.338h1.194c0.389 0 0.441-0.078 0.441-0.208-0.026-0.104-0.052-0.182-0.104-0.286-0.052-0.078-0.13-0.156-0.234-0.208-0.13-0.052-0.26-0.078-0.389-0.078h-1.038c-0.182 0-0.286 0.026-0.286 0.208s0.104 0.571 0.415 0.571zM3.808 1.9c-0.182 0.26-0.312 0.545-0.441 0.857-0.182 0.467 0.13 0.649 0.312 0.649h2.752l1.532-0.026 1.532 0.026c0 0 2.596-0.026 2.778-0.026s0.519-0.13 0.312-0.623c-0.13-0.286-0.26-0.571-0.441-0.857-0.104-0.182-0.26-0.337-0.415-0.467-0.286-0.156-0.597-0.234-0.909-0.26-0.779-0.104-2.103-0.104-2.103-0.104h-1.454c0 0-1.324 0-2.129 0.078-0.312 0.026-0.623 0.104-0.909 0.26-0.156 0.156-0.312 0.312-0.415 0.493z"></path>
<path fill="#4a4a4a" d="M10.868 15.71c2.674 0 4.828-2.181 4.828-4.88s-2.155-4.88-4.828-4.88-4.828 2.181-4.828 4.88c0 2.7 2.155 4.88 4.828 4.88zM10.012 7.689c0.415-0.156 0.857-0.208 1.324-0.208v0c0.467 0.026 0.909 0.13 1.35 0.337s0.805 0.493 1.116 0.831c0.312 0.337 0.519 0.727 0.675 1.168 0.156 0.415 0.208 0.857 0.182 1.324s-0.13 0.909-0.337 1.35c-0.156 0.312-0.337 0.571-0.545 0.831-0.208 0.234-0.441 0.441-0.727 0.623v0 0c-0.26 0.156-0.545 0.286-0.857 0.389s-0.597 0.13-0.935 0.156c-0.078 0-0.156-0.052-0.156-0.156 0-0.078 0.052-0.156 0.13-0.182 0.208-0.026 0.441-0.078 0.649-0.156s0.415-0.182 0.597-0.312v0 0c0.182-0.13 0.363-0.286 0.519-0.467s0.286-0.389 0.389-0.623c0.156-0.337 0.26-0.675 0.286-1.038v0 0c0.026-0.363 0-0.675-0.104-1.012v0 0c-0.104-0.312-0.234-0.597-0.441-0.857s-0.467-0.441-0.753-0.597c-0.26-0.13-0.545-0.208-0.857-0.208v0c-0.286-0.026-0.571 0.026-0.857 0.104s-0.545 0.234-0.805 0.415v0 0c-0.208 0.156-0.363 0.312-0.519 0.519l0.649 0.312c0.052 0.026 0.104 0.078 0.104 0.156 0 0.052-0.026 0.13-0.104 0.156l-1.999 0.883c-0.052 0.026-0.104 0.026-0.13 0-0.052-0.026-0.078-0.052-0.078-0.104l-0.571-2.129c-0.026-0.052 0-0.13 0.052-0.156 0.052-0.052 0.104-0.052 0.182-0.026l0.701 0.337c0.208-0.363 0.441-0.701 0.753-0.96 0.312-0.337 0.701-0.571 1.116-0.701z"></path>
</svg>
