<!-- Generated by IcoMoon.io -->
<svg version="1.1" xmlns="http://www.w3.org/2000/svg" width="16" height="16" viewBox="0 0 16 16">
<title>heart-o</title>
<path fill="#4a4a4a" d="M14.5 9l-5 5c-0.25 0.25-0.5 0.479-0.75 0.688s-0.5 0.313-0.75 0.313c-0.25 0-0.5-0.104-0.75-0.313s-0.5-0.438-0.75-0.688l-5-5c-0.458-0.417-0.823-0.917-1.094-1.5-0.271-0.594-0.406-1.229-0.406-1.906 0-0.635 0.12-1.229 0.359-1.781 0.24-0.563 0.568-1.052 0.984-1.469s0.901-0.745 1.453-0.984c0.563-0.24 1.161-0.359 1.797-0.359 0.677 0 1.307 0.135 1.891 0.406 0.323 0.147 0.619 0.322 0.89 0.525 0.227 0.17 0.436 0.36 0.626 0.569 0.196-0.215 0.409-0.41 0.642-0.583 0.263-0.197 0.549-0.367 0.858-0.51 0.594-0.271 1.229-0.406 1.906-0.406 0.636 0 1.229 0.12 1.781 0.359 0.563 0.24 1.052 0.568 1.469 0.984s0.745 0.906 0.984 1.469c0.24 0.552 0.359 1.146 0.359 1.781 0 0.677-0.135 1.313-0.406 1.906-0.271 0.583-0.636 1.083-1.094 1.5zM1.587 6.957c0.201 0.431 0.463 0.787 0.787 1.082l0.023 0.021 5.022 5.022c0.196 0.196 0.39 0.376 0.581 0.539 0.191-0.163 0.384-0.342 0.581-0.539l5.045-5.043c0.324-0.295 0.587-0.651 0.787-1.081 0.19-0.417 0.287-0.866 0.287-1.363 0-0.467-0.087-0.884-0.252-1.264l-0.004-0.008c-0.177-0.415-0.413-0.764-0.708-1.059s-0.644-0.531-1.059-0.708l-0.008-0.003c-0.38-0.165-0.796-0.252-1.264-0.252-0.496 0-0.946 0.098-1.363 0.287-0.431 0.201-0.787 0.463-1.081 0.787l-0.962 1.058-0.962-1.058c-0.292-0.321-0.651-0.584-1.093-0.785l-0.008-0.004c-0.403-0.187-0.845-0.285-1.343-0.285-0.466 0-0.889 0.087-1.283 0.254-0.404 0.176-0.75 0.412-1.047 0.709-0.295 0.295-0.531 0.644-0.708 1.059l-0.003 0.008c-0.165 0.38-0.252 0.796-0.252 1.264 0 0.497 0.098 0.946 0.287 1.363z"></path>
</svg>
