<!-- Generated by IcoMoon.io -->
<svg version="1.1" xmlns="http://www.w3.org/2000/svg" width="16" height="16" viewBox="0 0 16 16">
<title>home</title>
<path fill="#4a4a4a" d="M9.648 14.786c0-0.608 0-4.762 0-4.986 0-0.768-0.742-0.749-1.651-0.749s-1.651 0-1.651 0.749v4.986h-3.424c-0.002 0-0.004 0-0.006 0-0.17 0-0.307-0.138-0.307-0.307 0-0.002 0-0.005 0-0.007v0-6.099l-1.005 0.794c-0.056 0.041-0.126 0.065-0.202 0.065-0.010 0-0.020-0-0.030-0.001l0.001 0c-0.087-0.011-0.161-0.056-0.211-0.121l-0.001-0.001-1.094-1.389c-0.041-0.054-0.066-0.122-0.066-0.196 0-0.012 0.001-0.024 0.002-0.035l-0 0.001c0.011-0.087 0.056-0.161 0.121-0.211l0.001-0.001 7.686-6.016c0.052-0.042 0.119-0.067 0.192-0.067s0.14 0.025 0.193 0.068l-0.001-0 7.68 6.035c0.075 0.058 0.123 0.148 0.123 0.249 0 0.073-0.025 0.14-0.066 0.193l0.001-0.001-1.094 1.389c-0.050 0.066-0.125 0.111-0.21 0.121l-0.002 0c-0.010 0.001-0.022 0.002-0.034 0.002-0.074 0-0.143-0.025-0.197-0.066l0.001 0.001-1.005-0.794v6.099c0 0.002 0 0.004 0 0.006 0 0.17-0.138 0.307-0.307 0.307-0.002 0-0.005-0-0.007-0h0z"></path>
</svg>
