<!-- Generated by IcoMoon.io -->
<svg version="1.1" xmlns="http://www.w3.org/2000/svg" width="16" height="16" viewBox="0 0 16 16">
<title>images</title>
<path fill="#4a4a4a" d="M15.111 2.667h-0.889v-0.889c0-0.489-0.4-0.889-0.889-0.889h-12.444c-0.489 0-0.889 0.4-0.889 0.889v10.667c0 0.489 0.4 0.889 0.889 0.889h0.889v0.889c0 0.489 0.4 0.889 0.889 0.889h12.444c0.489 0 0.889-0.4 0.889-0.889v-10.667c0-0.489-0.4-0.889-0.889-0.889zM1.778 3.556v8.889h-0.887c-0.001-0-0.001-0.001-0.002-0.002v-10.663c0-0.001 0.001-0.001 0.002-0.002h12.441c0.001 0 0.001 0.001 0.002 0.002v0.887h-10.667c-0.489 0-0.889 0.4-0.889 0.889v0zM15.111 14.221c-0 0.001-0.001 0.001-0.002 0.002h-12.441c-0.001-0-0.001-0.001-0.002-0.002v-10.663c0-0.001 0.001-0.001 0.002-0.002h12.441c0.001 0 0.001 0.001 0.002 0.002v10.663zM13.333 5.778c0 0.736-0.597 1.333-1.333 1.333s-1.333-0.597-1.333-1.333 0.597-1.333 1.333-1.333 1.333 0.597 1.333 1.333zM14.222 13.333h-10.667v-1.778l3.111-5.333 3.556 4.444h0.889l3.111-2.667z"></path>
</svg>
