<!-- Generated by IcoMoon.io -->
<svg version="1.1" xmlns="http://www.w3.org/2000/svg" width="16" height="16" viewBox="0 0 16 16">
<title>link</title>
<path fill="#4a4a4a" d="M6.852 9.98c-0.213 0-0.426-0.081-0.588-0.244-1.522-1.522-1.522-3.999 0-5.521l3.072-3.072c0.737-0.737 1.718-1.143 2.761-1.143s2.023 0.406 2.761 1.143c1.522 1.522 1.522 3.999 0 5.521l-1.404 1.404c-0.325 0.325-0.852 0.325-1.177 0s-0.325-0.852 0-1.177l1.404-1.404c0.873-0.873 0.873-2.294 0-3.168-0.423-0.423-0.986-0.656-1.584-0.656s-1.161 0.233-1.584 0.656l-3.072 3.072c-0.873 0.873-0.873 2.295 0 3.168 0.325 0.325 0.325 0.852 0 1.177-0.162 0.162-0.375 0.244-0.588 0.244z"></path>
<path fill="#4a4a4a" d="M3.904 16c-1.043 0-2.023-0.406-2.761-1.143-1.522-1.522-1.522-3.999 0-5.521l1.404-1.404c0.325-0.325 0.852-0.325 1.177 0s0.325 0.852 0 1.177l-1.404 1.404c-0.873 0.873-0.873 2.295 0 3.168 0.423 0.423 0.986 0.656 1.584 0.656s1.161-0.233 1.584-0.656l3.072-3.072c0.873-0.873 0.873-2.295 0-3.168-0.325-0.325-0.325-0.852 0-1.177s0.852-0.325 1.177 0c1.522 1.522 1.522 3.999 0 5.521l-3.072 3.072c-0.737 0.737-1.718 1.143-2.761 1.143z"></path>
</svg>
