<!-- Generated by IcoMoon.io -->
<svg version="1.1" xmlns="http://www.w3.org/2000/svg" width="16" height="16" viewBox="0 0 16 16">
<title>medal</title>
<path fill="#4a4a4a" d="M13.161 5.161c0-0.817-0.632-1.485-1.434-1.544 0.526-0.608 0.5-1.528-0.077-2.106s-1.498-0.603-2.106-0.077c-0.058-0.802-0.727-1.434-1.544-1.434s-1.485 0.632-1.544 1.434c-0.608-0.526-1.528-0.5-2.106 0.077s-0.603 1.498-0.077 2.106c-0.802 0.058-1.434 0.727-1.434 1.544s0.632 1.485 1.434 1.544c-0.526 0.608-0.5 1.528 0.077 2.106 0.429 0.429 1.046 0.553 1.585 0.373v6.816l2.065-2.065 2.065 2.065v-6.816c0.539 0.18 1.156 0.055 1.585-0.373 0.578-0.578 0.603-1.497 0.077-2.106 0.802-0.058 1.434-0.727 1.434-1.544zM8 8.258c-1.71 0-3.097-1.386-3.097-3.097s1.386-3.097 3.097-3.097c1.71 0 3.097 1.386 3.097 3.097s-1.386 3.097-3.097 3.097z"></path>
</svg>
