<!-- Generated by IcoMoon.io -->
<svg version="1.1" xmlns="http://www.w3.org/2000/svg" width="16" height="16" viewBox="0 0 16 16">
<title>paint-can</title>
<path fill="#4a4a4a" d="M15.239 7.8c0 0.15-0.1 0.3-0.5 0.45-0.5 0.2-1.099 0.1-1.699-0.15v-3.497c0.25 0.25 0.55 0.5 0.799 0.799 0.949 1.049 1.449 1.949 1.399 2.398zM1.899 2.504c-0.5-0.15-0.749-0.35-0.849-0.4 0.15-0.1 0.55-0.4 1.599-0.6 1.049-0.25 2.448-0.4 3.897-0.4s2.798 0.15 3.897 0.35c1.049 0.2 1.449 0.5 1.599 0.6-0.15 0.1-0.55 0.4-1.599 0.6-1.049 0.25-2.448 0.35-3.897 0.35-0.25 0-0.5 0-0.749 0v3.298c0 0.4-0.35 0.749-0.749 0.749-0.3 0-0.5-0.15-0.65-0.35v1.049c0 0.799-0.55 1.449-1.199 1.449s-1.199-0.65-1.199-1.449v-5.246zM14.39 4.902c-0.5-0.55-0.999-0.999-1.349-1.299v-1.299c0-0.050 0-0.15 0-0.2 0-0.7-0.7-1.199-2.148-1.549-1.149-0.3-2.698-0.45-4.347-0.45s-3.198 0.15-4.397 0.45c-1.449 0.35-2.148 0.849-2.148 1.549 0 0.1 0 0.15 0.050 0.2v11.542c0 0.849 2.898 2.049 6.495 2.049s6.495-1.199 6.495-2.049v-4.147c-2.248-0.65-4.497-3.048-5.396-4.047 0 0-0.050 0-0.050 0-0.4 0-0.7-0.3-0.7-0.699s0.3-0.7 0.7-0.7c0.4 0 0.7 0.3 0.7 0.7 0 0 0 0 0 0s0 0.050 0 0.050 0 0.1-0.050 0.15c0.2 0.25 0.5 0.55 0.899 0.949s0.899 0.899 1.449 1.349c1.349 1.099 2.498 1.649 3.547 1.649 0.3 0 0.65-0.050 0.899-0.15 0 0 0 0 0 0 0.7-0.25 0.899-0.7 0.949-1.049 0.1-0.699-0.45-1.699-1.599-2.998z"></path>
</svg>
