<!-- Generated by IcoMoon.io -->
<svg version="1.1" xmlns="http://www.w3.org/2000/svg" width="16" height="16" viewBox="0 0 16 16">
<title>price-tag</title>
<path fill="#4a4a4a" d="M15.009 0.25h-5.928c-0.408 0-0.977 0.236-1.265 0.524l-7.35 7.35c-0.288 0.288-0.288 0.76 0 1.048l6.362 6.362c0.288 0.288 0.76 0.288 1.048 0l7.35-7.35c0.288-0.288 0.524-0.858 0.524-1.265v-5.928c0-0.408-0.333-0.741-0.741-0.741zM11.304 6.178c-0.819 0-1.482-0.663-1.482-1.482s0.663-1.482 1.482-1.482 1.482 0.663 1.482 1.482-0.663 1.482-1.482 1.482z"></path>
</svg>
