<!-- Generated by IcoMoon.io -->
<svg version="1.1" xmlns="http://www.w3.org/2000/svg" width="16" height="16" viewBox="0 0 16 16">
<title>reset-time</title>
<path fill="#4a4a4a" d="M9.212 1.212c3.749 0 6.788 3.039 6.788 6.788s-3.039 6.788-6.788 6.788v-1.455c1.425 0 2.764-0.555 3.771-1.562s1.562-2.347 1.562-3.771c0-1.425-0.555-2.764-1.562-3.771s-2.347-1.562-3.771-1.562c-1.425 0-2.764 0.555-3.771 1.562-0.775 0.775-1.282 1.746-1.474 2.802h2.821l-3.394 3.879-3.394-3.879h2.493c0.471-3.289 3.299-5.818 6.719-5.818zM12.121 7.030v1.939h-3.879v-4.848h1.939v2.909z"></path>
</svg>
