
<svg width="24px" height="13px" viewBox="0 0 24 13" version="1.1" xmlns="http://www.w3.org/2000/svg" xmlns:xlink="http://www.w3.org/1999/xlink">
    <g id="Page-1" stroke="none" stroke-width="1" fill="none" fill-rule="evenodd">
        <g id="three-sixty-exterior" transform="translate(0.000000, 0.938000)" fill="#000000" fill-rule="nonzero">
            <path d="M9.70382181,8.03079165 C9.70958743,8.03079165 9.71535305,8.03079165 9.7211343,8.03079165 C9.86247795,8.03079165 9.99805599,8.05676038 10.1192122,8.10868222 L10.1105559,8.1057916 C10.344212,8.18944779 10.5259463,8.3654008 10.6182431,8.58752566 L10.6211337,8.59329128 C10.6643993,8.69713496 10.690368,8.81829113 10.690368,8.94521293 C10.690368,8.95097855 10.690368,8.95674417 10.690368,8.96252542 L10.690368,8.96252542 C10.690368,8.96541604 10.690368,8.96829104 10.690368,8.97118166 C10.690368,9.07502534 10.6788368,9.17599403 10.6557587,9.27118146 L10.6586493,9.26252522 C10.6355712,9.34905641 10.6009618,9.42694699 10.5548056,9.49618132 L10.5576963,9.49329069 C10.51154,9.5567594 10.4567276,9.61155624 10.3961651,9.65482184 L10.3932745,9.65482184 C10.3298058,9.69808744 10.2576964,9.73558741 10.1826965,9.76443114 L10.1769309,9.76732177 C10.3557745,9.82500923 10.508665,9.93463416 10.6153993,10.0759778 L10.61829,10.0788684 C10.716368,10.2202121 10.7740555,10.3932901 10.7740555,10.58079 C10.7740555,10.5894462 10.7740555,10.5981025 10.7740555,10.6067587 L10.7740555,10.6067587 C10.7740555,10.615415 10.7740555,10.6240712 10.7740555,10.6327275 C10.7740555,10.7942586 10.7394461,10.9500397 10.681743,11.0884928 L10.6846337,11.0798365 C10.5663681,11.3365707 10.3471339,11.5327269 10.0817434,11.6192581 L10.0759778,11.6221487 C9.95194665,11.6683049 9.80769674,11.6971486 9.65482184,11.6971486 C9.65193122,11.6971486 9.64616559,11.6971486 9.6432906,11.6971486 L9.6432906,11.6971486 C9.64039997,11.6971486 9.64039997,11.6971486 9.63752498,11.6971486 C9.49329069,11.6971486 9.35483766,11.6740705 9.22213462,11.6336799 L9.23079087,11.6365705 C9.1067597,11.59618 9.00002539,11.5327269 8.91060357,11.4519613 L8.91060357,11.4519613 C8.81829113,11.3683051 8.74041618,11.270227 8.6827131,11.1577271 L8.67982247,11.1519615 C8.61635377,11.0336959 8.5586663,10.8981179 8.51829133,10.7567742 L8.51540071,10.7423524 L8.76058805,10.6327431 C8.79808802,10.6154306 8.84135362,10.6038993 8.89041609,10.6038993 C8.89041609,10.6038993 8.89330671,10.6038993 8.89330671,10.6038993 L8.89330671,10.6038993 C8.89619733,10.6038993 8.89619733,10.6038993 8.89907233,10.6038993 C8.93368168,10.6038993 8.96830666,10.6154306 8.99715039,10.6327431 L8.99715039,10.6327431 C9.03175974,10.6500556 9.05772848,10.6760087 9.06925972,10.7106337 L9.06925972,10.7106337 C9.10099407,10.779868 9.12983781,10.8375554 9.16444716,10.8894773 L9.15868154,10.880821 C9.19041589,10.9385085 9.23079087,10.9875553 9.27407209,11.0337116 L9.27407209,11.0337116 C9.32022831,11.0769772 9.37215015,11.1116021 9.42983761,11.1375552 L9.43272823,11.1404459 C9.50196256,11.1692896 9.58272814,11.1866021 9.66638433,11.1866021 C9.75004053,11.1866021 9.8308061,11.1692896 9.90291543,11.1375865 L9.9000248,11.1404771 C9.96925913,11.1087428 10.0269466,11.0654772 10.0759934,11.0106491 L10.0759934,11.0106491 C10.1221497,10.9587272 10.1596496,10.8981492 10.1827277,10.8289148 L10.1827277,10.8260242 C10.2058059,10.7654461 10.2202277,10.6961962 10.2202277,10.6241025 L10.2202277,10.6241025 C10.2202277,10.6212118 10.2202277,10.6183368 10.2202277,10.6154462 C10.2202277,10.5346806 10.2115715,10.4539151 10.194259,10.3789151 L10.194259,10.3875714 C10.1769465,10.315462 10.1394465,10.2548839 10.0875247,10.2058371 L10.0875247,10.2058371 C10.024056,10.1510246 9.94905602,10.1106497 9.86541545,10.0904466 L9.86252483,10.0904466 C9.75579052,10.0644778 9.63463435,10.047181 9.51060318,10.047181 C9.4904157,10.047181 9.47021258,10.047181 9.4500251,10.047181 L9.45291572,10.047181 L9.45291572,9.60871249 C9.46444696,9.60871249 9.47599383,9.60871249 9.48752507,9.60871249 C9.59713438,9.60871249 9.70099368,9.59429063 9.80194674,9.5654469 L9.7932905,9.56833752 C9.87694669,9.54815003 9.95194665,9.51065006 10.0125247,9.45583759 L10.0125247,9.45583759 C10.0644466,9.412572 10.1019622,9.35486891 10.122134,9.29141583 L10.122134,9.2885252 C10.1423215,9.22794712 10.1538684,9.16160341 10.1538684,9.08949408 C10.1538684,9.08372846 10.1538684,9.07796284 10.1538684,9.07218159 L10.1538684,9.07218159 C10.156759,9.0548691 10.156759,9.03179099 10.156759,9.01160351 C10.156759,8.87891609 10.1077434,8.7548693 10.0240716,8.66257249 L10.0240716,8.66257249 C9.9404154,8.58180691 9.82791548,8.52988507 9.70099368,8.52988507 C9.69233744,8.52988507 9.68657182,8.52988507 9.67791557,8.52988507 L9.67791557,8.52988507 C9.67214995,8.52988507 9.66638433,8.52988507 9.66060309,8.52988507 C9.53944691,8.52988507 9.42983761,8.57604129 9.34618142,8.64815062 L9.34618142,8.64815062 C9.25965022,8.72604119 9.19329089,8.82411926 9.16157216,8.93949418 L9.16157216,8.9423848 C9.15004092,8.99719727 9.12407218,9.04335349 9.08657221,9.07796284 L9.08657221,9.07796284 C9.05483785,9.10393157 9.01446288,9.11835344 8.97118166,9.11835344 C8.96829104,9.11835344 8.96541604,9.11835344 8.96252542,9.11835344 L8.96252542,9.11835344 L8.88463484,9.11835344 L8.59040066,9.06066598 C8.61058814,8.89335359 8.65674436,8.74047868 8.72597869,8.60201002 L8.72308807,8.61066627 C8.78655678,8.48374448 8.86732235,8.37413517 8.96827541,8.28469773 L8.96827541,8.28469773 C9.06058785,8.20104154 9.17308778,8.13469783 9.29424395,8.08854161 L9.30000957,8.08565099 C9.4125095,8.05104163 9.53943129,8.03083852 9.6721187,8.03083852 C9.68654057,8.0279479 9.69519681,8.03083852 9.70385306,8.03083852 L9.70385306,8.03083852 L9.70385306,8.03083852 L9.70382181,8.03079165 Z" id="Path"></path>
            <path d="M12.4355544,9.42116574 C12.5653824,9.42116574 12.689398,9.44713447 12.8018979,9.49327507 L12.7961323,9.49038445 C12.9172885,9.53654067 13.0211321,9.60288437 13.1047883,9.69230619 L13.1047883,9.69230619 C13.1971008,9.78749363 13.2692101,9.89711856 13.321132,10.0211497 L13.3240226,10.0269153 C13.3759444,10.168259 13.4076788,10.3298058 13.4076788,10.4999932 C13.4076788,10.6701806 13.3759444,10.8317273 13.3211476,10.9817272 L13.3240382,10.973071 C13.2692257,11.1230709 13.1913508,11.2499927 13.0903821,11.359602 L13.0903821,11.359602 C12.8855697,11.5759456 12.5971168,11.7115236 12.2769139,11.7115236 C12.2740233,11.7115236 12.2711483,11.7115236 12.2711483,11.7115236 L12.2711483,11.7115236 C12.259617,11.7115236 12.2423045,11.7115236 12.2278827,11.7115236 C12.0663515,11.7115236 11.9105704,11.6769143 11.7721173,11.6163362 L11.7807736,11.6192268 C11.6394299,11.5557581 11.5211644,11.4721175 11.4230863,11.3653832 L11.4230863,11.3653832 C11.3250083,11.2499927 11.2471177,11.1144146 11.2009771,10.9644147 L11.1980865,10.9557585 C11.1490709,10.8115242 11.1201959,10.6442274 11.1201959,10.4711494 C11.1201959,10.4624932 11.1201959,10.4509619 11.1201959,10.4423057 L11.1201959,10.4423057 C11.1230865,10.2548058 11.1576959,10.0759622 11.2182739,9.91154042 L11.2153833,9.92307166 C11.2932739,9.70960305 11.391352,9.5249938 11.5124925,9.35768141 L11.5067269,9.36344703 L12.2855701,8.20960403 C12.3173045,8.16633843 12.3576795,8.13171346 12.4038357,8.10863535 L12.4067263,8.10863535 C12.4557419,8.08266661 12.5163356,8.06824475 12.5769137,8.06824475 C12.5798043,8.06824475 12.5826793,8.06824475 12.5855699,8.06824475 L12.5855699,8.06824475 L13.0874915,8.06824475 L12.0461484,9.45285322 C12.0461484,9.47882195 12.0086484,9.50186881 11.9942266,9.5307438 C12.051914,9.49613444 12.1211484,9.46727509 12.1961483,9.44997822 L12.2019139,9.44997822 C12.2682576,9.43266573 12.3461482,9.42113449 12.4240232,9.42113449 C12.4269138,9.42113449 12.4297888,9.42113449 12.4355544,9.42113449 L12.4355544,9.42113449 L12.4355544,9.42113449 L12.4355544,9.42116574 Z M11.6509455,10.5403838 C11.6509455,10.5432744 11.6509455,10.5461494 11.6509455,10.54904 C11.6509455,10.6413524 11.6653674,10.7307743 11.6884455,10.8173211 L11.6855549,10.8115555 C11.708633,10.892321 11.746133,10.9615554 11.7980548,11.0221334 L11.7980548,11.0221334 C11.8470704,11.0827115 11.9076641,11.1288678 11.9797891,11.1577115 L11.9826797,11.1577115 C12.051914,11.1894458 12.1326796,11.2067271 12.2192108,11.2067271 C12.2249764,11.2067271 12.227867,11.2067271 12.2336327,11.2067271 L12.2336327,11.2067271 C12.2365233,11.2067271 12.2393983,11.2067271 12.2422889,11.2067271 C12.3288201,11.2067271 12.4096013,11.1894146 12.4846012,11.1548052 L12.4817106,11.1576959 C12.5567106,11.1259615 12.6230543,11.0769303 12.6749761,11.0192272 L12.6749761,11.0192272 C12.726898,10.9615397 12.7701636,10.8923054 12.7961323,10.8144148 L12.7961323,10.8115242 C12.824976,10.7394149 12.8422885,10.6528681 12.8422885,10.5663369 C12.8422885,10.5605712 12.8422885,10.5548056 12.8422885,10.5490244 L12.8422885,10.5490244 C12.8422885,10.5432588 12.8422885,10.5374931 12.8422885,10.5317119 C12.8422885,10.4393995 12.8278666,10.3471026 12.7990229,10.2634308 L12.8019135,10.2691964 C12.7730698,10.1884309 12.7326792,10.1191965 12.6778824,10.0586185 L12.6778824,10.0586185 C12.6259605,10.003806 12.5624918,9.95764977 12.4932731,9.92879041 L12.4903825,9.92879041 C12.4211482,9.90282168 12.3403826,9.88839981 12.259617,9.88839981 C12.2538514,9.88839981 12.2480858,9.88839981 12.2451952,9.88839981 L12.2451952,9.88839981 C12.2423045,9.88839981 12.2394295,9.88839981 12.2365389,9.88839981 C12.1528827,9.88839981 12.0721171,9.9057123 12.0000078,9.94032165 L12.0028984,9.93743103 C11.9278985,9.97204038 11.8673204,10.0153216 11.8153986,10.0730091 L11.8153986,10.0730091 C11.766383,10.1335872 11.7259611,10.2028371 11.697133,10.2778214 L11.6942424,10.2835871 C11.6682737,10.358587 11.6538518,10.4451182 11.6538518,10.5345556 C11.6509612,10.531665 11.6509612,10.5374463 11.6509612,10.5403213 L11.6509612,10.5403213 L11.6509612,10.5403213 L11.6509455,10.5403838 Z" id="Shape"></path>
            <path d="M16.0615208,9.87114982 C16.0615208,9.88557169 16.0615208,9.89999355 16.0615208,9.91730604 C16.0615208,10.1913371 16.0269114,10.4596182 15.9634427,10.7134618 L15.9692084,10.6903837 C15.9172865,10.9096179 15.8278647,11.0999928 15.7124741,11.2701958 L15.7153648,11.2644302 C15.5278649,11.5327112 15.2220995,11.7057736 14.8730528,11.7086643 L14.8730528,11.7086643 C14.8528653,11.7086643 14.8326622,11.7115549 14.8095841,11.7115549 C14.6538186,11.7115549 14.5066937,11.6769455 14.3740063,11.6163674 L14.3797719,11.6192581 C14.2268814,11.5356019 14.0999596,11.4231019 14.0047721,11.2875239 L14.0018815,11.2846333 C13.8893816,11.1202115 13.7999598,10.929821 13.7509129,10.7221336 L13.7480223,10.7106024 C13.6903348,10.4654151 13.6585849,10.1798371 13.6585849,9.89136856 C13.6585849,9.6029 13.6903192,9.31733768 13.7537723,9.04618161 L13.7480067,9.07215034 C13.7999285,8.85291611 13.8893503,8.66254124 14.0047409,8.49233822 L14.0018503,8.49810384 C14.0999283,8.35676018 14.2268501,8.24426026 14.3739594,8.16349469 L14.379725,8.16060406 C14.5210687,8.08271349 14.6912561,8.03368227 14.8729903,8.03368227 L14.8729903,8.03368227 C14.8758809,8.03368227 14.8816466,8.03368227 14.8845216,8.03368227 C15.2335526,8.03368227 15.5422086,8.20965091 15.7268335,8.47791636 L15.7297241,8.48080698 C15.8422241,8.64522875 15.9316459,8.83561925 15.9806927,9.04330661 L15.9835833,9.05483785 C16.0355052,9.26830647 16.0643489,9.51349381 16.0643489,9.76444677 C16.0643489,9.80194674 16.0643489,9.84233734 16.0614583,9.87983732 L16.0614583,9.87118107 L16.0615208,9.87114982 Z M15.4845993,9.87114982 C15.4845993,9.85096234 15.4845993,9.82788423 15.4845993,9.80191549 C15.4845993,9.59710313 15.4644118,9.39518138 15.4269118,9.20191588 L15.4298025,9.22210337 C15.4038337,9.06921285 15.3548025,8.93075981 15.2855682,8.80383802 L15.2884588,8.81249426 C15.2423026,8.72305682 15.1730682,8.65096312 15.0894277,8.60191627 L15.0865371,8.60191627 C15.0173027,8.5644163 14.9394278,8.54422881 14.852881,8.54422881 C14.7663341,8.54422881 14.6855686,8.5644163 14.6163499,8.60191627 L14.6192405,8.60191627 C14.5355843,8.65383812 14.4692406,8.72594744 14.4230844,8.81249426 L14.4201937,8.81538489 C14.356725,8.93365043 14.3105844,9.07211909 14.2817251,9.21635337 L14.2817251,9.22500962 C14.2499907,9.40097825 14.2327095,9.605775 14.2327095,9.81347799 C14.2327095,9.83366547 14.2327095,9.85674358 14.2327095,9.87694669 L14.2327095,9.87405607 C14.2327095,9.89136856 14.2327095,9.91155605 14.2327095,9.93174353 C14.2327095,10.1394309 14.250022,10.3413526 14.2846313,10.5403994 L14.2817407,10.5202119 C14.3105844,10.6731024 14.3596313,10.8115555 14.425975,10.9384773 L14.4230844,10.929821 C14.4692406,11.0192585 14.5355843,11.0913522 14.6163499,11.140399 L14.6192405,11.140399 C14.6884748,11.177899 14.7663498,11.1980865 14.8528966,11.1980865 C14.9394434,11.1980865 15.020209,11.177899 15.0894277,11.140399 L15.0865371,11.140399 C15.1730682,11.0884772 15.2394276,11.0163678 15.2855682,10.929821 L15.2855682,10.9269304 C15.3490369,10.8086648 15.3980681,10.6701962 15.4240368,10.5259619 L15.4240368,10.5173057 C15.4586462,10.3442276 15.4788493,10.1423059 15.4788493,9.94038415 C15.4788493,9.91730604 15.4788493,9.89422793 15.4788493,9.87114982 L15.4846149,9.87114982 L15.4845993,9.87114982 Z" id="Shape"></path>
            <path d="M16.7451615,8.52983917 C16.3341068,8.52983917 15.9951615,8.19317154 15.9951615,7.77983917 C15.9951615,7.3665068 16.330513,7.02983917 16.7451615,7.02983917 C17.1598099,7.02983917 17.4951615,7.3665068 17.4951615,7.77983917 C17.4951615,8.19317154 17.1562161,8.52983917 16.7451615,8.52983917 Z M16.7451615,7.3164743 C16.5035794,7.3164743 16.3052591,7.5264808 16.3052591,7.77982112 C16.3052591,8.03316143 16.5035794,8.24316793 16.7451615,8.24316793 C16.9867435,8.24316793 17.1850638,8.03316143 17.1850638,7.77982112 C17.1850638,7.5264808 16.9867435,7.3164743 16.7451615,7.3164743 Z" id="Shape"></path>
            <path d="M17.6913322,3.23943539 L17.6913322,3.8827006 C20.5182523,4.51730956 22.387501,5.6134651 22.387501,6.86251116 C22.387501,8.18077592 20.2961587,9.32308768 17.1894263,9.94327478 L17.1894263,10.5663525 C21.2192362,9.90288418 24,8.49519759 24,6.8740424 C24,5.2932778 21.4355798,3.93173182 17.6913479,3.23943539 L17.6913479,3.23943539 L17.6913322,3.23943539 Z" id="Path"></path>
            <path d="M8.0221354,10.2173058 L5.51248079,7.72211997 L5.29613718,9.56827502 C3.04902926,8.91635357 1.60382708,7.92693234 1.60382708,6.85672991 C1.60382708,5.62499634 3.47593524,4.51441894 6.2999959,3.87691935 L6.2999959,3.23652914 C2.56442021,3.93171619 0,5.2932778 0,6.85962053 C0,8.2615415 2.05096741,9.50193131 5.21540285,10.2432746 L5.02790298,11.7519298 L8.0221354,10.2173215 L8.0221354,10.2173058 Z" id="Path"></path>
            <path d="M17.2153638,1.07884305 L16.5143955,1.07884305 C16.5086299,1.07884305 16.4999736,1.07884305 16.494208,1.07884305 C16.4192081,1.07884305 16.3528644,1.10768678 16.3038175,1.15673362 L16.3038175,1.15673362 C16.2230519,1.25192106 16.1682395,1.45673343 16.0932395,1.45673343 L15.8509272,1.45673343 C15.7990053,1.34134288 15.7326616,1.21442108 15.6576617,1.08749929 C15.5451618,0.902890037 15.4413181,0.749999512 15.3288181,0.602890232 L15.3374744,0.617312098 C15.3374744,0.617312098 15.1643964,0.424046599 15.0663183,0.33749978 C14.9278497,0.20767174 14.749006,0.121156171 14.5499749,0.095187438 L14.5442093,0.095187438 C14.261522,0.0576874624 13.8951785,0.0288437312 13.8951785,0.0288437312 L13.0759446,0 L10.9874772,0 L10.1884465,0.0288437312 C10.1884465,0.0288437312 9.81921236,0.0576874624 9.53941566,0.095187438 C9.3346033,0.121156171 9.15575966,0.207687365 9.01441601,0.33749978 L9.01441601,0.33749978 C8.91633795,0.424030974 8.74902555,0.617312098 8.74902555,0.617312098 C8.64229125,0.752890135 8.53555694,0.908655658 8.4403695,1.06731181 L8.42883826,1.08749929 C8.36249456,1.19134297 8.29901022,1.31249915 8.24422901,1.43942094 L8.23557276,1.45673343 L7.89807298,1.45673343 C7.82307303,1.45673343 7.77115119,1.25192106 7.687495,1.15673362 C7.6384794,1.10771803 7.57210445,1.07884305 7.49999512,1.07884305 C7.4942295,1.07884305 7.49133887,1.07884305 7.48846387,1.07884305 L7.48846387,1.07884305 L6.78749558,1.07884305 C6.77883934,1.07884305 6.76730809,1.07595242 6.75576123,1.07595242 C6.62018319,1.07595242 6.50769889,1.18556173 6.50479264,1.32113976 L6.50479264,1.543249 C6.50479264,1.67882703 6.7961362,1.8836394 7.06152665,1.89228002 L7.99326042,1.89228002 C7.88652612,1.97017059 7.72210435,2.08843614 7.62115129,2.17209234 C7.30962024,2.41440468 7.09326101,2.49517025 7.09326101,2.93074809 C7.09326101,2.93940434 7.09326101,2.94806058 7.09326101,2.95959182 C7.09326101,3.45285713 7.11922974,3.94035681 7.16826096,4.41921587 L7.16249534,4.35863779 L7.22307342,4.88074682 C7.23172967,4.95285615 7.24326091,5.01632486 7.26346402,5.07690294 L7.2605734,5.0682467 L7.2605734,5.98266798 C7.26922964,6.12690226 7.38749519,6.24227719 7.53460447,6.24227719 C7.54037009,6.24227719 7.54613571,6.24227719 7.55191696,6.24227719 L7.55191696,6.24227719 L8.87308797,6.24227719 C8.87885359,6.24227719 8.88461922,6.24227719 8.89040046,6.24227719 C9.03750974,6.24227719 9.15579091,6.12688664 9.16443153,5.98266798 L9.16443153,5.98266798 L9.16443153,5.52401203 L14.8759747,5.52401203 L14.8759747,5.98266798 C14.8846309,6.12690226 15.0028965,6.24227719 15.1500058,6.24227719 C15.1557714,6.24227719 15.161537,6.24227719 15.1673183,6.24227719 L15.1673183,6.24227719 L16.4769268,6.24227719 C16.4826924,6.24227719 16.488458,6.24227719 16.4942393,6.24227719 C16.6413485,6.24227719 16.7596297,6.12688664 16.7682703,5.98266798 L16.7682703,5.98266798 L16.7682703,5.24419971 C16.8144266,5.13746541 16.8519265,5.01630923 16.869239,4.88651244 L16.869239,4.8778562 L16.9269265,4.35574716 C16.9730827,3.93459119 17.0019264,3.44998213 17.0019264,2.95671683 C17.0019264,2.94806058 17.0019264,2.93652934 17.0019264,2.92787309 L17.0019264,2.93076372 C17.0019264,2.49518588 16.7855828,2.4144203 16.4682705,2.17210796 C16.3644268,2.09134239 16.2028801,1.97018622 16.0961614,1.89229564 L16.9298171,1.89229564 C17.1952076,1.89229564 17.4865511,1.67882703 17.4865511,1.54326462 L17.4865511,1.32115539 C17.4836605,1.18557735 17.3711606,1.07884305 17.2355825,1.07884305 C17.2240513,1.07884305 17.21827,1.07884305 17.215395,1.07884305 L17.215395,1.07884305 L17.215395,1.07884305 L17.2153638,1.07884305 Z M8.7172912,1.45385843 C8.81536926,1.26346793 8.92210357,1.09904616 9.04325974,0.946171259 L9.03749412,0.95193688 C9.12115031,0.845202575 9.21633775,0.75290576 9.32018143,0.672124562 L9.32307206,0.669233939 C9.51346256,0.585577744 9.73846241,0.530765279 9.97210288,0.516343414 L9.9778685,0.516343414 C10.5576806,0.464421573 11.4922894,0.464421573 11.4922894,0.464421573 L12.5249762,0.464421573 C12.5249762,0.464421573 13.4653662,0.464421573 14.0422877,0.516343414 C14.2817095,0.527874656 14.5038187,0.582687121 14.7057561,0.672108937 L14.6942248,0.666343316 C14.8009591,0.749999512 14.8961466,0.84518695 14.9798027,0.946155634 L14.9826934,0.949046257 C15.0923027,1.09328054 15.1932714,1.25770231 15.2740369,1.43078032 L15.2826932,1.44809281 C15.4269275,1.73078012 15.1788495,1.80578007 15.0576933,1.8086707 L8.95961917,1.80578007 C8.838463,1.8115457 8.59038503,1.73654574 8.71730682,1.45385843 L8.71730682,1.45385843 L8.7172912,1.45385843 Z M8.87015048,4.76538752 C8.53841632,4.76538752 8.27880711,4.76538752 8.0220729,4.76538752 C7.76533869,4.76538752 7.74226058,4.52885643 7.74226058,4.42788774 C7.74226058,4.32691906 7.82015116,4.31249719 7.94418233,4.31249719 L8.67110373,4.31249719 C8.76918179,4.31249719 8.86436923,4.33268468 8.95091605,4.36730966 L8.94515043,4.36441903 C9.00861914,4.39326276 9.06054098,4.43365336 9.10380657,4.48268458 L9.10380657,4.48268458 C9.14130655,4.5288408 9.17015028,4.58365327 9.18457215,4.64421573 L9.18457215,4.64710635 C9.19610339,4.71345006 9.15860341,4.7624969 8.88168172,4.7624969 L8.87015048,4.76538752 L8.87015048,4.76538752 Z M9.5970875,3.48462273 C9.36919703,3.52501333 9.1038222,3.54809144 8.83555675,3.54809144 C8.77497866,3.54809144 8.71440058,3.54809144 8.65382249,3.54520082 L8.66247874,3.54520082 C8.61632252,3.55096644 8.56151005,3.55385706 8.50958821,3.55385706 C8.30766647,3.55385706 8.11440097,3.50484147 7.94708858,3.41827902 L7.9528542,3.42116965 C7.77688556,3.32885721 7.65862001,3.1557792 7.64419815,2.95098245 L7.64419815,2.94809183 C7.61822942,2.70577949 7.64419815,2.58174832 7.98746355,2.5788577 C7.99899479,2.5788577 8.01054166,2.5788577 8.0220729,2.5788577 C8.42015077,2.5788577 8.79804115,2.66829514 9.13554093,2.82692003 L9.12111906,2.82115441 C9.3634314,2.90768561 9.57111877,3.03749802 9.74130616,3.20768541 L9.74130616,3.20768541 C9.75861865,3.23365414 9.77014989,3.2682635 9.77014989,3.30287285 C9.77014989,3.39518529 9.70091556,3.47018524 9.61149374,3.48171648 L9.61149374,3.48171648 L9.59707188,3.48460711 L9.5970875,3.48462273 Z M13.1567102,4.64423135 L10.8807429,4.64423135 C10.5778525,4.64423135 10.0240091,4.59521576 10.0240091,4.23462224 C10.0268997,4.09327859 10.0672747,3.96346617 10.136509,3.85385687 L10.1336184,3.85674749 C10.2547746,3.58559142 10.5172744,3.40098216 10.8259305,3.38941967 L10.8259305,3.38941967 C11.1576646,3.34326345 11.5413206,3.31441972 11.9307422,3.31441972 C11.959586,3.31441972 11.9884297,3.31441972 12.0201797,3.31441972 L12.0144141,3.31441972 C12.0403828,3.31441972 12.0692265,3.31441972 12.1009452,3.31441972 C12.4903669,3.31441972 12.8769135,3.34038845 13.2519132,3.39231029 L13.2086477,3.38654467 C13.5086475,3.39807591 13.7653817,3.56827893 13.9009597,3.81635689 L13.9038503,3.82212251 C13.970194,3.92885682 14.0134596,4.05865361 14.0134596,4.20001289 L14.0134596,4.20001289 C14.0134596,4.58366889 13.4596162,4.64424698 13.1567258,4.64424698 L13.1567258,4.64424698 L13.1567102,4.64423135 Z M15.9836302,4.77693439 C15.724021,4.77693439 15.4701618,4.77693439 15.1384433,4.77693439 C14.8067247,4.77693439 14.821131,4.7279188 14.821131,4.66154384 C14.8355528,4.59807513 14.8643966,4.54327829 14.9047872,4.49712207 L14.9047872,4.49712207 C14.9480528,4.44810648 14.9999746,4.40768463 15.0576777,4.37885652 L15.0605683,4.37885652 C15.1442245,4.34424717 15.239412,4.32693468 15.3403806,4.32693468 L16.067302,4.32693468 C16.1855676,4.32693468 16.2692238,4.34712217 16.2692238,4.44232523 C16.2692238,4.5375283 16.1942238,4.76540315 15.9865365,4.76540315 L15.9836458,4.77693439 L15.9836302,4.77693439 Z M16.3643956,2.96249807 C16.3442081,3.15865419 16.2259269,3.32596658 16.0586302,3.41249778 L16.0557395,3.4153884 C15.8942084,3.4990446 15.7009273,3.54807582 15.4990055,3.54807582 C15.4441931,3.54807582 15.3893962,3.54518519 15.3345838,3.53654457 L15.3403494,3.53654457 C15.2884275,3.5394352 15.2307401,3.5394352 15.170162,3.5394352 C14.8990059,3.5394352 14.6365061,3.51635709 14.3768969,3.47020087 L14.4028656,3.47309149 C14.3105532,3.46443524 14.2355532,3.3865603 14.2355532,3.29424786 C14.2355532,3.2596385 14.2442095,3.22501353 14.264397,3.19906042 L14.264397,3.19906042 C14.4345844,3.03174803 14.6393967,2.90195124 14.8672872,2.81829504 L14.8788184,2.81540442 C15.1903495,2.67406076 15.553818,2.59329519 15.937474,2.59329519 C15.9634427,2.59329519 15.9922865,2.59329519 16.0182396,2.59329519 L16.0153489,2.59329519 C16.3759268,2.59329519 16.3845831,2.70868574 16.3586143,2.95098245 L16.36438,2.9625137 L16.3643956,2.96249807 Z" id="Shape"></path>
        </g>
    </g>
</svg>
