
<svg width="25px" height="16px" viewBox="0 0 25 16" version="1.1" xmlns="http://www.w3.org/2000/svg" xmlns:xlink="http://www.w3.org/1999/xlink">
    <g id="Page-1" stroke="none" stroke-width="1" fill="none" fill-rule="evenodd">
        <g id="three-sixty" transform="translate(0.200000, 0.600000)" fill="#000000" fill-rule="nonzero">
            <path d="M8.13553329,1.65114909 C8.14614025,1.65114909 8.1567472,1.65114909 8.17088981,1.65114909 C8.40777843,1.65114909 8.63406011,1.6935769 8.84266352,1.76782557 L8.82852092,1.76428992 C9.03358869,1.8314673 9.21037124,1.93400118 9.36240424,2.06835592 L9.35886859,2.06835592 C9.50029464,2.19210371 9.61343547,2.34413671 9.68768415,2.51738362 L9.6912198,2.52445492 C9.76900412,2.68709487 9.81143194,2.87448438 9.81143194,3.0760165 C9.81143194,3.07955215 9.81143194,3.0830878 9.81143194,3.0901591 L9.81143194,3.0901591 C9.81143194,3.09723041 9.81143194,3.10783736 9.81143194,3.11490866 C9.81143194,3.27401296 9.79021803,3.42604596 9.74779022,3.57100766 L9.75132587,3.56040071 C9.71243371,3.69475545 9.65586329,3.81143194 9.57807896,3.91396582 L9.58161461,3.91043017 C9.50383029,4.0094284 9.41190336,4.09428403 9.30936948,4.16499705 L9.30583382,4.1685327 C9.19976429,4.23217443 9.0760165,4.29228049 8.94873306,4.33470831 L8.93459045,4.33824396 C9.23865645,4.42663524 9.49322334,4.6034178 9.6770772,4.83677077 L9.68061285,4.84030642 C9.8361815,5.04890984 9.92810843,5.31054803 9.92810843,5.59340012 C9.92810843,5.61461402 9.92810843,5.63229228 9.92810843,5.64997054 L9.92810843,5.64643489 C9.92810843,5.65704184 9.92810843,5.67118444 9.92810843,5.68532705 C9.92810843,6.17678256 9.70889806,6.61873895 9.36240424,6.91573365 L9.35886859,6.9192693 C9.18562169,7.05715969 8.98408957,7.17030053 8.7648792,7.24101355 L8.75073659,7.2445492 C8.53859753,7.31526223 8.29817325,7.35415439 8.04360636,7.35415439 C8.03653506,7.35415439 8.02592811,7.35415439 8.01885681,7.35415439 L8.01885681,7.35415439 C8.0047142,7.35415439 7.98703595,7.35415439 7.96935769,7.35415439 C7.72893341,7.35415439 7.49558044,7.31879788 7.27283441,7.25515616 L7.29051267,7.25869181 C7.08190925,7.19151444 6.90159104,7.09605186 6.74248674,6.97583972 L6.74602239,6.97937537 C6.59045374,6.84148497 6.45963465,6.67884502 6.35710077,6.50206246 L6.35356511,6.49145551 C6.25103123,6.3111373 6.15556865,6.10253388 6.08485563,5.88332351 L6.07778433,5.85857395 L6.49852681,5.6888627 C6.56216853,5.66057749 6.63641721,5.64289923 6.71420153,5.64289923 C6.71420153,5.64289923 6.71420153,5.64289923 6.71420153,5.64289923 L6.71420153,5.64289923 C6.7813789,5.64289923 6.84148497,5.65704184 6.89805539,5.68532705 L6.89451974,5.68532705 C6.94401886,5.71714791 6.98644667,5.75957572 7.01473188,5.80907484 L7.01473188,5.80907484 C7.06776665,5.91160872 7.11726576,6 7.17030053,6.08131998 L7.16322923,6.07071302 C7.21979965,6.1591043 7.28344137,6.23688863 7.35769004,6.30760165 L7.35769004,6.30760165 C7.43547437,6.37124337 7.52386565,6.42781379 7.62286388,6.4702416 L7.62993518,6.47377725 C7.73600471,6.51266942 7.85621685,6.53388332 7.97996464,6.53388332 C7.98703595,6.53388332 7.99410725,6.53388332 8.00117855,6.53388332 L8.00117855,6.53388332 C8.00824985,6.53388332 8.01885681,6.53388332 8.02946376,6.53388332 C8.17088981,6.53388332 8.3087802,6.50559811 8.43252799,6.4490277 L8.42545669,6.45256335 C8.54213318,6.40306423 8.64466706,6.33588686 8.72598704,6.25103123 L8.72598704,6.25103123 C8.80377136,6.16971126 8.86387743,6.07424867 8.90630524,5.97171479 L8.9098409,5.96464349 C8.94873306,5.87271656 8.96994697,5.76664702 8.96994697,5.65350619 L8.96994697,5.65350619 C8.96994697,5.65350619 8.96994697,5.65350619 8.96994697,5.64997054 C8.96994697,5.52268709 8.95580436,5.3989393 8.92751915,5.27872717 L8.9310548,5.28933412 C8.89923394,5.17619328 8.83559222,5.0807307 8.75427225,5.00648203 L8.75427225,5.00648203 C8.64466706,4.9216264 8.51384797,4.86152033 8.37242192,4.82616382 L8.36535062,4.82616382 C8.17796111,4.783736 7.96228639,4.75898645 7.73954037,4.75898645 C7.72186211,4.75898645 7.70418385,4.75898645 7.6865056,4.75898645 L7.69004125,4.75898645 L7.69004125,4.08367708 C7.70418385,4.08367708 7.72186211,4.08367708 7.73954037,4.08367708 C7.92692988,4.08367708 8.11078374,4.06246317 8.28756629,4.02003536 L8.26988804,4.02357101 C8.41131408,3.9882145 8.53152622,3.92810843 8.64113141,3.8503241 L8.63759576,3.85385975 C8.72245138,3.78668238 8.78962876,3.69475545 8.82852092,3.59222157 L8.82852092,3.58868592 C8.86387743,3.48968768 8.88509134,3.37654685 8.88509134,3.25987036 C8.88509134,3.25633471 8.88509134,3.25279906 8.88509134,3.25279906 L8.88509134,3.25279906 C8.88509134,3.23865645 8.88509134,3.2209782 8.88509134,3.20329994 C8.88509134,2.99116087 8.80377136,2.79670006 8.66588097,2.65527401 L8.66588097,2.65527401 C8.52445492,2.53859753 8.34060106,2.4678845 8.13906895,2.4678845 C8.11785504,2.4678845 8.09664113,2.4678845 8.07542722,2.47142015 L8.07896288,2.47142015 C8.06835592,2.47142015 8.05774897,2.47142015 8.04714202,2.47142015 C7.8456099,2.47142015 7.66175604,2.53859753 7.51325869,2.65527401 L7.51679434,2.65527401 C7.37183265,2.7719505 7.26222746,2.92751915 7.20565704,3.10783736 L7.20565704,3.11490866 C7.18444313,3.19622864 7.14201532,3.26694166 7.08190925,3.31997643 L7.08190925,3.31997643 C7.02887448,3.36240424 6.96169711,3.3871538 6.88744844,3.3871538 C6.88037714,3.3871538 6.87684148,3.3871538 6.86977018,3.3871538 L6.86977018,3.3871538 L6.73895109,3.3871538 L6.23688863,3.29522687 C6.26517384,3.02651738 6.34295816,2.78255745 6.45963465,2.55981143 L6.45256335,2.57041839 C6.55863288,2.37242192 6.69652328,2.20624632 6.86269888,2.06835592 L6.86623453,2.06482027 C7.03594579,1.93046553 7.2304066,1.82793164 7.44608132,1.76075427 L7.46022392,1.75721862 C7.66175604,1.69004125 7.89510902,1.65468474 8.13553329,1.65114909 L8.13553329,1.65114909 L8.13553329,1.65114909 L8.13553329,1.65114909 Z" id="Path"></path>
            <path d="M12.770772,3.80082499 C12.770772,3.80082499 12.770772,3.80082499 12.770772,3.80082499 C12.9899823,3.80082499 13.2021214,3.83971715 13.3965822,3.91043017 L13.3824396,3.90689452 C13.7855038,4.05185622 14.1037124,4.35238656 14.269888,4.73070124 L14.2734237,4.74130819 C14.3582793,4.94637596 14.4113141,5.18326458 14.4113141,5.43076016 C14.4113141,5.44843842 14.4113141,5.46965233 14.4113141,5.48733058 L14.4113141,5.48379493 C14.4113141,5.48733058 14.4113141,5.49440189 14.4113141,5.49793754 C14.4113141,5.75604007 14.3582793,6 14.2663524,6.22274602 L14.269888,6.20860342 C14.1708898,6.43842074 14.0400707,6.63641721 13.8738951,6.80259281 L13.8738951,6.80259281 C13.7006482,6.96876841 13.4920448,7.10312316 13.2622275,7.19505009 L13.2480849,7.19858574 C13.0218032,7.29051267 12.760165,7.34354744 12.4879199,7.34354744 C12.4737773,7.34354744 12.4596346,7.34354744 12.4490277,7.34354744 L12.4525633,7.34354744 C12.4384207,7.34354744 12.4242781,7.34354744 12.4065999,7.34354744 C12.1343547,7.34354744 11.8762522,7.29051267 11.6393636,7.19858574 L11.6535062,7.20212139 C11.4166176,7.10665881 11.2150854,6.97230407 11.0453742,6.80612846 L11.0453742,6.80612846 C10.8827342,6.63288156 10.7519151,6.42781379 10.6670595,6.20153212 L10.6635239,6.19092516 C10.5822039,5.96110784 10.5327048,5.695934 10.5327048,5.42015321 C10.5327048,5.41308191 10.5327048,5.40247496 10.5327048,5.39540365 L10.5327048,5.39540365 C10.5362404,5.10548026 10.5963465,4.82969947 10.6988804,4.57513259 L10.6918091,4.58927519 C10.8296995,4.26045963 10.9994107,3.97760754 11.2009428,3.72304066 L11.1938715,3.73011196 L12.4914555,1.95875074 C12.5444903,1.88803771 12.6116676,1.83500295 12.689452,1.79964643 L12.6929876,1.79964643 C12.7778433,1.75721862 12.8768415,1.73246906 12.982911,1.73246906 C12.9899823,1.73246906 12.9970536,1.73246906 13.0005893,1.73246906 L13.0005893,1.73246906 L13.8456099,1.73246906 L12.0919269,3.86800236 L11.9964643,3.9882145 C12.2156747,3.87860931 12.4773129,3.81496759 12.749558,3.81143194 L12.749558,3.81143194 L12.770772,3.80082499 L12.770772,3.80082499 Z M11.4378315,5.5297584 C11.4378315,5.6817914 11.462581,5.82675309 11.5050088,5.96110784 L11.5014732,5.95050088 C11.543901,6.07424867 11.6075427,6.18385386 11.6888627,6.27224514 L11.6888627,6.27224514 C11.7701827,6.36417207 11.8691809,6.43488509 11.9787861,6.48791986 L11.9858574,6.49145551 C12.1060695,6.54095463 12.2439599,6.56570418 12.3889216,6.56570418 C12.3959929,6.56570418 12.4065999,6.56570418 12.4136712,6.56570418 L12.4136712,6.56570418 C12.4207425,6.56570418 12.4278138,6.56570418 12.4348851,6.56570418 C12.5763111,6.56570418 12.7142015,6.53741897 12.8344137,6.48084856 L12.8273424,6.48438421 C12.9546258,6.43488509 13.064231,6.36417207 13.1526223,6.27224514 L13.1526223,6.27224514 C13.2410136,6.18031821 13.3117266,6.07071302 13.3612257,5.95050088 L13.3647613,5.94342958 C13.4142605,5.82675309 13.43901,5.6888627 13.43901,5.543901 C13.43901,5.54036535 13.43901,5.5368297 13.43901,5.53329405 L13.43901,5.53329405 C13.43901,5.52622275 13.43901,5.51561579 13.43901,5.50500884 C13.43901,5.36358279 13.4142605,5.2256924 13.3647613,5.09840896 L13.368297,5.10548026 C13.3223335,4.97819682 13.2516205,4.87212728 13.1632292,4.783736 L13.1632292,4.783736 C13.0748379,4.69534473 12.9652328,4.62816735 12.841485,4.58573954 L12.8344137,4.58220389 C12.7142015,4.53624042 12.5727755,4.51149087 12.4278138,4.51149087 C12.4242781,4.51149087 12.4242781,4.51149087 12.4207425,4.51149087 L12.4207425,4.51149087 C12.4172068,4.51149087 12.4136712,4.51149087 12.4065999,4.51149087 C12.2616382,4.51149087 12.1237478,4.53977608 12,4.58927519 L12.0070713,4.58573954 C11.8833235,4.63877431 11.777254,4.71302298 11.6888627,4.80141426 L11.6888627,4.80141426 C11.6004714,4.88980554 11.5297584,4.99941072 11.4837949,5.11608721 L11.4802593,5.12315852 C11.4449028,5.22922805 11.4236889,5.35297584 11.4236889,5.48025928 C11.4378315,5.50500884 11.4378315,5.51561579 11.4378315,5.5297584 L11.4378315,5.5297584 L11.4378315,5.5297584 L11.4378315,5.5297584 Z" id="Shape"></path>
            <path d="M19.0819093,4.53270477 C19.0819093,4.55745433 19.0819093,4.58927519 19.0819093,4.62109605 C19.0819093,5.03830289 19.0253388,5.44490277 18.9192693,5.82675309 L18.9263406,5.79493223 C18.8344137,6.13435474 18.689452,6.43134944 18.4949912,6.69298763 L18.4985268,6.68591632 C18.3252799,6.89805539 18.1096052,7.06776665 17.8621096,7.18444313 L17.8515027,7.18797879 C17.614614,7.29404832 17.3352976,7.35769004 17.0418385,7.35769004 C16.7483795,7.35769004 16.4690631,7.29404832 16.2180318,7.18090748 L16.2321744,7.18444313 C15.9740719,7.064231 15.7619328,6.89451974 15.5922216,6.68591632 L15.5886859,6.68238067 C15.4048321,6.43134944 15.2598704,6.14142605 15.1714791,5.82675309 L15.1679434,5.80907484 C15.0724808,5.45550972 15.0159104,5.04537419 15.0159104,4.6246317 C15.0159104,4.59634649 15.0159104,4.56806128 15.0159104,4.53977608 L15.0159104,4.54331173 C15.0159104,4.51856217 15.0159104,4.48674131 15.0159104,4.4584561 C15.0159104,4.04124926 15.0724808,3.63464938 15.1750147,3.24926341 L15.1679434,3.28108427 C15.2598704,2.94166176 15.4083677,2.64820271 15.5992929,2.39010018 L15.5957572,2.39717148 C15.7654685,2.18503241 15.9811432,2.01532115 16.2286388,1.89864467 L16.2392457,1.89510902 C16.4761344,1.78903948 16.7554508,1.72539776 17.0489098,1.72539776 C17.3423689,1.72539776 17.6216853,1.78903948 17.8727166,1.90218032 L17.858574,1.89864467 C18.1166765,2.01885681 18.3358869,2.18856806 18.5055981,2.39717148 L18.5091338,2.40070713 C18.7000589,2.65173836 18.8450206,2.94873306 18.9334119,3.26694166 L18.9369476,3.28461992 C19.0324101,3.63111373 19.0889806,4.02710666 19.0889806,4.43724219 C19.0889806,4.4725987 19.0889806,4.50441956 19.0889806,4.53624042 L19.0819093,4.53270477 L19.0819093,4.53270477 Z M18.1060695,4.53270477 C18.1060695,4.50441956 18.1060695,4.4725987 18.1060695,4.44077784 C18.1060695,4.11549794 18.0742487,3.80082499 18.010607,3.49675899 L18.0141426,3.5250442 C17.9681791,3.28815557 17.8868592,3.0760165 17.7737183,2.88862699 L17.777254,2.89923394 C17.6923984,2.7578079 17.5792575,2.64820271 17.4413671,2.57041839 L17.4378315,2.56688273 C17.3494402,2.53506187 17.2469063,2.51738362 17.1373011,2.51738362 C17.1019446,2.51738362 17.0701237,2.52091927 17.0347672,2.52445492 L17.0383029,2.52445492 C16.8933412,2.52445492 16.7589864,2.55981143 16.6352387,2.61638185 L16.64231,2.6128462 C16.5008839,2.69416618 16.3877431,2.80730701 16.3064231,2.94166176 L16.3028874,2.94519741 C16.2038892,3.11490866 16.1225692,3.30936948 16.0730701,3.51443724 L16.0695345,3.52857985 C16.0164997,3.80789629 15.9846788,4.12610489 15.9846788,4.45492045 C15.9846788,4.48320566 15.9846788,4.51149087 15.9846788,4.53977608 L15.9846788,4.53624042 C15.9846788,4.56098998 15.9846788,4.58927519 15.9846788,4.61402475 C15.9846788,4.94284031 16.0164997,5.26104891 16.0766058,5.57218621 L16.0730701,5.54036535 C16.1225692,5.77725398 16.2003536,5.9858574 16.3099588,6.18031821 L16.3028874,6.16971126 C16.3842074,6.3111373 16.4973483,6.42074249 16.6352387,6.49852681 L16.6387743,6.50206246 C16.7554508,6.55863288 16.8898055,6.59398939 17.0347672,6.59752504 L17.0347672,6.59752504 C17.1797289,6.59398939 17.3176193,6.56216853 17.4378315,6.49852681 L17.4307602,6.50206246 C17.5757219,6.42427814 17.6923984,6.3111373 17.7701827,6.17324691 L17.7737183,6.16971126 C17.8797879,5.98939305 17.9646435,5.77725398 18.0070713,5.55450796 L18.010607,5.54036535 C18.0671774,5.26458456 18.1025339,4.94991161 18.1025339,4.6246317 C18.1025339,4.59281084 18.1025339,4.56098998 18.1025339,4.52916912 L18.1060695,4.53270477 L18.1060695,4.53270477 Z" id="Shape"></path>
            <path d="M19.5344726,2.04360636 C18.9687684,2.04360636 18.5126694,1.58397171 18.5126694,1.02180318 C18.5126694,0.456098998 18.9723041,0 19.5344726,0 C20.1001768,0 20.5562758,0.459634649 20.5562758,1.02180318 C20.5562758,1.58397171 20.0966411,2.04360636 19.5344726,2.04360636 Z M19.5344726,0.403064231 C19.1950501,0.403064231 18.9192693,0.678845021 18.9192693,1.01826753 C18.9192693,1.35769004 19.1950501,1.63347083 19.5344726,1.63347083 C19.8738951,1.63347083 20.1496759,1.35769004 20.1496759,1.01826753 C20.1496759,0.678845021 19.8738951,0.403064231 19.5344726,0.403064231 Z" id="Shape"></path>
            <path d="M10.023571,11.0913377 C5.67118444,10.7589864 1.97996464,9.33765468 1.97996464,7.77843253 C1.97996464,6.7743076 3.48968768,6.00353565 5.71714791,5.50500884 L5.71714791,4.38774308 C2.38302887,5.07719505 0,6.2969947 0,7.86682381 C0,10.0553919 4.65291691,12.1803182 10.0553919,12.6647024 L10.0553919,14.7931644 L14.4997054,11.9681791 L10.023571,8.88155569 L10.023571,11.0913377 L10.023571,11.0913377 Z" id="Path"></path>
            <path d="M19.6582204,4.74484384 L19.6582204,5.94696523 C21.1679434,6.4490277 22.1331762,7.13847967 22.1331762,7.91278727 C22.1331762,9.20683559 19.4531526,10.3311727 16.034178,10.854449 L16.034178,12.5232764 C20.584561,11.8903948 24,10.1543901 24,8.17796111 C24,6.7672363 22.2781379,5.543901 19.6582204,4.74484384 L19.6582204,4.74484384 L19.6582204,4.74484384 Z" id="Path"></path>
        </g>
    </g>
</svg>
