<!-- Generated by IcoMoon.io -->
<svg version="1.1" xmlns="http://www.w3.org/2000/svg" width="16" height="16" viewBox="0 0 16 16">
<title>three-dots-horizontal</title>
<path fill="#4a4a4a" d="M13.089 5.964c1.124 0 2.036 0.911 2.036 2.036s-0.911 2.036-2.036 2.036c-1.124 0-2.036-0.911-2.036-2.036s0.911-2.036 2.036-2.036zM8 5.964c1.124 0 2.036 0.911 2.036 2.036s-0.911 2.036-2.036 2.036c-1.124 0-2.036-0.911-2.036-2.036s0.911-2.036 2.036-2.036zM2.911 5.964c1.124 0 2.036 0.911 2.036 2.036s-0.911 2.036-2.036 2.036c-1.124 0-2.036-0.911-2.036-2.036s0.911-2.036 2.036-2.036z"></path>
</svg>
