
<svg width="24px" height="13px" viewBox="0 0 24 13" version="1.1" xmlns="http://www.w3.org/2000/svg" xmlns:xlink="http://www.w3.org/1999/xlink">
    <g id="Page-1" stroke="none" stroke-width="1" fill="none" fill-rule="evenodd">
        <g id="three-sixty-interior-front" transform="translate(0.001000, 0.488000)" fill="#000000" fill-rule="nonzero">
            <path d="M9.63174065,8.67986503 C9.6346469,8.67986503 9.6403969,8.67986503 9.64616253,8.67986503 C9.78750637,8.67986503 9.92308459,8.70583379 10.0500065,8.75197445 L10.0413503,8.7490682 C10.1625066,8.79809948 10.2663504,8.8644589 10.3528817,8.94522457 L10.3528817,8.94522457 C10.436538,9.02599025 10.5028818,9.12406844 10.5490381,9.23369351 L10.5519444,9.23945914 C10.59521,9.34042796 10.6211788,9.46156866 10.6211788,9.58561562 C10.6211788,9.59138124 10.6211788,9.6000375 10.6211788,9.60580313 L10.6211788,9.60580313 C10.6211788,9.60870938 10.6211788,9.61156876 10.6211788,9.61733439 C10.6211788,9.7211782 10.6096475,9.82214702 10.5865694,9.92022521 L10.5894756,9.91156895 C10.5663975,9.99810026 10.5317881,10.0731003 10.4856318,10.1394597 L10.4885381,10.1365535 C10.4452724,10.2028973 10.3904599,10.2548192 10.3270067,10.2980848 L10.3241005,10.2980848 C10.2606317,10.3413505 10.1885223,10.3788505 10.1135222,10.4105849 L10.104866,10.4134912 C10.2866004,10.4654131 10.4366005,10.5750225 10.543335,10.719257 L10.5462412,10.7221632 C10.6356632,10.8606321 10.6904913,11.0279291 10.6904913,11.2096635 C10.6904913,11.2240854 10.6904913,11.2356323 10.6904913,11.2500542 L10.6904913,11.2471479 C10.6904913,11.2558042 10.6904913,11.2673355 10.6904913,11.2759917 C10.6904913,11.4375231 10.6558819,11.5904138 10.5981788,11.7288826 L10.601085,11.7202264 C10.5433975,11.8586952 10.4626162,11.9740703 10.3587724,12.0692579 L10.3587724,12.0692579 C10.2578036,12.1615704 10.1395379,12.2336798 10.0097409,12.2798361 L10.0010846,12.2827424 C9.87992831,12.326008 9.73858447,12.3519768 9.59147499,12.3519768 C9.58281874,12.3519768 9.57705311,12.3519768 9.56839685,12.3519768 L9.56839685,12.3519768 C9.5654906,12.3519768 9.5654906,12.3519768 9.56263123,12.3519768 C9.41838113,12.3519768 9.27994354,12.3288987 9.14724033,12.288508 L9.15589659,12.2914143 C9.03186526,12.2510236 8.92513081,12.1875704 8.83570888,12.1068048 L8.83570888,12.1068048 C8.74339632,12.0231485 8.66839627,11.9250703 8.6078181,11.8183358 L8.60491185,11.8125702 C8.54144306,11.6943045 8.48375552,11.5587263 8.4433805,11.4173824 L8.44047425,11.4029605 L8.6856619,11.2933511 C8.72316193,11.2731636 8.76931821,11.2616167 8.81547449,11.2616167 L8.81547449,11.2616167 C8.85297451,11.2616167 8.88758391,11.273148 8.91931831,11.2904605 L8.91931831,11.2904605 C8.9510527,11.310648 8.97700584,11.3366168 8.99142773,11.3712262 L8.99142773,11.3712262 C9.0202715,11.4375699 9.05200589,11.4923825 9.08374029,11.5443044 L9.08083404,11.5385388 C9.11256843,11.5962263 9.15294346,11.6452732 9.19622474,11.6914295 L9.19622474,11.6914295 C9.23949039,11.7375858 9.29430293,11.7721952 9.35199046,11.7981639 L9.35489672,11.7981639 C9.41547488,11.8241327 9.4847093,11.8385546 9.55681872,11.8385546 C9.56258435,11.8385546 9.56834998,11.8385546 9.57413123,11.8385546 L9.57413123,11.8385546 C9.57989686,11.8385546 9.58566249,11.8385546 9.59144374,11.8385546 C9.67510005,11.8385546 9.75586573,11.8212421 9.82799077,11.7866327 L9.82508452,11.7895389 C9.89431894,11.7549295 9.95200648,11.7116482 10.0010534,11.6539607 L10.0010534,11.6539607 C10.0472097,11.6049294 10.0847097,11.5443513 10.1077878,11.4779918 L10.1077878,11.4750856 C10.130866,11.4145074 10.1452879,11.342398 10.1452879,11.270273 L10.1452879,11.270273 C10.1452879,11.2673667 10.1452879,11.2645073 10.1452879,11.2587417 C10.1452879,11.180851 10.1366316,11.102976 10.1193191,11.0279759 L10.1193191,11.0337416 C10.1020066,10.9616321 10.0645066,10.901054 10.0125846,10.8548977 L10.0125846,10.8548977 C9.94911585,10.8000852 9.8741158,10.7568195 9.79047512,10.736632 L9.78756887,10.736632 C9.6750688,10.7106632 9.54814684,10.6962413 9.41545925,10.6962413 C9.40103737,10.6962413 9.38949049,10.6962413 9.3750686,10.6962413 L9.37797486,10.6962413 L9.37797486,10.2693192 C9.38950611,10.2693192 9.401053,10.2693192 9.41258425,10.2693192 C9.5221937,10.2693192 9.62605314,10.2548973 9.72411571,10.2260535 L9.71545945,10.2289598 C9.80488138,10.2058816 9.87988143,10.165491 9.9404596,10.1049285 L9.9404596,10.1049285 C9.99238151,10.0587722 10.0298815,10.0039596 10.0558503,9.94050647 L10.0558503,9.93760022 C10.0731628,9.87413143 10.0846941,9.80491263 10.0846941,9.72991258 C10.0846941,9.72414696 10.0846941,9.72125633 10.0846941,9.7154907 L10.0846941,9.7154907 C10.0846941,9.70395944 10.0876003,9.68664693 10.0876003,9.67222505 C10.0876003,9.53953746 10.038569,9.42125613 9.95778773,9.3289592 L9.95778773,9.3289592 C9.87413143,9.24819352 9.76163136,9.19627161 9.6347094,9.19627161 C9.62605314,9.19627161 9.62028751,9.19627161 9.61163126,9.19627161 L9.61163126,9.19627161 C9.60586563,9.19627161 9.6001,9.19627161 9.59144374,9.19627161 C9.47028742,9.19627161 9.36067797,9.23953727 9.27702166,9.31166231 L9.27702166,9.31166231 C9.19049036,9.38955299 9.12702157,9.49050618 9.09241217,9.60589688 L9.09241217,9.61166251 C9.08088091,9.66647504 9.05491215,9.71263132 9.01741212,9.74724072 L9.01741212,9.74724072 C8.98280272,9.77320949 8.94241207,9.78763137 8.89625579,9.78763137 C8.89625579,9.78763137 8.89625579,9.78763137 8.89625579,9.78763137 L8.81836512,9.78763137 L8.52413055,9.72994383 C8.54431806,9.55975622 8.59047434,9.4068655 8.65970876,9.26552166 L8.65680251,9.27417791 C8.7202713,9.14725596 8.80391198,9.04052151 8.90199017,8.95109958 L8.90199017,8.95109958 C8.99430273,8.86744327 9.1068028,8.80109948 9.22795913,8.7549432 L9.23372476,8.75203695 C9.35775609,8.70877129 9.49333431,8.68280253 9.63180315,8.67992753 L9.63180315,8.67992753 L9.63180315,8.67992753 L9.63174065,8.67986503 Z" id="Path"></path>
            <path d="M12.3605862,10.0702409 C12.3634924,10.0702409 12.3663518,10.0702409 12.3663518,10.0702409 C12.4932738,10.0702409 12.6144301,10.0933191 12.7269302,10.1394754 L12.7211645,10.1365691 C12.8423209,10.1827254 12.9461647,10.2519598 13.029821,10.3413817 L13.029821,10.3413817 C13.1163523,10.4365849 13.1855867,10.5461944 13.2288524,10.6702257 L13.2317586,10.6759913 C13.2836805,10.8144602 13.3154149,10.9759915 13.3154149,11.1461791 C13.3154149,11.3163667 13.2836805,11.4750231 13.2288836,11.6250232 L13.2317899,11.6163669 C13.179868,11.766367 13.0991023,11.8961796 12.9981335,12.0028984 L12.9981335,12.0028984 C12.8971646,12.1125079 12.7760239,12.1990548 12.6404457,12.259633 L12.6346801,12.2625392 C12.5019925,12.3231174 12.3490862,12.3577424 12.1846798,12.3577424 C12.1760236,12.3577424 12.1702579,12.3577424 12.1616017,12.3577424 L12.1616017,12.3577424 C12.155836,12.3577424 12.1471798,12.3577424 12.1385235,12.3577424 C11.9769922,12.3577424 11.8241014,12.323133 11.6827576,12.2654299 L11.6914139,12.2683361 C11.55007,12.2048673 11.4318043,12.118336 11.3366011,12.0116016 L11.3366011,12.0116016 C11.2385229,11.8962109 11.1606323,11.7606327 11.1144916,11.6106326 L11.1115854,11.6019763 C11.0683197,11.4663981 11.0452416,11.3106324 11.0452416,11.1462104 C11.0452416,11.1260229 11.0452416,11.1087104 11.0452416,11.0885228 L11.0452416,11.0914291 C11.0481478,10.903929 11.0827416,10.7250851 11.1433198,10.5577725 L11.1404135,10.5693038 C11.2183042,10.3587255 11.3163824,10.174116 11.4375231,10.009694 L11.4317574,10.0154596 L12.2106017,8.86161514 C12.2423361,8.81834949 12.2827111,8.78372447 12.3288674,8.76064633 L12.3317737,8.76064633 C12.3836956,8.73180256 12.4471644,8.71449005 12.5106175,8.71449005 C12.5106175,8.71449005 12.5106175,8.71449005 12.5106175,8.71449005 L13.0067741,8.71449005 L12.0346641,10.0241003 L11.9740859,10.101991 L11.922164,10.1798816 C11.9798515,10.1481472 12.049086,10.1193035 12.1211954,10.0991159 L12.126961,10.0962097 C12.1904298,10.0788972 12.2625392,10.0702409 12.3346487,10.0702409 C12.3433049,10.0702409 12.3519612,10.0702409 12.3606174,10.0702409 L12.3606174,10.0702409 L12.3606174,10.0702409 L12.3605862,10.0702409 Z M11.5903982,11.186601 C11.5903982,11.1895073 11.5903982,11.1952573 11.5903982,11.1981323 C11.5903982,11.2904449 11.6048201,11.3827418 11.6278982,11.4663981 L11.6249919,11.4606325 C11.6480701,11.5413981 11.6855701,11.6106326 11.737492,11.6712107 L11.737492,11.6712107 C11.7865233,11.7288983 11.8499921,11.7750545 11.9192265,11.8038983 L11.9221328,11.8038983 C11.9913672,11.8356327 12.0721329,11.8529296 12.1586798,11.8529296 C12.1644454,11.8529296 12.167336,11.8529296 12.1731017,11.8529296 L12.1731017,11.8529296 C12.1760079,11.8529296 12.1817579,11.8529296 12.1875236,11.8529296 C12.3548362,11.8529296 12.5077113,11.7808202 12.6115551,11.6654295 L12.6115551,11.6654295 C12.663477,11.6048513 12.7067583,11.5356169 12.7327114,11.4577418 L12.7327114,11.4519762 C12.7615552,11.3798668 12.7788677,11.2962105 12.7788677,11.2096635 C12.7788677,11.2010073 12.7788677,11.1952417 12.7788677,11.1865854 L12.7788677,11.1865854 C12.7788677,11.1808198 12.7788677,11.1750542 12.7788677,11.1692729 C12.7788677,11.0769603 12.7644458,10.990429 12.735602,10.9067727 L12.7385083,10.9125384 C12.7096645,10.8317727 12.6692739,10.7625383 12.614477,10.7019601 L12.614477,10.7019601 C12.5625551,10.6442726 12.4990863,10.6009913 12.4298675,10.5721475 L12.4269612,10.5721475 C12.3548518,10.5433037 12.2711955,10.5259912 12.1846486,10.5259912 C12.1846486,10.5259912 12.1817423,10.5259912 12.1817423,10.5259912 L12.1817423,10.5259912 C12.0173203,10.5288975 11.8730859,10.6009913 11.7721327,10.7134913 L11.7721327,10.7134913 C11.7202108,10.7711789 11.6798201,10.8433039 11.653867,10.918304 L11.653867,10.9240696 C11.6163669,11.0019603 11.5961794,11.0913822 11.5903982,11.1865698 L11.5903982,11.1865698 L11.5903982,11.1865698 L11.5903982,11.186601 Z" id="Shape"></path>
            <path d="M15.9894323,10.5173818 C15.9894323,10.5318037 15.9894323,10.5519912 15.9894323,10.5693038 C15.9894323,10.8433352 15.9548229,11.108726 15.8884635,11.3596949 L15.8942291,11.3366168 C15.8423072,11.5558513 15.7528853,11.7462264 15.6374946,11.9164296 L15.6404008,11.910664 C15.5423226,12.0520078 15.4154007,12.1673985 15.2654006,12.2452892 L15.2596349,12.2481955 C15.1211661,12.3174299 14.9596347,12.3578049 14.7894471,12.3578049 C14.7865409,12.3578049 14.7865409,12.3578049 14.7836815,12.3578049 L14.7836815,12.3578049 C14.7807752,12.3578049 14.7750252,12.3578049 14.7692596,12.3578049 C14.4202281,12.3578049 14.1115717,12.1789611 13.9327278,11.9106953 L13.9298216,11.907789 C13.8144309,11.743367 13.7278996,11.5529763 13.6788527,11.3452886 L13.6759464,11.3337574 C13.6182589,11.100101 13.5865245,10.8318352 13.5865245,10.5577881 C13.5865245,10.5433662 13.5865245,10.5260537 13.5865245,10.5116318 L13.5865245,10.5145381 C13.5865245,10.5030068 13.5865245,10.49146 13.5865245,10.4770381 C13.5865245,10.200116 13.6182589,9.92895959 13.6817277,9.66933442 L13.675962,9.69241256 C13.7278839,9.47606867 13.8173059,9.28567792 13.9326966,9.11549031 L13.9297903,9.12125594 C14.1230561,8.85009951 14.4346031,8.67414627 14.7894003,8.67414627 C14.9595879,8.67414627 15.1211348,8.71453692 15.2653693,8.78664635 L15.2596037,8.78374009 C15.4153694,8.86450577 15.5451976,8.97700584 15.6374946,9.11547468 L15.6404008,9.11838094 C15.7529009,9.27991229 15.8423228,9.47030304 15.8913697,9.67799068 L15.894276,9.68952193 C15.9548541,9.92317834 15.9894792,10.1885535 15.9894792,10.4654912 C15.9894792,10.4856787 15.9894792,10.5029912 15.9894792,10.5174131 L15.9894792,10.5174131 L15.9894792,10.5174131 L15.9894323,10.5173818 Z M15.4096194,10.5173818 C15.4096194,10.4943037 15.4096194,10.4683506 15.4096194,10.4423818 C15.4096194,10.2346942 15.3894319,10.0327722 15.3519319,9.83661578 L15.3548381,9.85680329 C15.3288694,9.70391257 15.2798381,9.56545935 15.210588,9.43853739 L15.2134943,9.44719365 C15.167338,9.35777172 15.0981036,9.2856623 15.0144629,9.23372476 L15.0115566,9.23372476 C14.9452129,9.19622474 14.8644472,9.1731466 14.7779002,9.1731466 C14.6913533,9.1731466 14.6105876,9.19622474 14.5413532,9.23661539 L14.5442595,9.23661539 C14.4606032,9.2885373 14.3942594,9.36064672 14.3481031,9.44719365 L14.3481031,9.4500999 C14.2846343,9.5683656 14.2384936,9.70683444 14.2096343,9.85106891 L14.206728,9.85972517 C14.1749936,10.0558815 14.1576967,10.2779911 14.1576967,10.5087568 C14.1576967,10.7395226 14.1750092,10.9616478 14.2096186,11.1808667 L14.2067124,11.1577885 C14.2355561,11.3106792 14.284603,11.4491325 14.3509625,11.5760544 L14.3480562,11.5673982 C14.3942125,11.6568201 14.4605563,11.7289295 14.541322,11.780867 L14.5442282,11.780867 C14.610572,11.8183671 14.6913377,11.8414452 14.7778846,11.8414452 C14.8644316,11.8414452 14.9451972,11.8183671 15.0144317,11.7779764 L15.0115254,11.7779764 C15.0980567,11.7260545 15.1672911,11.6539451 15.2105568,11.5673982 L15.2105568,11.5644919 C15.2740256,11.4462262 15.3230569,11.3077574 15.3490256,11.1635229 L15.3490256,11.1548666 C15.383635,10.9788978 15.4038382,10.7798664 15.4038382,10.5721788 C15.4096038,10.5519912 15.4096038,10.5346787 15.4096038,10.5173662 L15.4096038,10.5173662 L15.4096038,10.5173662 L15.4096194,10.5173818 Z" id="Shape"></path>
            <path d="M12.3750081,7.45967673 L11.6250076,7.45967673 L11.4230856,7.43081734 C11.1173197,7.39908294 10.8375071,7.34428603 10.5721163,7.26350473 L10.6038507,7.27216098 C10.1076941,7.12505151 9.6750063,6.92023888 9.28269354,6.65484808 L9.30000605,6.66637934 C9.00000586,6.46445733 8.74039632,6.23945719 8.51250554,5.98561327 L8.50959929,5.98270702 C8.2961304,5.74615999 8.11152091,5.47501919 7.96441144,5.18367525 L7.95575518,5.16348774 C7.81728634,4.88945631 7.71633315,4.5721436 7.67016124,4.23464338 L7.66725499,4.2202215 C7.66725499,4.16253396 7.64128622,4.11061205 7.6355206,4.05579952 L7.6355206,3.39522096 C7.65570811,3.27118963 7.67591125,3.1500333 7.70186439,3.02887697 C7.76820818,2.70868926 7.87494263,2.42598595 8.01628647,2.16348578 L8.00763021,2.18079829 C8.26436476,1.70771986 8.60186498,1.30964148 8.99994336,0.989453769 L9.00859961,0.98368814 C9.07494341,0.934656859 9.15284971,0.885609952 9.23359976,0.839438047 L9.24513102,0.833672418 C9.45859991,0.700984831 9.65474066,0.56828162 9.89705332,0.452906545 C10.214366,0.29137519 10.583585,0.164437607 10.9730228,0.095218812 L10.9961009,0.0923125601 C11.1980229,0.0490469069 11.4374449,0.0144218844 11.6826326,4.44089499e-16 L11.6970545,4.44089499e-16 C11.9855234,4.44089499e-16 12.2768674,4.44089499e-16 12.5682113,0.0288437688 C12.8711021,0.0548125357 13.1508992,0.109609446 13.41629,0.193265751 L13.3874462,0.184609495 C13.8864778,0.328859589 14.3220562,0.533640972 14.7172596,0.801922397 L14.6999471,0.79039114 C14.9999473,0.992313146 15.2595568,1.22020392 15.4874476,1.47692284 L15.4903538,1.47982909 C15.7038227,1.71637612 15.8884322,1.98751692 16.0355417,2.27886086 L16.0441979,2.29904837 C16.2143856,2.63367359 16.3268856,3.02597072 16.35862,3.44136162 L16.35862,3.45289287 C16.3672763,3.53942418 16.3701513,3.63750237 16.3701513,3.73848681 C16.3701513,3.94617444 16.3499638,4.15098708 16.3124637,4.34714346 L16.31537,4.32695594 C16.2490262,4.66734679 16.1422918,4.97022199 15.9980573,5.24714404 L16.0067135,5.22695653 C15.7297915,5.74906624 15.3576819,6.18464465 14.9076816,6.5250355 L14.8990253,6.53080113 C14.6711346,6.69811374 14.4144156,6.85098884 14.1432592,6.97503579 L14.1172904,6.98656705 C13.6672901,7.20867657 13.1422898,7.36445792 12.5913051,7.42503608 L12.5711176,7.42794234 L12.3749612,7.45967673 L12.3750081,7.45967673 Z M12.0000078,0.908703717 L11.5067419,0.949094368 C11.200976,0.986594392 10.924054,1.05870381 10.6644288,1.16543826 L10.6846163,1.156782 C10.2778817,1.31254773 9.92885021,1.53178225 9.6317094,1.80581368 L9.63461565,1.80290742 C9.41827176,1.99329817 9.23364664,2.21251707 9.08364654,2.45482972 L9.07788091,2.46636098 C9.06345903,2.49232975 9.05480277,2.52693915 9.05480277,2.55867354 C9.05480277,2.61925171 9.08364654,2.67406424 9.12691219,2.71156427 L9.12691219,2.71156427 C9.16730284,2.74906429 9.21922475,2.77503306 9.27980292,2.77503306 C9.32019357,2.77503306 9.35769359,2.7635018 9.38941236,2.74329866 L9.38941236,2.74329866 C9.81633452,2.55868917 10.3153817,2.40290781 10.8317258,2.30482963 L10.8778821,2.29617337 C11.1749917,2.23848583 11.5240388,2.19809518 11.8788515,2.18943893 L11.8875077,2.18943893 C12.0201953,2.18943893 12.1528985,2.18943893 12.2971174,2.18943893 C12.4586487,2.19234518 12.6144301,2.20386081 12.7701958,2.22404832 L12.7500083,2.22114207 C13.0788523,2.28172024 13.4105869,2.33940777 13.7336652,2.4259547 C14.0567435,2.51250164 14.3077124,2.62211108 14.5961814,2.7259549 C14.728869,2.77211118 14.8096503,2.77211118 14.8875253,2.70576739 C14.9654004,2.63942359 14.9942598,2.57018917 14.9250253,2.44615784 C14.7346346,2.12884514 14.4952126,1.86346996 14.2125249,1.64712607 L14.2067592,1.64136044 C14.0279154,1.49711035 13.8230871,1.37020402 13.6067589,1.26346957 L13.5865713,1.25481332 C13.1221492,1.02981317 12.5769613,0.897125584 12.0029141,0.897125584 C12.0029141,0.908656842 12.0000078,0.908656842 12.0000078,0.908656842 L12.0000078,0.908656842 L12.0000078,0.908656842 L12.0000078,0.908703717 Z M12.7009614,6.24236344 L12.7009614,6.32025411 C12.7009614,6.42409793 12.7874927,6.46736359 12.8971178,6.43851982 L13.107696,6.3692854 C13.673087,6.1875509 14.1548217,5.87889445 14.5384626,5.47505044 L14.5384626,5.47505044 C14.7894315,5.20678464 14.9942285,4.88947193 15.1355724,4.54044046 L15.141338,4.52025294 C15.1817286,4.4106435 15.141338,4.33275282 14.9884473,4.33851845 C14.8211346,4.3414247 14.6596033,4.35583096 14.5009469,4.3817841 L14.5211345,4.37887785 C14.0999779,4.44522164 13.7278683,4.61542488 13.4221025,4.86637817 L13.4250087,4.86347192 C13.2201961,5.0278939 13.0500085,5.2269409 12.9259772,5.45194105 L12.9202115,5.46059731 C12.7961802,5.67983182 12.7125239,5.93656636 12.6894458,6.21348842 L12.6894458,6.21925405 L12.700977,6.24233219 L12.7009614,6.24236344 Z M9.12980282,4.34428408 L9.025959,4.34428408 C8.9076933,4.34428408 8.84134951,4.41928413 8.88170891,4.51159669 C8.9451777,4.6789093 9.00574024,4.81448751 9.07209966,4.94428447 L9.0605684,4.92120633 C9.24230289,5.25294092 9.48172492,5.53273798 9.77306886,5.74909749 L9.77883449,5.75486312 C9.89710019,5.84428505 10.0211471,5.93659761 10.1480691,6.01736329 C10.4192255,6.18178527 10.7336476,6.31447286 11.0682572,6.39812917 L11.0913353,6.40389479 C11.209601,6.43273856 11.2932574,6.40389479 11.296148,6.27986346 C11.2990386,6.15583213 11.296148,6.16447276 11.296148,6.10678523 C11.2788355,5.85005068 11.2009448,5.61351928 11.0798041,5.40581602 L11.0827103,5.41158165 C10.8894446,5.0711908 10.6096319,4.79715937 10.2721317,4.61831551 L10.2606004,4.61254988 C9.93463147,4.44236227 9.54809997,4.34139345 9.13849032,4.34139345 C9.13849032,4.34139345 9.1327247,4.34139345 9.12983407,4.3442997 L9.12983407,4.3442997 L9.12983407,4.3442997 L9.12980282,4.34428408 Z M12.0000078,2.93945504 C11.9826953,2.93945504 11.9625078,2.93654879 11.9423203,2.93654879 C11.5038512,2.93654879 11.1403979,3.271174 11.0971322,3.69808053 L11.0971322,3.70098678 C11.1663666,4.14233082 11.5413669,4.47406541 11.9971328,4.47406541 C12.4528987,4.47406541 12.827899,4.13944019 12.8971334,3.70387741 L12.8971334,3.69811178 C12.8509771,3.265424 12.4875238,2.93367378 12.0490547,2.93367378 C12.0317422,2.93943941 12.0144453,2.93943941 12.0000234,2.93943941 L12.0000234,2.93943941 L12.0000234,2.93943941 L12.0000078,2.93945504 Z" id="Shape"></path>
            <path d="M17.6913553,3.55964294 L17.6913553,4.20290899 C20.518279,4.83751877 22.3875146,5.93367574 22.3875146,7.18272343 C22.3875146,8.50098991 20.2961538,9.64330315 17.1894174,10.2634911 L17.1894174,10.8865852 C21.2192326,10.2260067 24,8.81542761 24,7.19427031 C24,5.61350365 21.4355765,4.25195589 17.691324,3.55964294 L17.691324,3.55964294 L17.6913553,3.55964294 Z" id="Path"></path>
            <path d="M8.02214585,10.5375537 L5.51250359,8.04236461 L5.2961597,9.89139706 C3.04904886,9.23947477 1.60384479,8.25005225 1.60384479,7.17984842 C1.60384479,5.94811325 3.47595539,4.83751877 6.3000041,4.20003398 L6.3000041,3.55676794 C2.56442354,4.25195589 -8.88178998e-16,5.61350365 -8.88178998e-16,7.18275468 C-8.88178998e-16,8.59044309 2.05097009,9.8279439 5.21540965,10.5664131 L5.02790952,12.0750704 L8.02214585,10.5375694 L8.02214585,10.5375537 Z" id="Path"></path>
            <path d="M16.5201983,8.97986522 C16.1913543,8.97986522 15.9201979,8.68852128 15.9201979,8.33083355 C15.9201979,7.97314582 16.1884637,7.68180188 16.5201983,7.68180188 C16.8519328,7.68180188 17.1201986,7.97314582 17.1201986,8.33083355 C17.1201986,8.68852128 16.8519328,8.97986522 16.5201983,8.97986522 Z M16.5201983,7.92986454 C16.3269325,7.92986454 16.1682762,8.11159903 16.1682762,8.33083355 C16.1682762,8.55006807 16.3269325,8.73180256 16.5201983,8.73180256 C16.713464,8.73180256 16.8721204,8.55006807 16.8721204,8.33083355 C16.8721204,8.11159903 16.7163546,7.92986454 16.5201983,7.92986454 Z" id="Shape"></path>
        </g>
    </g>
</svg>
