
<svg width="24px" height="14px" viewBox="0 0 24 14" version="1.1" xmlns="http://www.w3.org/2000/svg" xmlns:xlink="http://www.w3.org/1999/xlink">
    <g id="Page-1" stroke="none" stroke-width="1" fill="none" fill-rule="evenodd">
        <g id="three-sixty-interior-rear" fill="#000000" fill-rule="nonzero">
            <path d="M9.88850644,4.6441749 L9.88850644,4.6441749 C9.96927212,4.6470499 10.0615691,4.6470499 10.153866,4.6470499 C10.3817568,4.6470499 10.6067569,4.63842489 10.8288664,4.62109676 L10.8000383,4.62397176 C10.921179,4.58356548 11.0134915,4.48262792 11.0423197,4.35861221 L11.0423197,4.35573721 C11.0423197,4.01533074 10.9932884,3.67498677 10.9817103,3.3345803 C10.9817103,3.1124239 10.8778665,3.01150196 10.6586319,3.01437696 L9.13264657,3.00283008 C8.93070894,3.00283008 8.82400574,3.08068951 8.82113074,3.29126777 C8.82113074,3.64317425 8.7894276,4.00092448 8.76052133,4.35283096 C8.74031819,4.57784673 8.84708388,4.64126865 9.05189652,4.63264364 C9.3345842,4.64419052 9.61150626,4.64419052 9.88842831,4.64419052 L9.88842831,4.64419052 L9.88850644,4.6441749 Z" id="Path"></path>
            <path d="M8.71736505,5.07395643 C8.65100563,5.44031604 8.62792749,5.81242566 8.58464621,6.20762904 L11.2586792,6.20762904 C11.2096479,5.79798815 11.1808198,5.43169104 11.1057729,5.06245642 C11.1057729,4.984597 10.9297727,4.8807063 10.8346008,4.8807063 C10.2115066,4.8807063 9.60286563,4.8807063 8.97114647,4.8807063 C8.86150577,4.89803444 8.76633383,4.97301886 8.71730255,5.07395643 L8.71730255,5.07395643 L8.71730255,5.07395643 L8.71736505,5.07395643 Z" id="Path"></path>
            <path d="M9.34622483,1.27206333 C9.69813131,1.27206333 10.0558815,1.27206333 10.407788,1.27206333 C10.7596945,1.27206333 10.8808352,1.11915698 10.8837571,0.784563011 C10.8837571,0.0720469219 10.8578039,0.0345781475 10.1452879,0.0374531494 L9.38661549,0.0374531494 C8.94814645,0.0374531494 8.89336516,0.103812568 8.89049016,0.553781611 C8.89049016,0.640344167 8.89049016,0.729781725 8.89049016,0.816266156 C8.88186516,1.12778198 9.026084,1.28068833 9.34628733,1.27206333 L9.34628733,1.27206333 L9.34622483,1.27206333 Z" id="Path"></path>
            <path d="M16.5144639,6.41242605 C16.5144639,6.40380104 16.5144639,6.39222291 16.5144639,6.38359791 C16.5144639,6.18166027 16.3500419,6.01723829 16.1481043,6.01723829 C16.1134792,6.01723829 16.0817448,6.0229883 16.0500417,6.03169143 L16.0529167,6.03169143 C15.7875572,6.14708213 15.5596664,6.28553534 15.3519631,6.44708232 L15.3577131,6.44133232 L12.8048208,6.44133232 L12.3951799,6.08942584 L12.3951799,5.96250388 C12.4644144,5.02790952 12.5422738,4.10769017 12.5971176,3.19040833 C12.5971176,2.88753313 12.7211333,2.76059555 13.0327116,2.78076744 C13.5749932,2.78076744 14.1202279,2.78076744 14.6741033,2.78076744 C15.2279787,2.78076744 15.1760724,2.80672058 15.2106349,3.28559589 C15.2769943,4.17692459 15.3635413,5.0654408 15.4471663,6.0288633 C15.7558071,5.87019132 16.1077292,5.7980819 16.1942762,5.61922241 C16.2259793,5.48362857 16.2461825,5.33078472 16.2461825,5.17212837 C16.2461825,5.01347201 16.2288543,4.86061254 16.1914012,4.71058119 L16.1942762,4.72503433 C16.1942762,4.55197171 16.1192917,4.38175285 16.0904324,4.20292461 C15.9750417,3.53367418 15.8567759,2.86156436 15.7587134,2.1894233 C15.7500884,1.77978241 15.4154319,1.45095407 15.002916,1.45095407 C14.9798379,1.45095407 14.9567597,1.45095407 14.9336816,1.45382907 L14.9365566,1.45382907 C14.2558062,1.45382907 13.5692432,1.45382907 12.8856178,1.45382907 C12.323133,1.45382907 12.0663985,1.73364175 12.0115547,2.27304835 C11.9827266,2.57592355 11.9365703,2.87881437 11.893289,3.17881457 C11.8413827,2.8470956 11.7836483,2.51531414 11.734617,2.18073579 C11.728867,1.77398553 11.3971012,1.44514157 10.9875072,1.44514157 C10.961554,1.44514157 10.9356009,1.44514157 10.9096477,1.44801657 L10.9125227,1.44801657 C10.2317723,1.44801657 9.54520934,1.44801657 8.86158389,1.44801657 C8.29909915,1.44801657 8.04236461,1.73070425 7.98752083,2.26723585 C7.93267704,2.80376745 7.84042698,3.34317405 7.77119256,3.87972128 C7.70195814,4.4162685 7.62409871,4.94990947 7.57794243,5.4922067 C7.58948932,5.61912866 7.65580186,5.7258631 7.75394255,5.7950819 L7.75394255,5.7950819 C7.92994266,5.86144132 8.13761467,5.9190976 8.35108356,5.95375388 L8.3684117,5.95662888 C8.43764612,5.02203452 8.51550554,4.10181517 8.57034933,3.18453332 C8.57034933,2.88165813 8.69436504,2.77489243 9.00594336,2.77489243 C9.54822497,2.77489243 10.0934597,2.77489243 10.6473351,2.77489243 C11.2012104,2.77489243 11.1493041,2.80084557 11.1838667,3.27972089 C11.2502261,4.16240896 11.336773,5.04511266 11.4203981,5.99703515 L11.4203981,6.11242585 L11.1261479,6.44414482 L8.25303662,6.44414482 C8.23858349,6.19892591 8.03670836,6.00567578 7.79148945,6.00567578 C7.73670816,6.00567578 7.68184875,6.01430079 7.63281747,6.03450393 L7.63569247,6.03450393 C7.26358285,6.10948835 7.28378599,6.40661355 7.28378599,6.69217623 C7.28378599,6.97486392 7.28378599,7.17105154 7.28378599,7.41333295 C7.28378599,7.42487983 7.28091099,7.4421611 7.28091099,7.45661423 C7.28091099,7.70758314 7.48572362,7.9124114 7.73670816,7.9124114 C7.7511613,7.9124114 7.76553631,7.9124114 7.78286444,7.9095364 L7.77998944,7.9095364 C9.1818966,7.9095364 10.5896163,7.9095364 11.9944141,7.88070826 L11.9944141,7.88070826 L15.9953698,7.85475511 C16.0299948,7.86338012 16.0674792,7.86920825 16.1050105,7.86920825 C16.3271669,7.86920825 16.5088389,7.69320813 16.5146514,7.47402049 L16.5146514,7.47402049 C16.5232764,7.31534851 16.5291045,7.13073902 16.5291045,6.9461139 C16.5291045,6.76148878 16.5233545,6.57400428 16.5117764,6.39225416 L16.5146514,6.4124573 L16.5144639,6.41242605 Z" id="Path"></path>
            <path d="M13.8923528,4.61533113 L13.8923528,4.61533113 C14.0279466,4.62395614 14.186603,4.62687801 14.34815,4.62687801 C14.5096969,4.62687801 14.6683533,4.62112801 14.824119,4.61242488 L14.8010409,4.61242488 C14.9221816,4.5691436 15.0116191,4.46820603 15.0433223,4.34412783 L15.0433223,4.34125283 C15.0433223,4.00373698 14.994291,3.66337739 14.9827129,3.32297091 C14.9827129,3.10081452 14.8788691,2.99989258 14.6596345,2.99989258 C14.1519311,2.99989258 13.6413526,2.99989258 13.1423523,2.99989258 C12.9404147,2.99989258 12.8337115,3.077752 12.8308365,3.29126777 C12.8308365,3.64317425 12.8106333,3.99798698 12.7702271,4.34997158 C12.7702271,4.57498735 12.8567896,4.64134677 13.0616023,4.63265927 C13.3385243,4.61245613 13.615462,4.61820613 13.892384,4.61533113 L13.892384,4.61533113 L13.8923528,4.61533113 Z" id="Path"></path>
            <path d="M12.7154614,5.05381579 C12.649102,5.42305041 12.6260238,5.79517565 12.5827426,6.1874884 L15.2567756,6.1874884 C15.2077443,5.77784751 15.1789161,5.4115504 15.1038692,5.04806579 C15.1038692,4.97020636 14.9278691,4.86631567 14.8326972,4.86344067 C14.209603,4.86344067 13.600962,4.86344067 12.9692428,4.86344067 C12.8596021,4.8836438 12.7644302,4.95287822 12.7153989,5.05381579 L12.7153989,5.05381579 L12.7153989,5.05381579 L12.7154614,5.05381579 Z" id="Path"></path>
            <path d="M13.3500556,1.24611019 C13.701962,1.24611019 14.0597123,1.24611019 14.4116188,1.24611019 C14.7635252,1.24611019 14.8702909,1.08743821 14.8702909,0.749984863 C14.8702909,0.0317031456 14.8443378,1.11022375e-16 14.1318217,1.11022375e-16 L13.3904618,1.11022375e-16 C12.9519928,1.11022375e-16 12.8972115,0.0663594182 12.8943365,0.516328461 C12.8943365,0.602891018 12.8943365,0.692328576 12.8943365,0.778813007 C12.8857115,1.10476634 13.0299304,1.25478207 13.3501337,1.24611019 L13.3501337,1.24611019 L13.3500556,1.24611019 Z" id="Path"></path>
            <path d="M5.2932847,10.9239759 C3.04614261,10.2720536 1.60096979,9.28258417 1.60096979,8.2124116 C1.60096979,6.98067642 3.47312726,5.87009757 6.29711347,5.23261278 L6.29711347,4.58931549 C2.56437667,5.28739407 8.88178998e-16,6.64608245 8.88178998e-16,8.21239597 C8.88178998e-16,9.62013126 2.05093884,10.8576008 5.2154409,11.5960857 L5.02794077,13.1104929 L8.00773959,11.5701325 L5.50961296,9.07494341 L5.2932847,10.9240227 L5.2932847,10.9239759 Z" id="Path"></path>
            <path d="M10.1019597,11.4461168 C10.1856629,11.4144137 10.2577411,11.3768824 10.3241161,11.3336011 L10.3212411,11.3364761 C10.3847255,11.2903199 10.4395068,11.2355386 10.4827881,11.1691791 L10.4827881,11.1663041 C10.5289444,11.1028197 10.5635538,11.0278353 10.5837256,10.9470853 L10.5837256,10.9413352 C10.6039288,10.8547727 10.6154288,10.7509601 10.6154288,10.6470851 C10.6154288,10.6442101 10.6154288,10.6384601 10.6154288,10.6355382 L10.6154288,10.6355382 C10.6154288,10.6297882 10.6154288,10.6239913 10.6154288,10.61821 C10.6154288,10.4912881 10.5894756,10.3729911 10.5433194,10.2634129 L10.5461944,10.2691629 C10.5000381,10.1537722 10.4365537,10.0557097 10.3586942,9.97491274 L10.3586942,9.97491274 C10.2721317,9.89120956 10.1683191,9.8249439 10.0529284,9.78166262 L10.0471784,9.77878762 C9.92891271,9.73550634 9.7933345,9.7095532 9.65199066,9.7095532 C9.64624066,9.7095532 9.64044378,9.7095532 9.63753752,9.7095532 L9.63753752,9.7095532 C9.63466252,9.7095532 9.62891252,9.7095532 9.62308439,9.7095532 C9.48174055,9.7095532 9.34327171,9.73263134 9.21633413,9.77878762 L9.22495913,9.77591261 C9.09513092,9.82206889 8.98555272,9.88842831 8.89036516,9.97499087 L8.89036516,9.97499087 C8.7894276,10.0673034 8.70574004,10.1740691 8.64808376,10.2980692 L8.64520875,10.3038192 C8.58172434,10.4336474 8.53269306,10.5865069 8.51538054,10.7480382 L8.51538054,10.7537883 L8.80963074,10.8114602 L8.88749016,10.8114602 C8.88749016,10.8114602 8.88749016,10.8114602 8.88749016,10.8114602 C8.93364644,10.8114602 8.97692772,10.797007 9.00863086,10.7710539 L9.00863086,10.7710539 C9.04616214,10.7364289 9.07211528,10.6902882 9.08074029,10.6383351 L9.08074029,10.63546 C9.11536531,10.5171943 9.17880285,10.4162412 9.26536541,10.3354599 L9.26536541,10.3354599 C9.35192796,10.2633504 9.46444366,10.2200692 9.58556874,10.2200692 C9.58844374,10.2200692 9.59419375,10.2200692 9.59711562,10.2200692 L9.59711562,10.2200692 C9.60286563,10.2200692 9.61156876,10.2200692 9.62019376,10.2200692 C9.74711572,10.2200692 9.85960017,10.2691004 9.9432721,10.352788 L9.9432721,10.352788 C10.0240378,10.4451006 10.0731003,10.5662413 10.0731003,10.6989445 C10.0731003,10.7133976 10.0731003,10.7277726 10.0702253,10.7393507 L10.0702253,10.7364757 C10.0702253,10.7422257 10.0702253,10.7480226 10.0702253,10.7538039 C10.0702253,10.8259133 10.0586784,10.8980227 10.0413972,10.9643821 L10.0413972,10.9586321 C10.015444,11.0249916 9.97791275,11.0826478 9.92600646,11.1259291 L9.92600646,11.1259291 C9.86539705,11.1778354 9.79328763,11.2182417 9.7125532,11.2355698 L9.7096782,11.2355698 C9.61736564,11.261523 9.51353744,11.2759761 9.40391237,11.2759761 C9.39236549,11.2759761 9.37795923,11.2759761 9.3663811,11.2759761 L9.3692561,11.2759761 L9.3692561,11.7144451 C9.38370923,11.7144451 9.39808424,11.7144451 9.41541238,11.7144451 C9.54524059,11.7144451 9.67214692,11.7317733 9.790397,11.7634764 L9.77885012,11.7606014 C9.86541267,11.7808045 9.9432721,11.8212108 10.0038659,11.8759921 L10.0038659,11.8759921 C10.0557722,11.9221484 10.0933034,11.9856328 10.1106472,12.0548516 L10.1106472,12.0577266 C10.1251003,12.124086 10.1366003,12.2019454 10.1366003,12.2827424 C10.1366003,12.2884924 10.1366003,12.2913674 10.1366003,12.2971955 L10.1366003,12.2971955 C10.1366003,12.3693049 10.1221472,12.4385393 10.0990691,12.5020081 L10.0990691,12.4991331 C10.0500378,12.640477 9.94910023,12.7529771 9.81925639,12.8135865 L9.81638139,12.8135865 C9.74714697,12.8452896 9.66641254,12.8626177 9.58272499,12.8626177 C9.57697499,12.8626177 9.57117811,12.8626177 9.56539685,12.8626177 L9.56539685,12.8626177 C9.55964685,12.8626177 9.55384997,12.8626177 9.55094372,12.8626177 C9.4788343,12.8626177 9.40959988,12.8481646 9.34613108,12.8193365 L9.34900609,12.8193365 C9.28552167,12.7933833 9.23361539,12.7587271 9.19033411,12.7125552 L9.19033411,12.7125552 C9.14705283,12.6692739 9.10956843,12.6202426 9.07781841,12.5683363 L9.07494341,12.5654613 C9.04611526,12.519305 9.0172715,12.4616175 8.98838085,12.4039143 L8.98263085,12.3923674 C8.96817771,12.3577424 8.94222457,12.328883 8.91052143,12.3116018 L8.91052143,12.3116018 C8.88169328,12.2971486 8.84703701,12.2856486 8.81245886,12.2856486 C8.81245886,12.2856486 8.80958386,12.2856486 8.80958386,12.2856486 L8.80958386,12.2856486 C8.80958386,12.2856486 8.80670886,12.2856486 8.80670886,12.2856486 C8.76055258,12.2856486 8.7143963,12.2971955 8.67688065,12.3144768 L8.67975565,12.3144768 L8.43453674,12.4241175 C8.47781802,12.5798988 8.53547431,12.7183677 8.60470873,12.8452584 L8.59895872,12.8337115 C8.65956814,12.9491022 8.73742756,13.0471647 8.8268495,13.1337117 L8.8268495,13.1337117 C8.91628705,13.2115711 9.02299025,13.2721805 9.14130283,13.3125712 L9.14705283,13.3154462 C9.27688104,13.3587274 9.42397489,13.3846806 9.57686561,13.3846806 C9.72975633,13.3846806 9.87974081,13.3587274 10.0182096,13.3125712 L10.0095846,13.3154462 C10.1480535,13.2664149 10.2663192,13.1943055 10.3672567,13.1019929 L10.3672567,13.1019929 C10.4681943,13.0068053 10.5518819,12.8914146 10.6066632,12.7644771 L10.6095382,12.7587271 C10.6672101,12.6260082 10.6989757,12.4702894 10.6989757,12.3058361 C10.6989757,12.2972111 10.6989757,12.288508 10.6989757,12.279883 L10.6989757,12.279883 C10.6989757,12.2683361 10.6989757,12.2539299 10.6989757,12.2394767 C10.6989757,12.0606172 10.6441944,11.8933202 10.5518819,11.7519764 L10.5547569,11.7548514 C10.4422412,11.6048826 10.2864598,11.4952419 10.1047878,11.4433356 L10.1019128,11.4462106 L10.1019597,11.4461168 Z" id="Path"></path>
            <path d="M13.0298366,11.371148 C12.9461334,11.2817105 12.8423365,11.212476 12.7269614,11.1692104 L12.7212114,11.1663354 C12.6144301,11.1259291 12.49043,11.099976 12.3606174,11.099976 C12.2769142,11.099976 12.1933204,11.1115229 12.1125235,11.1288041 L12.1182735,11.1259291 C12.0404141,11.1490073 11.9711797,11.1749604 11.9076953,11.2096323 L11.9134453,11.2067573 L11.9653515,11.1317729 L12.025961,11.0510072 L13.0067116,9.75292822 L12.5047425,9.75292822 C12.5018675,9.75292822 12.4989925,9.75292822 12.4961175,9.75292822 C12.4326331,9.75292822 12.3749768,9.76738136 12.3230549,9.7962095 L12.3259299,9.7962095 C12.2797736,9.82216264 12.2393673,9.85681892 12.2076642,9.89714707 L12.2076642,9.89714707 L11.4287887,11.0510228 C11.313398,11.2154448 11.2153354,11.4029293 11.143226,11.6048826 L11.137476,11.6222107 C11.0798041,11.777992 11.0451634,11.9568047 11.0422884,12.1414142 L11.0422884,12.1414142 C11.0422884,12.1500392 11.0422884,12.1587423 11.0422884,12.1702423 C11.0422884,12.3462424 11.0711166,12.5135238 11.1230541,12.6722114 L11.1201791,12.6606645 C11.1692104,12.8193365 11.2471011,12.9549147 11.3480699,13.0731804 L11.3480699,13.0703054 C11.4461325,13.1799461 11.5643982,13.2664461 11.6971014,13.3270399 L11.7028514,13.3299149 C11.8384452,13.3905243 11.9942266,13.4251025 12.1586485,13.4251025 C12.1643985,13.4251025 12.1701954,13.4251025 12.1731017,13.4251025 L12.1731017,13.4251025 C12.1759767,13.4251025 12.1788517,13.4251025 12.1817267,13.4251025 C12.3490237,13.4251025 12.50768,13.3904775 12.6518989,13.3270399 L12.6432739,13.3299149 C12.7874927,13.2635555 12.9086334,13.1770086 13.0067585,13.0674304 L13.0067585,13.0674304 C13.107696,12.9606491 13.1885086,12.833774 13.2375399,12.6924458 L13.2404149,12.6838208 C13.2923212,12.5424769 13.324118,12.3809456 13.324118,12.2107736 C13.324118,12.0406016 13.2924149,11.8790546 13.2375555,11.7290233 L13.2404305,11.7376483 C13.1971492,11.5963044 13.1250398,11.4722887 13.0298522,11.3712887 L13.0298522,11.3712887 L13.0298522,11.3712887 L13.0298366,11.371148 Z M12.7212114,12.4874925 C12.6923833,12.5682582 12.649102,12.6374614 12.5971957,12.6980708 L12.5971957,12.6980708 C12.5481644,12.7615552 12.48468,12.8134615 12.4125706,12.8480396 L12.4096956,12.8480396 C12.3404612,12.8797428 12.2567892,12.8970709 12.1731642,12.8970709 C12.1702892,12.8970709 12.1674142,12.8970709 12.1645392,12.8970709 L12.1645392,12.8970709 C12.1616642,12.8970709 12.1559142,12.8970709 12.150086,12.8970709 C12.0635235,12.8970709 11.9827891,12.8797428 11.9106796,12.8451646 L11.9135546,12.8480396 C11.8414452,12.8163365 11.7779608,12.7701802 11.7289295,12.7124458 L11.7289295,12.7124458 C11.6798982,12.6547739 11.642367,12.5826176 11.6192888,12.5076331 L11.6192888,12.5047581 C11.5962107,12.4268987 11.5817575,12.3345862 11.5817575,12.2422736 C11.5817575,12.2365236 11.5817575,12.2336486 11.5817575,12.2278205 L11.5817575,12.2278205 C11.5817575,12.2249455 11.5817575,12.2220705 11.5817575,12.2191955 C11.5817575,12.1297579 11.5962107,12.0431953 11.6250388,11.9653515 L11.6221638,11.9711015 C11.6711951,11.8153202 11.7837108,11.6912889 11.925039,11.6249451 L11.927914,11.6220701 C11.9971484,11.5903669 12.0778829,11.5730388 12.1615704,11.5730388 C12.1644454,11.5730388 12.1673204,11.5730388 12.1701954,11.5730388 L12.1701954,11.5730388 C12.256758,11.5730388 12.3374924,11.5903669 12.4124768,11.6191951 L12.4067268,11.6163201 C12.4817113,11.6480232 12.5423207,11.6913045 12.5942269,11.7461483 L12.5942269,11.7461483 C12.6461332,11.8038202 12.6894145,11.8730702 12.7153677,11.9509609 L12.7153677,11.9538359 C12.7413208,12.0316953 12.7557739,12.1211329 12.7557739,12.2163205 C12.7557739,12.2220705 12.7557739,12.2278673 12.7557739,12.2336486 L12.7557739,12.2336486 C12.7557739,12.2393986 12.7557739,12.2422736 12.7557739,12.2481017 C12.7557739,12.3318049 12.7413208,12.4125237 12.7124927,12.4875081 L12.7211177,12.4875081 L12.7212114,12.4874925 Z" id="Shape"></path>
            <path d="M15.6404789,10.1566629 C15.5424164,10.015319 15.4154632,9.89992832 15.2654943,9.82206889 L15.2597443,9.81919389 C15.1212755,9.74995947 14.9597441,9.7095532 14.7895721,9.7095532 C14.7866971,9.7095532 14.7866971,9.7095532 14.7838221,9.7095532 L14.7838221,9.7095532 C14.7780721,9.7095532 14.7722752,9.7095532 14.766494,9.7095532 C14.4203375,9.7095532 14.1145717,9.88555331 13.9328372,10.1537722 L13.9299622,10.1566472 C13.8174465,10.3210692 13.7280246,10.5114443 13.6789933,10.719132 L13.6761183,10.7306789 C13.6184464,10.9643353 13.5866807,11.2326479 13.5866807,11.5066169 C13.5866807,11.52107 13.5866807,11.53832 13.5866807,11.5527731 L13.5866807,11.5498981 C13.5866807,11.561445 13.5866807,11.5729763 13.5866807,11.5874294 C13.5866807,11.8643515 13.6183839,12.1355548 13.6818683,12.3951331 L13.6761183,12.3720549 C13.7280246,12.5883832 13.8145871,12.7788052 13.9328528,12.9489928 L13.9299778,12.9432428 C14.0280404,13.0845866 14.1549936,13.1999773 14.3020874,13.2807586 L14.3078374,13.2836336 C14.4434313,13.3528681 14.6049626,13.3932743 14.7751346,13.3932743 C14.7780096,13.3932743 14.7808846,13.3932743 14.7837596,13.3932743 L14.7837596,13.3932743 C14.7866346,13.3932743 14.7866346,13.3932743 14.7895096,13.3932743 C14.9596816,13.3932743 15.1241036,13.3528681 15.2654787,13.2807586 L15.2597287,13.2836336 C15.41551,13.202868 15.5452914,13.0874929 15.6375883,12.9461178 L15.6404633,12.9432428 C15.755854,12.7816958 15.8424009,12.5913363 15.8914322,12.3836331 L15.8943072,12.3720862 C15.9549166,12.1384298 15.9894948,11.873039 15.9894948,11.5961482 C15.9894948,11.581695 15.9894948,11.564445 15.9894948,11.5499919 L15.9894948,11.5528669 C15.9894948,11.5384138 15.9894948,11.5182419 15.9894948,11.5009606 C15.9894948,11.2269136 15.9548698,10.961554 15.8885572,10.7105695 L15.8943072,10.7336476 C15.8424009,10.5144287 15.7529634,10.3240067 15.6375727,10.1538347 L15.6404477,10.1567097 L15.6404789,10.1566629 Z M15.3548381,12.2076798 C15.328885,12.3605862 15.2798537,12.499055 15.2106193,12.6259457 L15.2134943,12.6201957 C15.167338,12.7096333 15.0981036,12.7817427 15.014416,12.833649 L15.011541,12.833649 C14.9451816,12.8711803 14.8644472,12.8942584 14.7778846,12.8942584 C14.6913221,12.8942584 14.6105876,12.8711803 14.5413532,12.830774 L14.5442282,12.830774 C14.460525,12.7788677 14.3942594,12.7067583 14.3480875,12.6201957 L14.3480875,12.6173207 C14.284603,12.499055 14.2355718,12.3605862 14.2096186,12.216383 L14.2096186,12.2077579 C14.1779155,12.0288985 14.1605873,11.8270077 14.1605873,11.6164138 C14.1605873,11.5962107 14.1605873,11.5760075 14.1605873,11.5558044 L14.1605873,11.5586794 C14.1605873,11.5413513 14.1605873,11.5211481 14.1605873,11.5010075 C14.1605873,11.2933042 14.1779155,11.0913666 14.2124936,10.8923665 L14.2096186,10.9125696 C14.2384468,10.7596633 14.2874781,10.6211944 14.3538375,10.4943037 L14.3509625,10.5029287 C14.3971187,10.4134912 14.4634782,10.3413817 14.5442126,10.2894754 L14.5470876,10.2894754 C14.613447,10.2519442 14.6941814,10.228866 14.780744,10.228866 C14.8673066,10.228866 14.948041,10.2519442 15.0172754,10.2923505 L15.0144004,10.2923505 C15.100963,10.3442567 15.1701818,10.4163662 15.2134787,10.5029287 L15.2134787,10.5058037 C15.2769631,10.6240694 15.3259944,10.7625383 15.3519475,10.9067415 L15.3519475,10.9153665 C15.3865725,11.0884291 15.4067288,11.2903511 15.4067288,11.4923044 C15.4067288,11.5153825 15.4067288,11.5384606 15.4067288,11.5615388 L15.4067288,11.5586638 C15.4067288,11.5759919 15.4067288,11.5932888 15.4067288,11.6134451 C15.4067288,11.8182577 15.3865256,12.0201953 15.3490569,12.2134611 L15.3519319,12.1932579 L15.3548069,12.2077111 L15.3548381,12.2076798 Z" id="Shape"></path>
            <path d="M17.6914021,4.58937799 L17.6914021,5.23267528 C20.5183571,5.87309757 22.3875458,6.96347328 22.3875458,8.2124741 C22.3875458,9.5307562 20.2962007,10.6730538 17.1894331,11.2932886 L17.1894331,11.9163828 C21.2192638,11.2558198 24,9.84524078 24,8.22406785 C24,6.6461762 21.4355921,5.28753469 17.6912928,4.58937799 L17.6912928,4.58937799 L17.6914021,4.58937799 Z" id="Path"></path>
            <path d="M16.520292,10.416288 C16.1914637,10.416288 15.920276,10.1249128 15.920276,9.76724073 C15.920276,9.40956863 16.188573,9.11819344 16.520292,9.11819344 C16.852011,9.11819344 17.120308,9.40956863 17.120308,9.76724073 C17.120308,10.1249128 16.852011,10.416288 16.520292,10.416288 Z M16.520292,9.36627172 C16.3270419,9.36627172 16.1683855,9.54802184 16.1683855,9.76720948 C16.1683855,9.98936588 16.3270575,10.1681472 16.520292,10.1681472 C16.7135265,10.1681472 16.8721985,9.98639713 16.8721985,9.76720948 C16.8750735,9.54505309 16.7164171,9.36627172 16.520292,9.36627172 Z" id="Shape"></path>
        </g>
    </g>
</svg>
