<!-- Generated by IcoMoon.io -->
<svg version="1.1" xmlns="http://www.w3.org/2000/svg" width="16" height="16" viewBox="0 0 16 16">
<title>three-dots-vertical</title>
<path fill="#4a4a4a" d="M5.857 2.643c0-1.183 0.959-2.143 2.143-2.143s2.143 0.959 2.143 2.143c0 1.183-0.959 2.143-2.143 2.143s-2.143-0.959-2.143-2.143zM5.857 8c0-1.183 0.959-2.143 2.143-2.143s2.143 0.959 2.143 2.143c0 1.183-0.959 2.143-2.143 2.143s-2.143-0.959-2.143-2.143zM5.857 13.357c0-1.183 0.959-2.143 2.143-2.143s2.143 0.959 2.143 2.143c0 1.183-0.959 2.143-2.143 2.143s-2.143-0.959-2.143-2.143z"></path>
</svg>
