<!-- Generated by IcoMoon.io -->
<svg version="1.1" xmlns="http://www.w3.org/2000/svg" width="16" height="16" viewBox="0 0 16 16">
<title>thumbs-down</title>
<path fill="#4a4a4a" d="M15.643 7.308c-0.302-1.61-0.714-3.693-1.006-5.102s-1.187-1.469-2.647-1.469c-2.423 0.144-4.69 0.55-6.856 1.192l0.214-0.054c-0.322 0.095-0.553 0.388-0.553 0.735v0c0 1.268 0 4.297 0 5.515-0 0.006-0 0.012-0 0.019 0 0.293 0.171 0.545 0.418 0.663l0.004 0.002c2.274 1.047 3.452 4.8 3.874 5.807s2.466 0.865 2.244-0.574c-0.111-0.795-0.282-1.771-0.392-3.15-0.081-0.805 0.060-1.318 0.443-1.288 0.459 0.053 0.991 0.083 1.53 0.083 0.28 0 0.557-0.008 0.833-0.024l-0.038 0.002c1.509-0.081 2.304-0.624 1.932-2.355z"></path>
<path fill="#4a4a4a" d="M3.99 8.203v-5.927c-0.016-0.17-0.158-0.303-0.331-0.303-0.008 0-0.015 0-0.022 0.001l0.001-0h-3.019c-0.006-0-0.014-0.001-0.021-0.001-0.173 0-0.315 0.132-0.331 0.301l-0 0.001v5.927c0.016 0.17 0.158 0.303 0.331 0.303 0.008 0 0.015-0 0.022-0.001l-0.001 0h3.019c0.006 0 0.014 0.001 0.021 0.001 0.173 0 0.315-0.132 0.331-0.301l0-0.001z"></path>
</svg>
