<!-- Generated by IcoMoon.io -->
<svg version="1.1" xmlns="http://www.w3.org/2000/svg" width="16" height="16" viewBox="0 0 16 16">
<title>thumbs-up</title>
<path fill="#4a4a4a" d="M13.742 6.336c-0.238-0.014-0.516-0.022-0.796-0.022-0.54 0-1.073 0.030-1.597 0.089l0.064-0.006c-0.373 0-0.524-0.484-0.444-1.28 0.121-1.391 0.282-2.369 0.393-3.165 0.232-1.442-1.804-1.683-2.248-0.575s-1.603 4.808-3.861 5.857c-0.252 0.12-0.424 0.373-0.424 0.666 0 0.007 0 0.013 0 0.020l-0-0.001c0 1.22 0 4.254 0 5.524 0.004 0.346 0.234 0.638 0.549 0.734l0.005 0.001c1.965 0.591 4.247 0.997 6.601 1.135l0.082 0.004c1.441 0 2.298-0.111 2.601-1.462s0.736-3.508 1.008-5.121-0.413-2.298-1.935-2.399z"></path>
<path fill="#4a4a4a" d="M3.651 7.535h-3.024c-0.007-0-0.015-0.001-0.022-0.001-0.175 0-0.32 0.132-0.34 0.302l-0 0.002v5.937c0.021 0.171 0.165 0.303 0.34 0.303 0.008 0 0.016-0 0.023-0.001l-0.001 0h3.024c0.007 0 0.015 0.001 0.022 0.001 0.175 0 0.32-0.132 0.34-0.302l0-0.002v-5.937c-0.021-0.171-0.165-0.303-0.34-0.303-0.008 0-0.016 0-0.023 0.001l0.001-0z"></path>
</svg>
