<!-- Generated by IcoMoon.io -->
<svg version="1.1" xmlns="http://www.w3.org/2000/svg" width="16" height="16" viewBox="0 0 16 16">
<title>truck</title>
<path fill="#4a4a4a" d="M15.692 8.481l-1.923-3.846h-2.885v-1.923c0-0.529-0.433-0.962-0.962-0.962h-8.654c-0.529 0-0.962 0.433-0.962 0.962v7.692l0.962 0.962h1.219c-0.164 0.283-0.258 0.611-0.258 0.962 0 1.062 0.861 1.923 1.923 1.923s1.923-0.861 1.923-1.923c0-0.35-0.094-0.679-0.258-0.962h5.324c-0.164 0.283-0.258 0.611-0.258 0.962 0 1.062 0.861 1.923 1.923 1.923s1.923-0.861 1.923-1.923c0-0.35-0.094-0.679-0.258-0.962h1.219v-2.885zM10.885 8.481v-2.885h1.993l1.442 2.885h-3.436z"></path>
</svg>
