<!-- Generated by IcoMoon.io -->
<svg version="1.1" xmlns="http://www.w3.org/2000/svg" width="16" height="16" viewBox="0 0 16 16">
<title>unlink</title>
<path fill="#4a4a4a" d="M6.915 9.872c-0.201 0-0.403-0.077-0.556-0.23-1.439-1.439-1.439-3.78 0-5.219l2.904-2.904c0.697-0.697 1.624-1.081 2.61-1.081s1.913 0.384 2.61 1.081c1.439 1.439 1.439 3.78 0 5.219l-1.327 1.327c-0.307 0.307-0.805 0.307-1.112 0s-0.307-0.805 0-1.112l1.327-1.327c0.826-0.826 0.826-2.169 0-2.995-0.4-0.4-0.932-0.62-1.497-0.62s-1.097 0.22-1.497 0.62l-2.904 2.904c-0.826 0.826-0.826 2.169 0 2.995 0.307 0.307 0.307 0.805 0 1.112-0.154 0.154-0.355 0.23-0.556 0.23z"></path>
<path fill="#4a4a4a" d="M4.128 15.563c-0.986 0-1.913-0.384-2.61-1.081-1.439-1.439-1.439-3.78 0-5.219l1.327-1.327c0.307-0.307 0.805-0.307 1.112 0s0.307 0.805 0 1.112l-1.327 1.327c-0.826 0.826-0.826 2.169 0 2.995 0.4 0.4 0.932 0.62 1.497 0.62s1.097-0.22 1.497-0.62l2.904-2.904c0.826-0.826 0.826-2.169 0-2.995-0.307-0.307-0.307-0.805 0-1.112s0.805-0.307 1.112 0c1.439 1.439 1.439 3.78 0 5.219l-2.904 2.904c-0.697 0.697-1.624 1.081-2.61 1.081z"></path>
<path fill="#4a4a4a" d="M14.292 12.84c-0.124 0-0.248-0.047-0.342-0.142l-1.936-1.936c-0.189-0.189-0.189-0.495 0-0.684s0.495-0.189 0.684 0l1.936 1.936c0.189 0.189 0.189 0.495 0 0.684-0.095 0.095-0.218 0.142-0.342 0.142z"></path>
<path fill="#4a4a4a" d="M15.26 9.936h-1.936c-0.267 0-0.484-0.217-0.484-0.484s0.217-0.484 0.484-0.484h1.936c0.267 0 0.484 0.217 0.484 0.484s-0.217 0.484-0.484 0.484z"></path>
<path fill="#4a4a4a" d="M11.388 13.808c-0.267 0-0.484-0.217-0.484-0.484v-1.936c0-0.267 0.217-0.484 0.484-0.484s0.484 0.217 0.484 0.484v1.936c0 0.267-0.217 0.484-0.484 0.484z"></path>
<path fill="#4a4a4a" d="M2.676 7.032h-1.936c-0.267 0-0.484-0.217-0.484-0.484s0.217-0.484 0.484-0.484h1.936c0.267 0 0.484 0.217 0.484 0.484s-0.217 0.484-0.484 0.484z"></path>
<path fill="#4a4a4a" d="M3.644 6.064c-0.124 0-0.248-0.047-0.342-0.142l-1.936-1.936c-0.189-0.189-0.189-0.495 0-0.684s0.495-0.189 0.684 0l1.936 1.936c0.189 0.189 0.189 0.495 0 0.684-0.095 0.095-0.218 0.142-0.342 0.142z"></path>
<path fill="#4a4a4a" d="M4.612 5.096c-0.267 0-0.484-0.217-0.484-0.484v-1.936c0-0.267 0.217-0.484 0.484-0.484s0.484 0.217 0.484 0.484v1.936c0 0.267-0.217 0.484-0.484 0.484z"></path>
</svg>
