<!-- Generated by IcoMoon.io -->
<svg version="1.1" xmlns="http://www.w3.org/2000/svg" width="16" height="16" viewBox="0 0 16 16">
<title>unlocked</title>
<path fill="#4a4a4a" d="M12.65 0.25c1.709 0 3.1 1.391 3.1 3.1v3.1h-2.067v-3.1c0-0.57-0.464-1.033-1.033-1.033h-2.067c-0.57 0-1.033 0.464-1.033 1.033v3.1h0.258c0.426 0 0.775 0.349 0.775 0.775v7.75c0 0.426-0.349 0.775-0.775 0.775h-8.783c-0.426 0-0.775-0.349-0.775-0.775v-7.75c0-0.426 0.349-0.775 0.775-0.775h6.458v-3.1c0-1.709 1.391-3.1 3.1-3.1h2.067z"></path>
</svg>
