<!-- Generated by IcoMoon.io -->
<svg version="1.1" xmlns="http://www.w3.org/2000/svg" width="16" height="16" viewBox="0 0 16 16">
<title>users</title>
<path fill="#4a4a4a" d="M10.573 11.466v-0.707c0.945-0.532 1.715-1.86 1.715-3.187 0-2.131 0-3.859-2.573-3.859s-2.573 1.728-2.573 3.859c0 1.327 0.771 2.655 1.715 3.187v0.707c-2.909 0.238-5.146 1.667-5.146 3.396h12.007c0-1.728-2.237-3.158-5.146-3.396z"></path>
<path fill="#4a4a4a" d="M4.666 11.797c0.741-0.484 1.663-0.853 2.677-1.078-0.202-0.238-0.385-0.504-0.543-0.791-0.408-0.74-0.623-1.555-0.623-2.357 0-1.153 0-2.242 0.41-3.133 0.398-0.864 1.114-1.4 2.134-1.601-0.227-1.025-0.83-1.699-2.437-1.699-2.573 0-2.573 1.728-2.573 3.859 0 1.327 0.771 2.655 1.715 3.187v0.707c-2.909 0.238-5.146 1.667-5.146 3.396h3.739c0.195-0.173 0.41-0.337 0.646-0.491z"></path>
</svg>
