<!-- Generated by IcoMoon.io -->
<svg version="1.1" xmlns="http://www.w3.org/2000/svg" width="16" height="16" viewBox="0 0 16 16">
<title>user-add</title>
<path fill="#4a4a4a" d="M6.063 11.391c0-2.289 1.451-4.246 3.482-4.998 0.246-0.553 0.393-1.168 0.393-1.783 0-2.408 0-4.359-2.906-4.359s-2.906 1.952-2.906 4.359c0 1.499 0.87 2.999 1.938 3.6v0.799c-3.286 0.269-5.813 1.883-5.813 3.835h6.014c-0.131-0.462-0.201-0.95-0.201-1.453z"></path>
<path fill="#4a4a4a" d="M11.391 7.031c-2.408 0-4.359 1.952-4.359 4.359s1.952 4.359 4.359 4.359c2.408 0 4.359-1.952 4.359-4.359s-1.952-4.359-4.359-4.359zM13.813 11.875h-1.938v1.938h-0.969v-1.938h-1.938v-0.969h1.938v-1.938h0.969v1.938h1.938v0.969z"></path>
</svg>
