<!-- Generated by IcoMoon.io -->
<svg version="1.1" xmlns="http://www.w3.org/2000/svg" width="16" height="16" viewBox="0 0 16 16">
<title>wifi</title>
<path fill="#4a4a4a" d="M8 8.772c1.278 0 2.436 0.52 3.276 1.359l-1.092 1.092c-0.559-0.559-1.332-0.906-2.184-0.906s-1.624 0.347-2.184 0.906l-1.092-1.092c0.839-0.839 1.998-1.359 3.276-1.359zM2.538 7.945c1.459-1.459 3.399-2.262 5.462-2.262s4.003 0.803 5.462 2.262l-1.092 1.092c-1.167-1.167-2.719-1.81-4.369-1.81s-3.202 0.643-4.369 1.81l-1.092-1.092zM12.209 3.443c1.288 0.545 2.444 1.324 3.437 2.317v0l-1.092 1.092c-1.751-1.751-4.078-2.715-6.554-2.715s-4.803 0.964-6.554 2.715l-1.092-1.092c0.993-0.993 2.149-1.772 3.437-2.317 1.334-0.564 2.75-0.85 4.209-0.85s2.876 0.286 4.209 0.85zM7.228 12.634c0-0.427 0.346-0.772 0.772-0.772s0.772 0.346 0.772 0.772c0 0.427-0.346 0.772-0.772 0.772s-0.772-0.346-0.772-0.772z"></path>
</svg>
