<svg xmlns="http://www.w3.org/2000/svg" aria-hidden="true" fill="currentColor" viewBox="0 0 16 16">
  <path d="M8 8.772c1.278 0 2.436.52 3.276 1.359l-1.092 1.092a3.082 3.082 0 00-4.368 0l-1.092-1.092A4.621 4.621 0 018 8.772zm-5.462-.827C3.997 6.486 5.937 5.683 8 5.683s4.003.803 5.462 2.262L12.37 9.037c-1.167-1.167-2.719-1.81-4.369-1.81s-3.202.643-4.369 1.81L2.54 7.945zm9.671-4.502a10.778 10.778 0 013.437 2.317l-1.092 1.092C12.803 5.101 10.476 4.137 8 4.137s-4.803.964-6.554 2.715L.354 5.76A10.778 10.778 0 018 2.593c1.459 0 2.876.286 4.209.85zm-4.981 9.191a.772.772 0 111.544 0 .772.772 0 01-1.544 0z"/>
</svg>
