<svg width="20" height="20" viewBox="0 0 20 20" fill="none" xmlns="http://www.w3.org/2000/svg">
<path d="M3.10764 12.7678L3.26672 14.1326L3.50953 12.9269L5.4604 4.42014H6.74144L8.63369 12.9269L8.8765 14.1661L9.05233 12.7595L10.5427 4.42014H12.0749L9.6468 16.611H8.26529L6.2307 7.7274L6.1051 7.00734L5.97951 7.7274L3.86956 16.611H2.47968L0.0599365 4.42014H1.59216L3.10764 12.7678Z" fill="black"/>
<path d="M19.9905 11.5873C19.9905 13.2507 19.6361 14.5317 18.9272 15.4304C18.2183 16.3291 17.2108 16.7784 15.9046 16.7784C14.6487 16.7784 13.6551 16.343 12.9239 15.4722C12.1982 14.5959 11.8215 13.3595 11.7936 11.7631V9.46895C11.7936 7.83904 12.1536 6.56358 12.8737 5.64257C13.5937 4.71598 14.5985 4.25269 15.8879 4.25269C17.1717 4.25269 18.1709 4.69644 18.8853 5.58396C19.6054 6.4659 19.9738 7.7274 19.9905 9.36847V11.5873ZM18.4583 9.4522C18.4583 8.16279 18.2462 7.2055 17.822 6.58033C17.4033 5.94957 16.7586 5.6342 15.8879 5.6342C15.045 5.6342 14.4059 5.95237 13.9705 6.5887C13.5407 7.22503 13.323 8.16279 13.3174 9.40196V11.5873C13.3174 12.832 13.5323 13.7809 13.9621 14.434C14.3975 15.0871 15.045 15.4136 15.9046 15.4136C16.7642 15.4136 17.4006 15.1122 17.8136 14.5094C18.2267 13.9065 18.4416 12.9827 18.4583 11.738V9.4522Z" fill="black"/>
</svg>
