<!-- Generated by IcoMoon.io -->
<svg version="1.1" xmlns="http://www.w3.org/2000/svg" width="16" height="16" viewBox="0 0 16 16">
<title>zoom-in</title>
<path fill="#4a4a4a" d="M6.063 3.156h-0.969v1.938h-1.938v0.969h1.938v1.938h0.969v-1.938h1.938v-0.969h-1.938zM9.9 8.694c0.633-0.876 1.006-1.952 1.006-3.116 0-2.943-2.385-5.328-5.328-5.328s-5.328 2.385-5.328 5.328 2.385 5.328 5.328 5.328c1.163 0 2.24-0.373 3.116-1.006l5.119 5.85 1.938-1.938-5.85-5.119zM5.578 9.453c-2.14 0-3.875-1.735-3.875-3.875s1.735-3.875 3.875-3.875 3.875 1.735 3.875 3.875-1.735 3.875-3.875 3.875z"></path>
</svg>
