<svg width="200" height="80" viewBox="0 0 200 80" fill="none" xmlns="http://www.w3.org/2000/svg">
<path d="M90.2058 41.0009L97.8601 41.9349C96.0494 40.8452 94.1564 39.989 92.5926 38.8993C90.9465 37.8097 89.5473 36.1751 90.0412 33.8401C90.2881 33.9179 90.535 33.9958 90.7819 34.1515C95.3086 37.8875 101.235 39.9112 107.243 39.8333C111.852 39.8333 116.461 39.9112 120.988 39.8333C124.444 39.7555 126.091 37.0313 124.527 34.0736C124.115 33.5288 123.539 33.0618 122.798 32.9061C118.683 31.8943 114.486 30.9603 110.37 30.1819C109.136 29.9484 107.819 30.2597 106.584 30.1819C105.185 30.2597 103.786 30.1041 102.387 29.7927C94.4856 27.2242 86.2551 25.5119 77.8601 24.7335C75.8848 24.5 73.8272 24.3444 71.8518 24.2665L96.5432 30.1041V30.4154C93.4979 31.5829 90.535 32.9061 87.4074 33.9179C85.7613 34.4628 83.9506 34.0736 82.716 32.9839C78.7654 30.1041 74.7325 30.4154 70.8642 33.4509C70.2881 33.8401 69.6296 33.9958 68.8889 33.9179C56.6255 32.2056 44.5267 30.5711 32.428 28.9366L6.33745 25.434C5.67901 25.3562 5.02058 25.2005 4.19753 25.1227C4.77366 23.566 6.09054 22.2428 7.73663 21.5423C10.535 20.2192 13.0864 18.429 15.2263 16.2496C23.5391 8.15487 33.8272 3.48483 45.4321 1.38331C53.3333 -0.0177053 61.3169 0.0601286 69.3004 0.293631C77.2839 0.527133 85.1029 0.916304 93.0041 1.46114C96.8724 1.69464 100.658 2.23948 104.362 3.01782C108.807 3.95183 112.346 6.67602 116.049 9.16671C115.72 9.01105 115.309 8.85538 114.979 8.69971C109.136 5.04151 102.634 3.48483 95.7202 3.17349C88.1481 2.86216 80.5761 2.47299 73.0041 2.39515C69.3827 2.47299 65.7613 2.78432 62.1399 3.40699C59.7531 3.79616 59.5885 4.341 60.6584 6.36469C62.6337 10.0229 64.6914 13.6811 66.6667 17.3393C67.4897 18.896 69.2181 19.9078 71.0288 19.83C79.8354 19.9078 88.642 20.1413 97.4486 20.0635C107.901 19.9857 118.272 19.6743 128.724 19.4408C129.218 19.4408 129.712 19.2851 130.206 19.0516L125.679 15.1599C130.123 14.5373 133.004 16.0939 134.239 19.4408C140.082 20.297 145.926 20.8418 151.605 22.0093C156.214 23.099 160.741 24.4222 165.185 25.9789C166.667 26.5237 167.901 27.7691 169.053 28.5474C167.243 29.8706 165.679 30.8824 164.28 32.0499C163.868 32.4391 163.621 32.9839 163.621 33.6066C163.786 34.6963 164.362 35.6303 165.267 36.253C166.173 36.8756 167.325 37.187 168.477 36.9535C169.63 36.7978 170.782 36.4865 171.852 36.0195C173.333 35.3968 174.321 35.8638 174.733 37.1091C175.638 39.2885 176.296 41.5457 176.79 43.8807C177.778 49.6404 177.449 55.478 175.802 61.082C175.556 62.3274 174.568 63.2614 173.251 63.4171C169.218 64.0397 165.103 64.6624 161.07 65.2851C159.753 65.4407 158.436 65.5964 157.119 65.9078H169.794L170.123 66.3748L164.033 72.0566L200 74.0803L177.86 75.4035C166.584 76.104 155.391 76.7267 144.115 77.4272C135.062 77.972 126.008 78.5169 116.872 78.9839C108.724 79.4509 100.658 79.9957 92.5926 80.0735C87.6543 79.9957 82.7983 79.7622 77.8601 79.1395C67.1605 78.1277 56.4609 77.038 45.8436 75.9483C35.8848 74.9365 25.9259 73.769 15.8848 72.7571C12.3457 72.368 8.80658 71.9788 5.18518 71.3561L7.48971 71.0448C2.38683 65.9077 2.30453 59.7589 3.04527 53.3765C3.12757 52.1311 3.04527 50.8858 2.96296 49.6404C2.63374 46.6827 3.20988 43.6472 4.60905 41.0009C6.00823 38.5102 7.98354 37.8097 10.8642 38.8215C12.6749 39.4442 14.1564 40.7673 14.9794 42.4019C16.9547 45.9822 17.6955 49.8739 18.4362 53.7656C18.7654 55.478 19.177 57.1903 19.7531 58.8249C19.9177 55.945 20.1646 53.0651 20.4115 49.9518C23.3745 50.3409 26.2551 50.6523 29.0535 51.0414C38.93 52.3646 48.7243 53.7656 58.5185 55.0888C59.7531 55.4002 61.07 54.8553 61.7284 53.7656C56.7901 53.2208 51.9342 52.3646 46.9959 51.4306C38.4362 49.7961 29.8765 48.0059 21.3169 46.2936C20.4938 46.2157 19.8354 45.5152 19.7531 44.7369C19.2593 41.4679 17.7778 38.4323 15.5556 35.8638C14.8148 35.0855 13.9918 34.385 13.0041 33.7623C9.95885 31.9721 8.14815 32.4391 6.00823 35.0855C2.46914 39.522 2.30453 44.6591 2.30453 49.8739C2.30453 50.9636 2.30453 51.9755 2.30453 53.3765C0.90535 50.9636 0.0823045 48.3173 0 45.5931C0.0823045 42.8689 0.329218 40.2225 0.823045 37.5761C1.06996 35.5525 1.56379 33.5288 1.893 31.5051C2.05761 30.7268 2.05761 30.0262 2.13992 29.2479C2.55144 26.8351 2.63374 26.7572 5.10288 27.1464L57.9424 36.0973C60.5761 36.5643 63.2099 37.0313 65.8436 37.4205C66.1728 37.4983 66.5021 37.5761 66.9136 37.7318C62.2222 45.2039 64.0329 52.7538 66.1728 60.6929C66.0082 56.6455 65.5967 53.0651 65.8436 49.4848C66.0082 45.0482 68.3951 40.923 72.2634 38.2767C75.8025 35.786 79.5885 35.8638 83.0453 38.5102C85.8436 40.6895 88.0658 43.4915 89.465 46.6827C91.2757 50.6523 92.7572 54.6996 94.4033 58.6692C93.9095 55.7893 93.4156 52.676 92.7572 49.7183C92.0988 46.9162 91.1111 44.0364 90.2058 41.0009ZM60.7407 17.495L61.1523 17.2615C59.7531 13.9924 58.3539 10.6456 56.9547 7.37653C55.6379 4.341 53.0864 3.32916 49.7119 3.48483C39.177 4.02967 30.2881 8.38837 21.9753 14.1481C19.4239 16.0161 20 19.2851 22.963 20.4527C23.9506 20.8418 25.1029 21.0753 26.1728 21.1532C30.8642 21.3867 35.5556 21.5423 40.2469 21.7758C46.4198 22.0872 52.5926 22.3985 58.7654 22.7098L58.8477 22.2428C54.8971 20.6083 50.2058 22.5542 46.2551 20.6083C47.9835 20.3748 49.6296 20.4527 51.358 20.3748C53.0041 20.297 54.8148 20.1413 56.6255 20.0635C56.214 18.3511 54.8971 18.2733 53.9095 18.3511C51.2757 18.5846 48.642 18.9738 46.0082 19.363C44.5267 19.5965 43.5391 18.7403 44.1975 17.495C44.7737 16.4053 45.679 15.5491 46.8313 15.0043C49.7942 13.7589 53.0864 13.2141 56.3786 13.4476C58.107 13.5254 59.4239 14.0703 60 15.8604C60.0823 16.4831 60.4115 17.028 60.7407 17.495ZM91.8519 60.3815C91.7695 55.7115 90.6996 51.6641 87.4074 48.4729C84.1152 45.2817 79.4239 44.8926 75.5555 47.6946C68.1481 53.0651 67.4897 66.7639 74.321 72.7571C75.8848 74.3138 78.107 75.17 80.4115 75.17C82.716 75.17 84.856 74.3138 86.5021 72.7571C90.3704 69.4103 91.6872 64.9737 91.8519 60.3815ZM156.955 52.4425V52.5981L128.971 56.1007V56.3342H153.251V56.5677L127.572 59.2919V59.6032H150.947V59.9145L126.667 62.483C126.996 62.7944 127.407 62.9501 127.819 62.9501C140.329 63.1057 152.84 62.4831 165.267 61.082C167.243 60.9264 167.901 60.148 168.148 58.28C168.807 54.1548 168.395 49.8739 166.996 45.9044C166.831 44.8147 165.679 44.1142 164.527 44.192C157.778 44.3477 151.111 44.5034 144.362 44.659C140.658 44.7369 137.037 44.9704 133.333 45.0482V45.3596H163.457V45.6709L133.745 48.7064V48.7843H160.576L132.099 52.209V52.2868L156.955 52.4425ZM141.481 33.7623V33.3731C138.601 33.3731 135.72 33.3731 132.84 33.3731C132.181 33.3731 131.523 33.6066 130.947 33.9958C129.794 34.6963 129.218 36.0195 129.63 37.3426C130.123 38.8215 130.947 40.2225 132.84 40.3782C137.119 40.7673 141.481 41.0009 145.761 41.0009C150.123 40.8452 154.486 40.3003 158.765 39.5998C160.247 39.2885 161.481 38.3545 162.058 37.1091C162.634 35.8638 162.469 34.3071 161.728 33.1396C161.317 32.6726 160.741 32.3613 160.165 32.3613C153.909 32.6726 147.737 33.2174 141.481 33.7623ZM4.52675 54.6218C4.36214 56.0228 4.27984 57.4238 4.27984 58.8249C4.44444 61.9382 4.77366 65.0516 6.91358 67.6979C8.39506 69.566 10.4527 69.6438 12.0988 68.0093C12.9218 67.1531 13.5802 66.1413 14.0741 65.1294C15.8848 61.2377 16.3786 56.879 15.5556 52.7538C15.144 50.8858 14.4033 49.0178 13.4156 47.3054C12.8395 46.0601 11.358 45.3596 9.95885 45.7487C8.47737 46.2157 7.3251 47.3054 6.91358 48.7064C8.14815 47.6167 9.30041 46.6049 11.1934 47.1497C12.5926 47.6167 13.7449 48.7843 14.0741 50.1853C11.358 47.8502 9.21811 48.1616 7.48971 51.1971C6.91358 52.1311 6.50206 53.2208 6.25514 54.3105C5.76132 57.0347 5.67901 59.9924 5.59671 62.4052C4.52675 60.3037 4.69136 57.5017 4.52675 54.6218ZM116.132 20.764V21.231C116.626 21.231 117.202 21.3088 117.695 21.3088C124.938 22.0872 132.181 22.8655 139.424 23.7217C140.412 23.9552 141.399 24.3444 142.305 24.8892C141.481 25.5897 140.494 26.1345 139.506 26.6015C137.695 27.2242 135.885 27.5356 133.992 28.0026C140.329 28.2361 146.667 28.3917 152.84 28.1582C155.062 28.0804 157.284 27.2242 159.424 26.6015C159.918 26.368 160.247 25.9789 160.329 25.5119C160.329 25.2005 159.753 24.7335 159.259 24.5779C158.189 24.1887 157.037 23.8774 155.885 23.6439C146.584 21.8537 137.119 20.8418 127.654 20.4527C123.868 20.3748 120 20.6862 116.132 20.764ZM25.3498 69.5659L67.4074 65.9856C67.0782 65.7521 66.749 65.5964 66.3374 65.5964C64.2798 65.4407 62.2222 65.3629 60.0823 65.2072C49.7119 64.5846 39.3416 63.9619 28.9712 63.3392C28.5597 63.3392 28.1481 63.4949 27.9012 63.8841C26.9959 65.7521 26.1728 67.6201 25.3498 69.5659ZM22.2222 60.615V61.1599C23.2099 61.4712 24.1152 61.6269 25.1029 61.7825C31.4403 62.016 37.7778 62.2495 44.1975 62.4052C47.9835 62.5609 51.7695 62.7166 55.5556 62.7166C56.2963 62.6387 57.037 62.4052 57.6955 62.016C57.2016 61.4712 56.7078 60.6929 56.0494 60.3815C54.8148 59.8367 53.4156 59.4475 52.0988 59.2919C44.7737 58.28 37.284 58.1243 29.8765 58.747C27.3251 58.9805 24.7737 59.9924 22.2222 60.615ZM106.831 68.5541V68.8654L142.469 70.967L142.634 70.5778C141.646 69.6438 140.494 68.7876 139.588 67.8536C139.095 67.2309 138.272 66.9196 137.449 66.9974C128.313 67.5423 119.095 68.0093 109.959 68.4763C108.889 68.3984 107.819 68.4763 106.831 68.5541ZM118.189 52.2868V51.8198C116.543 51.5863 114.897 51.1971 113.251 50.8079C109.63 49.7183 106.42 50.8079 103.292 52.3646C102.798 52.5981 102.058 53.143 102.058 53.61C102.058 56.3342 102.14 59.1362 102.305 61.8604C102.387 62.3274 102.716 62.6387 103.128 62.7944C105.35 63.1057 107.572 63.3392 109.794 63.6506C108.642 63.1057 107.407 62.7166 106.173 62.483C104.198 62.1717 104.198 60.5372 104.115 59.2919C103.868 57.5795 102.634 55.6337 104.691 54.2326C106.42 52.9095 108.56 52.2868 110.782 52.2868C113.251 52.3646 115.72 52.2868 118.189 52.2868ZM121.317 45.9044C121.317 45.1261 121.07 44.4255 120.494 43.8807C119.918 43.3359 119.177 43.0245 118.354 42.9467C116.708 43.0245 115.391 44.3477 115.473 45.9044C115.473 46.9162 116.049 47.7724 116.955 48.2394C117.86 48.7064 119.012 48.7064 119.835 48.2394C120.823 47.7724 121.317 46.8384 121.317 45.9044ZM172.675 58.6692C173.827 58.747 174.486 58.5914 174.65 57.5795C175.062 55.1666 175.638 52.8316 175.885 50.4188C175.885 49.2513 175.638 48.0838 175.309 46.9941C174.239 47.5389 173.086 48.0838 171.934 48.5508C171.934 48.5508 171.934 48.7064 171.934 48.7843C174.156 48.4729 174.897 49.0956 174.979 51.1971C174.979 53.9213 174.815 56.5677 172.675 58.6692ZM170.123 46.1379C171.934 45.5931 172.263 43.8807 170.947 42.0905C169.547 42.9467 169.3 44.1142 170.123 46.1379Z" fill="#B2B2B2"/>
</svg>
