<svg width="80" height="35" viewBox="0 0 80 35" fill="none" xmlns="http://www.w3.org/2000/svg">
<path d="M36.0823 17.9667L39.144 18.3719C38.4198 17.8992 37.6626 17.5277 37.037 17.055C36.3786 16.5823 35.8189 15.8733 36.0165 14.8603C36.1152 14.8941 36.214 14.9279 36.3128 14.9954C38.1235 16.6161 40.4938 17.494 42.8971 17.4602C44.7407 17.4602 46.5844 17.494 48.3951 17.4602C49.7778 17.4265 50.4362 16.2447 49.8107 14.9616C49.6461 14.7253 49.4156 14.5227 49.1193 14.4551C47.4733 14.0162 45.7942 13.611 44.1482 13.2734C43.6543 13.1721 43.1276 13.3071 42.6337 13.2734C42.0741 13.3071 41.5144 13.2396 40.9547 13.1046C37.7942 11.9903 34.5021 11.2475 31.144 10.9098C30.3539 10.8085 29.5309 10.741 28.7407 10.7073L38.6173 13.2396V13.3747C37.3992 13.8811 36.214 14.4552 34.963 14.8941C34.3045 15.1304 33.5802 14.9616 33.0864 14.4889C31.5062 13.2396 29.893 13.3747 28.3457 14.6915C28.1152 14.8603 27.8519 14.9279 27.5556 14.8941C22.6502 14.1513 17.8107 13.4422 12.9712 12.7331L2.53498 11.2137C2.27161 11.18 2.00823 11.1124 1.67901 11.0787C1.90947 10.4034 2.43621 9.82937 3.09465 9.52549C4.21399 8.95148 5.23457 8.17489 6.09054 7.22948C9.41564 3.71794 13.5309 1.69205 18.1728 0.780398C21.3333 0.172631 24.5267 0.206396 27.7202 0.30769C30.9136 0.408985 34.0412 0.577809 37.2016 0.814162C38.749 0.915457 40.2634 1.15181 41.7449 1.48946C43.5226 1.89464 44.9383 3.07641 46.4198 4.15688C46.2881 4.08935 46.1235 4.02182 45.9918 3.95429C43.6543 2.36734 41.0535 1.69205 38.2881 1.55699C35.2593 1.42193 32.2305 1.25311 29.2016 1.21934C27.7531 1.25311 26.3045 1.38816 24.856 1.65828C23.9012 1.82711 23.8354 2.06346 24.2634 2.94135C25.0535 4.52829 25.8765 6.11524 26.6667 7.70219C26.9959 8.37748 27.6872 8.81643 28.4115 8.78266C31.9342 8.81643 35.4568 8.91772 38.9794 8.88396C43.1605 8.85019 47.3086 8.71513 51.4897 8.61384C51.6872 8.61384 51.8848 8.54631 52.0823 8.44501L50.2716 6.75677C52.0494 6.48665 53.2016 7.16195 53.6955 8.61384C56.0329 8.98525 58.3704 9.2216 60.642 9.72808C62.4856 10.2008 64.2963 10.7748 66.0741 11.4501C66.6667 11.6864 67.1605 12.2267 67.6214 12.5643C66.8971 13.1383 66.2716 13.5773 65.7119 14.0837C65.5473 14.2526 65.4486 14.4889 65.4486 14.759C65.5144 15.2317 65.7449 15.6369 66.107 15.907C66.4691 16.1772 66.93 16.3122 67.391 16.2109C67.8519 16.1434 68.3128 16.0083 68.7407 15.8057C69.3333 15.5356 69.7284 15.7382 69.893 16.2785C70.2551 17.2239 70.5185 18.203 70.7161 19.216C71.1111 21.7146 70.9794 24.2469 70.321 26.678C70.2222 27.2183 69.8272 27.6234 69.3004 27.691C67.6872 27.9611 66.0412 28.2312 64.428 28.5013C63.9012 28.5688 63.3745 28.6364 62.8477 28.7714H67.9177L68.0494 28.974L65.6132 31.4389L80 32.3167L71.144 32.8907C66.6338 33.1946 62.1564 33.4647 57.6461 33.7686C54.0247 34.005 50.4033 34.2413 46.749 34.4439C43.4897 34.6465 40.2634 34.8829 37.037 34.9166C35.0617 34.8829 33.1193 34.7816 31.144 34.5115C26.8642 34.0725 22.5844 33.5998 18.3374 33.1271C14.3539 32.6882 10.3704 32.1817 6.35391 31.7427C4.93827 31.5739 3.52263 31.4051 2.07407 31.135L2.99588 30.9999C0.954733 28.7714 0.921811 26.104 1.21811 23.3353C1.25103 22.7951 1.21811 22.2548 1.18519 21.7146C1.0535 20.4315 1.28395 19.1147 1.84362 17.9667C2.40329 16.8862 3.19342 16.5823 4.34568 17.0213C5.06996 17.2914 5.66255 17.8654 5.99177 18.5745C6.78189 20.1276 7.07819 21.8159 7.37449 23.5041C7.50617 24.2469 7.67078 24.9898 7.90123 25.6988C7.96708 24.4495 8.06584 23.2002 8.16461 21.8496C9.3498 22.0185 10.5021 22.1535 11.6214 22.3224C15.572 22.8964 19.4897 23.5041 23.4074 24.0781C23.9012 24.2132 24.428 23.9768 24.6914 23.5041C22.7161 23.2678 20.7737 22.8964 18.7984 22.4912C15.3745 21.7821 11.9506 21.0055 8.52675 20.2627C8.19753 20.2289 7.93416 19.9251 7.90123 19.5874C7.7037 18.1693 7.11111 16.8525 6.22222 15.7382C5.92593 15.4006 5.59671 15.0967 5.20165 14.8266C3.98354 14.05 3.25926 14.2526 2.40329 15.4006C0.987654 17.3252 0.921811 19.5536 0.921811 21.8159C0.921811 22.2886 0.921811 22.7275 0.921811 23.3353C0.36214 22.2886 0.0329218 21.1406 0 19.9588C0.0329218 18.777 0.131687 17.629 0.329218 16.481C0.427984 15.6032 0.625514 14.7253 0.757202 13.8474C0.823045 13.5097 0.823045 13.2059 0.855967 12.8682C1.02058 11.8215 1.0535 11.7877 2.04115 11.9566L23.177 15.8395C24.2305 16.0421 25.284 16.2447 26.3375 16.4135C26.4691 16.4473 26.6008 16.481 26.7654 16.5486C24.8889 19.79 25.6132 23.0652 26.4691 26.5092C26.4033 24.7534 26.2387 23.2002 26.3375 21.6471C26.4033 19.7225 27.358 17.9329 28.9053 16.7849C30.321 15.7044 31.8354 15.7382 33.2181 16.8862C34.3375 17.8316 35.2263 19.0472 35.786 20.4315C36.5103 22.1535 37.1029 23.9093 37.7613 25.6313C37.5638 24.382 37.3663 23.0314 37.1029 21.7484C36.8395 20.5328 36.4444 19.2835 36.0823 17.9667ZM24.2963 7.76972L24.4609 7.66842C23.9012 6.2503 23.3416 4.79841 22.7819 3.38029C22.2551 2.06346 21.2346 1.62452 19.8848 1.69205C15.6708 1.9284 12.1152 3.81923 8.79012 6.31783C7.76955 7.12818 8 8.54631 9.18519 9.05278C9.58025 9.2216 10.0412 9.3229 10.4691 9.35666C12.3457 9.45796 14.2222 9.52549 16.0988 9.62678C18.5679 9.76184 21.037 9.8969 23.5062 10.032L23.5391 9.82937C21.9588 9.12031 20.0823 9.96443 18.5021 9.12031C19.1934 9.01901 19.8519 9.05278 20.5432 9.01901C21.2016 8.98525 21.9259 8.91772 22.6502 8.88396C22.4856 8.14113 21.9588 8.10736 21.5638 8.14113C20.5103 8.24242 19.4568 8.41125 18.4033 8.58007C17.8107 8.68137 17.4156 8.30995 17.679 7.76972C17.9095 7.29701 18.2716 6.9256 18.7325 6.68924C19.9177 6.149 21.2346 5.91265 22.5514 6.01395C23.2428 6.04771 23.7695 6.28406 24 7.06066C24.0329 7.33077 24.1646 7.56713 24.2963 7.76972ZM36.7407 26.3741C36.7078 24.3482 36.2798 22.5925 34.963 21.2081C33.6461 19.8238 31.7695 19.6549 30.2222 20.8705C27.2593 23.2002 26.9959 29.1428 29.7284 31.7427C30.3539 32.418 31.2428 32.7894 32.1646 32.7894C33.0864 32.7894 33.9424 32.418 34.6008 31.7427C36.1481 30.2909 36.6749 28.3663 36.7407 26.3741ZM62.7819 22.9301V22.9977L51.5885 24.5171V24.6184H61.3004V24.7197L51.0288 25.9014V26.0365H60.3786V26.1715L50.6667 27.2858C50.7984 27.4208 50.963 27.4884 51.1276 27.4884C56.1317 27.5559 61.1358 27.2858 66.107 26.678C66.8971 26.6105 67.1605 26.2728 67.2593 25.4625C67.5226 23.6729 67.358 21.8159 66.7984 20.0939C66.7325 19.6212 66.2716 19.3173 65.8107 19.351C63.1111 19.4186 60.4445 19.4861 57.7449 19.5536C56.2634 19.5874 54.8148 19.6887 53.3333 19.7225V19.8575H65.3827V19.9926L53.4979 21.3094V21.3432H64.2305L52.8395 22.8288V22.8626L62.7819 22.9301ZM56.5926 14.8266V14.6577C55.4403 14.6577 54.2881 14.6577 53.1358 14.6577C52.8724 14.6577 52.6091 14.759 52.3786 14.9279C51.9177 15.2317 51.6872 15.8057 51.8519 16.3797C52.0494 17.0213 52.3786 17.629 53.1358 17.6966C54.8477 17.8654 56.5926 17.9667 58.3045 17.9667C60.0494 17.8992 61.7942 17.6628 63.5062 17.3589C64.0988 17.2239 64.5926 16.8187 64.8231 16.2785C65.0535 15.7382 64.9877 15.0629 64.6914 14.5564C64.5267 14.3539 64.2963 14.2188 64.0658 14.2188C61.5638 14.3539 59.0947 14.5902 56.5926 14.8266ZM1.8107 23.8755C1.74486 24.4833 1.71193 25.0911 1.71193 25.6988C1.77778 27.0494 1.90947 28.4 2.76543 29.548C3.35803 30.3584 4.18107 30.3921 4.83951 29.6831C5.16872 29.3117 5.4321 28.8727 5.62963 28.4338C6.35391 26.7455 6.55144 24.8547 6.22222 23.0652C6.05761 22.2548 5.76132 21.4445 5.36626 20.7016C5.1358 20.1614 4.54321 19.8575 3.98354 20.0263C3.39095 20.2289 2.93004 20.7016 2.76543 21.3094C3.25926 20.8367 3.72016 20.3978 4.47737 20.6341C5.03704 20.8367 5.49794 21.3432 5.62963 21.9509C4.54321 20.938 3.68724 21.0731 2.99588 22.3899C2.76543 22.7951 2.60082 23.2678 2.50206 23.7405C2.30453 24.9222 2.27161 26.2053 2.23868 27.252C1.8107 26.3404 1.87654 25.1248 1.8107 23.8755ZM46.4527 9.18784V9.39043C46.6502 9.39043 46.8807 9.42419 47.0782 9.42419C49.9753 9.76184 52.8724 10.0995 55.7696 10.4709C56.1646 10.5722 56.5597 10.741 56.9218 10.9774C56.5926 11.2813 56.1975 11.5176 55.8025 11.7202C55.0782 11.9903 54.3539 12.1254 53.5967 12.328C56.1317 12.4293 58.6667 12.4968 61.1358 12.3955C62.0247 12.3617 62.9136 11.9903 63.7696 11.7202C63.9671 11.6189 64.0988 11.4501 64.1317 11.2475C64.1317 11.1124 63.9012 10.9098 63.7037 10.8423C63.2757 10.6735 62.8148 10.5384 62.3539 10.4371C58.6338 9.66055 54.8477 9.2216 51.0617 9.05278C49.5473 9.01901 48 9.15407 46.4527 9.18784ZM10.1399 30.3584L26.963 28.8052C26.8313 28.7039 26.6996 28.6364 26.535 28.6364C25.7119 28.5688 24.8889 28.5351 24.0329 28.4676C19.8848 28.1974 15.7366 27.9273 11.5885 27.6572C11.4239 27.6572 11.2593 27.7247 11.1605 27.8935C10.7984 28.7039 10.4691 29.5143 10.1399 30.3584ZM8.88889 26.4754V26.7118C9.28395 26.8468 9.64609 26.9144 10.0412 26.9819C12.5761 27.0832 15.1111 27.1845 17.679 27.252C19.1934 27.3195 20.7078 27.3871 22.2222 27.3871C22.5185 27.3533 22.8148 27.252 23.0782 27.0832C22.8807 26.8468 22.6831 26.5092 22.4198 26.3741C21.9259 26.1378 21.3663 25.969 20.8395 25.9014C17.9095 25.4625 14.9136 25.395 11.9506 25.6651C10.93 25.7664 9.90947 26.2053 8.88889 26.4754ZM42.7325 29.9194V30.0545L56.9877 30.9661L57.0535 30.7973C56.6584 30.3921 56.1975 30.0207 55.8354 29.6156C55.6379 29.3454 55.3086 29.2104 54.9794 29.2441C51.3251 29.4805 47.6379 29.6831 43.9835 29.8857C43.5556 29.8519 43.1276 29.8857 42.7325 29.9194ZM47.2757 22.8626V22.66C46.6173 22.5587 45.9589 22.3899 45.3004 22.2211C43.8519 21.7484 42.5679 22.2211 41.3169 22.8964C41.1193 22.9976 40.823 23.234 40.823 23.4366C40.823 24.6184 40.856 25.8339 40.9218 27.0157C40.9547 27.2183 41.0864 27.3533 41.251 27.4208C42.1399 27.5559 43.0288 27.6572 43.9177 27.7923C43.4568 27.5559 42.963 27.3871 42.4691 27.2858C41.679 27.1507 41.679 26.4417 41.6461 25.9014C41.5473 25.1586 41.0535 24.3145 41.8765 23.7067C42.5679 23.1327 43.4239 22.8626 44.3128 22.8626C45.3004 22.8964 46.2881 22.8626 47.2757 22.8626ZM48.5268 20.0939C48.5268 19.7562 48.428 19.4523 48.1975 19.216C47.9671 18.9796 47.6708 18.8446 47.3416 18.8108C46.6831 18.8446 46.1564 19.4186 46.1893 20.0939C46.1893 20.5328 46.4198 20.9042 46.7819 21.1068C47.144 21.3094 47.6049 21.3094 47.9342 21.1068C48.3292 20.9042 48.5268 20.4991 48.5268 20.0939ZM69.07 25.6313C69.5309 25.6651 69.7942 25.5975 69.8601 25.1586C70.0247 24.1119 70.2551 23.0989 70.3539 22.0522C70.3539 21.5458 70.2551 21.0393 70.1235 20.5666C69.6955 20.8029 69.2346 21.0393 68.7737 21.2419C68.7737 21.2419 68.7737 21.3094 68.7737 21.3432C69.6626 21.2081 69.9589 21.4782 69.9918 22.3899C69.9918 23.5716 69.9259 24.7197 69.07 25.6313ZM68.0494 20.1952C68.7737 19.9588 68.9054 19.216 68.3786 18.4394C67.8189 18.8108 67.7202 19.3173 68.0494 20.1952Z" fill="#B2B2B2"/>
</svg>
