<svg width="16" height="17" viewBox="0 0 16 17" fill="none" xmlns="http://www.w3.org/2000/svg">
<g clip-path="url(#clip0_1243_4907)">
<path d="M10.2755 12.5945C11.7844 12.4155 13.2395 12.0608 14.6197 11.5513C13.4753 10.281 12.7788 8.59935 12.7788 6.755V6.19682C12.7789 6.18377 12.7789 6.17071 12.7789 6.15764C12.7789 3.51835 10.6393 1.37878 8.00006 1.37878C5.36077 1.37878 3.2212 3.51835 3.2212 6.15764L3.22104 6.755C3.22104 8.59935 2.5245 10.281 1.38013 11.5513C2.76036 12.0608 4.21555 12.4156 5.72463 12.5946M10.2755 12.5945C9.52928 12.683 8.76991 12.7286 7.9999 12.7286C7.23 12.7286 6.47073 12.6831 5.72463 12.5946M10.2755 12.5945C10.3495 12.825 10.3895 13.0708 10.3895 13.3259C10.3895 14.6456 9.3197 15.7154 8.00006 15.7154C6.68041 15.7154 5.61063 14.6456 5.61063 13.3259C5.61063 13.0708 5.6506 12.8251 5.72463 12.5946" stroke="black" stroke-width="1.5" stroke-linecap="round" stroke-linejoin="round"/>
</g>
<defs>
<clipPath id="clip0_1243_4907">
<rect width="16" height="16" fill="white" transform="translate(0 0.547119)"/>
</clipPath>
</defs>
</svg>
