<svg width="16" height="17" viewBox="0 0 16 17" fill="none" xmlns="http://www.w3.org/2000/svg">
<g clip-path="url(#clip0_1243_4936)">
<path d="M3.83613 1.40906V3.19357M12.1639 1.40906V3.19357M0.861938 13.9007V4.97809C0.861938 3.99253 1.66089 3.19357 2.64645 3.19357H13.3535C14.3391 3.19357 15.1381 3.99253 15.1381 4.97809V13.9007M0.861938 13.9007C0.861938 14.8862 1.66089 15.6852 2.64645 15.6852H13.3535C14.3391 15.6852 15.1381 14.8862 15.1381 13.9007M0.861938 13.9007V7.95228C0.861938 6.96672 1.66089 6.16777 2.64645 6.16777H13.3535C14.3391 6.16777 15.1381 6.96672 15.1381 7.95228V13.9007" stroke="black" stroke-width="1.5" stroke-linecap="round" stroke-linejoin="round"/>
</g>
<defs>
<clipPath id="clip0_1243_4936">
<rect width="16" height="16" fill="white" transform="translate(0 0.547119)"/>
</clipPath>
</defs>
</svg>
