<svg xmlns="http://www.w3.org/2000/svg" width="16" height="16" viewBox="0 0 16 16">
  <g stroke="currentColor" stroke-linecap="round" stroke-linejoin="round" stroke-width="1.5">
    <path d="M4.203 3.724A1.696 1.696 0 0 1 3 4.5c-.279.04-.556.082-.833.128A1.601 1.601 0 0 0 .845 6.22v6.185c0 .912.74 1.651 1.651 1.651h11.01a1.65 1.65 0 0 0 1.651-1.651V6.219c0-.783-.55-1.463-1.322-1.592A35.078 35.078 0 0 0 13 4.5a1.697 1.697 0 0 1-1.204-.774l-.603-.966a1.609 1.609 0 0 0-1.274-.763 35.8 35.8 0 0 0-3.84 0 1.609 1.609 0 0 0-1.274.763l-.603.966Z"/>
    <path d="M11.303 8.55a3.303 3.303 0 1 1-6.606 0 3.303 3.303 0 0 1 6.606 0Zm1.651-1.651h.006v.006h-.006v-.006Z"/>
  </g>
</svg>
