<svg viewBox="0 0 16 17">
  <g stroke="currentColor" stroke-linecap="round" stroke-linejoin="round" stroke-width="1.5">
    <path d="M4.203 4.704a1.696 1.696 0 0 1-1.204.774c-.279.04-.556.083-.833.129-.772.128-1.322.808-1.322 1.592v6.184c0 .912.74 1.652 1.651 1.652h11.01c.912 0 1.651-.74 1.651-1.652V7.2c0-.784-.55-1.464-1.322-1.592a35.138 35.138 0 0 0-.834-.13 1.697 1.697 0 0 1-1.204-.774l-.603-.966a1.609 1.609 0 0 0-1.274-.763 35.8 35.8 0 0 0-3.84 0 1.609 1.609 0 0 0-1.274.763l-.603.966Z"/>
    <path d="M11.303 9.53a3.303 3.303 0 1 1-6.606 0 3.303 3.303 0 0 1 6.606 0Zm1.651-1.652h.006v.006h-.006v-.006Z"/>
  </g>
</svg>
