<svg viewBox="0 0 17 17">
  <g clip-path="url(#a)">
    <path stroke="currentColor" stroke-linecap="round" stroke-width="1.25" d="m14.861 11.211.404-.14a1 1 0 0 0 .675-.945v-1.16a1 1 0 0 0-.659-.94l-2.475-.899a1 1 0 0 1-.37-.238l-1.21-1.23a4 4 0 0 0-2.852-1.195H6.232a5 5 0 0 0-3.344 1.283l-1.03.926a2 2 0 0 0-.662 1.487v1.382a1 1 0 0 0 .297.712l.969.957m3.137.001h6.023m1.424-3.892H5.388c-.331 0-.554-.311-.404-.606.27-.531.793-1.347 1.743-2.18M5.47 11.098a1.424 1.424 0 1 1-2.848 0 1.424 1.424 0 0 1 2.848 0Zm9.194 0a1.424 1.424 0 1 1-2.85 0 1.424 1.424 0 0 1 2.85 0Z"/>
  </g>
  <defs>
    <clipPath id="a">
      <path d="M0 0h16v16H0z" transform="translate(.568 .55)"/>
    </clipPath>
  </defs>
</svg>
