<svg xmlns="http://www.w3.org/2000/svg" width="16" height="16" viewBox="0 0 16 16">
  <path stroke="currentColor" stroke-linecap="round" stroke-width="1.25" d="m14.294 10.661.403-.139a1 1 0 0 0 .675-.946v-1.16a1 1 0 0 0-.659-.94l-2.474-.899a1 1 0 0 1-.372-.238l-1.21-1.23a4 4 0 0 0-2.85-1.194H5.663A5 5 0 0 0 2.32 5.196l-1.03.926A2 2 0 0 0 .629 7.61v1.382a1 1 0 0 0 .297.712l.97.957m3.136.002h6.024m1.423-3.893H4.82c-.331 0-.554-.31-.404-.606.27-.531.794-1.347 1.743-2.18m-1.257 6.565a1.424 1.424 0 1 1-2.848 0 1.424 1.424 0 0 1 2.848 0Zm9.194 0a1.424 1.424 0 1 1-2.849 0 1.424 1.424 0 0 1 2.849 0Z"/>
</svg>
