<svg viewBox="0 0 16 17">
  <g clip-path="url(#a)">
    <path stroke="currentColor" stroke-linecap="round" stroke-linejoin="round" stroke-width="1.5" d="M14.087 6.405c.652.21 1.107.832 1.107 1.547v3.162c0 .84-.625 1.55-1.461 1.619-.25.02-.501.038-.753.053v2.28l-2.213-2.213c-.999 0-1.988-.04-2.966-.12a1.56 1.56 0 0 1-.609-.179m6.895-6.149a1.569 1.569 0 0 0-.351-.07 35.892 35.892 0 0 0-5.938 0c-.835.07-1.458.78-1.458 1.617v3.162c0 .618.34 1.167.852 1.44m6.895-6.149V5.023c0-1.197-.85-2.234-2.036-2.388a35.751 35.751 0 0 0-9.209 0C1.656 2.79.806 3.826.806 5.023v4.593c0 1.196.85 2.233 2.036 2.387.426.055.854.103 1.284.143v3.474l3.066-3.066"/>
  </g>
  <defs>
    <clipPath id="a">
      <path d="M0 0h16v16H0z" transform="translate(0 .98)"/>
    </clipPath>
  </defs>
</svg>
