<svg xmlns="http://www.w3.org/2000/svg" width="16" height="16" viewBox="0 0 16 16">
  <defs>
    <clipPath id="a">
      <rect width="16" height="16"/>
    </clipPath>
  </defs>
  <g clip-path="url(#a)">
    <path stroke="currentColor" stroke-linecap="round" stroke-linejoin="round" stroke-width="1.5" d="M14.087 5.426c.653.21 1.107.832 1.107 1.547v3.162c0 .839-.625 1.55-1.461 1.618-.25.02-.501.038-.753.054v2.28l-2.213-2.213c-.999 0-1.988-.041-2.966-.12a1.56 1.56 0 0 1-.609-.18m6.895-6.148a1.57 1.57 0 0 0-.351-.07 35.89 35.89 0 0 0-5.938 0c-.835.069-1.458.78-1.458 1.617v3.162c0 .618.34 1.167.852 1.44m6.895-6.15V4.044c0-1.196-.85-2.233-2.036-2.387a35.753 35.753 0 0 0-9.209 0C1.656 1.81.806 2.846.806 4.043v4.593c0 1.197.85 2.234 2.036 2.388.426.055.854.103 1.284.143v3.474l3.066-3.066"/>
  </g>
</svg>
