<svg width="16" height="17" viewBox="0 0 16 17" fill="none" xmlns="http://www.w3.org/2000/svg">
<path d="M0.873291 9.10216C0.873291 10.2725 1.69444 11.2911 2.85229 11.4614C3.64617 11.5781 4.44871 11.6682 5.25895 11.7309V15.1256L8.12267 12.2619C8.39831 11.9863 8.77048 11.8302 9.16009 11.8176C10.5099 11.7737 11.8405 11.6536 13.1477 11.4614C14.3055 11.2912 15.1267 10.2726 15.1267 9.10224V4.70276C15.1267 3.53245 14.3055 2.51378 13.1477 2.34355C11.4676 2.09655 9.74885 1.96863 8.0002 1.96863C6.2514 1.96863 4.53248 2.09658 2.8523 2.34362C1.69445 2.51386 0.873291 3.53253 0.873291 4.70283V9.10216Z" stroke="black" stroke-width="1.5" stroke-linecap="round" stroke-linejoin="round"/>
</svg>
