<svg width="16" height="17" viewBox="0 0 16 17" fill="none" xmlns="http://www.w3.org/2000/svg">
<path d="M8 11.855L8 6.89321M8 6.89321L10.2052 9.09844M8 6.89321L5.79477 9.09843M4.14085 14.0602C2.31398 14.0602 0.833008 12.5792 0.833008 10.7524C0.833008 9.28739 1.78534 8.04485 3.10469 7.61005C3.06106 7.37777 3.03824 7.13815 3.03824 6.89321C3.03824 4.76186 4.76604 3.03406 6.89739 3.03406C8.68452 3.03406 10.1879 4.24885 10.6269 5.89773C10.8414 5.82818 11.0702 5.79059 11.3078 5.79059C12.5258 5.79059 13.5131 6.77791 13.5131 7.99582C13.5131 8.25173 13.4695 8.49746 13.3893 8.72599C14.4285 9.12082 15.167 10.126 15.167 11.3037C15.167 12.8261 13.9328 14.0602 12.4105 14.0602H4.14085Z" stroke="black" stroke-width="1.5" stroke-linecap="round" stroke-linejoin="round"/>
</svg>
