<svg xmlns="http://www.w3.org/2000/svg" width="16" height="16" viewBox="0 0 16 16">
  <defs>
    <clipPath id="a">
      <rect width="16" height="16"/>
    </clipPath>
  </defs>
  <g stroke="currentColor" stroke-linecap="round" stroke-linejoin="round" stroke-width="1.5" clip-path="url(#a)">
    <path d="M6.678 1.57a.897.897 0 0 1 .885-.75h.873c.439 0 .813.317.885.75l.119.713c.056.339.306.61.623.742.317.131.681.114.96-.086l.589-.42a.897.897 0 0 1 1.156.096l.617.617c.31.31.35.799.096 1.156l-.42.589c-.2.279-.218.643-.086.96.132.317.403.566.741.622l.714.12c.432.071.75.446.75.885v.872a.897.897 0 0 1-.75.886l-.714.118c-.338.057-.61.307-.741.623-.132.317-.114.681.085.96l.42.59a.898.898 0 0 1-.095 1.155l-.617.617c-.31.31-.8.351-1.156.096l-.589-.42c-.28-.2-.643-.217-.96-.086-.317.132-.567.403-.623.742l-.119.713a.898.898 0 0 1-.885.75h-.873a.897.897 0 0 1-.885-.75l-.119-.713c-.056-.339-.306-.61-.623-.742-.317-.131-.68-.114-.96.086l-.589.42a.898.898 0 0 1-1.156-.095l-.617-.618a.898.898 0 0 1-.096-1.156l.42-.588a.99.99 0 0 0 .086-.96c-.131-.318-.403-.567-.741-.623l-.713-.12a.897.897 0 0 1-.75-.885v-.872c0-.44.317-.814.75-.886l.713-.118c.338-.057.61-.307.741-.623.132-.317.114-.682-.085-.96l-.42-.59a.897.897 0 0 1 .095-1.155l.617-.618c.31-.31.8-.35 1.157-.095l.588.42c.28.2.643.217.96.086.317-.132.567-.403.623-.742l.119-.713Z"/>
    <path d="M10.393 8a2.393 2.393 0 1 1-4.786 0 2.393 2.393 0 0 1 4.786 0Z"/>
  </g>
</svg>
