<svg viewBox="0 0 17 17">
  <g clip-path="url(#a)">
    <path stroke="currentColor" stroke-linecap="round" stroke-linejoin="round" stroke-width="1.5" d="M1.34 15.766h11.298M10.54 6.73h3.256a2 2 0 0 1 1.988 2.217l-.013.123a1.852 1.852 0 0 1-.438 1.005l-.107.123a4.25 4.25 0 0 1-3.216 1.471M6.758 1.333s1.226.438 1.226 1.793c0 1.354-1.226 1.748-1.226 1.748m3.087-3.05s.792.378.792 1.544c0 1.167-.792 1.506-.792 1.506m-5.74-3.05s.792.378.792 1.544c0 1.167-.793 1.506-.793 1.506M1.356 6.728h11.242l-.12 2.61a6.513 6.513 0 0 1-1.128 3.375 5.065 5.065 0 0 1-4.182 2.208h-.382a5.065 5.065 0 0 1-4.182-2.208 6.513 6.513 0 0 1-1.128-3.375l-.12-2.61Z"/>
  </g>
  <defs>
    <clipPath id="a">
      <path d="M0 0h16v16H0z" transform="translate(.568 .55)"/>
    </clipPath>
  </defs>
</svg>
