<svg width="16" height="17" viewBox="0 0 16 17" fill="none" xmlns="http://www.w3.org/2000/svg">
<g clip-path="url(#clip0_1243_4968)">
<path d="M8 3.75741V13.3368M5.60514 11.0871L6.30674 11.6133C7.24195 12.3148 8.75823 12.3148 9.69345 11.6133C10.6287 10.9119 10.6287 9.77463 9.69345 9.0732C9.22579 8.72244 8.61284 8.54708 7.99991 8.54712C7.42121 8.54715 6.84264 8.37182 6.40111 8.02106C5.51813 7.31962 5.51813 6.18237 6.40111 5.48093C7.28409 4.7795 8.71569 4.7795 9.59867 5.48093L9.92987 5.74404M15.1846 8.54712C15.1846 12.515 11.9679 15.7317 8 15.7317C4.03207 15.7317 0.81543 12.515 0.81543 8.54712C0.81543 4.57919 4.03207 1.36255 8 1.36255C11.9679 1.36255 15.1846 4.57919 15.1846 8.54712Z" stroke="black" stroke-width="1.5" stroke-linecap="round" stroke-linejoin="round"/>
</g>
<defs>
<clipPath id="clip0_1243_4968">
<rect width="16" height="16" fill="white" transform="translate(0 0.547119)"/>
</clipPath>
</defs>
</svg>
