<svg viewBox="0 0 17 16">
  <g clip-path="url(#a)">
    <path stroke="currentColor" stroke-linecap="round" stroke-linejoin="round" stroke-width="1.5" d="M8.815 3.21v9.58M6.42 10.54l.702.526c.935.702 2.451.702 3.387 0 .935-.701.935-1.838 0-2.54C10.04 8.176 9.428 8 8.815 8c-.579 0-1.157-.175-1.599-.526-.883-.701-.883-1.839 0-2.54.883-.702 2.315-.702 3.198 0l.331.263M16 8A7.185 7.185 0 1 1 1.63 8 7.185 7.185 0 0 1 16 8Z"/>
  </g>
  <defs>
    <clipPath id="a">
      <path d="M0 0h16v16H0z" transform="translate(.815)"/>
    </clipPath>
  </defs>
</svg>
