<svg width="16" height="17" viewBox="0 0 16 17" fill="none" xmlns="http://www.w3.org/2000/svg">
<g clip-path="url(#clip0_1243_4996)">
<path d="M10.7502 12.3973V14.8725C10.7502 15.3281 10.3808 15.6975 9.92514 15.6975H2.77475C2.31909 15.6975 1.94971 15.3281 1.94971 14.8725V5.52195C1.94971 5.06629 2.31909 4.69691 2.77475 4.69691H4.14983C4.52463 4.69691 4.89214 4.72815 5.24989 4.78817M10.7502 12.3973H13.2253C13.681 12.3973 14.0504 12.0279 14.0504 11.5723V7.99709C14.0504 4.72662 11.6717 2.0117 8.55007 1.48799C8.19232 1.42797 7.82481 1.39673 7.45001 1.39673H6.07493C5.61927 1.39673 5.24989 1.76611 5.24989 2.22177V4.78817M10.7502 12.3973H6.07493C5.61927 12.3973 5.24989 12.0279 5.24989 11.5723V4.78817M14.0504 9.64718V8.2721C14.0504 6.90513 12.9422 5.79697 11.5752 5.79697H10.4752C10.0195 5.79697 9.65013 5.42758 9.65013 4.97192V3.87186C9.65013 2.50488 8.54197 1.39673 7.17499 1.39673H6.34995" stroke="black" stroke-width="1.5" stroke-linecap="round" stroke-linejoin="round"/>
</g>
<defs>
<clipPath id="clip0_1243_4996">
<rect width="16" height="16" fill="white" transform="translate(0 0.547119)"/>
</clipPath>
</defs>
</svg>
