<svg width="16" height="17" viewBox="0 0 16 17" fill="none" xmlns="http://www.w3.org/2000/svg">
<g clip-path="url(#clip0_1243_4961)">
<path d="M13.5108 10.2004V8.27158C13.5108 6.902 12.4005 5.79174 11.031 5.79174H9.9288C9.47227 5.79174 9.10218 5.42165 9.10218 4.96512V3.86297C9.10218 2.49338 7.99192 1.38312 6.62234 1.38312H5.24464M6.89788 1.38312H3.31587C2.85935 1.38312 2.48926 1.75321 2.48926 2.20973V14.8845C2.48926 15.341 2.85935 15.7111 3.31587 15.7111H12.6842C13.1407 15.7111 13.5108 15.341 13.5108 14.8845V7.99604C13.5108 4.34383 10.5501 1.38312 6.89788 1.38312Z" stroke="black" stroke-width="1.5" stroke-linecap="round" stroke-linejoin="round"/>
</g>
<defs>
<clipPath id="clip0_1243_4961">
<rect width="16" height="16" fill="white" transform="translate(0 0.547119)"/>
</clipPath>
</defs>
</svg>
