<svg width="16" height="17" viewBox="0 0 16 17" fill="none" xmlns="http://www.w3.org/2000/svg">
<g clip-path="url(#clip0_1243_4991)">
<path d="M13.5248 10.2045V8.27088C13.5248 6.89784 12.4117 5.78476 11.0386 5.78476H9.93371C9.47602 5.78476 9.105 5.41374 9.105 4.95605V3.85111C9.105 2.47806 7.99192 1.36499 6.61888 1.36499H5.2377M5.2377 10.757H10.7624M5.2377 12.9669H8.00006M6.89511 1.36499H3.30405C2.84637 1.36499 2.47534 1.73601 2.47534 2.1937V14.9005C2.47534 15.3582 2.84637 15.7292 3.30405 15.7292H12.6961C13.1537 15.7292 13.5248 15.3582 13.5248 14.9005V7.99465C13.5248 4.33319 10.5566 1.36499 6.89511 1.36499Z" stroke="black" stroke-width="1.5" stroke-linecap="round" stroke-linejoin="round"/>
</g>
<defs>
<clipPath id="clip0_1243_4991">
<rect width="16" height="16" fill="white" transform="translate(0 0.547119)"/>
</clipPath>
</defs>
</svg>
