<svg width="16" height="17" viewBox="0 0 16 17" fill="none" xmlns="http://www.w3.org/2000/svg">
<path d="M2.391 8.54578C2.391 8.98737 2.03303 9.34535 1.59144 9.34535C1.14985 9.34535 0.79187 8.98737 0.79187 8.54578C0.79187 8.10419 1.14985 7.74622 1.59144 7.74622C2.03303 7.74622 2.391 8.10419 2.391 8.54578Z" stroke="black" stroke-width="1.5" stroke-linecap="round" stroke-linejoin="round"/>
<path d="M8.78754 8.54578C8.78754 8.98737 8.42957 9.34535 7.98798 9.34535C7.54639 9.34535 7.18841 8.98737 7.18841 8.54578C7.18841 8.10419 7.54639 7.74622 7.98798 7.74622C8.42957 7.74622 8.78754 8.10419 8.78754 8.54578Z" stroke="black" stroke-width="1.5" stroke-linecap="round" stroke-linejoin="round"/>
<path d="M15.1841 8.54578C15.1841 8.98737 14.8261 9.34535 14.3845 9.34535C13.9429 9.34535 13.5849 8.98737 13.5849 8.54578C13.5849 8.10419 13.9429 7.74622 14.3845 7.74622C14.8261 7.74622 15.1841 8.10419 15.1841 8.54578Z" stroke="black" stroke-width="1.5" stroke-linecap="round" stroke-linejoin="round"/>
</svg>
