<svg width="16" height="17" viewBox="0 0 16 17" fill="none" xmlns="http://www.w3.org/2000/svg">
<path d="M15.2134 4.66298V12.4313C15.2134 13.3506 14.4681 14.0959 13.5488 14.0959H2.45125C1.5319 14.0959 0.786621 13.3506 0.786621 12.4313V4.66298M15.2134 4.66298C15.2134 3.74363 14.4681 2.99835 13.5488 2.99835H2.45125C1.5319 2.99835 0.786621 3.74363 0.786621 4.66298M15.2134 4.66298V4.84255C15.2134 5.42061 14.9135 5.95728 14.4212 6.26024L8.87245 9.67487C8.33742 10.0041 7.66261 10.0041 7.12759 9.67487L1.57882 6.26024C1.08651 5.95728 0.786621 5.42061 0.786621 4.84255V4.66298" stroke="black" stroke-width="1.5" stroke-linecap="round" stroke-linejoin="round"/>
</svg>
