<svg width="16" height="17" viewBox="0 0 16 17" fill="none" xmlns="http://www.w3.org/2000/svg">
<path d="M2.24721 5.83755C1.58506 6.62031 1.07979 7.54003 0.779907 8.54818C1.70616 11.6588 4.5879 13.9269 7.9994 13.9269C8.71138 13.9269 9.40028 13.8281 10.0532 13.6435M3.85949 4.40656C5.04754 3.62323 6.47054 3.16733 8.00003 3.16733C11.4115 3.16733 14.2933 5.43548 15.2195 8.54606C14.7089 10.2628 13.6026 11.7231 12.1403 12.6874M3.85949 4.40656L1.5443 2.09137M3.85949 4.40656L6.47841 7.02548M12.1403 12.6874L14.4558 15.0029M12.1403 12.6874L9.52168 10.0688M9.52168 10.0688C9.9111 9.67933 10.152 9.14135 10.152 8.54712C10.152 7.35865 9.18852 6.3952 8.00005 6.3952C7.40581 6.3952 6.86783 6.63606 6.47841 7.02548M9.52168 10.0688L6.47841 7.02548" stroke="black" stroke-width="1.5" stroke-linecap="round" stroke-linejoin="round"/>
</svg>
