<svg xmlns="http://www.w3.org/2000/svg" width="16" height="16" viewBox="0 0 16 16">
  <defs>
    <clipPath id="a">
      <rect width="16" height="16"/>
    </clipPath>
  </defs>
  <g clip-path="url(#a)">
    <path stroke="currentColor" stroke-linecap="round" stroke-linejoin="round" stroke-width="1.5" d="M2.247 5.29A7.516 7.516 0 0 0 .78 8.001a7.535 7.535 0 0 0 9.273 5.095M3.86 3.86A7.535 7.535 0 0 1 15.22 8a7.548 7.548 0 0 1-3.079 4.141M3.86 3.86 1.543 1.543M3.86 3.86l2.62 2.62m5.661 5.661 2.316 2.316M12.14 12.14 9.522 9.522m0 0a2.152 2.152 0 1 0-3.043-3.043m3.043 3.043L6.478 6.478"/>
  </g>
</svg>
