<svg width="16" height="16" viewBox="0 0 16 16" fill="none" xmlns="http://www.w3.org/2000/svg">
<path d="M0.825061 8.23214C0.775319 8.0829 0.775271 7.92132 0.824926 7.77205C1.82462 4.76677 4.65951 2.59961 8.00057 2.59961C11.3401 2.59961 14.1739 4.76475 15.1748 7.76786C15.2246 7.9171 15.2246 8.07868 15.1749 8.22795C14.1753 11.2332 11.3404 13.4004 7.99931 13.4004C4.6598 13.4004 1.826 11.2352 0.825061 8.23214Z" stroke="black" stroke-width="1.5" stroke-linecap="round" stroke-linejoin="round"/>
<path d="M10.1601 8C10.1601 9.19302 9.19301 10.1602 7.99998 10.1602C6.80696 10.1602 5.83983 9.19302 5.83983 8C5.83983 6.80698 6.80696 5.83984 7.99998 5.83984C9.19301 5.83984 10.1601 6.80698 10.1601 8Z" stroke="black" stroke-width="1.5" stroke-linecap="round" stroke-linejoin="round"/>
</svg>
