<svg viewBox="0 0 17 17">
  <g stroke="currentColor" stroke-linecap="round" stroke-linejoin="round" stroke-width="1.5" clip-path="url(#a)">
    <path d="M11.67 3.722A6.539 6.539 0 0 1 9.005 16.23 6.537 6.537 0 0 1 4.281 5.175a6.567 6.567 0 0 0 2.348 2.023 7.118 7.118 0 0 1 2.663-5.441 6.505 6.505 0 0 0 2.377 1.965Z"/>
    <path d="M9.005 13.854a2.972 2.972 0 0 0 .392-5.918 4.746 4.746 0 0 0-1.525 2.81 4.735 4.735 0 0 1-1.69-.793 2.972 2.972 0 0 0 2.824 3.9Z"/>
  </g>
  <defs>
    <clipPath id="a">
      <path d="M0 0h16v16H0z" transform="translate(.912 .98)"/>
    </clipPath>
  </defs>
</svg>
