<svg xmlns="http://www.w3.org/2000/svg" width="16" height="16" viewBox="0 0 16 16">
  <defs>
    <clipPath id="a">
      <rect width="16" height="16"/>
    </clipPath>
  </defs>
  <g stroke="currentColor" stroke-linecap="round" stroke-linejoin="round" stroke-width="1.5" clip-path="url(#a)">
    <path d="M10.757 2.742a6.539 6.539 0 0 1-2.664 12.51A6.537 6.537 0 0 1 3.37 4.194 6.567 6.567 0 0 0 5.717 6.22 7.118 7.118 0 0 1 8.38.777a6.505 6.505 0 0 0 2.377 1.965Z"/>
    <path d="M8.093 12.874a2.972 2.972 0 0 0 .392-5.917 4.746 4.746 0 0 0-1.525 2.81 4.734 4.734 0 0 1-1.69-.793 2.972 2.972 0 0 0 2.824 3.9Z"/>
  </g>
</svg>
