<svg viewBox="0 0 16 17">
  <g clip-path="url(#a)">
    <path stroke="currentColor" stroke-linecap="round" stroke-linejoin="round" stroke-width="1.5" d="M.786 1.602v1.182m0 13v-4.728m0 0 2.182-.545a7.09 7.09 0 0 1 4.891.537l.085.042c1.484.742 3.18.94 4.795.56l2.454-.577a38.254 38.254 0 0 1-.004-8.272l-2.45.577a7.091 7.091 0 0 1-4.795-.56l-.085-.043a7.09 7.09 0 0 0-4.89-.537l-2.183.546m0 8.273V2.784"/>
  </g>
  <defs>
    <clipPath id="a">
      <path d="M0 0h16v16H0z" transform="translate(0 .589)"/>
    </clipPath>
  </defs>
</svg>
