<svg xmlns="http://www.w3.org/2000/svg" width="16" height="16" viewBox="0 0 16 16">
  <defs>
    <clipPath id="a">
      <rect width="16" height="16"/>
    </clipPath>
  </defs>
  <g clip-path="url(#a)">
    <path stroke="currentColor" stroke-linecap="round" stroke-linejoin="round" stroke-width="1.5" d="M.786 1.013v1.182m0 13v-4.727m0 0 2.182-.546a7.09 7.09 0 0 1 4.891.537l.085.043c1.484.741 3.18.94 4.795.56l2.454-.577a38.254 38.254 0 0 1-.004-8.272l-2.45.576a7.09 7.09 0 0 1-4.795-.56l-.085-.042a7.09 7.09 0 0 0-4.89-.537l-2.183.545m0 8.273V2.195"/>
  </g>
</svg>
