<svg viewBox="0 0 17 17">
  <g clip-path="url(#a)">
    <path stroke="currentColor" stroke-linecap="round" stroke-linejoin="round" stroke-width="1.5" d="M14.9 1.345v4.473a2 2 0 0 1-2 2h-.87a2 2 0 0 1-2-2V1.345m2.457-.049v4.112m-7.602 2.85c.51 0 .923.413.923.923v5.7a.923.923 0 1 1-1.846 0v-5.7c0-.51.413-.923.923-.923Zm0 0c1.464 0 2.65-1.012 2.65-2.921 0-1.91-1.186-3.992-2.65-3.992-1.463 0-2.65 2.083-2.65 3.992 0 1.909 1.187 2.921 2.65 2.921Zm7.58 7.546a.923.923 0 0 1-.923-.923v-5.7a.923.923 0 0 1 1.846 0v5.7c0 .51-.413.923-.923.923Z"/>
  </g>
  <defs>
    <clipPath id="a">
      <path d="M0 0h16v16H0z" transform="translate(.568 .55)"/>
    </clipPath>
  </defs>
</svg>
