<svg width="16" height="17" viewBox="0 0 16 17" fill="none" xmlns="http://www.w3.org/2000/svg">
<g clip-path="url(#clip0_1243_5004)">
<path d="M8.00005 1.41296C10.1837 1.41296 12.3243 1.59691 14.4073 1.95014C14.8297 2.02177 15.1342 2.39078 15.1342 2.8192V3.64676C15.1342 4.11979 14.9462 4.57344 14.6118 4.90791L10.3059 9.21376C9.97145 9.54824 9.78354 10.0019 9.78354 10.4749V12.7954C9.78354 13.471 9.40186 14.0886 8.79762 14.3907L6.21646 15.6813V10.4749C6.21646 10.0019 6.02855 9.54824 5.69407 9.21376L1.38823 4.90792C1.05375 4.57344 0.865845 4.11979 0.865845 3.64676V2.81922C0.865845 2.3908 1.1703 2.02179 1.59269 1.95016C3.67575 1.59691 5.81642 1.41296 8.00005 1.41296Z" stroke="black" stroke-width="1.5" stroke-linecap="round" stroke-linejoin="round"/>
</g>
<defs>
<clipPath id="clip0_1243_5004">
<rect width="16" height="16" fill="white" transform="translate(0 0.547119)"/>
</clipPath>
</defs>
</svg>
