<svg viewBox="0 0 17 17">
  <g clip-path="url(#a)">
    <path stroke="currentColor" stroke-width="1.5" d="M1.395 7.906a.25.25 0 0 1 0-.354l.324-.324a.248.248 0 0 1 .195-.072c.39.027.874-.083 1.225-.435l3.568-3.567c.351-.352.461-.836.434-1.226a.248.248 0 0 1 .073-.194l.324-.324a.25.25 0 0 1 .353 0l3.54 3.54a.25.25 0 0 1 0 .353l-.324.324a.248.248 0 0 1-.195.072c-.39-.027-.874.083-1.225.435L6.119 9.7c-.351.352-.461.836-.434 1.226a.248.248 0 0 1-.073.194l-.324.324a.25.25 0 0 1-.353 0l-3.54-3.54Zm7.582 2.44 1.354-1.354a.25.25 0 0 1 .354 0l4.752 4.751a1.207 1.207 0 1 1-1.708 1.708L8.977 10.7a.25.25 0 0 1 0-.353Z"/>
  </g>
  <defs>
    <clipPath id="a">
      <path d="M0 0h16v16H0z" transform="translate(.568 .55)"/>
    </clipPath>
  </defs>
</svg>
