<svg xmlns="http://www.w3.org/2000/svg" width="16" height="16" viewBox="0 0 16 16">
  <defs>
    <clipPath id="a">
      <rect width="16" height="16"/>
    </clipPath>
  </defs>
  <g clip-path="url(#a)">
    <path stroke="currentColor" stroke-width="1.5" d="M.828 7.356a.25.25 0 0 1 0-.354l.324-.324a.248.248 0 0 1 .194-.072c.39.027.874-.083 1.226-.435l3.567-3.567c.351-.352.461-.836.434-1.226a.248.248 0 0 1 .073-.194L6.97.86a.25.25 0 0 1 .354 0l3.539 3.54a.25.25 0 0 1 0 .353l-.324.324a.248.248 0 0 1-.195.072c-.39-.027-.874.083-1.225.435L5.55 9.15c-.351.352-.461.836-.434 1.226a.248.248 0 0 1-.073.194l-.324.324a.25.25 0 0 1-.353 0L.827 7.356Zm7.581 2.44 1.355-1.354a.25.25 0 0 1 .353 0l4.752 4.752A1.207 1.207 0 1 1 13.16 14.9l-4.75-4.75a.25.25 0 0 1 0-.354Z"/>
  </g>
</svg>
