<svg viewBox="0 0 17 17">
  <g clip-path="url(#a)">
    <path stroke="currentColor" stroke-linecap="round" stroke-linejoin="round" stroke-width="1.5" d="M8.912 16.154a7.178 7.178 0 0 0 6.948-5.379m-6.948 5.379a7.178 7.178 0 0 1-6.948-5.379m6.948 5.379c1.981 0 3.587-3.212 3.587-7.175 0-3.962-1.606-7.174-3.587-7.174m0 14.349c-1.981 0-3.587-3.212-3.587-7.175 0-3.962 1.606-7.174 3.587-7.174m0 0a7.172 7.172 0 0 1 6.252 3.653M8.912 1.805A7.172 7.172 0 0 0 2.66 5.458m12.504 0a9.529 9.529 0 0 1-6.252 2.326A9.529 9.529 0 0 1 2.66 5.458m12.504 0a7.142 7.142 0 0 1 .923 3.521 7.19 7.19 0 0 1-.227 1.796m0 0a14.284 14.284 0 0 1-6.948 1.792c-2.52 0-4.89-.65-6.948-1.792m0 0a7.187 7.187 0 0 1-.226-1.796c0-1.28.335-2.48.922-3.521"/>
  </g>
  <defs>
    <clipPath id="a">
      <path d="M0 0h16v16H0z" transform="translate(.912 .98)"/>
    </clipPath>
  </defs>
</svg>
