<svg xmlns="http://www.w3.org/2000/svg" width="16" height="16" viewBox="0 0 16 16">
  <defs>
    <clipPath id="a">
      <rect width="16" height="16"/>
    </clipPath>
  </defs>
  <g stroke="currentColor" stroke-linecap="round" stroke-linejoin="round" stroke-width="1.5" clip-path="url(#a)">
    <path d="M.75 1.279a.5.5 0 0 1 .5-.5h2.3a.5.5 0 0 1 .5.5v2.3a.5.5 0 0 1-.5.5h-2.3a.5.5 0 0 1-.5-.5v-2.3Zm5.573 0a.5.5 0 0 1 .5-.5h2.3a.5.5 0 0 1 .5.5v2.3a.5.5 0 0 1-.5.5h-2.3a.5.5 0 0 1-.5-.5v-2.3Zm5.573 0a.5.5 0 0 1 .5-.5h2.3a.5.5 0 0 1 .5.5v2.3a.5.5 0 0 1-.5.5h-2.3a.5.5 0 0 1-.5-.5v-2.3ZM.75 6.85a.5.5 0 0 1 .5-.5h2.3a.5.5 0 0 1 .5.5v2.3a.5.5 0 0 1-.5.5h-2.3a.5.5 0 0 1-.5-.5v-2.3Zm5.573 0a.5.5 0 0 1 .5-.5h2.3a.5.5 0 0 1 .5.5v2.3a.5.5 0 0 1-.5.5h-2.3a.5.5 0 0 1-.5-.5v-2.3Zm5.573 0a.5.5 0 0 1 .5-.5h2.3a.5.5 0 0 1 .5.5v2.3a.5.5 0 0 1-.5.5h-2.3a.5.5 0 0 1-.5-.5v-2.3ZM.75 12.421a.5.5 0 0 1 .5-.5h2.3a.5.5 0 0 1 .5.5v2.3a.5.5 0 0 1-.5.5h-2.3a.5.5 0 0 1-.5-.5v-2.3Zm5.573 0a.5.5 0 0 1 .5-.5h2.3a.5.5 0 0 1 .5.5v2.3a.5.5 0 0 1-.5.5h-2.3a.5.5 0 0 1-.5-.5v-2.3Zm5.573 0a.5.5 0 0 1 .5-.5h2.3a.5.5 0 0 1 .5.5v2.3a.5.5 0 0 1-.5.5h-2.3a.5.5 0 0 1-.5-.5v-2.3Z"/>
  </g>
</svg>
