<svg viewBox="0 0 17 17">
  <g stroke="currentColor" stroke-linecap="round" stroke-linejoin="round" stroke-width="1.5" clip-path="url(#a)">
    <path d="M1.317 1.829a.5.5 0 0 1 .5-.5h2.3a.5.5 0 0 1 .5.5v2.3a.5.5 0 0 1-.5.5h-2.3a.5.5 0 0 1-.5-.5v-2.3Zm5.573 0a.5.5 0 0 1 .5-.5h2.3a.5.5 0 0 1 .5.5v2.3a.5.5 0 0 1-.5.5h-2.3a.5.5 0 0 1-.5-.5v-2.3Zm5.574 0a.5.5 0 0 1 .5-.5h2.3a.5.5 0 0 1 .5.5v2.3a.5.5 0 0 1-.5.5h-2.3a.5.5 0 0 1-.5-.5v-2.3ZM1.317 7.4a.5.5 0 0 1 .5-.5h2.3a.5.5 0 0 1 .5.5v2.3a.5.5 0 0 1-.5.5h-2.3a.5.5 0 0 1-.5-.5V7.4Zm5.573 0a.5.5 0 0 1 .5-.5h2.3a.5.5 0 0 1 .5.5v2.3a.5.5 0 0 1-.5.5h-2.3a.5.5 0 0 1-.5-.5V7.4Zm5.574 0a.5.5 0 0 1 .5-.5h2.3a.5.5 0 0 1 .5.5v2.3a.5.5 0 0 1-.5.5h-2.3a.5.5 0 0 1-.5-.5V7.4ZM1.317 12.97a.5.5 0 0 1 .5-.5h2.3a.5.5 0 0 1 .5.5v2.3a.5.5 0 0 1-.5.5h-2.3a.5.5 0 0 1-.5-.5v-2.3Zm5.573 0a.5.5 0 0 1 .5-.5h2.3a.5.5 0 0 1 .5.5v2.3a.5.5 0 0 1-.5.5h-2.3a.5.5 0 0 1-.5-.5v-2.3Zm5.574 0a.5.5 0 0 1 .5-.5h2.3a.5.5 0 0 1 .5.5v2.3a.5.5 0 0 1-.5.5h-2.3a.5.5 0 0 1-.5-.5v-2.3Z"/>
  </g>
  <defs>
    <clipPath id="a">
      <path d="M0 0h16v16H0z" transform="translate(.568 .55)"/>
    </clipPath>
  </defs>
</svg>
