<svg viewBox="0 0 16 17">
  <path stroke="currentColor" stroke-linecap="round" stroke-linejoin="round" stroke-width="1.5" d="M4.025 7.883c.593 0 1.129-.328 1.495-.795a6.651 6.651 0 0 1 2.105-1.765c.531-.283.992-.703 1.216-1.262a3.31 3.31 0 0 0 .236-1.23v-.466c0-.304.247-.551.552-.551.914 0 1.655.74 1.655 1.655 0 .847-.19 1.65-.532 2.367-.195.41.079.943.534.943m0 0h2.3c.755 0 1.43.511 1.51 1.262a8.792 8.792 0 0 1-1.899 6.479c-.284.354-.725.536-1.18.536H9.063c-.356 0-.71-.057-1.047-.17l-2.291-.764a3.308 3.308 0 0 0-1.047-.17H3.489m7.797-7.173H9.629m-6.14 7.173c.061.15.128.299.199.443.145.294-.057.66-.385.66h-.668c-.654 0-1.26-.38-1.451-1.005A8.828 8.828 0 0 1 .8 11.47c0-1.143.217-2.234.612-3.236.224-.57.799-.903 1.41-.903h.775c.347 0 .548.41.368.706a6.59 6.59 0 0 0-.958 3.432c0 .879.17 1.717.481 2.483Z"/>
</svg>
