<svg viewBox="0 0 16 17">
  <g clip-path="url(#a)">
    <path stroke="currentColor" stroke-linecap="round" stroke-linejoin="round" stroke-width="1.5" d="M4.667 10.512H2.352c-.76 0-1.44-.514-1.52-1.27a8.847 8.847 0 0 1 1.911-6.52c.286-.357.73-.54 1.188-.54h2.973c.358 0 .714.058 1.054.171l2.306.769c.34.113.695.17 1.053.17h.958m-7.608 7.22c.458 0 .733.536.537.95a5.531 5.531 0 0 0-.536 2.381c0 .92.746 1.666 1.666 1.666a.555.555 0 0 0 .555-.555v-.469c0-.424.081-.844.239-1.237.225-.563.689-.986 1.223-1.27A6.694 6.694 0 0 0 10.47 10.2c.368-.47.907-.8 1.504-.8h.284m-7.591 1.11h1.63m5.978-7.218c.008.037.02.074.038.11.438.887.685 1.887.685 2.944 0 1.1-.267 2.14-.74 3.054m.017-6.108c-.057-.27.136-.556.426-.556h.672c.658 0 1.268.384 1.46 1.013.251.822.386 1.694.386 2.597a8.86 8.86 0 0 1-.616 3.256c-.226.573-.804.909-1.42.909h-.78c-.349 0-.55-.412-.37-.71.08-.131.155-.265.225-.4"/>
  </g>
  <defs>
    <clipPath id="a">
      <path d="M0 0h16v16H0z" transform="rotate(-180 8 8.294)"/>
    </clipPath>
  </defs>
</svg>
