<svg xmlns="http://www.w3.org/2000/svg" width="16" height="16" viewBox="0 0 16 16">
  <defs>
    <clipPath id="a">
      <rect width="16" height="16"/>
    </clipPath>
  </defs>
  <g clip-path="url(#a)">
    <path stroke="currentColor" stroke-linecap="round" stroke-width="1.5" d="m2.841 11.484 3.271-3.27a1.427 1.427 0 0 1 2.018 0l3.27 3.27m-.95-.95.893-.894a1.426 1.426 0 0 1 2.017 0l1.845 1.844m-12.774.663h-.704a1 1 0 0 1-1-1V3.042a1 1 0 0 1 1-1H12.7a1 1 0 0 1 1 1v.599M3.792 13.86h10.462a.951.951 0 0 0 .95-.95V5.302a.951.951 0 0 0-.95-.95H3.792a.951.951 0 0 0-.95.95v7.609c0 .525.425.95.95.95Zm6.658-7.13h.004v.005h-.004V6.73Zm.237 0a.238.238 0 1 1-.475 0 .238.238 0 0 1 .475 0Z"/>
  </g>
</svg>
