<svg viewBox="0 0 17 17">
  <g clip-path="url(#a)">
    <path stroke="currentColor" stroke-linecap="round" stroke-width="1.5" d="m3.361 12.277 3.271-3.27a1.427 1.427 0 0 1 2.018 0l3.27 3.27m-.95-.95.893-.894a1.427 1.427 0 0 1 2.018 0l1.844 1.845M2.95 12.94h-.704a1 1 0 0 1-1-1V3.835a1 1 0 0 1 1-1H13.22a1 1 0 0 1 1 1v.6m-9.908 10.22h10.462a.951.951 0 0 0 .95-.95v-7.61a.951.951 0 0 0-.95-.95H4.312a.951.951 0 0 0-.95.95v7.61c0 .524.425.95.95.95Zm6.658-7.133h.004v.005h-.004v-.005Zm.237 0a.238.238 0 1 1-.475 0 .238.238 0 0 1 .475 0Z"/>
  </g>
  <defs>
    <clipPath id="a">
      <path d="M0 0h16v16H0z" transform="translate(.52 .793)"/>
    </clipPath>
  </defs>
</svg>
