<svg viewBox="0 0 16 17">
  <path stroke="currentColor" stroke-linecap="round" stroke-linejoin="round" stroke-width="1.5" d="M5.786 2.528h-1.54A1.66 1.66 0 0 0 2.659 3.7L.879 9.483a1.66 1.66 0 0 0-.073.489v3.07c0 .917.743 1.66 1.66 1.66h11.068a1.66 1.66 0 0 0 1.66-1.66v-3.07c0-.166-.025-.33-.073-.489L13.34 3.7a1.66 1.66 0 0 0-1.587-1.172h-1.54M.806 9.722h2.848a1.66 1.66 0 0 1 1.485.918l.189.378a1.66 1.66 0 0 0 1.484.917h2.376a1.66 1.66 0 0 0 1.484-.917l.19-.378a1.66 1.66 0 0 1 1.484-.918h2.848M8 1.975v6.087m0 0L5.786 5.848M8 8.062l2.214-2.214"/>
</svg>
