<svg xmlns="http://www.w3.org/2000/svg" width="16" height="16" viewBox="0 0 16 16">
  <path stroke="currentColor" stroke-linecap="round" stroke-linejoin="round" stroke-width="1.5" d="M5.786 1.94h-1.54a1.66 1.66 0 0 0-1.587 1.17L.879 8.895a1.66 1.66 0 0 0-.073.488v3.07a1.66 1.66 0 0 0 1.66 1.661h11.068a1.66 1.66 0 0 0 1.66-1.66v-3.07a1.7 1.7 0 0 0-.073-.49l-1.78-5.783a1.66 1.66 0 0 0-1.587-1.172h-1.54M.806 9.133h2.848a1.66 1.66 0 0 1 1.484.918l.19.378a1.66 1.66 0 0 0 1.484.918h2.375a1.66 1.66 0 0 0 1.485-.918l.19-.378a1.66 1.66 0 0 1 1.484-.918h2.848M8 1.386v6.087m0 0L5.786 5.26M8 7.473l2.213-2.213"/>
</svg>
