<svg width="16" height="17" viewBox="0 0 16 17" fill="none" xmlns="http://www.w3.org/2000/svg">
<path d="M4.94509 4.10879H15.2075M4.94509 8.59857H15.2075M4.94509 13.0884H15.2075M1.0967 4.10879H1.10311V4.1152H1.0967V4.10879ZM1.4174 4.10879C1.4174 4.2859 1.27382 4.42948 1.0967 4.42948C0.919583 4.42948 0.776001 4.2859 0.776001 4.10879C0.776001 3.93167 0.919583 3.78809 1.0967 3.78809C1.27382 3.78809 1.4174 3.93167 1.4174 4.10879ZM1.0967 8.59857H1.10311V8.60499H1.0967V8.59857ZM1.4174 8.59857C1.4174 8.77569 1.27382 8.91927 1.0967 8.91927C0.919583 8.91927 0.776001 8.77569 0.776001 8.59857C0.776001 8.42145 0.919583 8.27787 1.0967 8.27787C1.27382 8.27787 1.4174 8.42145 1.4174 8.59857ZM1.0967 13.0884H1.10311V13.0948H1.0967V13.0884ZM1.4174 13.0884C1.4174 13.2655 1.27382 13.4091 1.0967 13.4091C0.919583 13.4091 0.776001 13.2655 0.776001 13.0884C0.776001 12.9112 0.919583 12.7677 1.0967 12.7677C1.27382 12.7677 1.4174 12.9112 1.4174 13.0884Z" stroke="black" stroke-width="1.5" stroke-linecap="round" stroke-linejoin="round"/>
</svg>
