<svg xmlns="http://www.w3.org/2000/svg" width="16" height="16" viewBox="0 0 16 16">
  <defs>
    <clipPath id="a">
      <rect width="16" height="16"/>
    </clipPath>
  </defs>
  <g clip-path="url(#a)">
    <path stroke="currentColor" stroke-linecap="round" stroke-linejoin="round" stroke-width="1.5" d="M3.402 11.784c-1.235.367-2.002.88-2.002 1.447 0 1.114 2.955 2.017 6.6 2.017 3.645 0 6.6-.903 6.6-2.017 0-.567-.767-1.08-2.002-1.447m-2.77-6.4a1.827 1.827 0 1 1-3.655 0 1.827 1.827 0 0 1 3.655 0Zm2.74 0c0 4.35-4.568 6.853-4.568 6.853S3.431 9.734 3.431 5.384a4.569 4.569 0 0 1 9.138 0Z"/>
  </g>
</svg>
