<svg viewBox="0 0 17 17">
  <g clip-path="url(#a)">
    <path stroke="currentColor" stroke-linecap="round" stroke-linejoin="round" stroke-width="1.5" d="M3.922 12.578c-1.235.366-2.002.879-2.002 1.447 0 1.113 2.955 2.016 6.6 2.016 3.645 0 6.6-.903 6.6-2.017 0-.567-.767-1.08-2.002-1.446m-2.77-6.4a1.828 1.828 0 1 1-3.655 0 1.828 1.828 0 0 1 3.655 0Zm2.74 0c0 4.35-4.568 6.852-4.568 6.852s-4.569-2.502-4.569-6.853a4.569 4.569 0 0 1 9.138 0Z"/>
  </g>
  <defs>
    <clipPath id="a">
      <path d="M0 0h16v16H0z" transform="translate(.52 .793)"/>
    </clipPath>
  </defs>
</svg>
