<svg width="16" height="17" viewBox="0 0 16 17" fill="none" xmlns="http://www.w3.org/2000/svg">
<g clip-path="url(#clip0_1243_5046)">
<path d="M6.66966 11.7806C6.11742 11.7329 5.55851 11.7086 4.99392 11.7086H4.3927C2.40044 11.7086 0.7854 10.0936 0.7854 8.10133C0.7854 6.10907 2.40044 4.49403 4.3927 4.49403H4.99392C5.55851 4.49403 6.11742 4.46971 6.66966 4.42206M6.66966 11.7806C6.87235 12.5515 7.13723 13.2972 7.45861 14.012C7.65698 14.4532 7.50637 14.9815 7.08744 15.2233L6.56132 15.5271C6.11932 15.7823 5.55152 15.621 5.33734 15.1577C4.83503 14.0713 4.44513 12.9222 4.18256 11.7254M6.66966 11.7806C6.36082 10.606 6.19635 9.37287 6.19635 8.10133C6.19635 6.82979 6.36082 5.59666 6.66966 4.42206M6.66966 11.7806C9.2024 11.9991 11.5948 12.7084 13.7514 13.8128M6.66966 4.42206C9.2024 4.20352 11.5948 3.49427 13.7514 2.38984M13.7514 2.38984C13.6571 2.08591 13.5554 1.78521 13.4466 1.48795M13.7514 2.38984C14.1803 3.77119 14.4576 5.21919 14.5642 6.71445M13.7514 13.8128C13.6571 14.1167 13.5554 14.4174 13.4466 14.7147M13.7514 13.8128C14.1803 12.4315 14.4576 10.9835 14.5642 9.4882M14.5642 6.71445C14.9616 7.0453 15.2146 7.54377 15.2146 8.10133C15.2146 8.65888 14.9616 9.15735 14.5642 9.4882M14.5642 6.71445C14.5968 7.1725 14.6134 7.63497 14.6134 8.10133C14.6134 8.56768 14.5968 9.03016 14.5642 9.4882" stroke="black" stroke-width="1.5" stroke-linecap="round" stroke-linejoin="round"/>
</g>
<defs>
<clipPath id="clip0_1243_5046">
<rect width="16" height="16" fill="white" transform="translate(0 0.547119)"/>
</clipPath>
</defs>
</svg>
