<svg viewBox="0 0 17 16">
  <g clip-path="url(#a)">
    <path stroke="currentColor" stroke-linecap="round" stroke-linejoin="round" stroke-width="1.5" d="M7.485 11.233a19.51 19.51 0 0 0-1.676-.072h-.601a3.607 3.607 0 1 1 0-7.214h.601c.565 0 1.124-.024 1.676-.072m0 7.358a14.3 14.3 0 0 0 .789 2.232c.198.441.048.97-.371 1.211l-.526.304c-.442.255-1.01.094-1.224-.37a16.707 16.707 0 0 1-1.155-3.432m2.487.055a14.452 14.452 0 0 1-.473-3.679c0-1.271.164-2.504.473-3.679m0 7.358c2.533.219 4.925.928 7.082 2.033M7.485 3.875a19.117 19.117 0 0 0 7.082-2.032m0 0a19.039 19.039 0 0 0-.305-.902m.305.902a19.19 19.19 0 0 1 .812 4.324m-.812 7.099c-.095.304-.196.604-.305.902m.305-.902c.428-1.382.706-2.83.812-4.325m0-2.774c.398.331.65.83.65 1.387a1.8 1.8 0 0 1-.65 1.387m0-2.774a19.474 19.474 0 0 1 0 2.774"/>
  </g>
  <defs>
    <clipPath id="a">
      <path d="M0 0h16v16H0z" transform="translate(.815)"/>
    </clipPath>
  </defs>
</svg>
