<svg xmlns="http://www.w3.org/2000/svg" width="16" height="16" viewBox="0 0 16 16">
  <defs>
    <clipPath id="a">
      <rect width="16" height="16"/>
    </clipPath>
  </defs>
  <g clip-path="url(#a)">
    <path stroke="currentColor" stroke-linecap="round" stroke-linejoin="round" stroke-width="1.5" d="M6.67 11.233a19.51 19.51 0 0 0-1.676-.072h-.601a3.607 3.607 0 1 1 0-7.214h.6c.566 0 1.124-.024 1.677-.072m0 7.358c.202.771.467 1.517.789 2.232.198.441.047.97-.372 1.211l-.526.304c-.442.255-1.01.094-1.224-.37a16.706 16.706 0 0 1-1.154-3.432m2.487.055a14.451 14.451 0 0 1-.474-3.679c0-1.271.165-2.504.474-3.679m0 7.358c2.532.219 4.925.928 7.081 2.033M6.67 3.875a19.117 19.117 0 0 0 7.081-2.032m0 0a19.038 19.038 0 0 0-.304-.902m.304.902a19.17 19.17 0 0 1 .813 4.324m-.813 7.099c-.094.304-.196.604-.304.902m.304-.902c.43-1.382.707-2.83.813-4.325m0-2.774c.398.331.65.83.65 1.387a1.8 1.8 0 0 1-.65 1.387m0-2.774a19.534 19.534 0 0 1 0 2.774"/>
  </g>
</svg>
