<svg width="16" height="17" viewBox="0 0 16 17" fill="none" xmlns="http://www.w3.org/2000/svg">
<g clip-path="url(#clip0_1243_5038)">
<path d="M12.7216 9.09189L7.05026 14.7632C5.75473 16.0587 3.65426 16.0587 2.35873 14.7632C1.0632 13.4677 1.0632 11.3672 2.35873 10.0717L10.4232 2.00715C11.2869 1.14347 12.6872 1.14347 13.5509 2.00716C14.4146 2.87084 14.4146 4.27115 13.5509 5.13484L5.47973 13.206M5.48642 13.1993C5.48419 13.2016 5.48196 13.2038 5.47973 13.206M9.68049 5.87745L3.92258 11.6355C3.49073 12.0673 3.49073 12.7675 3.92258 13.1993C4.3522 13.629 5.04737 13.6312 5.47973 13.206" stroke="black" stroke-width="1.5" stroke-linecap="round" stroke-linejoin="round"/>
</g>
<defs>
<clipPath id="clip0_1243_5038">
<rect width="16" height="16" fill="white" transform="translate(0 0.547119)"/>
</clipPath>
</defs>
</svg>
