<svg viewBox="0 0 16 17">
  <g clip-path="url(#a)">
    <path stroke="currentColor" stroke-linecap="round" stroke-linejoin="round" stroke-width="1.5" d="M.811 5.108c0 6.109 4.952 11.06 11.06 11.06h1.659c.916 0 1.659-.742 1.659-1.659v-1.011a.83.83 0 0 0-.629-.805l-3.26-.815a.83.83 0 0 0-.866.307l-.715.954a.783.783 0 0 1-.891.28A8.874 8.874 0 0 1 3.56 8.152a.783.783 0 0 1 .28-.892l.954-.715a.83.83 0 0 0 .307-.865l-.815-3.26a.83.83 0 0 0-.805-.628h-1.01c-.917 0-1.66.742-1.66 1.658v1.66Z"/>
  </g>
  <defs>
    <clipPath id="a">
      <path d="M0 0h16v16H0z" transform="translate(0 .98)"/>
    </clipPath>
  </defs>
</svg>
