<svg xmlns="http://www.w3.org/2000/svg" width="16" height="16" viewBox="0 0 16 16">
  <defs>
    <clipPath id="a">
      <rect width="16" height="16"/>
    </clipPath>
  </defs>
  <g clip-path="url(#a)">
    <path stroke="currentColor" stroke-linecap="round" stroke-linejoin="round" stroke-width="1.5" d="M.811 4.13c0 6.107 4.952 11.059 11.06 11.059h1.659a1.66 1.66 0 0 0 1.659-1.66v-1.01a.83.83 0 0 0-.629-.805l-3.26-.816a.83.83 0 0 0-.866.308l-.715.953a.783.783 0 0 1-.891.28A8.874 8.874 0 0 1 3.56 7.173a.783.783 0 0 1 .28-.891l.954-.715a.83.83 0 0 0 .307-.865L4.286 1.44a.83.83 0 0 0-.805-.628h-1.01a1.66 1.66 0 0 0-1.66 1.66V4.13Z"/>
  </g>
</svg>
