<svg width="16" height="17" viewBox="0 0 16 17" fill="none" xmlns="http://www.w3.org/2000/svg">
<path d="M0.858765 11.2937L4.6374 7.51508C5.28098 6.87151 6.32442 6.87151 6.96799 7.51508L10.7466 11.2937M9.64798 10.1951L10.68 9.16306C11.3236 8.51949 12.367 8.51949 13.0106 9.16306L15.1412 11.2937M1.95742 14.0403H14.0426C14.6494 14.0403 15.1412 13.5485 15.1412 12.9417V4.15248C15.1412 3.54572 14.6494 3.05383 14.0426 3.05383H1.95742C1.35065 3.05383 0.858765 3.54572 0.858765 4.15248V12.9417C0.858765 13.5485 1.35065 14.0403 1.95742 14.0403ZM9.64798 5.80046H9.65347V5.80596H9.64798V5.80046ZM9.92264 5.80046C9.92264 5.95215 9.79967 6.07513 9.64798 6.07513C9.49628 6.07513 9.37331 5.95215 9.37331 5.80046C9.37331 5.64877 9.49628 5.5258 9.64798 5.5258C9.79967 5.5258 9.92264 5.64877 9.92264 5.80046Z" stroke="black" stroke-width="1.5" stroke-linecap="round" stroke-linejoin="round"/>
</svg>
