<svg viewBox="0 0 17 17">
  <g clip-path="url(#a)">
    <path stroke="currentColor" stroke-width="1.5" d="m6.196 2.428-.061-.682h-.686a.305.305 0 0 1-.208-.076.162.162 0 0 1-.06-.12v-.027c0-.073.081-.223.297-.223h6.18c.215 0 .296.15.296.223v.027a.162.162 0 0 1-.059.12.305.305 0 0 1-.209.076h-.685l-.061.682-.347 3.833-.026.286.172.23 1.545 2.07H9.309l-.097.637-.644 4.238-.645-4.238-.097-.637H4.852l1.545-2.07.172-.23-.026-.286-.347-3.833Z"/>
  </g>
  <defs>
    <clipPath id="a">
      <path d="M0 0h16v16H0z" transform="translate(.568 .55)"/>
    </clipPath>
  </defs>
</svg>
