<svg width="16" height="17" viewBox="0 0 16 17" fill="none" xmlns="http://www.w3.org/2000/svg">
<g clip-path="url(#clip0_1243_5062)">
<path d="M4.10347 9.89668C3.92585 9.91896 3.74869 9.94274 3.57202 9.96801M4.10347 9.89668C5.3798 9.73659 6.68027 9.65411 8 9.65411C9.31973 9.65411 10.6202 9.73659 11.8965 9.89668M4.10347 9.89668L3.82361 12.9751M11.8965 9.89668C12.0742 9.91896 12.2513 9.94274 12.428 9.96801M11.8965 9.89668L12.1764 12.9751M12.1764 12.9751L12.3457 14.8372C12.3899 15.3234 12.007 15.7426 11.5188 15.7426H4.48117C3.99296 15.7426 3.61013 15.3234 3.65433 14.8372L3.82361 12.9751M12.1764 12.9751H12.9815C13.8985 12.9751 14.642 12.2317 14.642 11.3146V6.66943C14.642 5.8717 14.0753 5.18246 13.2863 5.06441C12.8186 4.99443 12.348 4.9336 11.8745 4.88209M3.82361 12.9751H3.01852C2.10146 12.9751 1.35803 12.2317 1.35803 11.3146V6.66943C1.35803 5.8717 1.92474 5.18246 2.71369 5.06441C3.18137 4.99443 3.65204 4.9336 4.12552 4.88209M11.8745 4.88209C10.602 4.74367 9.3093 4.67264 8 4.67264C6.6907 4.67264 5.39799 4.74367 4.12552 4.88209M11.8745 4.88209V2.1819C11.8745 1.72337 11.5028 1.35165 11.0442 1.35165H4.95576C4.49723 1.35165 4.12552 1.72337 4.12552 2.1819V4.88209M12.428 7.44012H12.4335V7.44566H12.428V7.44012ZM10.214 7.44012H10.2195V7.44566H10.214V7.44012Z" stroke="black" stroke-width="1.5" stroke-linecap="round" stroke-linejoin="round"/>
</g>
<defs>
<clipPath id="clip0_1243_5062">
<rect width="16" height="16" fill="white" transform="translate(0 0.547119)"/>
</clipPath>
</defs>
</svg>
