<svg xmlns="http://www.w3.org/2000/svg" width="16" height="16" viewBox="0 0 16 16">
  <defs>
    <clipPath id="a">
      <rect width="16" height="16"/>
    </clipPath>
  </defs>
  <g stroke="currentColor" stroke-linecap="round" stroke-linejoin="round" stroke-width="1.5" clip-path="url(#a)">
    <path d="M.917 1.882c0-.533.432-.966.965-.966h3.864c.534 0 .966.433.966.966v3.864a.966.966 0 0 1-.966.966H1.882a.966.966 0 0 1-.965-.966V1.882Zm0 8.372c0-.534.432-.966.965-.966h3.864c.534 0 .966.432.966.966v3.864a.966.966 0 0 1-.966.966H1.882a.966.966 0 0 1-.965-.966v-3.864Zm8.371-8.372c0-.533.432-.966.966-.966h3.864c.533 0 .966.433.966.966v3.864a.966.966 0 0 1-.966.966h-3.864a.966.966 0 0 1-.966-.966V1.882Z"/>
    <path d="M3.492 3.492h.644v.644h-.644v-.644Zm0 8.372h.644v.644h-.644v-.644Zm8.372-8.372h.644v.644h-.644v-.644ZM9.288 9.288h.644v.644h-.644v-.644Zm0 5.152h.644v.644h-.644v-.644Zm5.152-5.152h.644v.644h-.644v-.644Zm0 5.152h.644v.644h-.644v-.644Zm-2.576-2.576h.644v.644h-.644v-.644Z"/>
  </g>
</svg>
