<svg viewBox="0 0 17 17">
  <g stroke="currentColor" stroke-linecap="round" stroke-linejoin="round" stroke-width="1.5" clip-path="url(#a)">
    <path d="M1.732 2.862c0-.534.432-.966.966-.966H6.56c.534 0 .966.432.966.966v3.864a.966.966 0 0 1-.966.965H2.698a.966.966 0 0 1-.966-.965V2.862Zm0 8.371c0-.533.432-.966.966-.966H6.56c.534 0 .966.433.966.966v3.864a.966.966 0 0 1-.966.966H2.698a.966.966 0 0 1-.966-.966v-3.864Zm8.371-8.371c0-.534.433-.966.966-.966h3.864c.533 0 .966.432.966.966v3.864a.966.966 0 0 1-.966.965h-3.864a.966.966 0 0 1-.966-.965V2.862Z"/>
    <path d="M4.308 4.472h.643v.644h-.643v-.644Zm0 8.371h.643v.644h-.643v-.644Zm8.371-8.371h.644v.644h-.644v-.644Zm-2.576 5.795h.644v.644h-.644v-.644Zm0 5.152h.644v.644h-.644v-.644Zm5.152-5.152h.644v.644h-.644v-.644Zm0 5.152h.644v.644h-.644v-.644Zm-2.576-2.576h.644v.644h-.644v-.644Z"/>
  </g>
  <defs>
    <clipPath id="a">
      <path d="M0 0h16v16H0z" transform="translate(.815 .98)"/>
    </clipPath>
  </defs>
</svg>
