<svg viewBox="0 0 17 17">
  <g stroke="currentColor" stroke-linecap="round" stroke-linejoin="round" stroke-width="1.454" clip-path="url(#a)">
    <path d="M4.021 5.63a1.675 1.675 0 0 1 1.671-1.553h5.752c.878 0 1.607.678 1.67 1.554l.428 5.9c.07.97-.698 1.796-1.67 1.796H5.264a1.675 1.675 0 0 1-1.671-1.796l.427-5.9Z"/>
    <path d="M6.254 8.523a1.005 1.005 0 0 1 1.003-.946h2.621c.532 0 .972.415 1.004.946l.222 3.74a1.005 1.005 0 0 1-1.004 1.064H7.036a1.005 1.005 0 0 1-1.004-1.065l.222-3.74Z"/>
    <path d="M2.08 13.235c0-.782.975-1.138 1.478-.54l.232.277c.19.227.473.358.77.358h8.042c.3 0 .583-.133.774-.364l.198-.239c.5-.604 1.482-.25 1.482.534v.551c0 1.11-.9 2.01-2.01 2.01H4.09c-1.11 0-2.01-.9-2.01-2.01v-.577ZM6.053 2.293c0-.555.45-1.005 1.005-1.005h3.02c.555 0 1.005.45 1.005 1.005v.778c0 .556-.45 1.006-1.005 1.006h-3.02c-.555 0-1.005-.45-1.005-1.006v-.778Z"/>
  </g>
  <defs>
    <clipPath id="a">
      <path d="M0 0h16v16H0z" transform="translate(.568 .55)"/>
    </clipPath>
  </defs>
</svg>
