<svg xmlns="http://www.w3.org/2000/svg" width="16" height="16" viewBox="0 0 16 16">
  <defs>
    <clipPath id="a">
      <rect width="16" height="16"/>
    </clipPath>
  </defs>
  <g clip-path="url(#a)">
    <path stroke="currentColor" stroke-linecap="round" stroke-linejoin="round" stroke-width="1.5" d="M11.883 6.336 13.547 8m0 0 1.664 1.664M13.547 8l1.664-1.664M13.547 8l-1.664 1.664M4.117 5.227l3.49-3.49a.555.555 0 0 1 .948.391v11.744a.555.555 0 0 1-.947.392l-3.49-3.49H2.46c-.65 0-1.26-.375-1.432-1.002A6.663 6.663 0 0 1 .789 8c0-.614.083-1.208.239-1.772.172-.627.782-1.001 1.432-1.001h1.657Z"/>
  </g>
</svg>
