<svg width="16" height="17" viewBox="0 0 16 17" fill="none" xmlns="http://www.w3.org/2000/svg">
<path d="M11.8827 6.88312L13.5467 8.54713M13.5467 8.54713L15.2108 10.2111M13.5467 8.54713L15.2108 6.88312M13.5467 8.54713L11.8827 10.2111M4.11733 5.77377L7.60782 2.28329C7.95724 1.93386 8.5547 2.18134 8.5547 2.6755V14.4188C8.5547 14.9129 7.95724 15.1604 7.60782 14.811L4.11733 11.3205H2.46002C1.80969 11.3205 1.20043 10.9459 1.02772 10.3189C0.872317 9.75481 0.789307 9.16066 0.789307 8.54713C0.789307 7.9336 0.872317 7.33945 1.02772 6.77532C1.20043 6.14834 1.80969 5.77377 2.46002 5.77377H4.11733Z" stroke="black" stroke-width="1.5" stroke-linecap="round" stroke-linejoin="round"/>
</svg>
