<svg xmlns="http://www.w3.org/2000/svg" width="16" height="16" viewBox="0 0 16 16">
  <defs>
    <clipPath id="a">
      <rect width="16" height="16"/>
    </clipPath>
  </defs>
  <g clip-path="url(#a)">
    <path stroke="currentColor" stroke-linecap="round" stroke-linejoin="round" stroke-width="1.5" d="M13.252 3.302a6.644 6.644 0 0 1 0 9.396M11.295 5.26a3.876 3.876 0 0 1 0 5.482m-7.17-5.51 3.483-3.484a.554.554 0 0 1 .946.392v11.72c0 .494-.597.74-.946.392l-3.484-3.485H2.47c-.65 0-1.258-.373-1.43-1A6.651 6.651 0 0 1 .802 8c0-.612.083-1.206.238-1.769.172-.626.78-1 1.43-1h1.654Z"/>
  </g>
</svg>
