<svg viewBox="0 0 17 17">
  <g clip-path="url(#a)">
    <path stroke="currentColor" stroke-linecap="round" stroke-linejoin="round" stroke-width="1.5" d="m12.698 7.315 1.664 1.664m0 0 1.664 1.664M14.362 8.98l1.664-1.664M14.362 8.98l-1.664 1.664M4.932 6.206l3.491-3.49a.555.555 0 0 1 .947.392V14.85a.555.555 0 0 1-.947.392l-3.49-3.49H3.274c-.65 0-1.26-.375-1.432-1.002a6.663 6.663 0 0 1-.239-1.772c0-.613.083-1.207.239-1.771.173-.627.782-1.002 1.432-1.002h1.657Z"/>
  </g>
  <defs>
    <clipPath id="a">
      <path d="M0 0h16v16H0z" transform="translate(.815 .98)"/>
    </clipPath>
  </defs>
</svg>
