<svg width="16" height="17" viewBox="0 0 16 17" fill="none" xmlns="http://www.w3.org/2000/svg">
<g clip-path="url(#clip0_1243_5090)">
<path d="M0.871704 3.3629C0.871704 2.28921 1.7421 1.41882 2.81578 1.41882H4.75985C5.83353 1.41882 6.70392 2.28921 6.70392 3.3629V5.30697C6.70392 6.38065 5.83353 7.25104 4.75985 7.25104H2.81578C1.74209 7.25104 0.871704 6.38065 0.871704 5.30697V3.3629Z" stroke="black" stroke-width="1.5" stroke-linecap="round" stroke-linejoin="round"/>
<path d="M0.871704 11.7872C0.871704 10.7135 1.7421 9.84314 2.81578 9.84314H4.75985C5.83353 9.84314 6.70392 10.7135 6.70392 11.7872V13.7313C6.70392 14.805 5.83353 15.6754 4.75985 15.6754H2.81578C1.74209 15.6754 0.871704 14.805 0.871704 13.7313V11.7872Z" stroke="black" stroke-width="1.5" stroke-linecap="round" stroke-linejoin="round"/>
<path d="M9.29602 3.3629C9.29602 2.28921 10.1664 1.41882 11.2401 1.41882H13.1842C14.2578 1.41882 15.1282 2.28921 15.1282 3.3629V5.30697C15.1282 6.38065 14.2578 7.25104 13.1842 7.25104H11.2401C10.1664 7.25104 9.29602 6.38065 9.29602 5.30697V3.3629Z" stroke="black" stroke-width="1.5" stroke-linecap="round" stroke-linejoin="round"/>
<path d="M9.29602 11.7872C9.29602 10.7135 10.1664 9.84314 11.2401 9.84314H13.1842C14.2578 9.84314 15.1282 10.7135 15.1282 11.7872V13.7313C15.1282 14.805 14.2578 15.6754 13.1842 15.6754H11.2401C10.1664 15.6754 9.29602 14.805 9.29602 13.7313V11.7872Z" stroke="black" stroke-width="1.5" stroke-linecap="round" stroke-linejoin="round"/>
</g>
<defs>
<clipPath id="clip0_1243_5090">
<rect width="16" height="16" fill="white" transform="translate(0 0.547119)"/>
</clipPath>
</defs>
</svg>
