<svg xmlns="http://www.w3.org/2000/svg" width="16" height="16" viewBox="0 0 16 16">
  <defs>
    <clipPath id="a">
      <rect width="16" height="16"/>
    </clipPath>
  </defs>
  <g stroke="currentColor" stroke-linecap="round" stroke-linejoin="round" stroke-width="1.5" clip-path="url(#a)">
    <path d="M.872 2.816c0-1.074.87-1.944 1.944-1.944H4.76c1.074 0 1.944.87 1.944 1.944V4.76c0 1.074-.87 1.944-1.944 1.944H2.816A1.944 1.944 0 0 1 .872 4.76V2.816Zm0 8.424c0-1.074.87-1.944 1.944-1.944H4.76c1.074 0 1.944.87 1.944 1.944v1.944c0 1.074-.87 1.944-1.944 1.944H2.816a1.944 1.944 0 0 1-1.944-1.944V11.24Zm8.424-8.424c0-1.074.87-1.944 1.944-1.944h1.944c1.074 0 1.944.87 1.944 1.944V4.76c0 1.074-.87 1.944-1.944 1.944H11.24A1.944 1.944 0 0 1 9.296 4.76V2.816Zm0 8.424c0-1.074.87-1.944 1.944-1.944h1.944c1.074 0 1.944.87 1.944 1.944v1.944c0 1.074-.87 1.944-1.944 1.944H11.24a1.944 1.944 0 0 1-1.944-1.944V11.24Z"/>
  </g>
</svg>
