<svg xmlns="http://www.w3.org/2000/svg" width="16" height="16" viewBox="0 0 16 16">
  <defs>
    <clipPath id="a">
      <rect width="16" height="16"/>
    </clipPath>
  </defs>
  <g clip-path="url(#a)">
    <path stroke="currentColor" stroke-linecap="round" stroke-linejoin="round" stroke-width="1.5" d="M7.59 1.314a.443.443 0 0 1 .82 0l1.675 4.028a.443.443 0 0 0 .373.272l4.35.348a.443.443 0 0 1 .252.779l-3.313 2.838a.444.444 0 0 0-.143.44l1.012 4.243a.443.443 0 0 1-.662.481L8.231 12.47a.443.443 0 0 0-.462 0l-3.723 2.274a.443.443 0 0 1-.662-.48l1.012-4.244a.443.443 0 0 0-.143-.44L.94 6.741a.443.443 0 0 1 .253-.779l4.348-.348a.443.443 0 0 0 .374-.272l1.676-4.028Z"/>
  </g>
</svg>
