<svg xmlns="http://www.w3.org/2000/svg" width="16" height="16" viewBox="0 0 16 16">
  <defs>
    <clipPath id="a">
      <rect width="16" height="16"/>
    </clipPath>
  </defs>
  <g clip-path="url(#a)">
    <path stroke="currentColor" stroke-linecap="round" stroke-linejoin="round" stroke-width="1.5" d="m1.95 5.862 3.61.603a15 15 0 0 0 4.993-.007l3.497-.596m-6.52 8.903-.468-2.946c-.196-1.148-.92-2.19-2.02-2.908L1.987 6.915m6.453 7.85.494-2.946c.196-1.148.92-2.19 2.02-2.908l3.056-1.996m.825 1.084a6.834 6.834 0 1 1-13.668 0 6.834 6.834 0 0 1 13.668 0ZM9.5 8.383a1.5 1.5 0 1 1-3 0 1.5 1.5 0 0 1 3 0Z"/>
  </g>
</svg>
