<svg viewBox="0 0 17 17">
  <g clip-path="url(#a)">
    <path stroke="currentColor" stroke-linecap="round" stroke-linejoin="round" stroke-width="1.5" d="m2.518 6.412 3.61.603a15 15 0 0 0 4.992-.007l3.497-.596m-6.472 8.973-.515-3.016c-.196-1.148-.92-2.19-2.02-2.908L2.554 7.465m6.433 7.92.514-3.016c.196-1.148.92-2.19 2.02-2.908l3.056-1.996m.825 1.084a6.834 6.834 0 1 1-13.668 0 6.834 6.834 0 0 1 13.668 0Zm-5.334.384a1.5 1.5 0 1 1-3 0 1.5 1.5 0 0 1 3 0Z"/>
  </g>
  <defs>
    <clipPath id="a">
      <path d="M0 0h16v16H0z" transform="translate(.568 .55)"/>
    </clipPath>
  </defs>
</svg>
