<svg viewBox="0 0 16 17">
  <g clip-path="url(#a)">
    <path stroke="currentColor" stroke-linecap="round" stroke-linejoin="round" stroke-width="1.5" d="m10.014 6.384-.255 6.614m-3.518 0-.255-6.614m7.325-2.358c.252.038.502.078.751.121m-.75-.121-.785 10.2a1.653 1.653 0 0 1-1.649 1.527H5.122a1.653 1.653 0 0 1-1.648-1.526L2.689 4.026m10.622 0a35.36 35.36 0 0 0-2.555-.292m-8.818.413c.25-.043.5-.083.75-.121m0 0a35.352 35.352 0 0 1 2.556-.292m5.512 0v-.673c0-.866-.67-1.59-1.536-1.618a38.168 38.168 0 0 0-2.44 0c-.866.028-1.536.752-1.536 1.618v.673m5.512 0a35.763 35.763 0 0 0-5.512 0"/>
  </g>
  <defs>
    <clipPath id="a">
      <path d="M0 0h16v16H0z" transform="translate(0 .589)"/>
    </clipPath>
  </defs>
</svg>
