<svg width="16" height="17" viewBox="0 0 16 17" fill="none" xmlns="http://www.w3.org/2000/svg">
<path d="M5.23632 13.4708C5.23632 14.0816 4.74118 14.5767 4.1304 14.5767C3.51961 14.5767 3.02447 14.0816 3.02447 13.4708M5.23632 13.4708C5.23632 12.86 4.74118 12.3649 4.1304 12.3649C3.51961 12.3649 3.02447 12.86 3.02447 13.4708M5.23632 13.4708H9.66002M3.02447 13.4708H1.64207C1.18398 13.4708 0.812622 13.0995 0.812622 12.6414V10.1534M13.5308 13.4708C13.5308 14.0816 13.0356 14.5767 12.4248 14.5767C11.8141 14.5767 11.3189 14.0816 11.3189 13.4708M13.5308 13.4708C13.5308 12.86 13.0356 12.3649 12.4248 12.3649C11.8141 12.3649 11.3189 12.86 11.3189 13.4708M13.5308 13.4708L14.3602 13.4708C14.8183 13.4708 15.1924 13.099 15.1642 12.6418C15.0093 10.1294 14.1554 7.80619 12.7947 5.86415C12.5276 5.48303 12.0952 5.25582 11.6305 5.23031H9.66002M11.3189 13.4708H9.66002M9.66002 5.23031V4.52373C9.66002 4.10533 9.34851 3.75136 8.93234 3.70818C7.71754 3.58211 6.48447 3.51749 5.23632 3.51749C3.98817 3.51749 2.75511 3.58211 1.5403 3.70818C1.12414 3.75136 0.812622 4.10533 0.812622 4.52373V10.1534M9.66002 5.23031V10.1534M9.66002 13.4708V10.1534M9.66002 10.1534H0.812622" stroke="black" stroke-width="1.5" stroke-linecap="round" stroke-linejoin="round"/>
</svg>
