<svg xmlns="http://www.w3.org/2000/svg" width="16" height="16" viewBox="0 0 16 16">
  <path stroke="currentColor" stroke-linecap="round" stroke-linejoin="round" stroke-width="1.5" d="M5.236 12.924a1.106 1.106 0 1 1-2.212 0m2.212 0a1.106 1.106 0 1 0-2.212 0m2.212 0H9.66m-6.636 0H1.642a.83.83 0 0 1-.83-.83V9.606m12.719 3.318a1.106 1.106 0 0 1-2.212 0m2.212 0a1.106 1.106 0 0 0-2.212 0m2.212 0h.83a.792.792 0 0 0 .803-.83 13.2 13.2 0 0 0-2.37-6.777 1.516 1.516 0 0 0-1.164-.634H9.66m1.659 8.24H9.66m0-8.24v-.706a.816.816 0 0 0-.728-.816 35.798 35.798 0 0 0-7.392 0 .816.816 0 0 0-.727.816v5.63M9.66 4.682v4.923m0 3.318V9.606m0 0H.813"/>
</svg>
