<svg viewBox="0 0 17 17">
  <g clip-path="url(#a)">
    <path stroke="currentColor" stroke-linecap="round" stroke-linejoin="round" stroke-width="1.5" d="M6.052 13.903a1.106 1.106 0 1 1-2.212 0m2.212 0a1.106 1.106 0 1 0-2.212 0m2.212 0h4.423m-6.635 0H2.457a.83.83 0 0 1-.83-.83v-2.487m12.719 3.317a1.106 1.106 0 1 1-2.212 0m2.212 0a1.106 1.106 0 1 0-2.212 0m2.212 0h.83a.791.791 0 0 0 .803-.829 13.2 13.2 0 0 0-2.37-6.778 1.516 1.516 0 0 0-1.163-.633h-1.97m1.658 8.24h-1.659m0-8.24v-.707a.816.816 0 0 0-.727-.816 35.798 35.798 0 0 0-7.393 0 .816.816 0 0 0-.727.816v5.63m8.847-4.923v4.923m0 3.317v-3.317m0 0H1.628"/>
  </g>
  <defs>
    <clipPath id="a">
      <path d="M0 0h16v16H0z" transform="translate(.815 .98)"/>
    </clipPath>
  </defs>
</svg>
