<svg viewBox="0 0 16 17">
  <g clip-path="url(#a)">
    <path stroke="currentColor" stroke-linecap="round" stroke-linejoin="round" stroke-width="1.5" d="M12.803 4.986v2.402m0 0v2.401m0-2.401h2.402m-2.402 0h-2.401M8.6 4.086a2.702 2.702 0 1 1-5.403 0 2.702 2.702 0 0 1 5.403 0ZM.796 14.38v-.088a5.103 5.103 0 0 1 10.206 0v.088a9.86 9.86 0 0 1-5.103 1.413A9.86 9.86 0 0 1 .796 14.38Z"/>
  </g>
  <defs>
    <clipPath id="a">
      <path d="M0 0h16v16H0z" transform="translate(0 .589)"/>
    </clipPath>
  </defs>
</svg>
