<svg width="16" height="17" viewBox="0 0 16 17" fill="none" xmlns="http://www.w3.org/2000/svg">
<g clip-path="url(#clip0_1243_5103)">
<path d="M12.7778 13.9186C11.684 12.475 9.95089 11.5425 8.00003 11.5425C6.04917 11.5425 4.31611 12.475 3.22228 13.9186M12.7778 13.9186C14.257 12.6019 15.1888 10.6833 15.1888 8.54715C15.1888 4.57691 11.9703 1.3584 8.00003 1.3584C4.02979 1.3584 0.811279 4.57691 0.811279 8.54715C0.811279 10.6833 1.74302 12.6019 3.22228 13.9186M12.7778 13.9186C11.5077 15.0491 9.83409 15.7359 8.00003 15.7359C6.16597 15.7359 4.49232 15.0491 3.22228 13.9186M10.3963 6.74996C10.3963 8.07337 9.32344 9.14621 8.00003 9.14621C6.67662 9.14621 5.60378 8.07337 5.60378 6.74996C5.60378 5.42655 6.67662 4.35371 8.00003 4.35371C9.32344 4.35371 10.3963 5.42655 10.3963 6.74996Z" stroke="black" stroke-width="1.5" stroke-linecap="round" stroke-linejoin="round"/>
</g>
<defs>
<clipPath id="clip0_1243_5103">
<rect width="16" height="16" fill="white" transform="translate(0 0.547119)"/>
</clipPath>
</defs>
</svg>
