<svg xmlns="http://www.w3.org/2000/svg" width="16" height="16" viewBox="0 0 16 16">
  <defs>
    <clipPath id="a">
      <rect width="16" height="16"/>
    </clipPath>
  </defs>
  <g clip-path="url(#a)">
    <path stroke="currentColor" stroke-linecap="round" stroke-linejoin="round" stroke-width="1.5" d="M10.216 13.266a6.93 6.93 0 0 0 1.94.275 6.898 6.898 0 0 0 3.044-.704 3.047 3.047 0 0 0-5.565-1.841m.581 2.27v-.002c0-.822-.21-1.595-.58-2.268m.58 2.27v.079a9.1 9.1 0 0 1-4.71 1.304 9.1 9.1 0 0 1-4.708-1.304l-.001-.081a4.71 4.71 0 0 1 8.838-2.268M8 3.844a2.493 2.493 0 1 1-4.987 0 2.493 2.493 0 0 1 4.987 0Zm6.095 1.663a1.94 1.94 0 1 1-3.879 0 1.94 1.94 0 0 1 3.879 0Z"/>
  </g>
</svg>
