<svg width="16" height="17" viewBox="0 0 16 17" fill="none" xmlns="http://www.w3.org/2000/svg">
<g clip-path="url(#clip0_1243_5110)">
<path d="M12.8031 4.9448V7.3464M12.8031 7.3464V9.74799M12.8031 7.3464H15.2047M12.8031 7.3464H10.4016M8.60035 4.0442C8.60035 5.53636 7.39072 6.746 5.89856 6.746C4.4064 6.746 3.19676 5.53636 3.19676 4.0442C3.19676 2.55204 4.4064 1.34241 5.89856 1.34241C7.39072 1.34241 8.60035 2.55204 8.60035 4.0442ZM0.795903 14.3385C0.795413 14.3094 0.795166 14.2802 0.795166 14.251C0.795166 11.4325 3.08003 9.14759 5.89856 9.14759C8.71708 9.14759 11.0019 11.4325 11.0019 14.251V14.253C11.0019 14.2816 11.0017 14.3101 11.0012 14.3385C9.51084 15.2358 7.76498 15.752 5.89856 15.752C4.03214 15.752 2.28627 15.2358 0.795903 14.3385Z" stroke="black" stroke-width="1.5" stroke-linecap="round" stroke-linejoin="round"/>
</g>
<defs>
<clipPath id="clip0_1243_5110">
<rect width="16" height="16" fill="white" transform="translate(0 0.547119)"/>
</clipPath>
</defs>
</svg>
