<svg xmlns="http://www.w3.org/2000/svg" width="16" height="16" viewBox="0 0 16 16">
  <defs>
    <clipPath id="a">
      <rect width="16" height="16"/>
    </clipPath>
  </defs>
  <g stroke="currentColor" stroke-linecap="round" stroke-linejoin="round" stroke-width="1.5" clip-path="url(#a)">
    <path d="M15.167 4.14a3.308 3.308 0 0 1-3.59 3.297c-.79-.067-1.665.052-2.169.665l-5.257 6.383a1.873 1.873 0 1 1-2.636-2.636l6.383-5.257c.613-.504.732-1.378.665-2.169a3.308 3.308 0 0 1 4.658-3.298l-2.408 2.408c.188.82.833 1.466 1.654 1.654l2.408-2.408c.188.415.292.876.292 1.362Z"/>
    <path d="M2.757 13.238h.005v.005h-.005v-.005Z"/>
  </g>
</svg>
