<svg viewBox="0 0 17 17">
  <g stroke="currentColor" stroke-linecap="round" stroke-linejoin="round" stroke-width="1.5" clip-path="url(#a)">
    <path d="M16.08 5.12a3.308 3.308 0 0 1-3.59 3.296c-.792-.067-1.665.053-2.17.665l-5.257 6.383a1.873 1.873 0 1 1-2.636-2.636L8.81 7.571c.613-.504.732-1.378.665-2.169a3.308 3.308 0 0 1 4.658-3.298l-2.408 2.409c.188.82.834 1.466 1.654 1.654l2.408-2.409c.188.416.292.877.292 1.362Z"/>
    <path d="M3.669 14.217h.005v.006H3.67v-.006Z"/>
  </g>
  <defs>
    <clipPath id="a">
      <path d="M0 0h16v16H0z" transform="translate(.912 .98)"/>
    </clipPath>
  </defs>
</svg>
