<svg xmlns="http://www.w3.org/2000/svg" fill="currentColor" viewBox="0 0 16 16">
  <g clip-path="url(#a)">
    <path d="M14.606 4.489a3 3 0 0 0-4.98-3.321 8.007 8.007 0 0 1 4.98 3.32ZM6.374 1.168a3 3 0 0 0-4.98 3.32 8.006 8.006 0 0 1 4.98-3.321Z"/>
    <path fill-rule="evenodd" d="M8.001 3.5a5.5 5.5 0 1 0 0 11 5.5 5.5 0 0 0 0-11Zm-7 5.5a7 7 0 1 1 14 0 7 7 0 0 1-14 0Zm9.52-2.173a.75.75 0 0 1 .174 1.046L8.091 11.52a.75.75 0 0 1-1.14.095L5.387 10.05a.75.75 0 0 1 1.06-1.06l.937.936 2.09-2.925a.75.75 0 0 1 1.046-.175Z" clip-rule="evenodd"/>
  </g>
  <defs>
    <clipPath id="a">
      <path d="M0 0h16v16H0z"/>
    </clipPath>
  </defs>
</svg>
