<svg width="16" height="17" viewBox="0 0 16 17" fill="none" xmlns="http://www.w3.org/2000/svg">
<g clip-path="url(#clip0_1022_8559)">
<path fill-rule="evenodd" clip-rule="evenodd" d="M2.59998 6.14713C2.59998 4.71496 3.16891 3.34145 4.1816 2.32875C5.1943 1.31606 6.56781 0.747131 7.99998 0.747131C9.43215 0.747131 10.8057 1.31606 11.8184 2.32875C12.8311 3.34145 13.4 4.71496 13.4 6.14713V6.74713C13.4 8.44553 14.04 9.99273 15.0944 11.1631C15.1601 11.2359 15.2069 11.3237 15.2308 11.4188C15.2547 11.5139 15.255 11.6134 15.2315 11.7086C15.2081 11.8038 15.1617 11.8918 15.0963 11.9649C15.031 12.038 14.9488 12.094 14.8568 12.1279C13.6216 12.5839 12.3288 12.9199 10.992 13.1223C11.0221 13.5336 10.967 13.9467 10.8303 14.3358C10.6936 14.7249 10.4781 15.0816 10.1973 15.3837C9.91657 15.6858 9.57652 15.9267 9.19845 16.0915C8.82037 16.2562 8.41239 16.3413 7.99998 16.3413C7.58757 16.3413 7.17958 16.2562 6.80151 16.0915C6.42343 15.9267 6.08339 15.6858 5.80261 15.3837C5.52184 15.0816 5.30636 14.7249 5.16963 14.3358C5.03291 13.9467 4.97788 13.5336 5.00798 13.1223C3.6893 12.9225 2.39437 12.589 1.14318 12.1271C1.05129 12.0932 0.969096 12.0373 0.903788 11.9643C0.83848 11.8913 0.79204 11.8034 0.768523 11.7083C0.745007 11.6132 0.74513 11.5138 0.768881 11.4188C0.792633 11.3237 0.83929 11.236 0.904778 11.1631C1.99822 9.95247 2.60244 8.37848 2.59998 6.74713V6.14713ZM6.20158 13.2671C6.19134 13.5097 6.23028 13.7518 6.31605 13.9789C6.40181 14.206 6.53263 14.4134 6.70064 14.5887C6.86864 14.7639 7.07036 14.9034 7.29366 14.9986C7.51695 15.0939 7.75721 15.143 7.99998 15.143C8.24275 15.143 8.48301 15.0939 8.7063 14.9986C8.9296 14.9034 9.13132 14.7639 9.29932 14.5887C9.46733 14.4134 9.59815 14.206 9.68391 13.9789C9.76968 13.7518 9.80861 13.5097 9.79838 13.2671C8.60187 13.3749 7.39809 13.3749 6.20158 13.2671V13.2671Z" fill="black"/>
</g>
<defs>
<clipPath id="clip0_1022_8559">
<rect width="16" height="16" fill="white" transform="translate(0 0.547119)"/>
</clipPath>
</defs>
</svg>
