<svg xmlns="http://www.w3.org/2000/svg" fill="currentColor" viewBox="0 0 16 16">
  <g fill-rule="evenodd" clip-rule="evenodd">
    <path d="M10.778 10.373c.533.008.883.09 1.04.245v-.001a.393.393 0 0 1 .117.2c.028.22.007.433-.096.589a.413.413 0 0 1-.24.164.95.95 0 0 1-.243.027c-.53 0-1.373-.268-2.059-.654-.958.15-1.903.374-2.825.672-.78 1.362-1.347 1.97-1.835 1.97a.586.586 0 0 1-.264-.064l-.195-.098c-.121-.07-.139-.22-.115-.337.075-.369.529-.832 1.214-1.242.08-.048.425-.231.44-.239l.2-.106c.195-.333.41-.726.646-1.19l.03-.056c.224-.44.479-.94.682-1.435l.073-.177c-.284-1.085-.44-1.922-.289-2.482.05-.18.24-.299.474-.299l.126.004c.21-.009.344.158.412.314l.021.057a.54.54 0 0 1 .033.136c.066.48-.184 1.904-.184 1.904l-.033.134-.007.03c.23.634.602 1.21 1.046 1.625.165.155.376.284.58.401a8.73 8.73 0 0 1 1.25-.091Zm-5.285 1.69c-.52.427-.873.908-.962 1.152.24-.108.605-.455 1.15-1.324-.075.07-.155.146-.188.172Zm2.376-5.185c-.007-.371-.096-.766-.253-.766-.072 0-.065.561-.065.561 0 .294.043.743.132 1.028a1.57 1.57 0 0 0 .186-.823Zm-.835 3.675a34 34 0 0 1-.339.62 12.6 12.6 0 0 1 2.07-.576 4.3 4.3 0 0 1-1.136-1.343c-.133.344-.311.763-.595 1.299Zm4.36.623c.088 0 .225-.017.273-.047.048-.03.045-.175-.235-.247-.274-.07-.361-.07-.634-.07h-.017a7.17 7.17 0 0 0-.522.021c.495.213.849.343 1.134.343Z"/>
    <path d="M3.316 1.672a.077.077 0 0 0-.077.077v12.674c0 .043.035.077.077.077h9.368a.077.077 0 0 0 .077-.077V7.81a1.73 1.73 0 0 0-1.73-1.73H9.929c-.87 0-1.577-.705-1.577-1.576V3.402a1.73 1.73 0 0 0-1.73-1.73H3.316Zm0-1.5c-.87 0-1.577.706-1.577 1.577v12.674c0 .871.706 1.577 1.577 1.577h9.368c.87 0 1.577-.706 1.577-1.577V7.535A7.363 7.363 0 0 0 6.898.172H3.316Zm6.37 2.204c.108.322.166.667.166 1.026v1.102c0 .042.034.077.077.077h1.102c.358 0 .704.058 1.026.166a5.89 5.89 0 0 0-2.371-2.371Z"/>
  </g>
</svg>
