<svg xmlns="http://www.w3.org/2000/svg" fill="currentColor" viewBox="0 0 16 16">
  <path d="M9.069 6.917h1.51L8.77 9.624l2.043 3.01H9.244L8 10.773l-.56.837H8v1.022H5.188l2.043-3.01-1.81-2.706h1.51L8 8.492l1.069-1.575Z"/>
  <path fill-rule="evenodd" d="M3.316.086h3.582a7.363 7.363 0 0 1 7.363 7.363v6.888c0 .871-.706 1.577-1.577 1.577H3.316c-.87 0-1.577-.706-1.577-1.577V1.663c0-.871.706-1.577 1.577-1.577Zm-.077 1.577c0-.043.035-.077.077-.077h3.306c.956 0 1.73.774 1.73 1.73v1.102c0 .87.706 1.577 1.577 1.577h1.102c.955 0 1.73.774 1.73 1.73v6.612a.077.077 0 0 1-.077.077H3.316a.077.077 0 0 1-.077-.077V1.663Zm6.613 1.653a3.22 3.22 0 0 0-.166-1.026 5.89 5.89 0 0 1 2.37 2.37 3.227 3.227 0 0 0-1.025-.165H9.929a.077.077 0 0 1-.077-.077V3.316Z" clip-rule="evenodd"/>
</svg>
