<svg xmlns="http://www.w3.org/2000/svg" fill="currentColor" viewBox="0 0 16 16">
  <g fill-rule="evenodd" clip-rule="evenodd">
    <path d="M4.133 8.435a1 1 0 0 1 1-1h5.747a1 1 0 0 1 1 1v3.423a1 1 0 0 1-1 1H5.133a1 1 0 0 1-1-1V8.435Zm1.025 3.649h1.299v-1.55h-1.55v1.3c0 .138.112.25.25.25Zm-.25-2.324h1.549V8.21h-1.3a.25.25 0 0 0-.25.25v1.3Zm2.324 2.324H8.78v-1.55H7.23v1.55Zm0-2.324H8.78V8.21H7.23v1.55Zm3.623 2.324a.25.25 0 0 0 .25-.25v-1.3h-1.55v1.55h1.3Zm-1.3-2.324h1.55v-1.3a.25.25 0 0 0-.25-.25h-1.3v1.55Z"/>
    <path d="M3.316.086h3.582a7.363 7.363 0 0 1 7.363 7.363v6.888c0 .871-.706 1.577-1.577 1.577H3.316c-.87 0-1.577-.706-1.577-1.577V1.663c0-.871.706-1.577 1.577-1.577Zm-.077 1.577c0-.043.035-.077.077-.077h3.306c.956 0 1.73.774 1.73 1.73v1.102c0 .87.706 1.577 1.577 1.577h1.102c.955 0 1.73.774 1.73 1.73v6.612a.077.077 0 0 1-.077.077H3.316a.077.077 0 0 1-.077-.077V1.663Zm6.613 1.653a3.22 3.22 0 0 0-.166-1.026 5.89 5.89 0 0 1 2.37 2.37 3.227 3.227 0 0 0-1.025-.165H9.929a.077.077 0 0 1-.077-.077V3.316Z"/>
  </g>
</svg>
