<svg xmlns="http://www.w3.org/2000/svg" fill="currentColor" viewBox="0 0 16 16">
  <g clip-path="url(#a)">
    <path fill-rule="evenodd" d="M.892 2.887a2 2 0 0 1 2-2h8.646a2 2 0 0 1 1.406.578l1.506 1.488a2 2 0 0 1 .594 1.423v8.7a2 2 0 0 1-2 2H2.892a2 2 0 0 1-2-2V2.887Zm12.652 1.489v8.7a.5.5 0 0 1-.5.5h-.566V8.782c0-.69-.56-1.25-1.25-1.25h-6.46c-.69 0-1.25.56-1.25 1.25v4.794h-.626a.5.5 0 0 1-.5-.5V2.887a.5.5 0 0 1 .5-.5H4.34v1.774c0 .69.56 1.25 1.25 1.25h4.749c.69 0 1.25-.56 1.25-1.25V2.39a.5.5 0 0 1 .3.141l1.506 1.49a.5.5 0 0 1 .149.355Zm-3.455-1.989h-4.25v1.524h4.25V2.387Zm-5.07 11.189h5.96V9.032h-5.96v4.544Z" clip-rule="evenodd"/>
  </g>
  <defs>
    <clipPath id="a">
      <path d="M0 0h16v16H0z"/>
    </clipPath>
  </defs>
</svg>
