<svg xmlns="http://www.w3.org/2000/svg" fill="currentColor" viewBox="0 0 16 16">
  <g fill-rule="evenodd" clip-path="url(#a)" clip-rule="evenodd">
    <path d="m12.624 2.275-.63-1.122A2.256 2.256 0 0 0 10.028 0H6.02c-.811 0-1.56.436-1.96 1.14l-.682 1.198-.117-.189H2.053a.615.615 0 0 0 0 1.231h.524l.097.155c-.69.19-1.206.822-1.206 1.583v4.998c0 .453.367.82.82.82H3.52a.82.82 0 0 0 .82-.82V9.45h7.318v.666c0 .453.367.82.82.82h1.231a.82.82 0 0 0 .82-.82V5.134c0-.754-.506-1.381-1.185-1.577L13.31 3.5l.075-.12h.524a.615.615 0 1 0 0-1.23h-1.208l-.078.125ZM6.021 1.231c-.37 0-.71.198-.892.518L4.101 3.556l2.02.172c1.463.125 2.934.118 4.396-.02l1.367-.128a.617.617 0 0 1 .015-.082l-.978-1.743a1.026 1.026 0 0 0-.894-.524H6.02Zm7.268 3.818-1.782.547A1.516 1.516 0 0 0 10.476 6.7a.379.379 0 0 0 .42.462l2.402-.324v.56a.82.82 0 0 1-.82.821H3.519a.82.82 0 0 1-.82-.82v-.56l2.402.323a.379.379 0 0 0 .42-.462 1.516 1.516 0 0 0-1.032-1.104l-1.784-.548a.41.41 0 0 1 .439-.339l2.873.245c1.536.131 3.08.125 4.615-.02l2.217-.208a.41.41 0 0 1 .44.323Z"/>
    <path d="M5.362 10.83a.75.75 0 0 1 1.042-.198l1.588 1.082 1.587-1.082a.75.75 0 0 1 .845 1.24l-2.01 1.37a.75.75 0 0 1-.845 0l-2.01-1.37a.75.75 0 0 1-.197-1.043ZM.754 11.871a.75.75 0 0 1 .75.75v1.114c0 .415.336.75.75.75h11.475a.75.75 0 0 0 .75-.75v-1.114a.75.75 0 0 1 1.5 0v1.114a2.25 2.25 0 0 1-2.25 2.25H2.254a2.25 2.25 0 0 1-2.25-2.25v-1.114a.75.75 0 0 1 .75-.75Z"/>
  </g>
  <defs>
    <clipPath id="a">
      <path d="M0 0h16v16H0z"/>
    </clipPath>
  </defs>
</svg>
