<svg width="16" height="17" viewBox="0 0 16 17" fill="none" xmlns="http://www.w3.org/2000/svg">
<g clip-path="url(#clip0_1022_8649)">
<path d="M7.70853 16.1644L7.70317 16.1615L7.68458 16.1515C7.66874 16.1429 7.6461 16.1304 7.61709 16.1143C7.5591 16.0819 7.47563 16.0345 7.37034 15.9726C7.15982 15.8487 6.86159 15.6664 6.50483 15.4292C5.79249 14.9557 4.8407 14.2596 3.88636 13.37C1.99777 11.6095 -0.0032959 8.99387 -0.0032959 5.77197C-0.0032959 3.36848 2.01894 1.46252 4.46006 1.46252C5.89562 1.46252 7.18102 2.11845 7.99996 3.14657C8.8189 2.11845 10.1043 1.46252 11.5399 1.46252C13.981 1.46252 16.0032 3.36848 16.0032 5.77197C16.0032 8.99387 14.0021 11.6095 12.1136 13.37C11.1592 14.2596 10.2074 14.9557 9.49509 15.4292C9.13833 15.6664 8.8401 15.8487 8.62958 15.9726C8.52429 16.0345 8.44082 16.0819 8.38282 16.1143C8.35382 16.1304 8.33117 16.1429 8.31534 16.1515L8.29675 16.1615L8.29138 16.1644L8.28912 16.1656C8.10856 16.2615 7.89135 16.2615 7.7108 16.1656L7.70853 16.1644Z" fill="black"/>
</g>
<defs>
<clipPath id="clip0_1022_8649">
<rect width="16" height="16" fill="white" transform="translate(0 0.547119)"/>
</clipPath>
</defs>
</svg>
