<svg xmlns="http://www.w3.org/2000/svg" fill="currentColor" viewBox="0 0 16 16">
  <g clip-path="url(#a)">
    <path d="M2.379 8c0 .843.181 1.632.512 2.347l.811-5.963A5.598 5.598 0 0 0 2.379 8Zm7.264-5.376a5.57 5.57 0 0 0-3.008-.074l1.536 5.099 1.472-5.025Zm2.817 1.965A5.606 5.606 0 0 1 13.62 8c0 .832-.181 1.611-.501 2.315l-.66-5.726Z"/>
    <path d="m7.488 13.206 1.28.021 1.931-6.442.469 5.845A5.578 5.578 0 0 1 8 13.611a5.633 5.633 0 0 1-2.912-.811l.501-5.781 1.899 6.187Z"/>
    <path fill-rule="evenodd" d="M0 8c0 4.416 3.584 8 8 8s8-3.584 8-8-3.584-8-8-8-8 3.584-8 8Zm.907 0A7.097 7.097 0 0 1 8 .907 7.097 7.097 0 0 1 15.093 8 7.097 7.097 0 0 1 8 15.093 7.097 7.097 0 0 1 .907 8Z" clip-rule="evenodd"/>
  </g>
  <defs>
    <clipPath id="a">
      <path d="M0 0h16v16H0z"/>
    </clipPath>
  </defs>
</svg>
