<svg xmlns="http://www.w3.org/2000/svg" fill="currentColor" viewBox="0 0 16 16">
  <g clip-path="url(#a)">
    <path fill-rule="evenodd" d="M8.516.205a.75.75 0 0 0-1.032 0 8.485 8.485 0 0 1-5.963 2.332.75.75 0 0 0-.722.516c-.324.986-.5 2.038-.5 3.13 0 4.67 3.194 8.59 7.514 9.702a.751.751 0 0 0 .374 0c4.32-1.112 7.513-5.033 7.513-9.701a10.01 10.01 0 0 0-.499-3.131.75.75 0 0 0-.722-.516h-.108A8.485 8.485 0 0 1 8.516.205ZM8 14.382a8.521 8.521 0 0 0 5.925-10.354A9.976 9.976 0 0 1 8 1.75v12.631Z" clip-rule="evenodd"/>
  </g>
  <defs>
    <clipPath id="a">
      <path d="M0 0h16v16H0z"/>
    </clipPath>
  </defs>
</svg>
