<svg xmlns="http://www.w3.org/2000/svg" fill="currentColor" viewBox="0 0 16 16">
  <g clip-path="url(#a)">
    <path d="M14.738 8.03a6.729 6.729 0 1 0-10.58 5.826l-.082-1.178a.625.625 0 1 1 1.247-.087l.173 2.49a.625.625 0 0 1-.58.668h-.001v.001l-3.036.218a.625.625 0 0 1-.09-1.247l1.31-.094a7.979 7.979 0 1 1 8.621.784.625.625 0 1 1-.58-1.106 6.73 6.73 0 0 0 3.598-6.275Z"/>
    <path d="M2.567 8.938c0 .352.12.638.36.86.24.22.587.33 1.038.33.446 0 .798-.109 1.056-.328.258-.22.388-.522.388-.904a.992.992 0 0 0-.211-.643.992.992 0 0 0-.564-.349v-.01a.944.944 0 0 0 .483-.385c.103-.17.154-.36.154-.57 0-.3-.112-.553-.337-.759-.223-.206-.542-.309-.958-.309-.411 0-.735.112-.971.335-.234.22-.351.488-.351.803v.036H3.4V7.01c0-.182.048-.32.146-.416.097-.095.236-.143.415-.143.175 0 .308.049.402.146.095.095.143.238.143.427 0 .194-.056.346-.168.455-.113.108-.276.163-.492.163h-.325v.556h.353c.244 0 .43.057.562.17.131.113.197.282.197.506 0 .232-.058.404-.175.514-.114.109-.276.163-.485.163-.208 0-.37-.054-.486-.163-.114-.108-.171-.26-.171-.455v-.047h-.75v.053Z"/>
    <path fill-rule="evenodd" d="M6.098 9.707c-.288-.28-.432-.74-.432-1.376v-.095c0-.71.201-1.276.603-1.7.403-.424.99-.637 1.764-.637h.07v.596h-.067c-.517 0-.923.135-1.219.404-.223.203-.361.505-.415.905.018-.027.038-.053.058-.08.208-.26.496-.39.863-.39.387 0 .693.128.918.382.226.253.34.586.34 1 0 .418-.129.757-.385 1.02-.255.261-.6.393-1.036.393-.42 0-.774-.14-1.062-.422Zm.319-1.166c.016.353.083.604.2.754a.652.652 0 0 0 .537.258c.223 0 .39-.071.5-.214.112-.142.168-.347.168-.615 0-.254-.057-.455-.17-.603-.113-.148-.282-.222-.506-.222a.706.706 0 0 0-.526.222.743.743 0 0 0-.203.42Zm2.37.127c0 .438.12.791.36 1.059.24.268.582.402 1.027.402.44 0 .781-.134 1.023-.402.243-.268.365-.62.365-1.059V7.332c0-.438-.121-.791-.363-1.059-.241-.268-.583-.402-1.025-.402-.445 0-.788.135-1.027.405-.24.267-.36.62-.36 1.056v1.336Zm.775.062V7.27c0-.24.049-.434.146-.584.098-.152.253-.228.466-.228.216 0 .372.076.47.228.097.15.145.344.145.584v1.46c0 .24-.048.435-.146.587-.097.152-.253.227-.469.227-.215 0-.371-.075-.469-.227-.095-.152-.143-.347-.143-.587Zm2.605-1.53a.734.734 0 0 1-.222-.54c0-.207.074-.386.222-.536a.712.712 0 0 1 .528-.227c.202 0 .375.075.52.227.145.15.218.329.218.536 0 .21-.073.389-.219.537a.7.7 0 0 1-.52.222.726.726 0 0 1-.527-.22Zm.27-.806a.367.367 0 0 0-.104.266.357.357 0 0 0 .362.368.329.329 0 0 0 .25-.104.37.37 0 0 0 .1-.264.373.373 0 0 0-.1-.266.325.325 0 0 0-.25-.107.352.352 0 0 0-.258.107Z" clip-rule="evenodd"/>
  </g>
  <defs>
    <clipPath id="a">
      <path d="M0 0h16v16H0z"/>
    </clipPath>
  </defs>
</svg>
