<svg xmlns="http://www.w3.org/2000/svg" fill="currentColor" aria-hidden="true" viewBox="-2 -2 20 20">
  <path d="M13.032 6.855c0-2.437-1.546-4.491-3.656-5.128a1.41 1.41 0 10-2.784-.314c0 .109.013.216.037.318l-.002-.01c-2.125.63-3.681 2.69-3.681 5.134 0 .226.014.45.039.669l-.003-.027c.044 1.077.003 3.653-1.04 5.952h3.509a2.549 2.549 0 105.098 0h3.51c-1.361-2.999-1.026-6.548-1.026-6.594zM7.989 3.037c1.928 0 3.498 1.688 3.525 3.769a17.448 17.448 0 00.459 5.246l-.025-.119H4.06c.287-1.158.452-2.488.452-3.857 0-.223-.004-.445-.013-.666l.001.032c0-.039 0-.077-.009-.116a4.029 4.029 0 01-.027-.471c0-2.104 1.581-3.818 3.525-3.818zm.01 11.551a1.14 1.14 0 01-1.139-1.139h2.278v.001a1.14 1.14 0 01-1.139 1.14z"/>
</svg>
