<svg xmlns="http://www.w3.org/2000/svg" fill="currentColor" aria-hidden="true" viewBox="-2 -2 20 20">
  <path d="M0 8c0 4.416 3.584 8 8 8s8-3.584 8-8-3.584-8-8-8-8 3.584-8 8zm.907 0C.907 4.085 4.086.907 8 .907S15.093 4.086 15.093 8 11.914 15.093 8 15.093A7.097 7.097 0 01.907 8z"/>
  <path d="M2.379 8c0 .843.181 1.632.512 2.347l.811-5.963A5.598 5.598 0 002.379 8zM9.643 2.624a5.57 5.57 0 00-3.008-.074l1.536 5.099 1.472-5.024zM12.459 4.587l.661 5.728c.32-.704.501-1.483.501-2.315 0-1.28-.437-2.464-1.163-3.413z"/>
  <path d="M8.768 13.227l-1.28-.021-1.899-6.187-.501 5.781A5.633 5.633 0 008 13.611a5.578 5.578 0 003.168-.981l-.469-5.845-1.931 6.443z"/>
</svg>
