<svg xmlns="http://www.w3.org/2000/svg" fill="currentColor" aria-hidden="true" viewBox="-2 -2 20 20">
  <path d="M13.742 6.336a14.271 14.271 0 00-2.393.067l.064-.006c-.373 0-.524-.484-.444-1.28.121-1.391.282-2.369.393-3.165C11.594.51 9.558.269 9.114 1.377S7.511 6.185 5.253 7.234a.737.737 0 00-.424.666v.02-.001 5.524a.777.777 0 00.549.734l.005.001c1.965.591 4.247.997 6.601 1.135l.082.004c1.441 0 2.298-.111 2.601-1.462s.736-3.508 1.008-5.121-.413-2.298-1.935-2.399zM3.651 7.535H.627l-.022-.001a.343.343 0 00-.34.302v5.939a.344.344 0 00.34.303l.023-.001H.627h3.024l.022.001c.175 0 .32-.132.34-.302V7.837a.344.344 0 00-.34-.303l-.023.001h.001z"/>
</svg>
