<svg xmlns="http://www.w3.org/2000/svg" aria-hidden="true" viewBox="-2 -2 20 20" fill="currentColor">
  <path d="M10.904 5.11L9.889 4.096 4.814 9.17a2.152 2.152 0 103.045 3.044l6.09-6.089a3.588 3.588 0 00-5.075-5.074L2.48 7.444l-.014.013c-1.955 1.955-1.955 5.123 0 7.077s5.123 1.954 7.078 0l.013-.014.001.001 4.365-4.364-1.015-1.014-4.365 4.363-.013.013a3.573 3.573 0 01-5.048 0 3.572 3.572 0 01.014-5.06l-.001-.001L9.89 2.065c.839-.84 2.205-.84 3.045 0s.839 2.205 0 3.044l-6.09 6.089a.718.718 0 01-1.015-1.014l5.075-5.075z"/>
</svg>
