<svg xmlns="http://www.w3.org/2000/svg" viewBox="0 0 16 16" fill="currentColor" aria-hidden="true">
  <path d="M15.957 8.909s.046 1.022-.6 1.41h-.82a1.77 1.77 0 10-3.188.01l-.005-.01H4.769a1.77 1.77 0 10-3.188.01l-.005-.01s-.95.043-1.262-.276S.059 7.657.059 7.657a.514.514 0 00.285-.283l.001-.003c.074-.209.209-.93.209-.93s3.183-1.218 4.853-1.413S7.453 4.933 8 5.008c1.52.135 3.88 1.65 3.88 1.65s2.685.345 3.722 1.201c.17.303.294.657.353 1.032l.002.018zM8.153 5.262a7.726 7.726 0 00-2.673.023l.047-.007s-1.591.286-2.102.539c-.197.133 0 .33 0 .33.429.429 5.436.766 7.742.572-.038-.169-1.752-1.201-3.014-1.456z"/>
  <path d="M4.628 9.556a1.47 1.47 0 11-1.482-1.471h.011a1.47 1.47 0 011.471 1.471zm-1.481-.961a.96.96 0 10.96.96.96.96 0 00-.96-.96zM14.409 9.556a1.47 1.47 0 11-1.471-1.471 1.47 1.47 0 011.471 1.471zm-1.472-.961a.96.96 0 10.96.96.96.96 0 00-.96-.96z"/>
</svg>
