<svg xmlns="http://www.w3.org/2000/svg" viewBox="0 0 16 16" fill="currentColor" aria-hidden="true">
  <path d="M15.242 4.561H14.24a.35.35 0 00-.276.134l-.001.001c-.113.156-.186.502-.286.502h-.338a6.53 6.53 0 00-.29-.657l.017.037a8.333 8.333 0 00-.454-.829l.021.036s-.238-.325-.373-.468a1.198 1.198 0 00-.721-.402l-.007-.001c-.39-.065-.901-.113-.901-.113l-1.118-.056H6.602l-1.113.048s-.511.048-.901.113a1.203 1.203 0 00-.705.405l-.001.002a7.17 7.17 0 00-.373.468c-.136.215-.28.475-.411.742l-.022.051a5.887 5.887 0 00-.257.574l-.016.045H2.37c-.1 0-.173-.347-.286-.502a.351.351 0 00-.276-.135h-.015.001H.745a.386.386 0 00-.386.386v.018-.001.368c0 .234.403.576.775.585h1.299l-.52.485c-.433.407-.741.546-.741 1.299 0 1.364.1 2.4.1 2.4l.082.866c.013.123.031.232.056.339l-.004-.018v1.539c0 .23.179.418.406.432H3.65a.434.434 0 00.403-.432v-.785h7.909v.776c0 .229.177.416.401.432H14.205a.434.434 0 00.403-.432v-1.24c.065-.179.116-.389.142-.606l.001-.014.082-.866s.1-1.035.1-2.4c0-.736-.303-.866-.741-1.299l-.515-.472h1.178c.373 0 .775-.351.775-.585v-.373-.013a.386.386 0 00-.386-.386h-.009zm-11.79.628c.133-.324.278-.601.446-.861l-.013.021c.119-.178.25-.332.397-.471l.001-.001c.26-.146.568-.24.895-.26h.006c.801-.087 2.101-.087 2.101-.087h1.438s1.299 0 2.105.087c.335.019.644.113.916.265l-.011-.005c.149.139.281.294.393.463l.006.009c.155.24.3.516.42.805l.013.035c.195.476-.143.602-.316.611s-2.733.026-2.733.026l-1.512-.022-1.52.022H3.76c-.173 0-.494-.16-.308-.637zm.217 5.574H2.491c-.286 0-.39-.403-.39-.567s.113-.191.282-.195h1.005c.14.001.273.033.391.089l-.006-.002a.729.729 0 01.219.201l.001.002a.72.72 0 01.112.273l.001.004c0 .108-.048.195-.437.195zm1.013-2.165a5.469 5.469 0 01-1.31.099h.011a1.48 1.48 0 01-.989-.208l.006.004a.989.989 0 01-.433-.791v-.001c-.03-.407 0-.619.481-.624h.051c.561 0 1.087.15 1.541.411l-.015-.008c.345.154.635.375.863.65l.003.004a.32.32 0 01-.205.476h-.002zm4.925 1.927H6.445c-.433 0-1.191-.078-1.191-.715a1.44 1.44 0 01.155-.645l-.004.008c.134-.429.508-.743.961-.788h.005a9.753 9.753 0 011.66-.121h-.005.096c.55 0 1.09.044 1.616.129l-.058-.008c.456.049.829.361.964.78l.002.008c.1.189.162.411.169.648v.002c0 .637-.788.715-1.208.715zm3.929.225h-1.178c-.39 0-.433-.087-.433-.195a.733.733 0 01.114-.28l-.002.003a.79.79 0 01.218-.202l.003-.002a.911.911 0 01.385-.087h1.005c.169 0 .282.035.282.195s-.082.58-.394.58zm.528-3.032a.987.987 0 01-.43.79l-.003.002a1.47 1.47 0 01-.991.202l.008.001a5.609 5.609 0 01-1.335-.105l.036.006a.317.317 0 01-.194-.465l-.001.002c.231-.279.521-.5.851-.648l.015-.006a3.055 3.055 0 011.528-.403h.051-.003c.489 0 .502.212.468.619z"/>
</svg>
