<svg xmlns="http://www.w3.org/2000/svg" viewBox="0 0 24 16" fill="currentColor" aria-hidden="true">
  <path d="M18.624 3.801H17.4a.43.43 0 00-.337.163l-.001.001c-.138.191-.228.614-.349.614H16.3a7.997 7.997 0 00-.355-.803l.021.046a10.012 10.012 0 00-.555-1.012l.026.044s-.291-.397-.455-.572a1.458 1.458 0 00-.881-.491l-.008-.001c-.508-.085-1.111-.148-1.111-.148l-1.36-.064H8.071l-1.365.063s-.624.058-1.101.138a1.463 1.463 0 00-.887.49l-.002.002c-.164.175-.455.572-.455.572-.166.263-.342.58-.502.907l-.027.062a7.069 7.069 0 00-.314.701l-.019.055H2.87c-.122 0-.212-.423-.349-.614a.43.43 0 00-.337-.164h-.018.001-1.25a.466.466 0 00-.466.466l.002.039v-.002.45c0 .286.487.704.942.714h1.609l-.656.587c-.529.497-.905.667-.905 1.588 0 1.667.122 2.932.122 2.932l.101 1.058c.015.15.038.284.068.414l-.004-.022v1.88c0 .281.219.511.496.528h2.246a.53.53 0 00.492-.528v-.959h9.684v.948a.53.53 0 00.49.528h2.251a.53.53 0 00.492-.528V12.369c.08-.219.141-.475.173-.74l.002-.017.101-1.058s.122-1.265.122-2.932c0-.9-.37-1.058-.905-1.588l-.63-.577h1.439c.455 0 .947-.429.947-.714v-.455-.017a.471.471 0 00-.471-.471l-.034.001h.001zM4.23 4.568c.163-.396.34-.734.545-1.052l-.015.026c.146-.217.306-.406.485-.575l.002-.002c.321-.18.7-.295 1.105-.317h.007c.979-.106 2.567-.106 2.567-.106h1.757s1.588 0 2.572.106c.409.023.787.138 1.119.324l-.013-.007c.183.17.343.359.48.565l.007.012c.189.293.367.63.513.984l.016.043c.238.582-.175.736-.386.746s-3.329 0-3.329 0l-1.847-.026-1.868.058H4.618c-.212 0-.624-.196-.386-.778zm.254 6.811H3.045c-.349 0-.476-.492-.476-.693s.138-.233.344-.238h1.228c.171.001.333.04.478.109l-.007-.003a.879.879 0 01.268.246l.002.003c.066.096.114.21.137.333l.001.005c0 .132-.058.238-.534.238zm1.238-2.646a6.637 6.637 0 01-1.602.121h.014a1.832 1.832 0 01-1.214-.253l.008.005a1.205 1.205 0 01-.529-.967v-.002c-.037-.497-.026-.757.587-.762l.062-.001c.686 0 1.328.183 1.882.502l-.018-.01c.422.188.776.459 1.055.794l.004.005a.392.392 0 01-.246.581l-.003.001zm6.017 2.355H7.876c-.529 0-1.455-.095-1.455-.873.001-.284.07-.551.19-.788l-.005.01a1.375 1.375 0 011.153-.947l.006-.001a11.813 11.813 0 012.028-.148h-.007l.118-.001c.672 0 1.331.054 1.974.158l-.07-.009a1.389 1.389 0 011.177.953l.003.01c.112.227.178.495.18.777v.001c.021.778-.915.873-1.429.873zm4.8.275H15.1c-.476 0-.529-.106-.529-.238a.896.896 0 01.14-.342l-.002.003a.957.957 0 01.266-.246l.004-.002c.138-.066.3-.105.471-.106h1.228c.206 0 .344.042.344.238s-.127.709-.482.709zm.645-3.704c-.01.402-.216.754-.525.966l-.004.003a1.802 1.802 0 01-1.211.248l.01.001a6.768 6.768 0 01-1.631-.129l.044.007a.387.387 0 01-.237-.568l-.001.002c.283-.34.637-.611 1.04-.792l.018-.007a3.738 3.738 0 011.93-.492h-.003c.598 0 .614.259.572.757zM19.693 9.294l1.921 2.297v-1.016l1.937 1.281-2.413-2.577.021 1.011-1.466-.995zM19.693 7.738l1.921-2.297v1.021l1.937-1.286-2.413 2.577.021-1.011-1.466.995zM20.772 8.241l1.535 1.058-.164-.624 1.381.445-1.873-1.148.175.614-1.053-.344z"/>
</svg>
