<svg xmlns="http://www.w3.org/2000/svg" viewBox="0 0 16 16" fill="currentColor" aria-hidden="true">
  <path d="M14.035 5.664a.917.917 0 00.078-.363c.026-.415.026-.623-.467-.623-.467 0-.935.078-1.35.286a6.509 6.509 0 00-1.428-.182c-1.272 0-2.466.389-3.427 1.09-.363.026-.753.052-1.116.104-.467.052-.857.363-.986.779a1.406 1.406 0 00-.156.649c0 .286.156.467.363.571a5.29 5.29 0 00-.597 1.661h-.986v.779a.45.45 0 01-.415.441H1.705a.45.45 0 01-.415-.441V8.857c-.026-.104-.052-.208-.052-.312l-.078-.883s-.104-1.038-.104-2.414c0-.649.234-.831.571-1.142.052-.052.13-.104.182-.182l.519-.493H1.03c-.389 0-.779-.363-.779-.597v-.312-.026c0-.234.182-.389.389-.389h1.064c.104 0 .234.052.286.13.052.052.078.156.13.26.052.13.104.26.156.26h.441c.078-.208.182-.415.286-.623.13-.286.26-.545.415-.805 0 0 .234-.337.389-.467.182-.208.441-.363.727-.415.389-.078.909-.104.909-.104L6.559.291h2.959l1.142.052s.519.052.909.104c.286.052.545.182.727.415.13.156.363.467.363.467.156.26.312.519.441.805.104.208.208.415.286.623h.337c.052 0 .104-.13.156-.26.026-.104.078-.182.13-.26a.43.43 0 01.312-.13h1.038c.208 0 .389.182.389.389v.389c0 .234-.415.597-.779.597h-1.194l.519.467c.078.078.156.13.208.208.337.286.545.493.545 1.116 0 .415 0 .805-.026 1.142a6.214 6.214 0 00-.986-.753zm-10.747.597c.441.026.883-.026 1.324-.104v.026c.026 0 .078-.026.104-.026.156-.078.208-.286.104-.441a2.172 2.172 0 00-.883-.649 3.16 3.16 0 00-1.609-.415c-.493 0-.519.208-.493.623 0 .312.182.623.441.805.337.156.675.234 1.012.182zm-.882 2.077H3.6c.389 0 .441-.078.441-.208a1.267 1.267 0 00-.104-.286.614.614 0 00-.234-.208 1.042 1.042 0 00-.389-.078H2.276c-.182 0-.286.026-.286.208s.104.571.415.571zM3.808 1.9c-.182.26-.312.545-.441.857-.182.467.13.649.312.649h2.752l1.532-.026 1.532.026s2.596-.026 2.778-.026.519-.13.312-.623a6.834 6.834 0 00-.441-.857 1.804 1.804 0 00-.415-.467 2.28 2.28 0 00-.909-.26c-.779-.104-2.103-.104-2.103-.104H7.263s-1.324 0-2.129.078a2.28 2.28 0 00-.909.26c-.156.156-.312.312-.415.493z"/>
  <path d="M10.868 15.71c2.674 0 4.828-2.181 4.828-4.88s-2.155-4.88-4.828-4.88S6.04 8.131 6.04 10.83c0 2.7 2.155 4.88 4.828 4.88zm-.856-8.021c.415-.156.857-.208 1.324-.208.467.026.909.13 1.35.337s.805.493 1.116.831c.312.337.519.727.675 1.168.156.415.208.857.182 1.324s-.13.909-.337 1.35a4.585 4.585 0 01-.545.831 3.402 3.402 0 01-.727.623c-.26.156-.545.286-.857.389s-.597.13-.935.156c-.078 0-.156-.052-.156-.156 0-.078.052-.156.13-.182.208-.026.441-.078.649-.156s.415-.182.597-.312.363-.286.519-.467.286-.389.389-.623c.156-.337.26-.675.286-1.038.026-.363 0-.675-.104-1.012-.104-.312-.234-.597-.441-.857s-.467-.441-.753-.597a1.896 1.896 0 00-.857-.208c-.286-.026-.571.026-.857.104s-.545.234-.805.415a2.48 2.48 0 00-.519.519l.649.312a.176.176 0 01.104.156c0 .052-.026.13-.104.156l-1.999.883c-.052.026-.104.026-.13 0-.052-.026-.078-.052-.078-.104l-.571-2.129a.125.125 0 01.052-.156c.052-.052.104-.052.182-.026l.701.337c.208-.363.441-.701.753-.96a2.56 2.56 0 011.116-.701z"/>
</svg>
