<svg xmlns="http://www.w3.org/2000/svg" aria-hidden="true" viewBox="-2 -2 20 20" fill="currentColor">
  <path d="M6.852 9.98a.826.826 0 01-.588-.244 3.909 3.909 0 010-5.521l3.072-3.072C10.073.406 11.054 0 12.097 0s2.023.406 2.761 1.143a3.909 3.909 0 010 5.521l-1.404 1.404a.832.832 0 01-1.177-1.177l1.404-1.404a2.243 2.243 0 000-3.168c-.423-.423-.986-.656-1.584-.656s-1.161.233-1.584.656L7.441 5.391a2.243 2.243 0 000 3.168.832.832 0 01-.588 1.421z"/>
  <path d="M3.904 16a3.881 3.881 0 01-2.761-1.143 3.909 3.909 0 010-5.521l1.404-1.404a.832.832 0 011.177 1.177L2.32 10.513a2.243 2.243 0 000 3.168c.423.423.986.656 1.584.656s1.161-.233 1.584-.656l3.072-3.072a2.243 2.243 0 000-3.168.832.832 0 011.177-1.177 3.909 3.909 0 010 5.521l-3.072 3.072A3.88 3.88 0 013.904 16z"/>
</svg>
