<svg xmlns="http://www.w3.org/2000/svg" aria-hidden="true" viewBox="-2 -2 28 20" fill="currentColor">
  <path d="M9.889 4.644a8.676 8.676 0 00.94-.023l-.029.003a.369.369 0 00.242-.265v-.003c0-.34-.049-.681-.06-1.021 0-.223-.104-.323-.323-.32l-1.526-.012c-.202 0-.309.078-.312.288 0 .352-.032.71-.06 1.062-.02.225.086.288.29.28.284.011.56.011.837.011zm-1.172.43c-.066.366-.09.738-.132 1.134h2.674c-.05-.41-.078-.776-.153-1.146 0-.077-.176-.181-.271-.181H8.97a.348.348 0 00-.254.193zm.629-3.802h1.062c.352 0 .473-.153.476-.487 0-.713-.026-.75-.739-.748h-.758c-.439 0-.494.067-.497.517v.262c-.008.312.136.465.456.456z"/>
  <path d="M16.514 6.412v-.028a.367.367 0 00-.464-.352h.003a3.214 3.214 0 00-.701.415l.006-.006h-2.553l-.41-.352v-.126c.07-.935.147-1.855.202-2.773 0-.302.124-.43.436-.41h1.641c.554 0 .502.027.537.506.066.89.153 1.78.236 2.743.309-.159.66-.23.747-.41a1.982 1.982 0 00-.003-.908l.003.014c0-.173-.075-.343-.104-.522-.115-.67-.233-1.341-.331-2.014a.755.755 0 00-.825-.735h.003-2.051c-.563 0-.82.28-.874.819-.03.303-.075.606-.119.906-.052-.332-.11-.664-.158-.998a.747.747 0 00-.825-.733h.003-2.051c-.563 0-.82.283-.874.82-.055.536-.148 1.075-.217 1.612-.069.536-.147 1.07-.193 1.612a.413.413 0 00.176.303c.176.066.384.124.597.159l.017.003c.07-.935.148-1.855.202-2.772 0-.303.124-.41.436-.41h1.641c.554 0 .502.026.537.505.066.882.153 1.765.236 2.717v.115l-.294.332H8.253a.464.464 0 00-.62-.41h.003c-.372.075-.352.373-.352.658v.721l-.003.044c0 .25.205.455.456.455.014 0 .029 0 .046-.002H7.78c1.402 0 2.81 0 4.214-.03l4.001-.025a.408.408 0 00.52-.38v-.001a9.95 9.95 0 00-.003-1.082l.003.02z"/>
  <path d="M13.892 4.615a8.518 8.518 0 00.932-.003h-.023a.384.384 0 00.242-.268v-.003c0-.337-.049-.678-.06-1.018 0-.222-.104-.323-.323-.323h-1.518c-.202 0-.308.078-.311.291a9.3 9.3 0 01-.06 1.059c0 .225.086.291.29.283.278-.02.554-.015.831-.018zm-1.177.439c-.066.37-.089.741-.132 1.133h2.674c-.05-.41-.078-.775-.153-1.139 0-.078-.176-.182-.271-.185h-1.864a.351.351 0 00-.254.19zm.635-3.808h1.062c.352 0 .458-.159.458-.496 0-.718-.026-.75-.738-.75h-.742c-.438 0-.493.066-.496.516V.78c-.008.326.136.476.456.467zm-8.057 9.678c-2.247-.652-3.692-1.641-3.692-2.712 0-1.231 1.872-2.342 4.696-2.98V4.59C2.564 5.287 0 6.646 0 8.212c0 1.408 2.05 2.646 5.215 3.384l-.187 1.514 2.98-1.54L5.51 9.075l-.217 1.849zm4.809.522a1.14 1.14 0 00.222-.112l-.003.002a.636.636 0 00.162-.167v-.003a.636.636 0 00.1-.219v-.006c.02-.086.032-.19.032-.294V10.618a.906.906 0 00-.072-.355l.003.006a.903.903 0 00-.187-.294.89.89 0 00-.306-.193l-.006-.003a1.159 1.159 0 00-.395-.07h-.029a1.2 1.2 0 00-.407.07l.009-.003a1.024 1.024 0 00-.577.522l-.003.006a1.35 1.35 0 00-.13.444v.006l.295.057h.077c.047 0 .09-.014.122-.04a.232.232 0 00.072-.133v-.003a.66.66 0 01.184-.3.5.5 0 01.32-.115h.035a.45.45 0 01.323.133c.081.092.13.213.13.346 0 .014 0 .029-.003.04v-.003.018a.844.844 0 01-.029.21v-.005a.406.406 0 01-.115.167.488.488 0 01-.213.11H9.71c-.093.026-.196.04-.306.04h-.038.003v.438h.046c.13 0 .257.018.375.05l-.011-.003c.086.02.164.06.225.115.052.046.09.11.107.179v.003c.014.066.026.144.026.225v.014a.6.6 0 01-.038.205v-.003a.54.54 0 01-.28.315h-.003a.565.565 0 01-.233.049H9.55a.493.493 0 01-.205-.044h.003a.44.44 0 01-.159-.106.777.777 0 01-.112-.145l-.003-.003a1.954 1.954 0 01-.087-.161l-.005-.012a.165.165 0 00-.072-.08.225.225 0 00-.099-.026h-.004a.318.318 0 00-.13.028h.003l-.245.11c.043.156.1.294.17.421l-.006-.011c.06.115.138.213.228.3a.94.94 0 00.314.179l.006.002a1.37 1.37 0 00.871-.002l-.008.002c.138-.049.256-.12.357-.213.101-.095.185-.21.24-.338l.003-.005c.057-.133.089-.289.089-.453v-.066a.89.89 0 00-.147-.488l.003.003a.855.855 0 00-.45-.312l-.003.003zm2.928-.075a.8.8 0 00-.303-.202l-.006-.003a1.028 1.028 0 00-.608-.037l.005-.003a1.066 1.066 0 00-.21.084l.005-.003.052-.075.061-.081.98-1.298h-.51a.35.35 0 00-.173.043h.003a.4.4 0 00-.118.101l-.78 1.154a2.335 2.335 0 00-.285.554l-.006.017a1.582 1.582 0 00-.095.52v.028c0 .176.03.344.081.502l-.003-.011c.05.158.127.294.228.412v-.003c.098.11.216.196.35.257l.005.003c.135.06.291.095.456.095h.023c.167 0 .326-.035.47-.098l-.009.003c.144-.066.266-.153.364-.263.1-.106.182-.233.23-.375l.003-.008a1.38 1.38 0 00-.002-.955l.002.009a.926.926 0 00-.21-.367zm-.309 1.116a.667.667 0 01-.124.211.517.517 0 01-.184.15h-.003a.579.579 0 01-.237.05h-.023a.55.55 0 01-.24-.053l.004.003a.511.511 0 01-.185-.136.585.585 0 01-.11-.204v-.003a.945.945 0 01-.037-.263v-.023c0-.09.014-.176.043-.254l-.003.006a.573.573 0 01.303-.346l.003-.003a.565.565 0 01.234-.049h.008a.67.67 0 01.242.046l-.005-.003a.545.545 0 01.187.13.584.584 0 01.121.205v.003c.026.078.04.167.04.262v.032a.665.665 0 01-.043.24h.01zm2.919-2.33a1.043 1.043 0 00-.375-.335l-.005-.003a1.06 1.06 0 00-.47-.11h-.024c-.346 0-.651.177-.833.445l-.003.003a1.686 1.686 0 00-.251.562l-.003.012c-.058.233-.09.502-.09.776v.046-.003.037c0 .277.032.549.096.808l-.006-.023c.052.216.139.407.257.577l-.003-.006c.098.142.225.257.372.338l.006.003c.135.069.297.11.467.11h.015c.17 0 .334-.041.475-.113l-.005.003a.994.994 0 00.378-.338l.002-.003c.116-.161.202-.352.251-.56l.003-.01c.06-.235.095-.5.095-.777v-.095c0-.274-.034-.54-.1-.79l.005.023a1.734 1.734 0 00-.256-.58l.002.003zm-.285 2.05a1.33 1.33 0 01-.144.419l.002-.006a.545.545 0 01-.199.214h-.002a.476.476 0 01-.47-.003h.002a.55.55 0 01-.196-.21v-.004a1.372 1.372 0 01-.138-.4v-.01a3.432 3.432 0 01-.05-.59V11.501c0-.208.018-.41.052-.609l-.002.02c.028-.152.077-.29.144-.418l-.003.009a.553.553 0 01.193-.214h.003a.476.476 0 01.47.003h-.003a.517.517 0 01.2.21v.004c.063.118.112.257.138.4v.01c.035.172.055.374.055.576v.07-.003.054c0 .205-.02.407-.058.6l.003-.02.003.015zm2.336-7.617v.643c2.827.64 4.697 1.73 4.697 2.98 0 1.318-2.092 2.46-5.199 3.08v.623C21.22 11.256 24 9.846 24 8.224c0-1.578-2.564-2.936-6.309-3.635zm-1.171 5.826c-.329 0-.6-.291-.6-.649 0-.357.269-.649.6-.649.332 0 .6.292.6.65 0 .357-.268.648-.6.648zm0-1.05c-.193 0-.352.182-.352.401 0 .222.16.401.352.401.194 0 .352-.182.352-.4.003-.223-.156-.402-.352-.402z"/>
</svg>
