<svg xmlns="http://www.w3.org/2000/svg" aria-hidden="true" viewBox="-2 -2 28 20" fill="currentColor">
  <path d="M9.633 9.168h.014c.142 0 .277.026.404.072l-.009-.003a.868.868 0 01.508.485l.003.005c.043.101.07.223.07.347v.031c0 .104-.012.205-.035.303l.002-.008a.717.717 0 01-.103.227l.003-.002a.574.574 0 01-.162.161h-.003a1.22 1.22 0 01-.21.113l-.01.002a.825.825 0 01.44.306l.002.003c.09.139.144.306.144.488v.04-.003.029c0 .162-.034.314-.092.453l.003-.009a.973.973 0 01-.242.35c-.101.092-.22.164-.35.21l-.008.003a1.236 1.236 0 01-.41.069h-.028a1.42 1.42 0 01-.416-.063l.009.002a.88.88 0 01-.32-.184 1.156 1.156 0 01-.228-.289l-.003-.005a2.023 2.023 0 01-.162-.396l-.003-.014.246-.11a.279.279 0 01.13-.031c.037 0 .072.011.103.028.032.02.058.047.072.081.03.067.061.121.093.173l-.003-.005a.76.76 0 00.115.152.467.467 0 00.156.107h.003c.06.026.13.04.202.04h.034a.546.546 0 00.237-.051l-.003.003a.543.543 0 00.176-.136.497.497 0 00.107-.176v-.003a.587.587 0 00.037-.205v-.011a.992.992 0 00-.026-.231v.006a.344.344 0 00-.106-.18.535.535 0 00-.223-.117H9.79a1.671 1.671 0 00-.373-.04h-.04.003v-.428h.035c.11 0 .213-.014.311-.043l-.009.003a.48.48 0 00.225-.124.437.437 0 00.116-.164v-.003a.785.785 0 00.029-.208v-.015c0-.011.003-.028.003-.043a.516.516 0 00-.13-.343.463.463 0 00-.323-.133h-.043a.479.479 0 00-.315.116.641.641 0 00-.185.294v.006a.252.252 0 01-.075.135.197.197 0 01-.12.04H8.82l-.294-.057c.02-.17.066-.323.136-.464l-.003.008a1.035 1.035 0 01.571-.52l.006-.002c.124-.043.26-.07.398-.072zm2.729 1.39h.005c.127 0 .248.023.36.07l-.005-.003a.816.816 0 01.309.204.958.958 0 01.199.33l.003.005a1.35 1.35 0 01-.003.949l.003-.009c-.052.15-.133.28-.234.387-.1.11-.222.196-.358.257l-.005.003c-.133.06-.286.095-.45.095h-.046c-.162 0-.315-.035-.456-.093l.008.003a1.04 1.04 0 01-.354-.256 1.138 1.138 0 01-.223-.401l-.002-.009a1.512 1.512 0 01-.067-.456v-.057.002c.003-.187.038-.366.098-.533l-.003.011c.078-.21.176-.395.298-.56l-.006.006.779-1.153a.33.33 0 01.118-.101h.003a.375.375 0 01.179-.047h.496l-.972 1.31-.06.078-.053.078a.956.956 0 01.2-.08l.005-.004a.803.803 0 01.208-.026h.026zm-.77 1.117v.011c0 .092.014.185.037.268l-.003-.005c.023.08.06.15.112.21a.486.486 0 00.182.133h.003c.07.032.15.049.237.049h.029a.57.57 0 00.424-.188.625.625 0 00.12-.207v-.006a.659.659 0 00.047-.242V11.657a.795.795 0 00-.043-.262l.003.006a.617.617 0 00-.125-.211.512.512 0 00-.184-.13h-.003a.659.659 0 00-.242-.046h-.003a.56.56 0 00-.41.187.604.604 0 00-.118.205v.006a.703.703 0 00-.064.263zm4.398-.67v.052c0 .274-.034.54-.1.79l.005-.022c-.052.219-.141.41-.257.58l.003-.006a1.043 1.043 0 01-.375.334l-.005.003c-.139.07-.3.11-.47.11h-.021c-.349 0-.657-.179-.836-.447l-.003-.003a1.631 1.631 0 01-.251-.563l-.003-.011a3.292 3.292 0 01-.09-.776v-.081c0-.277.032-.548.096-.808l-.006.023c.052-.216.141-.406.257-.577l-.003.006a1.052 1.052 0 011.335-.334l-.005-.003c.155.08.285.193.377.331l.003.003c.113.162.202.352.251.56l.003.012c.06.233.095.499.095.775v.052zm-.58 0v-.075c0-.207-.02-.41-.057-.605l.003.02a1.33 1.33 0 00-.144-.418l.002.008a.546.546 0 00-.199-.213h-.002a.477.477 0 00-.47.003h.002a.55.55 0 00-.196.21v.003a1.45 1.45 0 00-.138.401l-.003.009a4.286 4.286 0 00.003 1.321l-.003-.023c.029.153.078.291.144.418l-.003-.009c.046.09.113.162.193.214h.003a.477.477 0 00.47-.003h-.002a.517.517 0 00.199-.21v-.004a1.38 1.38 0 00.138-.4v-.01c.035-.175.055-.374.055-.582.006-.02.006-.037.006-.055zm-3.034-3.057h-.75l-.202-.03a4.491 4.491 0 01-.85-.166l.03.008a4.717 4.717 0 01-1.32-.617l.017.011c-.3-.202-.56-.427-.787-.68L8.51 6.47a3.655 3.655 0 01-.546-.8l-.008-.02a2.963 2.963 0 01-.286-.928l-.003-.015c0-.057-.026-.11-.031-.164v-.66c.02-.125.04-.246.066-.367a3.16 3.16 0 01.314-.866l-.008.018A3.92 3.92 0 019 1.477l.009-.005c.066-.05.144-.098.225-.145l.011-.005c.214-.133.41-.266.652-.381a3.902 3.902 0 011.076-.358l.023-.003c.202-.043.441-.078.687-.092h.014c.289 0 .58 0 .871.029.303.026.583.08.848.164l-.029-.008a4.6 4.6 0 011.33.617l-.017-.012c.3.202.56.43.787.687l.003.003c.214.236.398.508.546.799l.008.02c.17.335.283.727.315 1.142v.012a3.25 3.25 0 01-.046.894l.002-.02c-.066.34-.173.643-.317.92l.009-.02a3.911 3.911 0 01-1.1 1.298l-.008.006c-.228.167-.485.32-.756.444l-.026.012a4.62 4.62 0 01-1.526.438l-.02.003-.196.032zm-.375-6.551l-.493.04c-.306.038-.583.11-.843.216l.02-.008a3.252 3.252 0 00-1.052.649l.003-.003a2.9 2.9 0 00-.551.652l-.006.011a.199.199 0 00-.023.093c0 .06.029.115.072.153.04.037.092.063.153.063a.2.2 0 00.11-.032c.426-.184.925-.34 1.442-.438l.046-.009a6.157 6.157 0 011-.107h.42c.16.003.316.015.472.035l-.02-.003c.329.06.66.118.984.205.323.087.574.196.862.3.133.046.214.046.292-.02.077-.067.106-.136.037-.26a2.833 2.833 0 00-.712-.799l-.006-.006a3.25 3.25 0 00-.6-.378l-.02-.008a3.65 3.65 0 00-1.584-.358c0 .012-.003.012-.003.012zm.701 5.333v.078c0 .104.086.147.196.119l.21-.07a3.386 3.386 0 001.431-.894c.251-.268.456-.586.598-.935l.005-.02c.04-.11 0-.187-.153-.181a3.37 3.37 0 00-.487.043l.02-.003a2.275 2.275 0 00-1.099.487l.003-.003a1.988 1.988 0 00-.499.589l-.006.009a1.84 1.84 0 00-.23.752v.006l.011.023zM9.131 4.832h-.104c-.118 0-.185.075-.144.168a4.2 4.2 0 00.19.432l-.011-.023c.181.332.42.612.712.828l.006.006c.118.09.242.182.37.262.27.165.585.297.92.381l.022.006c.119.029.202 0 .205-.124.003-.124 0-.116 0-.173a1.599 1.599 0 00-.216-.701l.003.006a2.022 2.022 0 00-.81-.794l-.012-.005a2.433 2.433 0 00-1.123-.272s-.005 0-.008.003zM12 3.427l-.058-.002a.85.85 0 00-.845.761v.003a.91.91 0 001.8.003v-.006a.854.854 0 00-.848-.764c-.017.005-.035.005-.049.005zm5.692.621v.643c2.827.635 4.697 1.73 4.697 2.98 0 1.318-2.092 2.46-5.199 3.08v.624c4.03-.661 6.811-2.072 6.811-3.693 0-1.58-2.564-2.942-6.309-3.634zm-9.669 6.978L5.513 8.53l-.216 1.85C3.05 9.726 1.605 8.737 1.605 7.667c0-1.232 1.872-2.342 4.696-2.98v-.643C2.565 4.74.001 6.102.001 7.67c0 1.407 2.051 2.645 5.215 3.383l-.187 1.51 2.994-1.538zm8.498-1.558c-.329 0-.6-.291-.6-.65 0-.357.268-.648.6-.648.332 0 .6.291.6.649 0 .358-.268.649-.6.649zm0-1.05c-.193 0-.352.182-.352.4 0 .22.159.402.352.402.193 0 .352-.182.352-.401 0-.22-.156-.401-.352-.401z"/>
</svg>
