<svg xmlns="http://www.w3.org/2000/svg" aria-hidden="true" viewBox="-2 -2 28 20" fill="currentColor">
  <path d="M9.704 8.969h.017c.141 0 .277.026.398.078l-.008-.003c.233.083.415.26.507.482l.003.005c.043.104.07.225.07.352v.026c0 .104-.012.205-.035.3l.003-.008a.78.78 0 01-.104.233l.003-.003a.715.715 0 01-.162.162h-.003a1.04 1.04 0 01-.21.11l-.006.002a.892.892 0 01.438.309l.003.003a.877.877 0 01.156.502v.052a1.2 1.2 0 01-.092.455l.003-.008a1.012 1.012 0 01-.603.54l-.006.002a1.216 1.216 0 01-.421.075h-.017a1.42 1.42 0 01-.416-.063l.009.003a.88.88 0 01-.32-.185 1.034 1.034 0 01-.228-.294l-.003-.006a2.023 2.023 0 01-.162-.395l-.003-.015.246-.11a.307.307 0 01.13-.028h.008c.035 0 .07.011.098.029.035.017.06.043.072.078.032.069.06.127.095.178l-.005-.008a.566.566 0 00.271.257l.003.002a.614.614 0 00.47-.002l-.003.002a.522.522 0 00.283-.312v-.002a.571.571 0 00.037-.202v-.009c0-.08-.008-.161-.026-.236v.009a.364.364 0 00-.106-.182.53.53 0 00-.223-.116h-.002a1.507 1.507 0 00-.352-.043H9.45h.003v-.438h.035c.11 0 .213-.015.314-.044l-.009.003a.497.497 0 00.22-.112.353.353 0 00.11-.165v-.002a.626.626 0 00.03-.2v-.017c.004-.017.004-.04.004-.06a.52.52 0 00-.133-.35.463.463 0 00-.323-.132h-.04a.481.481 0 00-.315.118.61.61 0 00-.184.291v.003a.252.252 0 01-.075.136.181.181 0 01-.116.04h-.086L8.59 10c.02-.168.067-.32.136-.459l-.003.009a1.035 1.035 0 01.571-.522l.006-.003c.113-.035.24-.055.372-.055.015-.003.023 0 .032 0zm2.732 1.391c.13 0 .253.025.366.071l-.006-.003a.81.81 0 01.309.202c.092.095.164.205.216.33l.003.005a1.38 1.38 0 01-.003.955l.003-.009c-.055.15-.133.277-.234.387a1.117 1.117 0 01-.813.352h-.049a1.14 1.14 0 01-.456-.096l.009.003a1.074 1.074 0 01-.358-.254 1.138 1.138 0 01-.222-.4l-.003-.01a1.524 1.524 0 01-.078-.484v-.029c.003-.187.038-.366.098-.53l-.003.011c.078-.213.176-.398.297-.565l-.005.005.779-1.153a.33.33 0 01.118-.101h.003a.37.37 0 01.17-.04h.51l-1.04 1.384c0 .026-.038.049-.053.078a.704.704 0 01.202-.081h.006a.9.9 0 01.222-.029h.012zm-.785 1.118v.009c0 .092.014.182.037.268l-.002-.005a.546.546 0 00.294.346h.003c.069.031.15.049.236.049h.023a.571.571 0 00.243-.052l-.003.003a.585.585 0 00.314-.343v-.003a.674.674 0 00.046-.246v-.034a.83.83 0 00-.043-.269l.003.006a.55.55 0 00-.309-.34h-.003a.668.668 0 00-.23-.04h-.023a.546.546 0 00-.237.051l.003-.003a.56.56 0 00-.188.136.76.76 0 00-.118.205l-.003.006a.776.776 0 00-.04.25c-.003-.002-.003.003-.003.006zm4.411-.668v.045c0 .274-.035.543-.099.796l.006-.023c-.052.22-.141.41-.257.58l.003-.006a1.033 1.033 0 01-.842.445c-.02 0-.04.003-.063.003-.156 0-.303-.035-.436-.096l.006.003a1.098 1.098 0 01-.375-.331l-.003-.003a1.687 1.687 0 01-.251-.563l-.003-.011a3.656 3.656 0 01-.09-.82c0-.288.032-.574.096-.845l-.006.026c.052-.22.141-.41.257-.58l-.003.006c.098-.141.225-.254.372-.335l.006-.002c.141-.078.311-.127.493-.127h.012c.349 0 .657.176.842.444l.003.003c.112.164.202.355.25.562l.004.012c.052.213.08.458.08.71 0 .037 0 .077-.003.115v-.009zm-.577 0v-.07c0-.205-.02-.407-.058-.6l.003.02a1.33 1.33 0 00-.144-.418l.002.008a.52.52 0 00-.199-.21h-.002a.483.483 0 00-.234-.058.495.495 0 00-.237.058h.003a.55.55 0 00-.196.21l-.003.003c-.063.119-.11.257-.138.401v.009c-.032.176-.05.38-.05.588v.064-.003.058c0 .207.018.41.053.608l-.003-.02c.029.153.078.292.144.418l-.003-.008c.046.09.113.161.193.21h.003a.48.48 0 00.234.058c.086 0 .167-.02.236-.058h-.002a.537.537 0 00.199-.21v-.003c.063-.118.112-.257.138-.401v-.009c.035-.173.055-.375.055-.577v-.069h.006zm1.26-1.342a.75.75 0 110-1.5.75.75 0 010 1.5zm0-1.214c-.241 0-.44.21-.44.464 0 .253.199.463.44.463.242 0 .44-.21.44-.463a.455.455 0 00-.44-.464z"/>
  <path d="M17.691 4.177v.644c2.827.634 4.697 1.73 4.697 2.98 0 1.318-2.092 2.46-5.199 3.08v.623C21.22 10.841 24 9.434 24 7.812c0-1.58-2.564-2.942-6.309-3.635zm-9.669 6.978L5.512 8.66l-.216 1.846C3.05 9.854 1.604 8.865 1.604 7.795c0-1.232 1.872-2.343 4.696-2.98v-.64C2.564 4.87 0 6.23 0 7.798 0 9.2 2.051 10.44 5.215 11.18l-.187 1.509 2.994-1.535zm9.193-9.138h-.72a.266.266 0 00-.191.078c-.08.095-.136.3-.21.3h-.243a3.832 3.832 0 00-.193-.37 5.425 5.425 0 00-.33-.484l.01.014s-.174-.193-.272-.28a.928.928 0 00-.516-.242h-.006c-.282-.037-.649-.066-.649-.066l-.82-.029h-2.088l-.799.029s-.369.029-.649.066a.944.944 0 00-.525.242c-.098.087-.265.28-.265.28a4.4 4.4 0 00-.309.45l-.011.02c-.067.104-.13.225-.185.352l-.008.018h-.338c-.075 0-.127-.205-.21-.3a.264.264 0 00-.188-.078h-.712c-.01 0-.02-.003-.032-.003a.252.252 0 00-.251.245v.222c0 .136.291.34.557.35h.931c-.106.077-.27.195-.372.28-.311.241-.528.322-.528.758v.029c0 .493.026.98.075 1.46l-.006-.061.061.522c.009.072.02.135.04.196l-.002-.009v.915c.008.144.126.26.274.26H8.89a.275.275 0 00.274-.26v-.459h5.712v.459c.009.144.127.26.274.26h1.344a.275.275 0 00.274-.26v-.739a1.36 1.36 0 00.101-.357v-.01l.058-.521c.046-.421.075-.906.075-1.4v-.028.003c0-.436-.216-.517-.534-.759-.104-.08-.265-.202-.372-.28h.834c.265 0 .557-.213.557-.349V2.26a.25.25 0 00-.251-.242h-.02zm-8.498.375c.098-.19.205-.355.326-.508l-.006.006c.084-.107.18-.2.283-.28l.003-.003a1.93 1.93 0 01.65-.153h.005c.58-.052 1.514-.052 1.514-.052h1.033s.94 0 1.517.052c.24.012.462.067.664.156l-.012-.006c.107.084.202.18.286.28l.003.003c.11.144.21.309.291.482l.009.017c.144.283-.104.358-.225.36L8.96 2.745c-.122.006-.37-.07-.243-.352zm.153 3.311h-.848c-.257 0-.28-.236-.28-.337 0-.101.078-.116.202-.116h.727c.098 0 .193.02.28.055l-.006-.003a.406.406 0 01.24.28v.003c.011.066-.026.115-.303.115l-.012.003zm.727-1.28c-.228.04-.493.063-.761.063-.061 0-.122 0-.182-.003h.008a1.226 1.226 0 01-.715-.127l.006.003a.573.573 0 01-.309-.47v-.003c-.026-.242 0-.366.343-.37h.035c.398 0 .776.09 1.114.249l-.015-.006c.242.087.45.216.62.387a.17.17 0 01.03.095.18.18 0 01-.16.179l-.014.003zm3.56 1.16H10.88c-.303 0-.857-.05-.857-.41a.737.737 0 01.113-.381l-.003.003a.787.787 0 01.692-.468 8.18 8.18 0 011.105-.075h.09-.007.087c.39 0 .776.026 1.15.078l-.042-.005a.82.82 0 01.692.43l.003.005c.066.107.11.237.11.378 0 .384-.554.444-.857.444zm2.827.132h-.846c-.331 0-.317-.05-.317-.115a.372.372 0 01.084-.165.507.507 0 01.153-.118h.003a.732.732 0 01.28-.052h.726c.119 0 .202.02.202.115 0 .096-.075.323-.282.323l-.003.012zm.38-1.815a.573.573 0 01-.305.45l-.003.003a1.22 1.22 0 01-.721.122h.005c-.052.002-.11.002-.17.002-.271 0-.533-.023-.793-.069l.026.003a.184.184 0 01-.167-.179c0-.034.008-.069.028-.095a1.68 1.68 0 01.603-.38l.012-.004a2.573 2.573 0 011.058-.222h.081-.003c.36 0 .37.116.344.358l.005.012z"/>
</svg>
