<svg xmlns="http://www.w3.org/2000/svg" aria-hidden="true" viewBox="-2 -2 28 20" fill="currentColor">
  <path d="M8.336 2.251h.035c.237 0 .463.043.672.117l-.014-.004c.205.067.381.17.533.304H9.56c.141.124.254.276.329.45l.003.006c.078.163.12.35.12.552v.039c0 .159-.02.311-.063.456l.003-.01a1.065 1.065 0 01-.173.353l.004-.004a1.24 1.24 0 01-.273.255l-.003.004a1.84 1.84 0 01-.357.166l-.014.003c.304.089.558.265.742.499l.004.003c.155.209.247.47.247.753v.057-.004.04c0 .49-.22.933-.566 1.23l-.003.003a1.894 1.894 0 01-.594.322l-.014.004c-.212.07-.453.11-.707.11h-.076c-.24 0-.473-.036-.696-.1l.018.004a1.828 1.828 0 01-.549-.283l.004.003a1.936 1.936 0 01-.389-.477l-.003-.01a3.293 3.293 0 01-.27-.609l-.006-.024.42-.17a.535.535 0 01.216-.046c.067 0 .127.014.184.042h-.003a.384.384 0 01.12.124c.053.103.102.191.155.272l-.007-.01c.057.088.12.166.195.237a1.1 1.1 0 00.265.162l.007.004c.106.039.226.06.35.06h.049a.97.97 0 00.404-.085l-.008.004a.899.899 0 00.301-.202.902.902 0 00.18-.28l.004-.006a.8.8 0 00.06-.311V6.25a1.63 1.63 0 00-.042-.371l.003.01a.604.604 0 00-.177-.283 1.03 1.03 0 00-.382-.18h-.007a2.878 2.878 0 00-.625-.067h-.053.003v-.675h.05c.187 0 .37-.022.548-.064l-.018.004c.141-.036.262-.096.371-.174l-.003.004a.614.614 0 00.19-.262V4.19a.987.987 0 00.057-.33v-.056a.781.781 0 00-.22-.548.825.825 0 00-.526-.187c-.021 0-.042 0-.064.003h.004-.032a.857.857 0 00-.534.184h.004a.944.944 0 00-.311.453v.007a.408.408 0 01-.124.205.309.309 0 01-.195.067H6.94l-.502-.092a2.02 2.02 0 01.223-.735l-.007.01c.106-.198.244-.364.41-.502l.003-.003c.17-.135.364-.237.58-.304l.014-.004c.202-.067.435-.102.676-.106zM12.97 4.4c.22 0 .432.04.627.11l-.015-.003c.404.145.722.445.888.824l.003.01c.085.205.138.442.138.69v.056-.003.014c0 .258-.053.502-.145.725l.004-.014a1.88 1.88 0 01-.396.594 1.91 1.91 0 01-.612.392l-.014.004a2.035 2.035 0 01-.76.145h-.039.004-.046c-.273 0-.53-.053-.768-.145l.015.003a1.848 1.848 0 01-.609-.396 1.82 1.82 0 01-.378-.604l-.003-.011a2.333 2.333 0 01-.131-.77v-.026c.003-.29.063-.565.166-.82l-.007.014c.138-.329.307-.611.509-.866l-.007.007 1.296-1.77a.507.507 0 01.198-.16h.004a.648.648 0 01.29-.067h.863l-1.754 2.136-.096.12c.22-.11.481-.173.754-.177l.02-.01zm-1.332 1.73c0 .152.025.297.067.431l-.004-.01a.914.914 0 00.477.537l.008.003c.12.05.258.075.403.075h.045a.95.95 0 00.4-.085l-.007.003a.896.896 0 00.326-.212 1.03 1.03 0 00.208-.321l.004-.008c.05-.116.074-.254.074-.4v-.038c0-.141-.025-.28-.074-.407l.003.007a.836.836 0 00-.527-.52l-.007-.003a1.155 1.155 0 00-.406-.07h-.021c-.145 0-.283.028-.407.077l.007-.003c-.124.053-.23.127-.318.215a.932.932 0 00-.205.315l-.004.007c-.035.106-.056.23-.056.357a.084.084 0 01.014.05zm7.644-.997v.088c0 .417-.057.824-.163 1.206l.007-.032c-.092.34-.237.636-.431.898l.004-.007a1.824 1.824 0 01-.637.498l-.01.004a2.002 2.002 0 01-1.633-.007l.013.003c-.258-.12-.47-.29-.64-.498l-.003-.004a2.678 2.678 0 01-.418-.855l-.003-.018a4.618 4.618 0 01-.152-1.184v-.167c0-.417.056-.823.159-1.209l-.007.032c.092-.34.24-.633.431-.89l-.003.006a1.78 1.78 0 01.633-.498l.01-.004a2.002 2.002 0 011.633.007L18.06 2.5c.258.12.477.29.647.498l.003.004c.191.25.336.548.424.866l.004.018c.095.346.152.742.152 1.152v.1l-.007-.004zm-.976 0V5.04c0-.326-.032-.64-.095-.944l.003.028a1.934 1.934 0 00-.24-.636l.003.01a.907.907 0 00-.336-.329l-.003-.003a.893.893 0 00-.3-.05c-.036 0-.068.004-.103.007h.003a.963.963 0 00-.403.092l.007-.003a.936.936 0 00-.336.329l-.003.003c-.1.17-.18.364-.23.57l-.003.014a4.945 4.945 0 00-.085.926v.085-.004.078c0 .329.031.647.092.958l-.004-.032c.05.237.127.446.237.64l-.007-.01a.873.873 0 00.332.329l.004.003a.96.96 0 00.396.096.905.905 0 00.403-.1l-.007.004a.845.845 0 00.34-.329l.003-.003c.106-.18.19-.393.233-.615l.004-.015c.056-.275.092-.59.092-.915v-.096l.003.004zm1.428-2.489a1.022 1.022 0 11.001-2.045 1.022 1.022 0 010 2.045zm0-1.64a.616.616 0 10.001 1.23.616.616 0 000-1.23z"/>
  <path d="M10.224 11.691C5.87 11.36 2.18 9.938 2.18 8.378c0-1.004 1.51-1.774 3.737-2.273V4.988C2.583 5.678.2 6.897.2 8.467c0 2.188 4.653 4.313 10.055 4.798v2.128l4.445-2.825-4.476-3.086v2.21zm9.634-6.346v1.202c1.51.502 2.475 1.191 2.475 1.966 0 1.294-2.68 2.418-6.099 2.941v1.67c4.55-.634 7.966-2.37 7.966-4.346 0-1.41-1.722-2.634-4.342-3.433z"/>
</svg>
