<svg xmlns="http://www.w3.org/2000/svg" aria-hidden="true" viewBox="-2 -2 20 20" fill="currentColor">
  <path d="M6.063 11.391a5.336 5.336 0 013.482-4.998 4.43 4.43 0 00.393-1.783c0-2.408 0-4.359-2.906-4.359S4.126 2.203 4.126 4.61c0 1.499.87 2.999 1.938 3.6v.799C2.778 9.278.251 10.892.251 12.844h6.014a5.322 5.322 0 01-.201-1.453z"/>
  <path d="M11.391 7.031a4.359 4.359 0 100 8.718 4.359 4.359 0 000-8.718zm2.422 4.844h-1.938v1.938h-.969v-1.938H8.968v-.969h1.938V8.968h.969v1.938h1.938v.969z"/>
</svg>
