<svg width="16" height="17" viewBox="0 0 16 17" fill="none" xmlns="http://www.w3.org/2000/svg">
<path d="M4.2031 4.27159C3.93807 4.6963 3.49436 4.97553 2.99872 5.04597C2.72021 5.08555 2.44275 5.12838 2.16638 5.17444C1.39359 5.30321 0.84375 5.98303 0.84375 6.76648V12.951C0.84375 13.8631 1.58313 14.6024 2.49521 14.6024H13.5049C14.417 14.6024 15.1564 13.8631 15.1564 12.951V6.76648C15.1564 5.98304 14.6065 5.30322 13.8337 5.17444C13.5574 5.12839 13.2799 5.08555 13.0014 5.04597C12.5058 4.97554 12.0621 4.6963 11.797 4.27159L11.1943 3.30567C10.9165 2.86049 10.4438 2.57131 9.91979 2.54317C9.28421 2.50904 8.64415 2.49176 8.00006 2.49176C7.35597 2.49176 6.71592 2.50904 6.08034 2.54317C5.55635 2.57131 5.08365 2.86049 4.80585 3.30566L4.2031 4.27159Z" stroke="black" stroke-width="1.5" stroke-linecap="round" stroke-linejoin="round"/>
<path d="M11.303 9.09759C11.303 10.9217 9.82421 12.4005 8.00006 12.4005C6.17591 12.4005 4.69715 10.9217 4.69715 9.09759C4.69715 7.27344 6.17591 5.79467 8.00006 5.79467C9.82421 5.79467 11.303 7.27344 11.303 9.09759Z" stroke="black" stroke-width="1.5" stroke-linecap="round" stroke-linejoin="round"/>
<path d="M12.9544 7.44613H12.9599V7.45163H12.9544V7.44613Z" stroke="black" stroke-width="1.5" stroke-linecap="round" stroke-linejoin="round"/>
</svg>
