<svg width="16" height="17" viewBox="0 0 16 17" fill="none" xmlns="http://www.w3.org/2000/svg">
<path d="M14.0873 5.9728C14.7396 6.18268 15.1941 6.80521 15.1941 7.5202V10.6823C15.1941 11.521 14.5688 12.2321 13.7329 12.3003C13.4828 12.3207 13.232 12.3386 12.9805 12.3539V14.6344L10.767 12.4208C9.76811 12.4208 8.77891 12.3801 7.80099 12.3003C7.58088 12.2823 7.37538 12.2198 7.19205 12.122M14.0873 5.9728C13.9756 5.93685 13.858 5.91301 13.736 5.90288C12.7571 5.82163 11.7668 5.78019 10.7669 5.78019C9.76705 5.78019 8.77684 5.82163 7.79793 5.90287C6.96336 5.97214 6.33988 6.68275 6.33988 7.52019V10.6822C6.33988 11.3 6.67919 11.8487 7.19205 12.122M14.0873 5.9728V4.59027C14.0873 3.39391 13.2375 2.35706 12.0511 2.20304C10.544 2.0074 9.00722 1.90649 7.44687 1.90649C5.88635 1.90649 4.34941 2.00742 2.84222 2.2031C1.65583 2.35713 0.80603 3.39398 0.80603 4.59033V9.18361C0.80603 10.38 1.65583 11.4168 2.84223 11.5708C3.26794 11.6261 3.69602 11.6738 4.12634 11.7138V15.1877L7.19205 12.122" stroke="black" stroke-width="1.5" stroke-linecap="round" stroke-linejoin="round"/>
</svg>
