<svg width="16" height="17" viewBox="0 0 16 17" fill="none" xmlns="http://www.w3.org/2000/svg">
<path d="M13.2521 3.84882C15.8468 6.44361 15.8468 10.6506 13.2521 13.2454M11.2947 5.8065C12.8083 7.32012 12.8083 9.77419 11.2947 11.2878M4.12418 5.77865L7.60853 2.2943C7.95734 1.94549 8.55375 2.19253 8.55375 2.68582V14.4084C8.55375 14.9017 7.95734 15.1488 7.60853 14.8L4.12418 11.3156H2.46978C1.82059 11.3156 1.21241 10.9417 1.04 10.3158C0.884867 9.75268 0.802002 9.15959 0.802002 8.54713C0.802002 7.93468 0.884867 7.34158 1.04 6.77843C1.21241 6.15256 1.82059 5.77865 2.46978 5.77865H4.12418Z" stroke="black" stroke-width="1.5" stroke-linecap="round" stroke-linejoin="round"/>
</svg>
