<svg width="16" height="17" viewBox="0 0 16 17" fill="none" xmlns="http://www.w3.org/2000/svg">
<g clip-path="url(#clip0_1243_5095)">
<path d="M7.59066 1.86118C7.74208 1.49712 8.25782 1.49712 8.40925 1.86118L10.0846 5.88933C10.1485 6.04281 10.2928 6.14768 10.4585 6.16096L14.8072 6.5096C15.2003 6.54111 15.3597 7.03161 15.0602 7.28812L11.7469 10.1263C11.6207 10.2344 11.5656 10.4041 11.6041 10.5658L12.6164 14.8094C12.7079 15.193 12.2906 15.4961 11.9541 15.2906L8.23102 13.0165C8.08916 12.9299 7.91075 12.9299 7.76889 13.0165L4.04578 15.2906C3.70928 15.4961 3.29204 15.193 3.38353 14.8094L4.39578 10.5658C4.43435 10.4041 4.37922 10.2344 4.25298 10.1263L0.93971 7.28812C0.640255 7.03161 0.799627 6.54111 1.19267 6.5096L5.54139 6.16096C5.70708 6.14768 5.85142 6.04281 5.91526 5.88933L7.59066 1.86118Z" stroke="black" stroke-width="1.5" stroke-linecap="round" stroke-linejoin="round"/>
</g>
<defs>
<clipPath id="clip0_1243_5095">
<rect width="16" height="16" fill="white" transform="translate(0 0.547119)"/>
</clipPath>
</defs>
</svg>
