<svg xmlns="http://www.w3.org/2000/svg" fill="none" viewBox="0 0 17 17">
  <g clip-path="url(#clip0_1534_4789)">
    <path fill="#000" d="M2.545 5.31a5.625 5.625 0 013.762-1.442h2.142c1.24 0 2.428.497 3.297 1.381l1.21 1.23c.039.04.086.07.139.09l2.474.898c.643.234 1.07.844 1.07 1.527v1.16c0 .694-.44 1.311-1.095 1.537l-.345.119a2.012 2.012 0 01-3.749.056H5.983a2.011 2.011 0 01-3.76-.086.625.625 0 01-.125-.096l-.97-.958a1.625 1.625 0 01-.482-1.155V8.188c0-.745.316-1.454.87-1.952l1.029-.926zm8.82 5.306a2.011 2.011 0 013.855-.148.375.375 0 00.17-.313v-1.16a.375.375 0 00-.248-.353l-1.883-.684a.626.626 0 01-.139.015H5.462c-.365 0-.7-.174-.898-.464a1.022 1.022 0 01-.063-1.05c.17-.333.423-.757.793-1.223A4.375 4.375 0 003.381 6.24l-1.03.926c-.29.26-.455.632-.455 1.022V9.57c0 .1.04.196.111.266l.335.33a2.01 2.01 0 013.727.449h5.295zM7.116 5.118a7.02 7.02 0 00-1.335 1.605h5.66l-.587-.597a3.375 3.375 0 00-2.406-1.008H7.117zM4.119 11.87a.76.76 0 100-1.521.76.76 0 000 1.521zm9.956-.76a.76.76 0 11-1.522 0 .76.76 0 011.522 0z" clip-rule="evenodd"/>
  </g>
  <defs>
    <clipPath id="clip0_1534_4789">
      <path fill="#fff" d="M0 0h16v16H0z" transform="translate(.653 .55)"/>
    </clipPath>
  </defs>
</svg>
