<svg viewBox="0 0 17 17" stroke-width="1.5" stroke="currentColor" aria-hidden="true" fill="none">
  <g clip-path="url(#a)">
    <path stroke-linecap="round" d="M14.861 11.211l.404-.14a1 1 0 00.675-.945v-1.16a1 1 0 00-.659-.94l-2.475-.899a1 1 0 01-.37-.238l-1.21-1.23a4 4 0 00-2.852-1.195H6.232a5 5 0 00-3.344 1.283l-1.03.926a2 2 0 00-.662 1.487v1.382a1 1 0 00.297.712l.969.957m3.137.001h6.023m1.424-3.892H5.388c-.331 0-.554-.311-.404-.606.27-.531.793-1.347 1.743-2.18M5.47 11.098a1.424 1.424 0 11-2.848 0 1.424 1.424 0 012.848 0zm9.194 0a1.424 1.424 0 11-2.85 0 1.424 1.424 0 012.85 0z"/>
  </g>
  <defs>
    <clipPath id="a">
      <path d="M0 0h16v16H0z" transform="translate(.568 .55)"/>
    </clipPath>
  </defs>
</svg>
