<svg viewBox="0 0 17 17" stroke-width="1.5" stroke="currentColor" aria-hidden="true" fill="none">
  <g clip-path="url(#a)">
    <path stroke-linecap="round" stroke-linejoin="round" d="M11.22 2.817A1.658 1.658 0 009.626 1.61h-2.21c-.76 0-1.4.51-1.596 1.207m5.402 0c.04.143.062.294.062.45a.553.553 0 01-.553.553H6.31a.553.553 0 01-.553-.552c0-.157.022-.308.062-.451m5.402 0c.476.036.95.081 1.42.136.81.094 1.405.793 1.405 1.61v9.756c0 .916-.742 1.658-1.658 1.658H4.652a1.658 1.658 0 01-1.658-1.658V4.562c0-.816.594-1.515 1.405-1.61.47-.054.944-.1 1.42-.135m-.111 7.258l2.25 2.25 3.374-5.063"/>
  </g>
  <defs>
    <clipPath id="a">
      <path d="M0 0h16v16H0z" transform="translate(.52 .793)"/>
    </clipPath>
  </defs>
</svg>
