<svg viewBox="0 0 16 17" stroke-width="1.5" stroke="currentColor" aria-hidden="true" fill="none">
  <g stroke-linecap="round" stroke-linejoin="round" stroke-width="1.5" clip-path="url(#a)">
    <path d="M6.678 2.159a.897.897 0 01.885-.75h.873c.439 0 .813.317.885.75l.119.713c.056.338.306.61.623.741.317.132.681.114.96-.085l.589-.42a.898.898 0 011.156.095l.617.617c.31.31.35.8.096 1.156l-.42.589c-.2.28-.218.643-.086.96.132.317.403.567.741.623l.714.119c.432.072.75.446.75.885v.873a.898.898 0 01-.75.885l-.714.119c-.338.056-.61.306-.741.623-.132.317-.114.681.085.96l.42.589a.898.898 0 01-.095 1.156l-.617.617a.9.9 0 01-1.157.096l-.588-.42c-.28-.2-.643-.218-.96-.086-.317.131-.567.403-.623.741l-.119.713a.897.897 0 01-.885.75h-.873a.898.898 0 01-.885-.75l-.119-.713c-.056-.338-.306-.61-.623-.741-.317-.132-.681-.114-.96.085l-.589.42a.898.898 0 01-1.156-.095l-.617-.617a.898.898 0 01-.096-1.156l.42-.589c.2-.28.218-.643.086-.96-.131-.317-.403-.567-.741-.623L1.57 9.91a.897.897 0 01-.75-.885v-.873c0-.439.317-.813.75-.885l.713-.119c.338-.056.61-.306.741-.623.132-.317.114-.681-.085-.96l-.42-.589a.897.897 0 01.095-1.156l.617-.617a.9.9 0 011.157-.096l.588.42c.28.2.643.218.96.086.317-.131.567-.403.623-.741l.119-.713z"/>
    <path d="M10.393 8.589a2.393 2.393 0 11-4.786 0 2.393 2.393 0 014.786 0z"/>
  </g>
  <defs>
    <clipPath id="a">
      <path d="M0 0h16v16H0z" transform="translate(0 .589)"/>
    </clipPath>
  </defs>
</svg>
