<svg xmlns="http://www.w3.org/2000/svg" viewBox="0 0 16 16" fill="currentColor" aria-hidden="true">
  <path d="M.018 8.298c0 1.503.39 2.668 1.167 3.494.778.822 1.766 1.233 2.964 1.233 1.18 0 2.088-.316 2.724-.948.637-.636.99-1.414 1.061-2.333l.007-.093H6.409l-.006.093c-.049.579-.257 1.063-.623 1.452-.363.389-.907.583-1.631.583-.765 0-1.386-.298-1.863-.895-.473-.597-.71-1.434-.71-2.513V7.63c0-1.163.239-2.02.716-2.573.482-.557 1.099-.835 1.85-.835.76 0 1.326.19 1.697.57.376.376.566.862.57 1.459v.106h1.532v-.1a3.1 3.1 0 00-1.014-2.333c-.672-.632-1.598-.948-2.778-.948-1.198 0-2.186.41-2.964 1.233C.407 5.03.018 6.194.018 7.702v.596zm8.835 4.528h1.531V9.034h1.75c1.07 0 1.9-.267 2.487-.802.588-.54.882-1.255.882-2.148 0-.893-.294-1.6-.882-2.122-.583-.526-1.412-.789-2.486-.789H8.853v9.653zm1.531-4.985V4.367h1.73c.695 0 1.179.161 1.453.484.274.322.41.734.41 1.233 0 .504-.136.924-.41 1.26-.274.331-.758.497-1.452.497h-1.73zm3.905 4.985H16l-2.486-4.614-1.558.16 2.334 4.454z"/>
</svg>
