<svg xmlns="http://www.w3.org/2000/svg" viewBox="0 0 16 16" stroke-width="1.5" stroke="currentColor" aria-hidden="true" fill="none">
  <defs>
    <clipPath id="a">
      <path d="M0 0h16v16H0z"/>
    </clipPath>
  </defs>
  <g clip-path="url(#a)">
    <path stroke-linecap="round" stroke-linejoin="round" d="M.772 15.216H12.07M9.972 6.18h3.256a2 2 0 011.988 2.217l-.013.123c-.04.371-.194.722-.438 1.005l-.107.123a4.25 4.25 0 01-3.215 1.471M6.19.784s1.226.437 1.226 1.792c0 1.354-1.226 1.748-1.226 1.748m3.087-3.05s.792.378.792 1.544c0 1.167-.792 1.506-.792 1.506m-5.74-3.05s.792.378.792 1.544c0 1.167-.793 1.506-.793 1.506M.788 6.179H12.03l-.12 2.61a6.511 6.511 0 01-1.127 3.374A5.065 5.065 0 016.6 14.37h-.381a5.065 5.065 0 01-4.183-2.208A6.512 6.512 0 01.908 8.788l-.12-2.61z"/>
  </g>
</svg>
