<svg viewBox="0 0 16 16" stroke-width="1.5" stroke="currentColor" aria-hidden="true" fill="none">
  <path stroke-linecap="round" stroke-linejoin="round" d="M10.75 11.85v2.475c0 .456-.37.825-.825.825h-7.15a.825.825 0 01-.825-.825v-9.35c0-.456.37-.825.825-.825H4.15c.375 0 .742.031 1.1.091m5.5 7.61h2.475c.456 0 .825-.37.825-.826V7.45a6.602 6.602 0 00-6.6-6.6H6.075a.825.825 0 00-.825.825V4.24m5.5 7.61H6.075a.825.825 0 01-.825-.826V4.241m8.8 4.86V7.724a2.475 2.475 0 00-2.475-2.475h-1.1a.825.825 0 01-.825-.825v-1.1A2.475 2.475 0 007.175.85H6.35"/>
</svg>
