<svg xmlns="http://www.w3.org/2000/svg" fill="none" viewBox="0 0 17 17">
  <g fill="#000" fill-rule="evenodd" clip-path="url(#clip0_1534_4766)" clip-rule="evenodd">
    <path d="M4.738 9.229a1 1 0 011-1h5.747a1 1 0 011 1v3.423a1 1 0 01-1 1H5.738a1 1 0 01-1-1V9.229zm1.025 3.648h1.3v-1.55h-1.55v1.3c0 .138.112.25.25.25zm-.25-2.324h1.55v-1.55h-1.3a.25.25 0 00-.25.25v1.3zm2.324 2.324h1.55v-1.55h-1.55v1.55zm0-2.324h1.55v-1.55h-1.55v1.55zm3.623 2.324a.25.25 0 00.25-.25v-1.3h-1.549v1.55h1.3zm-1.299-2.324h1.55v-1.3a.25.25 0 00-.25-.25h-1.3v1.55z"/>
    <path d="M3.921.88h3.582a7.363 7.363 0 017.363 7.362v6.889c0 .87-.706 1.576-1.577 1.576H3.921c-.87 0-1.577-.706-1.577-1.576V2.456c0-.87.706-1.577 1.577-1.577zm-.077 1.576c0-.042.035-.077.077-.077h3.307c.955 0 1.73.775 1.73 1.73v1.102c0 .871.705 1.577 1.576 1.577h1.102c.956 0 1.73.774 1.73 1.73v6.613a.077.077 0 01-.077.076H3.921a.077.077 0 01-.077-.076V2.456zm6.613 1.653c0-.358-.058-.703-.166-1.026a5.89 5.89 0 012.371 2.371 3.226 3.226 0 00-1.026-.166h-1.102a.077.077 0 01-.077-.077V4.11z"/>
  </g>
  <defs>
    <clipPath id="clip0_1534_4766">
      <path fill="#fff" d="M0 0h16v16H0z" transform="translate(.605 .793)"/>
    </clipPath>
  </defs>
</svg>
