<svg xmlns="http://www.w3.org/2000/svg" viewBox="0 0 16 16" fill="currentColor" aria-hidden="true">
  <g fill-rule="evenodd" clip-path="url(#a)" clip-rule="evenodd">
    <path d="M1.295 1.75c0-.966.783-1.75 1.75-1.75h6.71c.967 0 1.75.784 1.75 1.75v13.483a.75.75 0 01-.75.75h-8.71a.75.75 0 01-.75-.75V1.75zm1.75-.25a.25.25 0 00-.25.25v2.83h7.21V1.75a.25.25 0 00-.25-.25h-6.71zm6.96 4.58h-7.21v8.403h7.21V6.08z"/>
    <path d="M12.824 1.45a.75.75 0 011.016.305l1.471 2.73A5.75 5.75 0 0116 7.212v4.956a1.75 1.75 0 01-1.75 1.75h-.304a1.75 1.75 0 01-1.75-1.75v-2.98a.25.25 0 00-.25-.25h-.952a.75.75 0 010-1.5h.952c.966 0 1.75.784 1.75 1.75v2.98c0 .138.112.25.25.25h.304a.25.25 0 00.25-.25V7.213a4.25 4.25 0 00-.127-1.031 1.195 1.195 0 01-1.405-.57l-.61-1.12a1.195 1.195 0 01.403-1.578l-.241-.447a.75.75 0 01.304-1.016zM0 15.216a.75.75 0 01.75-.75h11.298a.75.75 0 010 1.5H.751a.75.75 0 01-.75-.75z"/>
  </g>
  <defs>
    <clipPath id="a">
      <path d="M0 0h16v16H0z"/>
    </clipPath>
  </defs>
</svg>
