<svg viewBox="0 0 17 16" stroke-width="1.5" stroke="currentColor" aria-hidden="true" fill="none">
  <g clip-path="url(#a)">
    <path stroke-linecap="round" stroke-linejoin="round" d="M8.815.866c2.184 0 4.325.184 6.408.537.422.072.726.44.726.87V3.1c0 .473-.188.926-.522 1.26l-4.306 4.307a1.783 1.783 0 00-.522 1.26v2.321c0 .676-.382 1.293-.986 1.596l-2.581 1.29V9.928a1.78 1.78 0 00-.523-1.261L2.203 4.36a1.784 1.784 0 01-.522-1.26v-.828c0-.428.304-.797.727-.869A38.301 38.301 0 018.815.866z"/>
  </g>
  <defs>
    <clipPath id="a">
      <path d="M0 0h16v16H0z" transform="translate(.815)"/>
    </clipPath>
  </defs>
</svg>
