<svg xmlns="http://www.w3.org/2000/svg" fill="none" viewBox="0 0 17 17">
  <g clip-path="url(#clip0_1534_4775)">
    <path stroke="#000" stroke-width="1.5" d="M1.48 7.906a.25.25 0 010-.354l.325-.324a.248.248 0 01.194-.072c.39.027.874-.083 1.226-.435l3.567-3.567c.352-.352.462-.836.435-1.226a.248.248 0 01.072-.194l.324-.324a.25.25 0 01.354 0l3.54 3.539a.25.25 0 010 .354l-.325.324a.248.248 0 01-.194.072c-.39-.027-.874.083-1.226.435L6.205 9.7c-.352.352-.462.836-.435 1.226a.248.248 0 01-.072.194l-.324.324a.25.25 0 01-.354 0l-3.54-3.54zm7.583 2.44l1.354-1.354a.25.25 0 01.353 0l4.752 4.751a1.207 1.207 0 11-1.708 1.708L9.063 10.7a.25.25 0 010-.353z"/>
  </g>
  <defs>
    <clipPath id="clip0_1534_4775">
      <path fill="#fff" d="M0 0h16v16H0z" transform="translate(.653 .55)"/>
    </clipPath>
  </defs>
</svg>
