<svg viewBox="0 0 17 17" stroke-width="1.5" stroke="currentColor" aria-hidden="true" fill="none">
  <g clip-path="url(#a)">
    <path d="M1.395 7.906a.25.25 0 010-.354l.324-.324a.248.248 0 01.195-.072c.39.027.874-.083 1.225-.435l3.568-3.567c.351-.352.461-.836.434-1.226a.248.248 0 01.073-.194l.324-.324a.25.25 0 01.353 0l3.54 3.54a.25.25 0 010 .353l-.324.324a.248.248 0 01-.195.072c-.39-.027-.874.083-1.225.435L6.119 9.7c-.351.352-.461.836-.434 1.226a.248.248 0 01-.073.194l-.324.324a.25.25 0 01-.353 0l-3.54-3.54zm7.582 2.44l1.354-1.354a.25.25 0 01.354 0l4.752 4.751a1.207 1.207 0 11-1.708 1.708L8.977 10.7a.25.25 0 010-.353z"/>
  </g>
  <defs>
    <clipPath id="a">
      <path d="M0 0h16v16H0z" transform="translate(.568 .55)"/>
    </clipPath>
  </defs>
</svg>
