<svg viewBox="0 0 17 17" stroke-width="1.5" stroke="currentColor" aria-hidden="true" fill="none">
  <g stroke-linecap="round" stroke-linejoin="round" stroke-width="1.5" clip-path="url(#a)">
    <path d="M1.317 1.829a.5.5 0 01.5-.5h2.3a.5.5 0 01.5.5v2.3a.5.5 0 01-.5.5h-2.3a.5.5 0 01-.5-.5v-2.3zm5.573 0a.5.5 0 01.5-.5h2.3a.5.5 0 01.5.5v2.3a.5.5 0 01-.5.5h-2.3a.5.5 0 01-.5-.5v-2.3zm5.574 0a.5.5 0 01.5-.5h2.3a.5.5 0 01.5.5v2.3a.5.5 0 01-.5.5h-2.3a.5.5 0 01-.5-.5v-2.3zM1.317 7.4a.5.5 0 01.5-.5h2.3a.5.5 0 01.5.5v2.3a.5.5 0 01-.5.5h-2.3a.5.5 0 01-.5-.5V7.4zm5.573 0a.5.5 0 01.5-.5h2.3a.5.5 0 01.5.5v2.3a.5.5 0 01-.5.5h-2.3a.5.5 0 01-.5-.5V7.4zm5.574 0a.5.5 0 01.5-.5h2.3a.5.5 0 01.5.5v2.3a.5.5 0 01-.5.5h-2.3a.5.5 0 01-.5-.5V7.4zM1.317 12.97a.5.5 0 01.5-.5h2.3a.5.5 0 01.5.5v2.3a.5.5 0 01-.5.5h-2.3a.5.5 0 01-.5-.5v-2.3zm5.573 0a.5.5 0 01.5-.5h2.3a.5.5 0 01.5.5v2.3a.5.5 0 01-.5.5h-2.3a.5.5 0 01-.5-.5v-2.3zm5.574 0a.5.5 0 01.5-.5h2.3a.5.5 0 01.5.5v2.3a.5.5 0 01-.5.5h-2.3a.5.5 0 01-.5-.5v-2.3z"/>
  </g>
  <defs>
    <clipPath id="a">
      <path d="M0 0h16v16H0z" transform="translate(.568 .55)"/>
    </clipPath>
  </defs>
</svg>
