<svg xmlns="http://www.w3.org/2000/svg" fill="none" viewBox="0 0 16 17" stroke-width="1.5" stroke="currentColor" aria-hidden="true">
  <g clip-path="url(#clip0_1243_4997)">
    <path stroke-linecap="round" stroke-linejoin="round" d="M4.667 10.47H2.352c-.76 0-1.44-.514-1.52-1.27a8.847 8.847 0 011.911-6.52c.286-.356.73-.54 1.188-.54h2.973c.358 0 .714.059 1.054.172l2.306.768c.34.114.695.171 1.053.171h.958m-7.608 7.22c.458 0 .733.535.537.949a5.531 5.531 0 00-.536 2.382c0 .92.746 1.666 1.666 1.666a.555.555 0 00.555-.555v-.47c0-.423.081-.843.239-1.237.225-.562.689-.985 1.223-1.27a6.694 6.694 0 002.119-1.776c.368-.47.907-.8 1.504-.8h.284m-7.591 1.11h1.63m5.978-7.219c.008.037.02.074.038.11.438.888.685 1.887.685 2.945 0 1.1-.267 2.139-.74 3.054m.017-6.109c-.057-.27.136-.555.426-.555h.672c.658 0 1.268.384 1.46 1.013.251.821.386 1.693.386 2.597a8.86 8.86 0 01-.616 3.256c-.226.573-.804.908-1.42.908h-.78c-.349 0-.55-.411-.37-.71.08-.13.155-.264.225-.4"/>
  </g>
  <defs>
    <clipPath id="clip0_1243_4997">
      <path fill="#fff" d="M0 0h16v16H0z" transform="rotate(-180 8 8.274)"/>
    </clipPath>
  </defs>
</svg>
