<svg xmlns="http://www.w3.org/2000/svg" fill="none" viewBox="0 0 17 17">
  <g clip-path="url(#clip0_1534_4783)">
    <path stroke="#000" stroke-linecap="round" stroke-width="1.5" d="M3.447 12.277l3.27-3.27a1.427 1.427 0 012.018 0l3.27 3.27m-.95-.95l.893-.894a1.427 1.427 0 012.018 0l1.844 1.845m-12.774.662h-.703a1 1 0 01-1-1V3.835a1 1 0 011-1h10.972a1 1 0 011 1v.6m-9.907 10.22h10.461a.951.951 0 00.951-.95v-7.61a.951.951 0 00-.951-.95H4.398a.951.951 0 00-.951.95v7.61c0 .524.425.95.95.95zm6.657-7.133h.005v.005h-.005v-.005zm.238 0a.238.238 0 11-.476 0 .238.238 0 01.476 0z"/>
  </g>
  <defs>
    <clipPath id="clip0_1534_4783">
      <path fill="#fff" d="M0 0h16v16H0z" transform="translate(.605 .793)"/>
    </clipPath>
  </defs>
</svg>
