<svg viewBox="0 0 17 17" stroke-width="1.5" stroke="currentColor" aria-hidden="true" fill="none">
  <g clip-path="url(#a)">
    <path stroke-linecap="round" d="M3.361 12.277l3.271-3.27a1.427 1.427 0 012.018 0l3.27 3.27m-.95-.95l.893-.894a1.427 1.427 0 012.018 0l1.844 1.845M2.95 12.94h-.704a1 1 0 01-1-1V3.835a1 1 0 011-1H13.22a1 1 0 011 1v.6m-9.908 10.22h10.462a.951.951 0 00.95-.95v-7.61a.951.951 0 00-.95-.95H4.312a.951.951 0 00-.95.95v7.61c0 .524.425.95.95.95zm6.658-7.133h.004v.005h-.004v-.005zm.237 0a.238.238 0 11-.475 0 .238.238 0 01.475 0z"/>
  </g>
  <defs>
    <clipPath id="a">
      <path d="M0 0h16v16H0z" transform="translate(.52 .793)"/>
    </clipPath>
  </defs>
</svg>
