<svg xmlns="http://www.w3.org/2000/svg" viewBox="0 0 16 16" fill="currentColor" aria-hidden="true">
  <g clip-path="url(#a)">
    <path fill-rule="evenodd" d="M6.347.06A1 1 0 005.08.585l-.57 1.267a1 1 0 01-.502.502l-1.268.57a1 1 0 00-.525 1.267l.493 1.3a1 1 0 010 .71L2.214 7.5a1 1 0 00.525 1.267l1.267.57a1 1 0 01.279.187.758.758 0 00-.023.09l-1 5.502a.75.75 0 001.04.82L8 14.308l3.698 1.628a.75.75 0 001.04-.82l-1-5.501a.752.752 0 00-.022-.091 1 1 0 01.277-.186l1.268-.57a1 1 0 00.525-1.267l-.494-1.3a1 1 0 010-.71l.494-1.298a1 1 0 00-.525-1.267l-1.267-.57a1 1 0 01-.502-.503l-.57-1.267A1 1 0 009.655.06l-1.3.493a1 1 0 01-.71 0L6.348.06zm-.909 11.47a1 1 0 00.907.102l1.3-.493a1 1 0 01.71 0l1.299.493a1 1 0 00.908-.101l.447 2.463-2.707-1.192a.75.75 0 00-.604 0L4.99 13.994l.447-2.463zM8 1.986a3.881 3.881 0 100 7.762 3.881 3.881 0 000-7.762z" clip-rule="evenodd"/>
  </g>
  <defs>
    <clipPath id="a">
      <path d="M0 0h16v16H0z"/>
    </clipPath>
  </defs>
</svg>
