<svg xmlns="http://www.w3.org/2000/svg" fill="none" viewBox="0 0 16 17" stroke-width="1.5" stroke="currentColor" aria-hidden="true">
  <g clip-path="url(#clip0_1243_5046)">
    <path stroke-linecap="round" stroke-linejoin="round" d="M6.67 11.78a19.47 19.47 0 00-1.676-.071h-.601a3.607 3.607 0 110-7.215h.6c.566 0 1.124-.024 1.677-.072m0 7.359c.202.77.467 1.516.789 2.231.198.441.047.97-.372 1.211l-.526.304c-.442.255-1.01.094-1.224-.37a16.706 16.706 0 01-1.154-3.432m2.487.056a14.451 14.451 0 01-.474-3.68c0-1.271.165-2.504.474-3.679m0 7.359c2.532.218 4.925.927 7.081 2.032M6.67 4.423A19.117 19.117 0 0013.75 2.39m0 0a19.036 19.036 0 00-.304-.902m.304.902c.43 1.381.707 2.83.813 4.324m-.813 7.099c-.094.304-.196.604-.304.902m.304-.902c.43-1.382.707-2.83.813-4.325m0-2.774c.398.331.65.83.65 1.387a1.8 1.8 0 01-.65 1.387m0-2.774a19.533 19.533 0 010 2.774"/>
  </g>
  <defs>
    <clipPath id="clip0_1243_5046">
      <path fill="#fff" d="M0 0h16v16H0z" transform="translate(0 .547)"/>
    </clipPath>
  </defs>
</svg>
