<svg xmlns="http://www.w3.org/2000/svg" fill="none" viewBox="0 0 17 17">
  <g clip-path="url(#clip0_1534_4758)">
    <path fill="#000" fill-rule="evenodd" d="M9.29.907a.75.75 0 00-1.275 0L3.767 7.77c-2.098 3.39-.192 7.833 3.71 8.649a5.745 5.745 0 002.352 0c3.902-.816 5.808-5.26 3.71-8.65L9.291.908zm-1.207 2.74l.57-.92 3.61 5.833c1.551 2.505.143 5.789-2.74 6.392-.574.12-1.166.12-1.74 0-2.363-.495-3.735-2.79-3.3-4.981-.054 1.633 1.047 3.207 2.813 3.569.465.095.945.095 1.41 0 2.41-.494 3.583-3.247 2.267-5.326l-2.89-4.567z" clip-rule="evenodd"/>
  </g>
  <defs>
    <clipPath id="clip0_1534_4758">
      <path fill="#fff" d="M0 0h16v16H0z" transform="translate(.653 .55)"/>
    </clipPath>
  </defs>
</svg>
