<svg xmlns="http://www.w3.org/2000/svg" fill="none" viewBox="0 0 17 17">
  <g clip-path="url(#clip0_1534_4787)">
    <path fill="#000" fill-rule="evenodd" d="M.668 3.51A2.972 2.972 0 013.64.536h2.41c.2 0 .38.078.515.205l7.908 4.566a.75.75 0 01.032 1.28l-1.566 1.01-3.436 5.952a2.75 2.75 0 01-3.757 1.006l-3.638-2.1A2.75 2.75 0 011.1 8.699L2.51 6.26a2.973 2.973 0 01-1.842-2.75zM3.64 2.036h1.307L3.274 4.936a1.473 1.473 0 01.366-2.899zm4.53 4.444H4.113L2.4 9.45a1.25 1.25 0 00.458 1.708l3.638 2.1a1.25 1.25 0 001.708-.457l3.527-6.11a.75.75 0 01.243-.255l.686-.442-6.198-3.579L4.98 4.981h3.19a.75.75 0 110 1.5zm6.774 3.133a.75.75 0 00-1.387 0l-1.489 3.627a2.36 2.36 0 104.365 0l-1.489-3.627zm-1.488 4.197l.795-1.937.794 1.937a.86.86 0 11-1.59 0z" clip-rule="evenodd"/>
  </g>
  <defs>
    <clipPath id="clip0_1534_4787">
      <path fill="#fff" d="M0 0h16v16H0z" transform="translate(.653 .55)"/>
    </clipPath>
  </defs>
</svg>
