<svg xmlns="http://www.w3.org/2000/svg" viewBox="0 0 16 16" stroke-width="1.5" stroke="currentColor" aria-hidden="true" fill="none">
  <defs>
    <clipPath id="a">
      <path d="M0 0h16v16H0z"/>
    </clipPath>
  </defs>
  <g clip-path="url(#a)">
    <path stroke-linecap="round" stroke-linejoin="round" d="M.811 4.13c0 6.107 4.952 11.059 11.06 11.059h1.659a1.66 1.66 0 001.659-1.66v-1.01a.83.83 0 00-.629-.805l-3.26-.816a.83.83 0 00-.866.308l-.715.953a.783.783 0 01-.891.28A8.874 8.874 0 013.56 7.173a.783.783 0 01.28-.891l.954-.715a.83.83 0 00.307-.865L4.286 1.44a.83.83 0 00-.805-.628h-1.01a1.66 1.66 0 00-1.66 1.66V4.13z"/>
  </g>
</svg>
