<svg xmlns="http://www.w3.org/2000/svg" fill="none" viewBox="0 0 17 17">
  <g clip-path="url(#clip0_1534_4791)">
    <path stroke="#000" stroke-width="1.5" d="M6.282 2.428l-.062-.682h-.685a.305.305 0 01-.21-.076.162.162 0 01-.058-.12v-.027c0-.073.08-.223.297-.223h6.179c.216 0 .296.15.296.223v.027a.162.162 0 01-.059.12.305.305 0 01-.208.076h-.686l-.061.682-.347 3.833-.026.286.172.23 1.545 2.07H9.395l-.097.637-.645 4.238-.644-4.238-.097-.637H4.937l1.545-2.07.172-.23-.026-.286-.346-3.833z"/>
  </g>
  <defs>
    <clipPath id="clip0_1534_4791">
      <path fill="#fff" d="M0 0h16v16H0z" transform="translate(.653 .55)"/>
    </clipPath>
  </defs>
</svg>
