<svg viewBox="0 0 16 17" stroke-width="1.5" stroke="currentColor" aria-hidden="true" fill="none">
  <g stroke-linecap="round" stroke-linejoin="round" stroke-width="1.5" clip-path="url(#a)">
    <path d="M.872 3.795c0-1.073.87-1.944 1.944-1.944H4.76c1.074 0 1.944.87 1.944 1.944V5.74c0 1.074-.87 1.944-1.944 1.944H2.816A1.944 1.944 0 01.872 5.74V3.795zm0 8.425c0-1.074.87-1.945 1.944-1.945H4.76c1.074 0 1.944.87 1.944 1.945v1.944c0 1.073-.87 1.944-1.944 1.944H2.816a1.944 1.944 0 01-1.944-1.944V12.22zm8.424-8.425c0-1.073.87-1.944 1.944-1.944h1.944c1.074 0 1.944.87 1.944 1.944V5.74c0 1.074-.87 1.944-1.944 1.944H11.24A1.944 1.944 0 019.296 5.74V3.795zm0 8.425c0-1.074.87-1.945 1.944-1.945h1.944c1.074 0 1.944.87 1.944 1.945v1.944c0 1.073-.87 1.944-1.944 1.944H11.24a1.944 1.944 0 01-1.944-1.944V12.22z"/>
  </g>
  <defs>
    <clipPath id="a">
      <path d="M0 0h16v16H0z" transform="translate(0 .98)"/>
    </clipPath>
  </defs>
</svg>
