<svg xmlns="http://www.w3.org/2000/svg" fill="none" viewBox="0 0 17 17">
  <g clip-path="url(#clip0_1534_4776)">
    <path fill="#000" d="M8.605 1.204c-.395 0-.79.215-.97.646L5.97 5.856l-4.323.346c-.931.074-1.309 1.236-.6 1.844l3.294 2.822-1.005 4.218c-.217.908.77 1.626 1.568 1.14l3.701-2.26V1.203z"/>
    <path stroke="#000" stroke-linecap="round" stroke-linejoin="round" stroke-width="1.5" d="M8.196 2.182a.443.443 0 01.819 0L10.69 6.21a.443.443 0 00.374.272l4.348.349a.443.443 0 01.253.778l-3.313 2.838a.443.443 0 00-.143.44l1.013 4.243a.443.443 0 01-.663.481l-3.723-2.274a.443.443 0 00-.462 0l-3.723 2.274a.443.443 0 01-.662-.48L5 10.886a.443.443 0 00-.143-.44L1.545 7.61a.443.443 0 01.253-.778l4.349-.35a.443.443 0 00.374-.27l1.675-4.029z"/>
  </g>
  <defs>
    <clipPath id="clip0_1534_4776">
      <path fill="#fff" d="M0 0h16v16H0z" transform="translate(.605 .793)"/>
    </clipPath>
  </defs>
</svg>
