<svg xmlns="http://www.w3.org/2000/svg" fill="none" viewBox="0 0 17 17">
  <g clip-path="url(#clip0_1534_4749)">
    <path stroke="#000" stroke-linecap="round" stroke-linejoin="round" stroke-width="1.25" d="M12.083 15.408a7.354 7.354 0 10-6.777.026M5.525 15.677l-.178-2.494m-2.86 2.711l3.037-.217"/>
    <path fill="#000" fill-rule="evenodd" d="M4.98 8.272c0-.089.003-.177.01-.265l1.7 1.159c.518.353.858.865.95 1.43l.202 1.234A3.642 3.642 0 014.98 8.272zm3.64 2.72l.082-.506a2.69 2.69 0 01.252-.772 1.271 1.271 0 01-.669 0c.123.244.208.504.252.772l.083.506zm3.642-2.72a3.642 3.642 0 01-2.865 3.559l.202-1.235c.092-.565.433-1.077.951-1.43l1.703-1.16c.006.087.01.177.01.266zm-.89-.663l-1.24.211a8.863 8.863 0 01-.398.059 1.264 1.264 0 01.15.748c.034-.026.07-.051.105-.076l1.383-.942zm-4.02.88c0 .047.002.094.007.14a3.427 3.427 0 00-.109-.078l-1.388-.946 1.312.22c.112.018.224.035.336.05a1.264 1.264 0 00-.158.614zM5.355 6.662l1.959.328a8.04 8.04 0 002.676-.004l1.898-.324a3.641 3.641 0 00-6.533 0zm-1.221 1.61a4.487 4.487 0 118.975 0 4.487 4.487 0 01-8.975 0zm4.487-.206a.423.423 0 100 .846.423.423 0 000-.846z" clip-rule="evenodd"/>
  </g>
  <defs>
    <clipPath id="clip0_1534_4749">
      <path fill="#fff" d="M0 0h16v16H0z" transform="translate(.653 .55)"/>
    </clipPath>
  </defs>
</svg>
