<svg xmlns="http://www.w3.org/2000/svg" fill="none" viewBox="0 0 16 17" stroke-width="1.5" stroke="currentColor" aria-hidden="true">
  <g clip-path="url(#clip0_1243_5101)">
    <path stroke-linecap="round" stroke-linejoin="round" d="M10.014 6.343l-.255 6.613m-3.518 0l-.255-6.613m7.325-2.359c.251.038.502.079.751.122m-.75-.122l-.786 10.201a1.653 1.653 0 01-1.648 1.527H5.122a1.653 1.653 0 01-1.649-1.527l-.784-10.2m10.622 0a35.353 35.353 0 00-2.555-.292m-8.819.413c.25-.043.5-.084.752-.122m0 0a35.358 35.358 0 012.555-.291m5.512 0V3.02c0-.867-.67-1.59-1.536-1.618a38.168 38.168 0 00-2.44 0c-.867.028-1.536.751-1.536 1.618v.673m5.512 0a35.767 35.767 0 00-5.512 0"/>
  </g>
  <defs>
    <clipPath id="clip0_1243_5101">
      <path fill="#fff" d="M0 0h16v16H0z" transform="translate(0 .547)"/>
    </clipPath>
  </defs>
</svg>
